<?xml version="1.0" encoding="UTF-8"?>
<!DOCTYPE svg PUBLIC "-//W3C//DTD SVG 1.1//EN"
    "http://www.w3.org/Graphics/SVG/1.1/DTD/svg11.dtd"><svg xmlns="http://www.w3.org/2000/svg" height="274.0385" stroke-opacity="1" viewBox="0 0 500 274" font-size="1" width="500.0000" xmlns:xlink="http://www.w3.org/1999/xlink" stroke="rgb(0,0,0)" version="1.1"><defs></defs><g stroke-linejoin="miter" stroke-opacity="1.0" fill-opacity="1.0" stroke="rgb(0,128,0)" stroke-width="5.681818181818181" fill="rgb(144,238,144)" stroke-linecap="butt" stroke-miterlimit="10.0"><path d="M 477.2727,147.9458 c 0.0000,-62.7596 -50.8767,-113.6364 -113.6364 -113.6364c -62.7596,-0.0000 -113.6364,50.8767 -113.6364 113.6364c -0.0000,62.7596 50.8767,113.6364 113.6364 113.6364c 62.7596,0.0000 113.6364,-50.8767 113.6364 -113.6364Z"/></g><g stroke-linejoin="miter" stroke-opacity="1.0" fill-opacity="1.0" stroke="rgb(0,0,255)" stroke-width="4.545454545454545" fill="rgb(173,216,230)" stroke-linecap="butt" stroke-miterlimit="10.0"><path d="M 454.5455,147.9458 c 0.0000,-50.2077 -40.7014,-90.9091 -90.9091 -90.9091c -50.2077,-0.0000 -90.9091,40.7014 -90.9091 90.9091c -0.0000,50.2077 40.7014,90.9091 90.9091 90.9091c 50.2077,0.0000 90.9091,-40.7014 90.9091 -90.9091Z"/></g><g stroke-linejoin="miter" stroke-opacity="1.0" fill-opacity="1.0" stroke="rgb(0,0,0)" stroke-width="0.0" fill="rgb(0,0,255)" stroke-linecap="butt" stroke-miterlimit="10.0"><path d="M 436.3636,153.7009 c 0.0000,-12.9729 -10.5166,-23.4896 -23.4896 -23.4896c -12.9729,-0.0000 -23.4896,10.5166 -23.4896 23.4896c -0.0000,12.9729 10.5166,23.4896 23.4896 23.4896c 12.9729,0.0000 23.4896,-10.5166 23.4896 -23.4896Z"/></g><g stroke-linejoin="miter" stroke-opacity="1.0" fill-opacity="1.0" stroke="rgb(0,0,0)" stroke-width="0.0" fill="rgb(0,128,0)" stroke-linecap="butt" stroke-miterlimit="10.0"><path d="M 389.3845,153.7009 c 0.0000,-12.9729 -10.5166,-23.4896 -23.4896 -23.4896c -12.9729,-0.0000 -23.4896,10.5166 -23.4896 23.4896c -0.0000,12.9729 10.5166,23.4896 23.4896 23.4896c 12.9729,0.0000 23.4896,-10.5166 23.4896 -23.4896Z"/></g><g stroke-linejoin="miter" stroke-opacity="1.0" fill-opacity="0.0" stroke="rgb(0,0,0)" stroke-width="1.0" fill="rgb(0,0,0)" stroke-linecap="butt" stroke-miterlimit="10.0"><path d="M 365.8950,130.2114 c 8.2816,-2.2586 16.5631,-4.5172 24.3930 -4.5172c 7.8299,0.0000 15.2080,2.2586 22.5861 4.5172"/></g><g stroke-linejoin="miter" stroke-opacity="1.0" fill-opacity="1.0" stroke="rgb(0,0,0)" stroke-width="0.0" fill="rgb(0,0,0)" stroke-linecap="butt" stroke-miterlimit="10.0"></g><g stroke-linejoin="miter" stroke-opacity="1.0" fill-opacity="1.0" stroke="rgb(0,0,0)" stroke-width="0.0" fill="rgb(0,0,0)" stroke-linecap="butt" stroke-miterlimit="10.0"></g><g stroke-linejoin="miter" stroke-opacity="1.0" fill-opacity="1.0" stroke="rgb(0,0,0)" stroke-width="0.0" fill="rgb(0,0,0)" stroke-linecap="butt" stroke-miterlimit="10.0"></g><g stroke-linejoin="miter" stroke-opacity="1.0" fill-opacity="1.0" stroke="rgb(0,0,0)" stroke-width="0.0" fill="rgb(0,0,0)" stroke-linecap="butt" stroke-miterlimit="10.0"></g><g stroke-linejoin="miter" stroke-opacity="1.0" fill-opacity="1.0" stroke="rgb(0,0,0)" stroke-width="0.0" fill="rgb(0,128,0)" stroke-linecap="butt" stroke-miterlimit="10.0"><path d="M 342.4054,151.4423 c 0.0000,-14.2203 -11.5278,-25.7482 -25.7482 -25.7482c -14.2203,-0.0000 -25.7482,11.5278 -25.7482 25.7482c -0.0000,14.2203 11.5278,25.7482 25.7482 25.7482c 14.2203,0.0000 25.7482,-11.5278 25.7482 -25.7482Z"/></g><g stroke-linejoin="miter" stroke-opacity="1.0" fill-opacity="0.0" stroke="rgb(0,0,0)" stroke-width="1.0" fill="rgb(0,0,0)" stroke-linecap="butt" stroke-miterlimit="10.0"><path d="M 316.6573,125.6941 c 12.8205,-3.4965 25.6410,-6.9930 37.7622 -6.9930c 12.1212,-0.0000 23.5431,3.4965 34.9650 6.9930"/></g><g stroke-linejoin="miter" stroke-opacity="1.0" fill-opacity="1.0" stroke="rgb(0,0,0)" stroke-width="0.0" fill="rgb(0,0,0)" stroke-linecap="butt" stroke-miterlimit="10.0"></g><g stroke-linejoin="miter" stroke-opacity="1.0" fill-opacity="1.0" stroke="rgb(0,0,0)" stroke-width="0.0" fill="rgb(0,0,0)" stroke-linecap="butt" stroke-miterlimit="10.0"></g><g stroke-linejoin="miter" stroke-opacity="1.0" fill-opacity="1.0" stroke="rgb(0,0,0)" stroke-width="0.0" fill="rgb(0,0,0)" stroke-linecap="butt" stroke-miterlimit="10.0"></g><g stroke-linejoin="miter" stroke-opacity="1.0" fill-opacity="1.0" stroke="rgb(0,0,0)" stroke-width="0.0" fill="rgb(0,0,0)" stroke-linecap="butt" stroke-miterlimit="10.0"></g><g stroke-linejoin="miter" stroke-opacity="1.0" fill-opacity="1.0" stroke="rgb(255,255,0)" stroke-width="5.681818181818181" fill="rgb(255,255,224)" stroke-linecap="butt" stroke-miterlimit="10.0"><path d="M 250.0000,147.9458 c 0.0000,-62.7596 -50.8767,-113.6364 -113.6364 -113.6364c -62.7596,-0.0000 -113.6364,50.8767 -113.6364 113.6364c -0.0000,62.7596 50.8767,113.6364 113.6364 113.6364c 62.7596,0.0000 113.6364,-50.8767 113.6364 -113.6364Z"/></g><g stroke-linejoin="miter" stroke-opacity="1.0" fill-opacity="1.0" stroke="rgb(255,0,0)" stroke-width="4.545454545454545" fill="rgb(255,192,203)" stroke-linecap="butt" stroke-miterlimit="10.0"><path d="M 227.2727,147.9458 c 0.0000,-50.2077 -40.7014,-90.9091 -90.9091 -90.9091c -50.2077,-0.0000 -90.9091,40.7014 -90.9091 90.9091c -0.0000,50.2077 40.7014,90.9091 90.9091 90.9091c 50.2077,0.0000 90.9091,-40.7014 90.9091 -90.9091Z"/></g><g stroke-linejoin="miter" stroke-opacity="1.0" fill-opacity="1.0" stroke="rgb(0,0,0)" stroke-width="0.0" fill="rgb(255,0,0)" stroke-linecap="butt" stroke-miterlimit="10.0"><path d="M 209.0909,157.1366 c 0.0000,-6.9313 -5.6189,-12.5503 -12.5503 -12.5503c -6.9313,-0.0000 -12.5503,5.6189 -12.5503 12.5503c -0.0000,6.9313 5.6189,12.5503 12.5503 12.5503c 6.9313,0.0000 12.5503,-5.6189 12.5503 -12.5503Z"/></g><g stroke-linejoin="miter" stroke-opacity="1.0" fill-opacity="1.0" stroke="rgb(0,0,0)" stroke-width="0.0" fill="rgb(255,255,0)" stroke-linecap="butt" stroke-miterlimit="10.0"><path d="M 183.9904,157.1366 c 0.0000,-6.9313 -5.6189,-12.5503 -12.5503 -12.5503c -6.9313,-0.0000 -12.5503,5.6189 -12.5503 12.5503c -0.0000,6.9313 5.6189,12.5503 12.5503 12.5503c 6.9313,0.0000 12.5503,-5.6189 12.5503 -12.5503Z"/></g><g stroke-linejoin="miter" stroke-opacity="1.0" fill-opacity="0.0" stroke="rgb(0,0,0)" stroke-width="1.0" fill="rgb(0,0,0)" stroke-linecap="butt" stroke-miterlimit="10.0"><path d="M 171.4401,144.5863 c 4.4248,-1.2068 8.8495,-2.4135 13.0330 -2.4135c 4.1834,0.0000 8.1255,1.2068 12.0676 2.4135"/></g><g stroke-linejoin="miter" stroke-opacity="1.0" fill-opacity="1.0" stroke="rgb(0,0,0)" stroke-width="0.0" fill="rgb(0,0,0)" stroke-linecap="butt" stroke-miterlimit="10.0"></g><g stroke-linejoin="miter" stroke-opacity="1.0" fill-opacity="1.0" stroke="rgb(0,0,0)" stroke-width="0.0" fill="rgb(0,0,0)" stroke-linecap="butt" stroke-miterlimit="10.0"></g><g stroke-linejoin="miter" stroke-opacity="1.0" fill-opacity="1.0" stroke="rgb(0,0,0)" stroke-width="0.0" fill="rgb(0,0,0)" stroke-linecap="butt" stroke-miterlimit="10.0"></g><g stroke-linejoin="miter" stroke-opacity="1.0" fill-opacity="1.0" stroke="rgb(0,0,0)" stroke-width="0.0" fill="rgb(0,0,0)" stroke-linecap="butt" stroke-miterlimit="10.0"></g><g stroke-linejoin="miter" stroke-opacity="1.0" fill-opacity="1.0" stroke="rgb(0,0,0)" stroke-width="0.0" fill="rgb(255,255,0)" stroke-linecap="butt" stroke-miterlimit="10.0"><path d="M 158.8898,155.9298 c 0.0000,-7.5978 -6.1592,-13.7570 -13.7570 -13.7570c -7.5978,-0.0000 -13.7570,6.1592 -13.7570 13.7570c -0.0000,7.5978 6.1592,13.7570 13.7570 13.7570c 7.5978,0.0000 13.7570,-6.1592 13.7570 -13.7570Z"/></g><g stroke-linejoin="miter" stroke-opacity="1.0" fill-opacity="0.0" stroke="rgb(0,0,0)" stroke-width="1.0" fill="rgb(0,0,0)" stroke-linecap="butt" stroke-miterlimit="10.0"><path d="M 145.1328,142.1728 c 6.8499,-1.8682 13.6998,-3.7363 20.1760 -3.7363c 6.4763,0.0000 12.5789,1.8682 18.6815 3.7363"/></g><g stroke-linejoin="miter" stroke-opacity="1.0" fill-opacity="1.0" stroke="rgb(0,0,0)" stroke-width="0.0" fill="rgb(0,0,0)" stroke-linecap="butt" stroke-miterlimit="10.0"></g><g stroke-linejoin="miter" stroke-opacity="1.0" fill-opacity="1.0" stroke="rgb(0,0,0)" stroke-width="0.0" fill="rgb(0,0,0)" stroke-linecap="butt" stroke-miterlimit="10.0"></g><g stroke-linejoin="miter" stroke-opacity="1.0" fill-opacity="1.0" stroke="rgb(0,0,0)" stroke-width="0.0" fill="rgb(0,0,0)" stroke-linecap="butt" stroke-miterlimit="10.0"></g><g stroke-linejoin="miter" stroke-opacity="1.0" fill-opacity="1.0" stroke="rgb(0,0,0)" stroke-width="0.0" fill="rgb(0,0,0)" stroke-linecap="butt" stroke-miterlimit="10.0"></g><g stroke-linejoin="miter" stroke-opacity="1.0" fill-opacity="1.0" stroke="rgb(0,0,0)" stroke-width="0.0" fill="rgb(255,255,0)" stroke-linecap="butt" stroke-miterlimit="10.0"><path d="M 131.3758,154.0617 c 0.0000,-8.6295 -6.9956,-15.6252 -15.6252 -15.6252c -8.6295,-0.0000 -15.6252,6.9956 -15.6252 15.6252c -0.0000,8.6295 6.9956,15.6252 15.6252 15.6252c 8.6295,0.0000 15.6252,-6.9956 15.6252 -15.6252Z"/></g><g stroke-linejoin="miter" stroke-opacity="1.0" fill-opacity="0.0" stroke="rgb(0,0,0)" stroke-width="1.0" fill="rgb(0,0,0)" stroke-linecap="butt" stroke-miterlimit="10.0"><path d="M 115.7506,138.4365 c 9.6043,-2.6194 19.2087,-5.2387 28.2891 -5.2387c 9.0805,0.0000 17.6370,2.6194 26.1936 5.2387"/></g><g stroke-linejoin="miter" stroke-opacity="1.0" fill-opacity="1.0" stroke="rgb(0,0,0)" stroke-width="0.0" fill="rgb(0,0,0)" stroke-linecap="butt" stroke-miterlimit="10.0"></g><g stroke-linejoin="miter" stroke-opacity="1.0" fill-opacity="1.0" stroke="rgb(0,0,0)" stroke-width="0.0" fill="rgb(0,0,0)" stroke-linecap="butt" stroke-miterlimit="10.0"></g><g stroke-linejoin="miter" stroke-opacity="1.0" fill-opacity="1.0" stroke="rgb(0,0,0)" stroke-width="0.0" fill="rgb(0,0,0)" stroke-linecap="butt" stroke-miterlimit="10.0"></g><g stroke-linejoin="miter" stroke-opacity="1.0" fill-opacity="1.0" stroke="rgb(0,0,0)" stroke-width="0.0" fill="rgb(0,0,0)" stroke-linecap="butt" stroke-miterlimit="10.0"></g><g stroke-linejoin="miter" stroke-opacity="1.0" fill-opacity="1.0" stroke="rgb(0,0,0)" stroke-width="0.0" fill="rgb(255,255,0)" stroke-linecap="butt" stroke-miterlimit="10.0"><path d="M 100.1254,151.4423 c 0.0000,-10.0762 -8.1684,-18.2445 -18.2445 -18.2445c -10.0762,-0.0000 -18.2445,8.1684 -18.2445 18.2445c -0.0000,10.0762 8.1684,18.2445 18.2445 18.2445c 10.0762,0.0000 18.2445,-8.1684 18.2445 -18.2445Z"/></g><g stroke-linejoin="miter" stroke-opacity="1.0" fill-opacity="0.0" stroke="rgb(0,0,0)" stroke-width="1.0" fill="rgb(0,0,0)" stroke-linecap="butt" stroke-miterlimit="10.0"><path d="M 81.8809,133.1978 c 12.8205,-3.4965 25.6410,-6.9930 37.7622 -6.9930c 12.1212,-0.0000 23.5431,3.4965 34.9650 6.9930"/></g><g stroke-linejoin="miter" stroke-opacity="1.0" fill-opacity="1.0" stroke="rgb(0,0,0)" stroke-width="0.0" fill="rgb(0,0,0)" stroke-linecap="butt" stroke-miterlimit="10.0"></g><g stroke-linejoin="miter" stroke-opacity="1.0" fill-opacity="1.0" stroke="rgb(0,0,0)" stroke-width="0.0" fill="rgb(0,0,0)" stroke-linecap="butt" stroke-miterlimit="10.0"></g><g stroke-linejoin="miter" stroke-opacity="1.0" fill-opacity="1.0" stroke="rgb(0,0,0)" stroke-width="0.0" fill="rgb(0,0,0)" stroke-linecap="butt" stroke-miterlimit="10.0"></g><g stroke-linejoin="miter" stroke-opacity="1.0" fill-opacity="1.0" stroke="rgb(0,0,0)" stroke-width="0.0" fill="rgb(0,0,0)" stroke-linecap="butt" stroke-miterlimit="10.0"></g><g stroke-linejoin="miter" stroke-opacity="1.0" fill-opacity="0.0" stroke="rgb(0,0,0)" stroke-width="1.0" fill="rgb(0,0,0)" stroke-linecap="butt" stroke-miterlimit="10.0"><path d="M 136.3636,34.3094 c 40.0641,-10.9266 80.1282,-21.8531 118.0070 -21.8531c 37.8788,-0.0000 73.5723,10.9266 109.2657 21.8531"/></g><g stroke-linejoin="miter" stroke-opacity="1.0" fill-opacity="1.0" stroke="rgb(0,0,0)" stroke-width="0.0" fill="rgb(0,0,0)" stroke-linecap="butt" stroke-miterlimit="10.0"></g><g stroke-linejoin="miter" stroke-opacity="1.0" fill-opacity="1.0" stroke="rgb(0,0,0)" stroke-width="0.0" fill="rgb(0,0,0)" stroke-linecap="butt" stroke-miterlimit="10.0"></g><g stroke-linejoin="miter" stroke-opacity="1.0" fill-opacity="1.0" stroke="rgb(0,0,0)" stroke-width="0.0" fill="rgb(0,0,0)" stroke-linecap="butt" stroke-miterlimit="10.0"></g><g stroke-linejoin="miter" stroke-opacity="1.0" fill-opacity="1.0" stroke="rgb(0,0,0)" stroke-width="0.0" fill="rgb(0,0,0)" stroke-linecap="butt" stroke-miterlimit="10.0"></g></svg>