<?xml version="1.0" encoding="UTF-8"?>
<!DOCTYPE svg PUBLIC "-//W3C//DTD SVG 1.1//EN"
    "http://www.w3.org/Graphics/SVG/1.1/DTD/svg11.dtd"><svg xmlns="http://www.w3.org/2000/svg" height="500.0000" stroke-opacity="1" viewBox="0 0 500 500" font-size="1" width="500.0000" xmlns:xlink="http://www.w3.org/1999/xlink" stroke="rgb(0,0,0)" version="1.1"><defs></defs><g stroke-linejoin="miter" stroke-opacity="1.0" fill-opacity="1.0" stroke="rgb(255,0,0)" stroke-width="11.363636363636367" fill="rgb(255,192,203)" stroke-linecap="butt" stroke-miterlimit="10.0"><path d="M 477.2727,250.0000 c 0.0000,-125.5193 -101.7535,-227.2727 -227.2727 -227.2727c -125.5193,-0.0000 -227.2727,101.7535 -227.2727 227.2727c -0.0000,125.5193 101.7535,227.2727 227.2727 227.2727c 125.5193,0.0000 227.2727,-101.7535 227.2727 -227.2727Z"/></g><g stroke-linejoin="miter" stroke-opacity="1.0" fill-opacity="1.0" stroke="rgb(0,0,0)" stroke-width="0.0" fill="rgb(255,0,0)" stroke-linecap="butt" stroke-miterlimit="10.0"><path d="M 431.8182,272.9769 c 0.0000,-17.3283 -14.0474,-31.3757 -31.3757 -31.3757c -17.3283,-0.0000 -31.3757,14.0474 -31.3757 31.3757c -0.0000,17.3283 14.0474,31.3757 31.3757 31.3757c 17.3283,0.0000 31.3757,-14.0474 31.3757 -31.3757Z"/></g><g stroke-linejoin="miter" stroke-opacity="1.0" fill-opacity="1.0" stroke="rgb(0,128,0)" stroke-width="1.5687834322018832" fill="rgb(144,238,144)" stroke-linecap="butt" stroke-miterlimit="10.0"><path d="M 369.0668,272.9769 c 0.0000,-17.3283 -14.0474,-31.3757 -31.3757 -31.3757c -17.3283,-0.0000 -31.3757,14.0474 -31.3757 31.3757c -0.0000,17.3283 14.0474,31.3757 31.3757 31.3757c 17.3283,0.0000 31.3757,-14.0474 31.3757 -31.3757Z"/></g><g stroke-linejoin="miter" stroke-opacity="1.0" fill-opacity="1.0" stroke="rgb(0,0,255)" stroke-width="1.2550267457615067" fill="rgb(173,216,230)" stroke-linecap="butt" stroke-miterlimit="10.0"><path d="M 362.7917,272.9769 c 0.0000,-13.8626 -11.2379,-25.1005 -25.1005 -25.1005c -13.8626,-0.0000 -25.1005,11.2379 -25.1005 25.1005c -0.0000,13.8626 11.2379,25.1005 25.1005 25.1005c 13.8626,0.0000 25.1005,-11.2379 25.1005 -25.1005Z"/></g><g stroke-linejoin="miter" stroke-opacity="1.0" fill-opacity="1.0" stroke="rgb(0,0,0)" stroke-width="0.0" fill="rgb(0,0,255)" stroke-linecap="butt" stroke-miterlimit="10.0"><path d="M 357.7716,274.5660 c 0.0000,-3.5819 -2.9037,-6.4856 -6.4856 -6.4856c -3.5819,-0.0000 -6.4856,2.9037 -6.4856 6.4856c -0.0000,3.5819 2.9037,6.4856 6.4856 6.4856c 3.5819,0.0000 6.4856,-2.9037 6.4856 -6.4856Z"/></g><g stroke-linejoin="miter" stroke-opacity="1.0" fill-opacity="1.0" stroke="rgb(0,0,0)" stroke-width="0.0" fill="rgb(0,128,0)" stroke-linecap="butt" stroke-miterlimit="10.0"><path d="M 344.8004,274.5660 c 0.0000,-3.5819 -2.9037,-6.4856 -6.4856 -6.4856c -3.5819,-0.0000 -6.4856,2.9037 -6.4856 6.4856c -0.0000,3.5819 2.9037,6.4856 6.4856 6.4856c 3.5819,0.0000 6.4856,-2.9037 6.4856 -6.4856Z"/></g><g stroke-linejoin="miter" stroke-opacity="1.0" fill-opacity="0.0" stroke="rgb(0,0,0)" stroke-width="1.0" fill="rgb(0,0,0)" stroke-linecap="butt" stroke-miterlimit="10.0"><path d="M 338.3148,268.0804 c 2.2866,-0.6236 4.5732,-1.2472 6.7351 -1.2472c 2.1619,0.0000 4.1990,0.6236 6.2362 1.2472"/></g><g stroke-linejoin="miter" stroke-opacity="1.0" fill-opacity="1.0" stroke="rgb(0,0,0)" stroke-width="0.0" fill="rgb(0,0,0)" stroke-linecap="butt" stroke-miterlimit="10.0"></g><g stroke-linejoin="miter" stroke-opacity="1.0" fill-opacity="1.0" stroke="rgb(0,0,0)" stroke-width="0.0" fill="rgb(0,0,0)" stroke-linecap="butt" stroke-miterlimit="10.0"></g><g stroke-linejoin="miter" stroke-opacity="1.0" fill-opacity="1.0" stroke="rgb(0,0,0)" stroke-width="0.0" fill="rgb(0,0,0)" stroke-linecap="butt" stroke-miterlimit="10.0"></g><g stroke-linejoin="miter" stroke-opacity="1.0" fill-opacity="1.0" stroke="rgb(0,0,0)" stroke-width="0.0" fill="rgb(0,0,0)" stroke-linecap="butt" stroke-miterlimit="10.0"></g><g stroke-linejoin="miter" stroke-opacity="1.0" fill-opacity="1.0" stroke="rgb(0,0,0)" stroke-width="0.0" fill="rgb(0,128,0)" stroke-linecap="butt" stroke-miterlimit="10.0"><path d="M 331.8292,273.9423 c 0.0000,-3.9263 -3.1829,-7.1092 -7.1092 -7.1092c -3.9263,-0.0000 -7.1092,3.1829 -7.1092 7.1092c -0.0000,3.9263 3.1829,7.1092 7.1092 7.1092c 3.9263,0.0000 7.1092,-3.1829 7.1092 -7.1092Z"/></g><g stroke-linejoin="miter" stroke-opacity="1.0" fill-opacity="0.0" stroke="rgb(0,0,0)" stroke-width="1.0" fill="rgb(0,0,0)" stroke-linecap="butt" stroke-miterlimit="10.0"><path d="M 324.7200,266.8331 c 3.5398,-0.9654 7.0796,-1.9308 10.4264 -1.9308c 3.3467,-0.0000 6.5004,0.9654 9.6541 1.9308"/></g><g stroke-linejoin="miter" stroke-opacity="1.0" fill-opacity="1.0" stroke="rgb(0,0,0)" stroke-width="0.0" fill="rgb(0,0,0)" stroke-linecap="butt" stroke-miterlimit="10.0"></g><g stroke-linejoin="miter" stroke-opacity="1.0" fill-opacity="1.0" stroke="rgb(0,0,0)" stroke-width="0.0" fill="rgb(0,0,0)" stroke-linecap="butt" stroke-miterlimit="10.0"></g><g stroke-linejoin="miter" stroke-opacity="1.0" fill-opacity="1.0" stroke="rgb(0,0,0)" stroke-width="0.0" fill="rgb(0,0,0)" stroke-linecap="butt" stroke-miterlimit="10.0"></g><g stroke-linejoin="miter" stroke-opacity="1.0" fill-opacity="1.0" stroke="rgb(0,0,0)" stroke-width="0.0" fill="rgb(0,0,0)" stroke-linecap="butt" stroke-miterlimit="10.0"></g><g stroke-linejoin="miter" stroke-opacity="1.0" fill-opacity="0.0" stroke="rgb(0,0,0)" stroke-width="1.0" fill="rgb(0,0,0)" stroke-linecap="butt" stroke-miterlimit="10.0"><path d="M 337.6912,241.6013 c 11.0619,-3.0169 22.1239,-6.0338 32.5824 -6.0338c 10.4586,0.0000 20.3137,3.0169 30.1689 6.0338"/></g><g stroke-linejoin="miter" stroke-opacity="1.0" fill-opacity="1.0" stroke="rgb(0,0,0)" stroke-width="0.0" fill="rgb(0,0,0)" stroke-linecap="butt" stroke-miterlimit="10.0"></g><g stroke-linejoin="miter" stroke-opacity="1.0" fill-opacity="1.0" stroke="rgb(0,0,0)" stroke-width="0.0" fill="rgb(0,0,0)" stroke-linecap="butt" stroke-miterlimit="10.0"></g><g stroke-linejoin="miter" stroke-opacity="1.0" fill-opacity="1.0" stroke="rgb(0,0,0)" stroke-width="0.0" fill="rgb(0,0,0)" stroke-linecap="butt" stroke-miterlimit="10.0"></g><g stroke-linejoin="miter" stroke-opacity="1.0" fill-opacity="1.0" stroke="rgb(0,0,0)" stroke-width="0.0" fill="rgb(0,0,0)" stroke-linecap="butt" stroke-miterlimit="10.0"></g><g stroke-linejoin="miter" stroke-opacity="1.0" fill-opacity="1.0" stroke="rgb(0,128,0)" stroke-width="1.7196279929905256" fill="rgb(144,238,144)" stroke-linecap="butt" stroke-miterlimit="10.0"><path d="M 306.3155,269.9600 c 0.0000,-18.9945 -15.3981,-34.3926 -34.3926 -34.3926c -18.9945,-0.0000 -34.3926,15.3981 -34.3926 34.3926c -0.0000,18.9945 15.3981,34.3926 34.3926 34.3926c 18.9945,0.0000 34.3926,-15.3981 34.3926 -34.3926Z"/></g><g stroke-linejoin="miter" stroke-opacity="1.0" fill-opacity="1.0" stroke="rgb(0,0,255)" stroke-width="1.375702394392421" fill="rgb(173,216,230)" stroke-linecap="butt" stroke-miterlimit="10.0"><path d="M 299.4370,269.9600 c 0.0000,-15.1956 -12.3185,-27.5140 -27.5140 -27.5140c -15.1956,-0.0000 -27.5140,12.3185 -27.5140 27.5140c -0.0000,15.1956 12.3185,27.5140 27.5140 27.5140c 15.1956,0.0000 27.5140,-12.3185 27.5140 -27.5140Z"/></g><g stroke-linejoin="miter" stroke-opacity="1.0" fill-opacity="1.0" stroke="rgb(0,0,0)" stroke-width="0.0" fill="rgb(0,0,255)" stroke-linecap="butt" stroke-miterlimit="10.0"><path d="M 293.9342,271.7019 c 0.0000,-3.9263 -3.1829,-7.1092 -7.1092 -7.1092c -3.9263,-0.0000 -7.1092,3.1829 -7.1092 7.1092c -0.0000,3.9263 3.1829,7.1092 7.1092 7.1092c 3.9263,0.0000 7.1092,-3.1829 7.1092 -7.1092Z"/></g><g stroke-linejoin="miter" stroke-opacity="1.0" fill-opacity="1.0" stroke="rgb(0,0,0)" stroke-width="0.0" fill="rgb(0,128,0)" stroke-linecap="butt" stroke-miterlimit="10.0"><path d="M 279.7157,271.7019 c 0.0000,-3.9263 -3.1829,-7.1092 -7.1092 -7.1092c -3.9263,-0.0000 -7.1092,3.1829 -7.1092 7.1092c -0.0000,3.9263 3.1829,7.1092 7.1092 7.1092c 3.9263,0.0000 7.1092,-3.1829 7.1092 -7.1092Z"/></g><g stroke-linejoin="miter" stroke-opacity="1.0" fill-opacity="0.0" stroke="rgb(0,0,0)" stroke-width="1.0" fill="rgb(0,0,0)" stroke-linecap="butt" stroke-miterlimit="10.0"><path d="M 272.6065,264.5926 c 2.5065,-0.6836 5.0129,-1.3672 7.3827 -1.3672c 2.3697,0.0000 4.6028,0.6836 6.8358 1.3672"/></g><g stroke-linejoin="miter" stroke-opacity="1.0" fill-opacity="1.0" stroke="rgb(0,0,0)" stroke-width="0.0" fill="rgb(0,0,0)" stroke-linecap="butt" stroke-miterlimit="10.0"></g><g stroke-linejoin="miter" stroke-opacity="1.0" fill-opacity="1.0" stroke="rgb(0,0,0)" stroke-width="0.0" fill="rgb(0,0,0)" stroke-linecap="butt" stroke-miterlimit="10.0"></g><g stroke-linejoin="miter" stroke-opacity="1.0" fill-opacity="1.0" stroke="rgb(0,0,0)" stroke-width="0.0" fill="rgb(0,0,0)" stroke-linecap="butt" stroke-miterlimit="10.0"></g><g stroke-linejoin="miter" stroke-opacity="1.0" fill-opacity="1.0" stroke="rgb(0,0,0)" stroke-width="0.0" fill="rgb(0,0,0)" stroke-linecap="butt" stroke-miterlimit="10.0"></g><g stroke-linejoin="miter" stroke-opacity="1.0" fill-opacity="1.0" stroke="rgb(0,0,0)" stroke-width="0.0" fill="rgb(0,128,0)" stroke-linecap="butt" stroke-miterlimit="10.0"><path d="M 265.4973,271.0183 c 0.0000,-4.3038 -3.4890,-7.7928 -7.7928 -7.7928c -4.3038,-0.0000 -7.7928,3.4890 -7.7928 7.7928c -0.0000,4.3038 3.4890,7.7928 7.7928 7.7928c 4.3038,0.0000 7.7928,-3.4890 7.7928 -7.7928Z"/></g><g stroke-linejoin="miter" stroke-opacity="1.0" fill-opacity="0.0" stroke="rgb(0,0,0)" stroke-width="1.0" fill="rgb(0,0,0)" stroke-linecap="butt" stroke-miterlimit="10.0"><path d="M 257.7045,263.2255 c 3.8802,-1.0582 7.7604,-2.1165 11.4289 -2.1165c 3.6685,0.0000 7.1254,1.0582 10.5823 2.1165"/></g><g stroke-linejoin="miter" stroke-opacity="1.0" fill-opacity="1.0" stroke="rgb(0,0,0)" stroke-width="0.0" fill="rgb(0,0,0)" stroke-linecap="butt" stroke-miterlimit="10.0"></g><g stroke-linejoin="miter" stroke-opacity="1.0" fill-opacity="1.0" stroke="rgb(0,0,0)" stroke-width="0.0" fill="rgb(0,0,0)" stroke-linecap="butt" stroke-miterlimit="10.0"></g><g stroke-linejoin="miter" stroke-opacity="1.0" fill-opacity="1.0" stroke="rgb(0,0,0)" stroke-width="0.0" fill="rgb(0,0,0)" stroke-linecap="butt" stroke-miterlimit="10.0"></g><g stroke-linejoin="miter" stroke-opacity="1.0" fill-opacity="1.0" stroke="rgb(0,0,0)" stroke-width="0.0" fill="rgb(0,0,0)" stroke-linecap="butt" stroke-miterlimit="10.0"></g><g stroke-linejoin="miter" stroke-opacity="1.0" fill-opacity="0.0" stroke="rgb(0,0,0)" stroke-width="1.0" fill="rgb(0,0,0)" stroke-linecap="butt" stroke-miterlimit="10.0"><path d="M 271.9229,235.5675 c 17.1247,-4.6704 34.2495,-9.3408 50.4401 -9.3408c 16.1906,0.0000 31.4472,4.6704 46.7038 9.3408"/></g><g stroke-linejoin="miter" stroke-opacity="1.0" fill-opacity="1.0" stroke="rgb(0,0,0)" stroke-width="0.0" fill="rgb(0,0,0)" stroke-linecap="butt" stroke-miterlimit="10.0"></g><g stroke-linejoin="miter" stroke-opacity="1.0" fill-opacity="1.0" stroke="rgb(0,0,0)" stroke-width="0.0" fill="rgb(0,0,0)" stroke-linecap="butt" stroke-miterlimit="10.0"></g><g stroke-linejoin="miter" stroke-opacity="1.0" fill-opacity="1.0" stroke="rgb(0,0,0)" stroke-width="0.0" fill="rgb(0,0,0)" stroke-linecap="butt" stroke-miterlimit="10.0"></g><g stroke-linejoin="miter" stroke-opacity="1.0" fill-opacity="1.0" stroke="rgb(0,0,0)" stroke-width="0.0" fill="rgb(0,0,0)" stroke-linecap="butt" stroke-miterlimit="10.0"></g><g stroke-linejoin="miter" stroke-opacity="1.0" fill-opacity="1.0" stroke="rgb(0,128,0)" stroke-width="1.953146976519098" fill="rgb(144,238,144)" stroke-linecap="butt" stroke-miterlimit="10.0"><path d="M 237.5304,265.2897 c 0.0000,-21.5739 -17.4891,-39.0629 -39.0629 -39.0629c -21.5739,-0.0000 -39.0629,17.4891 -39.0629 39.0629c -0.0000,21.5739 17.4891,39.0629 39.0629 39.0629c 21.5739,0.0000 39.0629,-17.4891 39.0629 -39.0629Z"/></g><g stroke-linejoin="miter" stroke-opacity="1.0" fill-opacity="1.0" stroke="rgb(0,0,255)" stroke-width="1.5625175812152785" fill="rgb(173,216,230)" stroke-linecap="butt" stroke-miterlimit="10.0"><path d="M 229.7178,265.2897 c 0.0000,-17.2591 -13.9913,-31.2504 -31.2504 -31.2504c -17.2591,-0.0000 -31.2504,13.9913 -31.2504 31.2504c -0.0000,17.2591 13.9913,31.2504 31.2504 31.2504c 17.2591,0.0000 31.2504,-13.9913 31.2504 -31.2504Z"/></g><g stroke-linejoin="miter" stroke-opacity="1.0" fill-opacity="1.0" stroke="rgb(0,0,0)" stroke-width="0.0" fill="rgb(0,0,255)" stroke-linecap="butt" stroke-miterlimit="10.0"><path d="M 223.4677,267.2680 c 0.0000,-4.4595 -3.6151,-8.0746 -8.0746 -8.0746c -4.4595,-0.0000 -8.0746,3.6151 -8.0746 8.0746c -0.0000,4.4595 3.6151,8.0746 8.0746 8.0746c 4.4595,0.0000 8.0746,-3.6151 8.0746 -8.0746Z"/></g><g stroke-linejoin="miter" stroke-opacity="1.0" fill-opacity="1.0" stroke="rgb(0,0,0)" stroke-width="0.0" fill="rgb(0,128,0)" stroke-linecap="butt" stroke-miterlimit="10.0"><path d="M 207.3185,267.2680 c 0.0000,-4.4595 -3.6151,-8.0746 -8.0746 -8.0746c -4.4595,-0.0000 -8.0746,3.6151 -8.0746 8.0746c -0.0000,4.4595 3.6151,8.0746 8.0746 8.0746c 4.4595,0.0000 8.0746,-3.6151 8.0746 -8.0746Z"/></g><g stroke-linejoin="miter" stroke-opacity="1.0" fill-opacity="0.0" stroke="rgb(0,0,0)" stroke-width="1.0" fill="rgb(0,0,0)" stroke-linecap="butt" stroke-miterlimit="10.0"><path d="M 199.2439,259.1934 c 2.8468,-0.7764 5.6936,-1.5528 8.3852 -1.5528c 2.6915,0.0000 5.2278,0.7764 7.7641 1.5528"/></g><g stroke-linejoin="miter" stroke-opacity="1.0" fill-opacity="1.0" stroke="rgb(0,0,0)" stroke-width="0.0" fill="rgb(0,0,0)" stroke-linecap="butt" stroke-miterlimit="10.0"></g><g stroke-linejoin="miter" stroke-opacity="1.0" fill-opacity="1.0" stroke="rgb(0,0,0)" stroke-width="0.0" fill="rgb(0,0,0)" stroke-linecap="butt" stroke-miterlimit="10.0"></g><g stroke-linejoin="miter" stroke-opacity="1.0" fill-opacity="1.0" stroke="rgb(0,0,0)" stroke-width="0.0" fill="rgb(0,0,0)" stroke-linecap="butt" stroke-miterlimit="10.0"></g><g stroke-linejoin="miter" stroke-opacity="1.0" fill-opacity="1.0" stroke="rgb(0,0,0)" stroke-width="0.0" fill="rgb(0,0,0)" stroke-linecap="butt" stroke-miterlimit="10.0"></g><g stroke-linejoin="miter" stroke-opacity="1.0" fill-opacity="1.0" stroke="rgb(0,0,0)" stroke-width="0.0" fill="rgb(0,128,0)" stroke-linecap="butt" stroke-miterlimit="10.0"><path d="M 191.1692,266.4916 c 0.0000,-4.8883 -3.9627,-8.8510 -8.8510 -8.8510c -4.8883,-0.0000 -8.8510,3.9627 -8.8510 8.8510c -0.0000,4.8883 3.9627,8.8510 8.8510 8.8510c 4.8883,0.0000 8.8510,-3.9627 8.8510 -8.8510Z"/></g><g stroke-linejoin="miter" stroke-opacity="1.0" fill-opacity="0.0" stroke="rgb(0,0,0)" stroke-width="1.0" fill="rgb(0,0,0)" stroke-linecap="butt" stroke-miterlimit="10.0"><path d="M 182.3182,257.6406 c 4.4071,-1.2019 8.8142,-2.4039 12.9809 -2.4039c 4.1667,-0.0000 8.0930,1.2019 12.0194 2.4039"/></g><g stroke-linejoin="miter" stroke-opacity="1.0" fill-opacity="1.0" stroke="rgb(0,0,0)" stroke-width="0.0" fill="rgb(0,0,0)" stroke-linecap="butt" stroke-miterlimit="10.0"></g><g stroke-linejoin="miter" stroke-opacity="1.0" fill-opacity="1.0" stroke="rgb(0,0,0)" stroke-width="0.0" fill="rgb(0,0,0)" stroke-linecap="butt" stroke-miterlimit="10.0"></g><g stroke-linejoin="miter" stroke-opacity="1.0" fill-opacity="1.0" stroke="rgb(0,0,0)" stroke-width="0.0" fill="rgb(0,0,0)" stroke-linecap="butt" stroke-miterlimit="10.0"></g><g stroke-linejoin="miter" stroke-opacity="1.0" fill-opacity="1.0" stroke="rgb(0,0,0)" stroke-width="0.0" fill="rgb(0,0,0)" stroke-linecap="butt" stroke-miterlimit="10.0"></g><g stroke-linejoin="miter" stroke-opacity="1.0" fill-opacity="0.0" stroke="rgb(0,0,0)" stroke-width="1.0" fill="rgb(0,0,0)" stroke-linecap="butt" stroke-miterlimit="10.0"><path d="M 198.4674,226.2267 c 24.0108,-6.5484 48.0216,-13.0968 70.7228 -13.0968c 22.7011,0.0000 44.0926,6.5484 65.4841 13.0968"/></g><g stroke-linejoin="miter" stroke-opacity="1.0" fill-opacity="1.0" stroke="rgb(0,0,0)" stroke-width="0.0" fill="rgb(0,0,0)" stroke-linecap="butt" stroke-miterlimit="10.0"></g><g stroke-linejoin="miter" stroke-opacity="1.0" fill-opacity="1.0" stroke="rgb(0,0,0)" stroke-width="0.0" fill="rgb(0,0,0)" stroke-linecap="butt" stroke-miterlimit="10.0"></g><g stroke-linejoin="miter" stroke-opacity="1.0" fill-opacity="1.0" stroke="rgb(0,0,0)" stroke-width="0.0" fill="rgb(0,0,0)" stroke-linecap="butt" stroke-miterlimit="10.0"></g><g stroke-linejoin="miter" stroke-opacity="1.0" fill-opacity="1.0" stroke="rgb(0,0,0)" stroke-width="0.0" fill="rgb(0,0,0)" stroke-linecap="butt" stroke-miterlimit="10.0"></g><g stroke-linejoin="miter" stroke-opacity="1.0" fill-opacity="1.0" stroke="rgb(0,128,0)" stroke-width="2.280567256995703" fill="rgb(144,238,144)" stroke-linecap="butt" stroke-miterlimit="10.0"><path d="M 159.4045,258.7413 c 0.0000,-25.1905 -20.4209,-45.6113 -45.6113 -45.6113c -25.1905,-0.0000 -45.6113,20.4209 -45.6113 45.6113c -0.0000,25.1905 20.4209,45.6113 45.6113 45.6113c 25.1905,0.0000 45.6113,-20.4209 45.6113 -45.6113Z"/></g><g stroke-linejoin="miter" stroke-opacity="1.0" fill-opacity="1.0" stroke="rgb(0,0,255)" stroke-width="1.8244538055965625" fill="rgb(173,216,230)" stroke-linecap="butt" stroke-miterlimit="10.0"><path d="M 150.2822,258.7413 c 0.0000,-20.1524 -16.3367,-36.4891 -36.4891 -36.4891c -20.1524,-0.0000 -36.4891,16.3367 -36.4891 36.4891c -0.0000,20.1524 16.3367,36.4891 36.4891 36.4891c 20.1524,0.0000 36.4891,-16.3367 36.4891 -36.4891Z"/></g><g stroke-linejoin="miter" stroke-opacity="1.0" fill-opacity="1.0" stroke="rgb(0,0,0)" stroke-width="0.0" fill="rgb(0,0,255)" stroke-linecap="butt" stroke-miterlimit="10.0"><path d="M 142.9844,261.0512 c 0.0000,-5.2071 -4.2212,-9.4282 -9.4282 -9.4282c -5.2071,-0.0000 -9.4282,4.2212 -9.4282 9.4282c -0.0000,5.2071 4.2212,9.4282 9.4282 9.4282c 5.2071,0.0000 9.4282,-4.2212 9.4282 -9.4282Z"/></g><g stroke-linejoin="miter" stroke-opacity="1.0" fill-opacity="1.0" stroke="rgb(0,0,0)" stroke-width="0.0" fill="rgb(0,128,0)" stroke-linecap="butt" stroke-miterlimit="10.0"><path d="M 124.1280,261.0512 c 0.0000,-5.2071 -4.2212,-9.4282 -9.4282 -9.4282c -5.2071,-0.0000 -9.4282,4.2212 -9.4282 9.4282c -0.0000,5.2071 4.2212,9.4282 9.4282 9.4282c 5.2071,0.0000 9.4282,-4.2212 9.4282 -9.4282Z"/></g><g stroke-linejoin="miter" stroke-opacity="1.0" fill-opacity="0.0" stroke="rgb(0,0,0)" stroke-width="1.0" fill="rgb(0,0,0)" stroke-linecap="butt" stroke-miterlimit="10.0"><path d="M 114.6997,251.6230 c 3.3241,-0.9066 6.6481,-1.8131 9.7909 -1.8131c 3.1427,0.0000 6.1042,0.9066 9.0656 1.8131"/></g><g stroke-linejoin="miter" stroke-opacity="1.0" fill-opacity="1.0" stroke="rgb(0,0,0)" stroke-width="0.0" fill="rgb(0,0,0)" stroke-linecap="butt" stroke-miterlimit="10.0"></g><g stroke-linejoin="miter" stroke-opacity="1.0" fill-opacity="1.0" stroke="rgb(0,0,0)" stroke-width="0.0" fill="rgb(0,0,0)" stroke-linecap="butt" stroke-miterlimit="10.0"></g><g stroke-linejoin="miter" stroke-opacity="1.0" fill-opacity="1.0" stroke="rgb(0,0,0)" stroke-width="0.0" fill="rgb(0,0,0)" stroke-linecap="butt" stroke-miterlimit="10.0"></g><g stroke-linejoin="miter" stroke-opacity="1.0" fill-opacity="1.0" stroke="rgb(0,0,0)" stroke-width="0.0" fill="rgb(0,0,0)" stroke-linecap="butt" stroke-miterlimit="10.0"></g><g stroke-linejoin="miter" stroke-opacity="1.0" fill-opacity="1.0" stroke="rgb(0,0,0)" stroke-width="0.0" fill="rgb(0,128,0)" stroke-linecap="butt" stroke-miterlimit="10.0"><path d="M 105.2715,260.1447 c 0.0000,-5.7077 -4.6270,-10.3348 -10.3348 -10.3348c -5.7077,-0.0000 -10.3348,4.6270 -10.3348 10.3348c -0.0000,5.7077 4.6270,10.3348 10.3348 10.3348c 5.7077,0.0000 10.3348,-4.6270 10.3348 -10.3348Z"/></g><g stroke-linejoin="miter" stroke-opacity="1.0" fill-opacity="0.0" stroke="rgb(0,0,0)" stroke-width="1.0" fill="rgb(0,0,0)" stroke-linecap="butt" stroke-miterlimit="10.0"><path d="M 94.9367,249.8099 c 5.1459,-1.4034 10.2918,-2.8069 15.1570 -2.8069c 4.8652,-0.0000 9.4497,1.4034 14.0343 2.8069"/></g><g stroke-linejoin="miter" stroke-opacity="1.0" fill-opacity="1.0" stroke="rgb(0,0,0)" stroke-width="0.0" fill="rgb(0,0,0)" stroke-linecap="butt" stroke-miterlimit="10.0"></g><g stroke-linejoin="miter" stroke-opacity="1.0" fill-opacity="1.0" stroke="rgb(0,0,0)" stroke-width="0.0" fill="rgb(0,0,0)" stroke-linecap="butt" stroke-miterlimit="10.0"></g><g stroke-linejoin="miter" stroke-opacity="1.0" fill-opacity="1.0" stroke="rgb(0,0,0)" stroke-width="0.0" fill="rgb(0,0,0)" stroke-linecap="butt" stroke-miterlimit="10.0"></g><g stroke-linejoin="miter" stroke-opacity="1.0" fill-opacity="1.0" stroke="rgb(0,0,0)" stroke-width="0.0" fill="rgb(0,0,0)" stroke-linecap="butt" stroke-miterlimit="10.0"></g><g stroke-linejoin="miter" stroke-opacity="1.0" fill-opacity="0.0" stroke="rgb(0,0,0)" stroke-width="1.0" fill="rgb(0,0,0)" stroke-linecap="butt" stroke-miterlimit="10.0"><path d="M 113.7932,213.1299 c 32.0513,-8.7413 64.1026,-17.4825 94.4056 -17.4825c 30.3030,-0.0000 58.8578,8.7413 87.4126 17.4825"/></g><g stroke-linejoin="miter" stroke-opacity="1.0" fill-opacity="1.0" stroke="rgb(0,0,0)" stroke-width="0.0" fill="rgb(0,0,0)" stroke-linecap="butt" stroke-miterlimit="10.0"></g><g stroke-linejoin="miter" stroke-opacity="1.0" fill-opacity="1.0" stroke="rgb(0,0,0)" stroke-width="0.0" fill="rgb(0,0,0)" stroke-linecap="butt" stroke-miterlimit="10.0"></g><g stroke-linejoin="miter" stroke-opacity="1.0" fill-opacity="1.0" stroke="rgb(0,0,0)" stroke-width="0.0" fill="rgb(0,0,0)" stroke-linecap="butt" stroke-miterlimit="10.0"></g><g stroke-linejoin="miter" stroke-opacity="1.0" fill-opacity="1.0" stroke="rgb(0,0,0)" stroke-width="0.0" fill="rgb(0,0,0)" stroke-linecap="butt" stroke-miterlimit="10.0"></g></svg>