<?xml version="1.0" encoding="UTF-8"?>
<!DOCTYPE svg PUBLIC "-//W3C//DTD SVG 1.1//EN"
    "http://www.w3.org/Graphics/SVG/1.1/DTD/svg11.dtd"><svg xmlns="http://www.w3.org/2000/svg" height="201.0571" stroke-opacity="1" viewBox="0 0 500 201" font-size="1" width="500.0000" xmlns:xlink="http://www.w3.org/1999/xlink" stroke="rgb(0,0,0)" version="1.1"><defs></defs><g stroke-linejoin="miter" stroke-opacity="1.0" fill-opacity="1.0" stroke="rgb(0,128,0)" stroke-width="4.023150762281197" fill="rgb(144,238,144)" stroke-linecap="butt" stroke-miterlimit="10.0"><path d="M 477.2727,111.4551 c 0.0000,-44.4385 -36.0245,-80.4630 -80.4630 -80.4630c -44.4385,-0.0000 -80.4630,36.0245 -80.4630 80.4630c -0.0000,44.4385 36.0245,80.4630 80.4630 80.4630c 44.4385,0.0000 80.4630,-36.0245 80.4630 -80.4630Z"/></g><g stroke-linejoin="miter" stroke-opacity="1.0" fill-opacity="1.0" stroke="rgb(0,0,255)" stroke-width="3.2185206098249584" fill="rgb(173,216,230)" stroke-linecap="butt" stroke-miterlimit="10.0"><path d="M 461.1801,111.4551 c 0.0000,-35.5508 -28.8196,-64.3704 -64.3704 -64.3704c -35.5508,-0.0000 -64.3704,28.8196 -64.3704 64.3704c -0.0000,35.5508 28.8196,64.3704 64.3704 64.3704c 35.5508,0.0000 64.3704,-28.8196 64.3704 -64.3704Z"/></g><g stroke-linejoin="miter" stroke-opacity="1.0" fill-opacity="1.0" stroke="rgb(0,0,0)" stroke-width="0.0" fill="rgb(0,0,255)" stroke-linecap="butt" stroke-miterlimit="10.0"><path d="M 448.3060,115.5302 c 0.0000,-9.1858 -7.4466,-16.6324 -16.6324 -16.6324c -9.1858,-0.0000 -16.6324,7.4466 -16.6324 16.6324c -0.0000,9.1858 7.4466,16.6324 16.6324 16.6324c 9.1858,0.0000 16.6324,-7.4466 16.6324 -16.6324Z"/></g><g stroke-linejoin="miter" stroke-opacity="1.0" fill-opacity="1.0" stroke="rgb(0,0,0)" stroke-width="0.0" fill="rgb(0,128,0)" stroke-linecap="butt" stroke-miterlimit="10.0"><path d="M 415.0413,115.5302 c 0.0000,-9.1858 -7.4466,-16.6324 -16.6324 -16.6324c -9.1858,-0.0000 -16.6324,7.4466 -16.6324 16.6324c -0.0000,9.1858 7.4466,16.6324 16.6324 16.6324c 9.1858,0.0000 16.6324,-7.4466 16.6324 -16.6324Z"/></g><g stroke-linejoin="miter" stroke-opacity="1.0" fill-opacity="0.0" stroke="rgb(0,0,0)" stroke-width="1.0" fill="rgb(0,0,0)" stroke-linecap="butt" stroke-miterlimit="10.0"><path d="M 398.4090,98.8978 c 5.8640,-1.5993 11.7279,-3.1985 17.2721 -3.1985c 5.5441,0.0000 10.7684,1.5993 15.9926 3.1985"/></g><g stroke-linejoin="miter" stroke-opacity="1.0" fill-opacity="1.0" stroke="rgb(0,0,0)" stroke-width="0.0" fill="rgb(0,0,0)" stroke-linecap="butt" stroke-miterlimit="10.0"></g><g stroke-linejoin="miter" stroke-opacity="1.0" fill-opacity="1.0" stroke="rgb(0,0,0)" stroke-width="0.0" fill="rgb(0,0,0)" stroke-linecap="butt" stroke-miterlimit="10.0"></g><g stroke-linejoin="miter" stroke-opacity="1.0" fill-opacity="1.0" stroke="rgb(0,0,0)" stroke-width="0.0" fill="rgb(0,0,0)" stroke-linecap="butt" stroke-miterlimit="10.0"></g><g stroke-linejoin="miter" stroke-opacity="1.0" fill-opacity="1.0" stroke="rgb(0,0,0)" stroke-width="0.0" fill="rgb(0,0,0)" stroke-linecap="butt" stroke-miterlimit="10.0"></g><g stroke-linejoin="miter" stroke-opacity="1.0" fill-opacity="1.0" stroke="rgb(0,0,0)" stroke-width="0.0" fill="rgb(0,128,0)" stroke-linecap="butt" stroke-miterlimit="10.0"><path d="M 381.7766,113.9309 c 0.0000,-10.0690 -8.1626,-18.2316 -18.2316 -18.2316c -10.0690,-0.0000 -18.2316,8.1626 -18.2316 18.2316c -0.0000,10.0690 8.1626,18.2316 18.2316 18.2316c 10.0690,0.0000 18.2316,-8.1626 18.2316 -18.2316Z"/></g><g stroke-linejoin="miter" stroke-opacity="1.0" fill-opacity="0.0" stroke="rgb(0,0,0)" stroke-width="1.0" fill="rgb(0,0,0)" stroke-linecap="butt" stroke-miterlimit="10.0"><path d="M 363.5450,95.6993 c 9.0779,-2.4758 18.1558,-4.9516 26.7385 -4.9516c 8.5827,-0.0000 16.6703,2.4758 24.7579 4.9516"/></g><g stroke-linejoin="miter" stroke-opacity="1.0" fill-opacity="1.0" stroke="rgb(0,0,0)" stroke-width="0.0" fill="rgb(0,0,0)" stroke-linecap="butt" stroke-miterlimit="10.0"></g><g stroke-linejoin="miter" stroke-opacity="1.0" fill-opacity="1.0" stroke="rgb(0,0,0)" stroke-width="0.0" fill="rgb(0,0,0)" stroke-linecap="butt" stroke-miterlimit="10.0"></g><g stroke-linejoin="miter" stroke-opacity="1.0" fill-opacity="1.0" stroke="rgb(0,0,0)" stroke-width="0.0" fill="rgb(0,0,0)" stroke-linecap="butt" stroke-miterlimit="10.0"></g><g stroke-linejoin="miter" stroke-opacity="1.0" fill-opacity="1.0" stroke="rgb(0,0,0)" stroke-width="0.0" fill="rgb(0,0,0)" stroke-linecap="butt" stroke-miterlimit="10.0"></g><g stroke-linejoin="miter" stroke-opacity="1.0" fill-opacity="1.0" stroke="rgb(0,128,0)" stroke-width="3.6702428006775834" fill="rgb(144,238,144)" stroke-linecap="butt" stroke-miterlimit="10.0"><path d="M 316.3467,118.5133 c 0.0000,-40.5404 -32.8645,-73.4049 -73.4049 -73.4049c -40.5404,-0.0000 -73.4049,32.8645 -73.4049 73.4049c -0.0000,40.5404 32.8645,73.4049 73.4049 73.4049c 40.5404,0.0000 73.4049,-32.8645 73.4049 -73.4049Z"/></g><g stroke-linejoin="miter" stroke-opacity="1.0" fill-opacity="1.0" stroke="rgb(0,0,255)" stroke-width="2.9361942405420667" fill="rgb(173,216,230)" stroke-linecap="butt" stroke-miterlimit="10.0"><path d="M 301.6657,118.5133 c 0.0000,-32.4323 -26.2916,-58.7239 -58.7239 -58.7239c -32.4323,-0.0000 -58.7239,26.2916 -58.7239 58.7239c -0.0000,32.4323 26.2916,58.7239 58.7239 58.7239c 32.4323,0.0000 58.7239,-26.2916 58.7239 -58.7239Z"/></g><g stroke-linejoin="miter" stroke-opacity="1.0" fill-opacity="1.0" stroke="rgb(0,0,0)" stroke-width="0.0" fill="rgb(0,0,255)" stroke-linecap="butt" stroke-miterlimit="10.0"><path d="M 289.9209,124.4502 c 0.0000,-4.4774 -3.6296,-8.1070 -8.1070 -8.1070c -4.4774,-0.0000 -8.1070,3.6296 -8.1070 8.1070c -0.0000,4.4774 3.6296,8.1070 8.1070 8.1070c 4.4774,0.0000 8.1070,-3.6296 8.1070 -8.1070Z"/></g><g stroke-linejoin="miter" stroke-opacity="1.0" fill-opacity="1.0" stroke="rgb(0,0,0)" stroke-width="0.0" fill="rgb(0,128,0)" stroke-linecap="butt" stroke-miterlimit="10.0"><path d="M 273.7069,124.4502 c 0.0000,-4.4774 -3.6296,-8.1070 -8.1070 -8.1070c -4.4774,-0.0000 -8.1070,3.6296 -8.1070 8.1070c -0.0000,4.4774 3.6296,8.1070 8.1070 8.1070c 4.4774,0.0000 8.1070,-3.6296 8.1070 -8.1070Z"/></g><g stroke-linejoin="miter" stroke-opacity="1.0" fill-opacity="0.0" stroke="rgb(0,0,0)" stroke-width="1.0" fill="rgb(0,0,0)" stroke-linecap="butt" stroke-miterlimit="10.0"><path d="M 265.5999,116.3432 c 2.8582,-0.7795 5.7165,-1.5590 8.4188 -1.5590c 2.7023,0.0000 5.2488,0.7795 7.7952 1.5590"/></g><g stroke-linejoin="miter" stroke-opacity="1.0" fill-opacity="1.0" stroke="rgb(0,0,0)" stroke-width="0.0" fill="rgb(0,0,0)" stroke-linecap="butt" stroke-miterlimit="10.0"></g><g stroke-linejoin="miter" stroke-opacity="1.0" fill-opacity="1.0" stroke="rgb(0,0,0)" stroke-width="0.0" fill="rgb(0,0,0)" stroke-linecap="butt" stroke-miterlimit="10.0"></g><g stroke-linejoin="miter" stroke-opacity="1.0" fill-opacity="1.0" stroke="rgb(0,0,0)" stroke-width="0.0" fill="rgb(0,0,0)" stroke-linecap="butt" stroke-miterlimit="10.0"></g><g stroke-linejoin="miter" stroke-opacity="1.0" fill-opacity="1.0" stroke="rgb(0,0,0)" stroke-width="0.0" fill="rgb(0,0,0)" stroke-linecap="butt" stroke-miterlimit="10.0"></g><g stroke-linejoin="miter" stroke-opacity="1.0" fill-opacity="1.0" stroke="rgb(0,0,0)" stroke-width="0.0" fill="rgb(0,128,0)" stroke-linecap="butt" stroke-miterlimit="10.0"><path d="M 257.4929,123.6707 c 0.0000,-4.9079 -3.9786,-8.8865 -8.8865 -8.8865c -4.9079,-0.0000 -8.8865,3.9786 -8.8865 8.8865c -0.0000,4.9079 3.9786,8.8865 8.8865 8.8865c 4.9079,0.0000 8.8865,-3.9786 8.8865 -8.8865Z"/></g><g stroke-linejoin="miter" stroke-opacity="1.0" fill-opacity="0.0" stroke="rgb(0,0,0)" stroke-width="1.0" fill="rgb(0,0,0)" stroke-linecap="butt" stroke-miterlimit="10.0"><path d="M 248.6064,114.7841 c 4.4248,-1.2068 8.8495,-2.4135 13.0330 -2.4135c 4.1834,0.0000 8.1255,1.2068 12.0676 2.4135"/></g><g stroke-linejoin="miter" stroke-opacity="1.0" fill-opacity="1.0" stroke="rgb(0,0,0)" stroke-width="0.0" fill="rgb(0,0,0)" stroke-linecap="butt" stroke-miterlimit="10.0"></g><g stroke-linejoin="miter" stroke-opacity="1.0" fill-opacity="1.0" stroke="rgb(0,0,0)" stroke-width="0.0" fill="rgb(0,0,0)" stroke-linecap="butt" stroke-miterlimit="10.0"></g><g stroke-linejoin="miter" stroke-opacity="1.0" fill-opacity="1.0" stroke="rgb(0,0,0)" stroke-width="0.0" fill="rgb(0,0,0)" stroke-linecap="butt" stroke-miterlimit="10.0"></g><g stroke-linejoin="miter" stroke-opacity="1.0" fill-opacity="1.0" stroke="rgb(0,0,0)" stroke-width="0.0" fill="rgb(0,0,0)" stroke-linecap="butt" stroke-miterlimit="10.0"></g><g stroke-linejoin="miter" stroke-opacity="1.0" fill-opacity="1.0" stroke="rgb(0,0,0)" stroke-width="0.0" fill="rgb(0,128,0)" stroke-linecap="butt" stroke-miterlimit="10.0"><path d="M 239.7199,122.4639 c 0.0000,-5.5744 -4.5189,-10.0933 -10.0933 -10.0933c -5.5744,-0.0000 -10.0933,4.5189 -10.0933 10.0933c -0.0000,5.5744 4.5189,10.0933 10.0933 10.0933c 5.5744,0.0000 10.0933,-4.5189 10.0933 -10.0933Z"/></g><g stroke-linejoin="miter" stroke-opacity="1.0" fill-opacity="0.0" stroke="rgb(0,0,0)" stroke-width="1.0" fill="rgb(0,0,0)" stroke-linecap="butt" stroke-miterlimit="10.0"><path d="M 229.6266,112.3706 c 6.2040,-1.6920 12.4081,-3.3840 18.2737 -3.3840c 5.8656,0.0000 11.3929,1.6920 16.9201 3.3840"/></g><g stroke-linejoin="miter" stroke-opacity="1.0" fill-opacity="1.0" stroke="rgb(0,0,0)" stroke-width="0.0" fill="rgb(0,0,0)" stroke-linecap="butt" stroke-miterlimit="10.0"></g><g stroke-linejoin="miter" stroke-opacity="1.0" fill-opacity="1.0" stroke="rgb(0,0,0)" stroke-width="0.0" fill="rgb(0,0,0)" stroke-linecap="butt" stroke-miterlimit="10.0"></g><g stroke-linejoin="miter" stroke-opacity="1.0" fill-opacity="1.0" stroke="rgb(0,0,0)" stroke-width="0.0" fill="rgb(0,0,0)" stroke-linecap="butt" stroke-miterlimit="10.0"></g><g stroke-linejoin="miter" stroke-opacity="1.0" fill-opacity="1.0" stroke="rgb(0,0,0)" stroke-width="0.0" fill="rgb(0,0,0)" stroke-linecap="butt" stroke-miterlimit="10.0"></g><g stroke-linejoin="miter" stroke-opacity="1.0" fill-opacity="1.0" stroke="rgb(0,0,0)" stroke-width="0.0" fill="rgb(0,128,0)" stroke-linecap="butt" stroke-miterlimit="10.0"><path d="M 219.5333,120.7719 c 0.0000,-6.5088 -5.2765,-11.7853 -11.7853 -11.7853c -6.5088,-0.0000 -11.7853,5.2765 -11.7853 11.7853c -0.0000,6.5088 5.2765,11.7853 11.7853 11.7853c 6.5088,0.0000 11.7853,-5.2765 11.7853 -11.7853Z"/></g><g stroke-linejoin="miter" stroke-opacity="1.0" fill-opacity="0.0" stroke="rgb(0,0,0)" stroke-width="1.0" fill="rgb(0,0,0)" stroke-linecap="butt" stroke-miterlimit="10.0"><path d="M 207.7480,108.9866 c 8.2816,-2.2586 16.5631,-4.5172 24.3930 -4.5172c 7.8299,-0.0000 15.2080,2.2586 22.5861 4.5172"/></g><g stroke-linejoin="miter" stroke-opacity="1.0" fill-opacity="1.0" stroke="rgb(0,0,0)" stroke-width="0.0" fill="rgb(0,0,0)" stroke-linecap="butt" stroke-miterlimit="10.0"></g><g stroke-linejoin="miter" stroke-opacity="1.0" fill-opacity="1.0" stroke="rgb(0,0,0)" stroke-width="0.0" fill="rgb(0,0,0)" stroke-linecap="butt" stroke-miterlimit="10.0"></g><g stroke-linejoin="miter" stroke-opacity="1.0" fill-opacity="1.0" stroke="rgb(0,0,0)" stroke-width="0.0" fill="rgb(0,0,0)" stroke-linecap="butt" stroke-miterlimit="10.0"></g><g stroke-linejoin="miter" stroke-opacity="1.0" fill-opacity="1.0" stroke="rgb(0,0,0)" stroke-width="0.0" fill="rgb(0,0,0)" stroke-linecap="butt" stroke-miterlimit="10.0"></g><g stroke-linejoin="miter" stroke-opacity="1.0" fill-opacity="1.0" stroke="rgb(0,128,0)" stroke-width="3.6702428006775834" fill="rgb(144,238,144)" stroke-linecap="butt" stroke-miterlimit="10.0"><path d="M 169.5370,118.5133 c 0.0000,-40.5404 -32.8645,-73.4049 -73.4049 -73.4049c -40.5404,-0.0000 -73.4049,32.8645 -73.4049 73.4049c -0.0000,40.5404 32.8645,73.4049 73.4049 73.4049c 40.5404,0.0000 73.4049,-32.8645 73.4049 -73.4049Z"/></g><g stroke-linejoin="miter" stroke-opacity="1.0" fill-opacity="1.0" stroke="rgb(0,0,255)" stroke-width="2.9361942405420667" fill="rgb(173,216,230)" stroke-linecap="butt" stroke-miterlimit="10.0"><path d="M 154.8560,118.5133 c 0.0000,-32.4323 -26.2916,-58.7239 -58.7239 -58.7239c -32.4323,-0.0000 -58.7239,26.2916 -58.7239 58.7239c -0.0000,32.4323 26.2916,58.7239 58.7239 58.7239c 32.4323,0.0000 58.7239,-26.2916 58.7239 -58.7239Z"/></g><g stroke-linejoin="miter" stroke-opacity="1.0" fill-opacity="1.0" stroke="rgb(255,0,0)" stroke-width="2.3489553924336533" fill="rgb(255,192,203)" stroke-linecap="butt" stroke-miterlimit="10.0"><path d="M 143.1112,118.5133 c 0.0000,-25.9458 -21.0333,-46.9791 -46.9791 -46.9791c -25.9458,-0.0000 -46.9791,21.0333 -46.9791 46.9791c -0.0000,25.9458 21.0333,46.9791 46.9791 46.9791c 25.9458,0.0000 46.9791,-21.0333 46.9791 -46.9791Z"/></g><g stroke-linejoin="miter" stroke-opacity="1.0" fill-opacity="1.0" stroke="rgb(0,0,0)" stroke-width="0.0" fill="rgb(255,0,0)" stroke-linecap="butt" stroke-miterlimit="10.0"><path d="M 133.7154,121.4874 c 0.0000,-6.7040 -5.4347,-12.1387 -12.1387 -12.1387c -6.7040,-0.0000 -12.1387,5.4347 -12.1387 12.1387c -0.0000,6.7040 5.4347,12.1387 12.1387 12.1387c 6.7040,0.0000 12.1387,-5.4347 12.1387 -12.1387Z"/></g><g stroke-linejoin="miter" stroke-opacity="1.0" fill-opacity="1.0" stroke="rgb(0,0,0)" stroke-width="0.0" fill="rgb(0,0,255)" stroke-linecap="butt" stroke-miterlimit="10.0"><path d="M 109.4380,121.4874 c 0.0000,-6.7040 -5.4347,-12.1387 -12.1387 -12.1387c -6.7040,-0.0000 -12.1387,5.4347 -12.1387 12.1387c -0.0000,6.7040 5.4347,12.1387 12.1387 12.1387c 6.7040,0.0000 12.1387,-5.4347 12.1387 -12.1387Z"/></g><g stroke-linejoin="miter" stroke-opacity="1.0" fill-opacity="0.0" stroke="rgb(0,0,0)" stroke-width="1.0" fill="rgb(0,0,0)" stroke-linecap="butt" stroke-miterlimit="10.0"><path d="M 97.2993,109.3487 c 4.2797,-1.1672 8.5593,-2.3344 12.6056 -2.3344c 4.0462,0.0000 7.8590,1.1672 11.6718 2.3344"/></g><g stroke-linejoin="miter" stroke-opacity="1.0" fill-opacity="1.0" stroke="rgb(0,0,0)" stroke-width="0.0" fill="rgb(0,0,0)" stroke-linecap="butt" stroke-miterlimit="10.0"></g><g stroke-linejoin="miter" stroke-opacity="1.0" fill-opacity="1.0" stroke="rgb(0,0,0)" stroke-width="0.0" fill="rgb(0,0,0)" stroke-linecap="butt" stroke-miterlimit="10.0"></g><g stroke-linejoin="miter" stroke-opacity="1.0" fill-opacity="1.0" stroke="rgb(0,0,0)" stroke-width="0.0" fill="rgb(0,0,0)" stroke-linecap="butt" stroke-miterlimit="10.0"></g><g stroke-linejoin="miter" stroke-opacity="1.0" fill-opacity="1.0" stroke="rgb(0,0,0)" stroke-width="0.0" fill="rgb(0,0,0)" stroke-linecap="butt" stroke-miterlimit="10.0"></g><g stroke-linejoin="miter" stroke-opacity="1.0" fill-opacity="1.0" stroke="rgb(0,0,0)" stroke-width="0.0" fill="rgb(0,128,0)" stroke-linecap="butt" stroke-miterlimit="10.0"><path d="M 85.1606,120.3202 c 0.0000,-7.3486 -5.9572,-13.3059 -13.3059 -13.3059c -7.3486,-0.0000 -13.3059,5.9572 -13.3059 13.3059c -0.0000,7.3486 5.9572,13.3059 13.3059 13.3059c 7.3486,0.0000 13.3059,-5.9572 13.3059 -13.3059Z"/></g><g stroke-linejoin="miter" stroke-opacity="1.0" fill-opacity="0.0" stroke="rgb(0,0,0)" stroke-width="1.0" fill="rgb(0,0,0)" stroke-linecap="butt" stroke-miterlimit="10.0"><path d="M 71.8547,107.0143 c 6.6253,-1.8069 13.2505,-3.6138 19.5144 -3.6138c 6.2639,-0.0000 12.1664,1.8069 18.0689 3.6138"/></g><g stroke-linejoin="miter" stroke-opacity="1.0" fill-opacity="1.0" stroke="rgb(0,0,0)" stroke-width="0.0" fill="rgb(0,0,0)" stroke-linecap="butt" stroke-miterlimit="10.0"></g><g stroke-linejoin="miter" stroke-opacity="1.0" fill-opacity="1.0" stroke="rgb(0,0,0)" stroke-width="0.0" fill="rgb(0,0,0)" stroke-linecap="butt" stroke-miterlimit="10.0"></g><g stroke-linejoin="miter" stroke-opacity="1.0" fill-opacity="1.0" stroke="rgb(0,0,0)" stroke-width="0.0" fill="rgb(0,0,0)" stroke-linecap="butt" stroke-miterlimit="10.0"></g><g stroke-linejoin="miter" stroke-opacity="1.0" fill-opacity="1.0" stroke="rgb(0,0,0)" stroke-width="0.0" fill="rgb(0,0,0)" stroke-linecap="butt" stroke-miterlimit="10.0"></g><g stroke-linejoin="miter" stroke-opacity="1.0" fill-opacity="0.0" stroke="rgb(0,0,0)" stroke-width="1.0" fill="rgb(0,0,0)" stroke-linecap="butt" stroke-miterlimit="10.0"><path d="M 96.1321,45.1084 c 25.8799,-7.0582 51.7598,-14.1163 76.2281 -14.1163c 24.4683,-0.0000 47.5249,7.0582 70.5816 14.1163"/></g><g stroke-linejoin="miter" stroke-opacity="1.0" fill-opacity="1.0" stroke="rgb(0,0,0)" stroke-width="0.0" fill="rgb(0,0,0)" stroke-linecap="butt" stroke-miterlimit="10.0"></g><g stroke-linejoin="miter" stroke-opacity="1.0" fill-opacity="1.0" stroke="rgb(0,0,0)" stroke-width="0.0" fill="rgb(0,0,0)" stroke-linecap="butt" stroke-miterlimit="10.0"></g><g stroke-linejoin="miter" stroke-opacity="1.0" fill-opacity="1.0" stroke="rgb(0,0,0)" stroke-width="0.0" fill="rgb(0,0,0)" stroke-linecap="butt" stroke-miterlimit="10.0"></g><g stroke-linejoin="miter" stroke-opacity="1.0" fill-opacity="1.0" stroke="rgb(0,0,0)" stroke-width="0.0" fill="rgb(0,0,0)" stroke-linecap="butt" stroke-miterlimit="10.0"></g><g stroke-linejoin="miter" stroke-opacity="1.0" fill-opacity="0.0" stroke="rgb(0,0,0)" stroke-width="1.0" fill="rgb(0,0,0)" stroke-linecap="butt" stroke-miterlimit="10.0"><path d="M 169.5370,30.9921 c 40.0641,-10.9266 80.1282,-21.8531 118.0070 -21.8531c 37.8788,-0.0000 73.5723,10.9266 109.2657 21.8531"/></g><g stroke-linejoin="miter" stroke-opacity="1.0" fill-opacity="1.0" stroke="rgb(0,0,0)" stroke-width="0.0" fill="rgb(0,0,0)" stroke-linecap="butt" stroke-miterlimit="10.0"></g><g stroke-linejoin="miter" stroke-opacity="1.0" fill-opacity="1.0" stroke="rgb(0,0,0)" stroke-width="0.0" fill="rgb(0,0,0)" stroke-linecap="butt" stroke-miterlimit="10.0"></g><g stroke-linejoin="miter" stroke-opacity="1.0" fill-opacity="1.0" stroke="rgb(0,0,0)" stroke-width="0.0" fill="rgb(0,0,0)" stroke-linecap="butt" stroke-miterlimit="10.0"></g><g stroke-linejoin="miter" stroke-opacity="1.0" fill-opacity="1.0" stroke="rgb(0,0,0)" stroke-width="0.0" fill="rgb(0,0,0)" stroke-linecap="butt" stroke-miterlimit="10.0"></g></svg>