<?xml version="1.0" encoding="UTF-8"?>
<!DOCTYPE svg PUBLIC "-//W3C//DTD SVG 1.1//EN"
    "http://www.w3.org/Graphics/SVG/1.1/DTD/svg11.dtd"><svg xmlns="http://www.w3.org/2000/svg" height="500.0000" stroke-opacity="1" viewBox="0 0 500 500" font-size="1" width="500.0000" xmlns:xlink="http://www.w3.org/1999/xlink" stroke="rgb(0,0,0)" version="1.1"><defs></defs><g stroke-linejoin="miter" stroke-opacity="1.0" fill-opacity="1.0" stroke="rgb(0,0,255)" stroke-width="11.363636363636367" fill="rgb(173,216,230)" stroke-linecap="butt" stroke-miterlimit="10.0"><path d="M 477.2727,250.0000 c 0.0000,-125.5193 -101.7535,-227.2727 -227.2727 -227.2727c -125.5193,-0.0000 -227.2727,101.7535 -227.2727 227.2727c -0.0000,125.5193 101.7535,227.2727 227.2727 227.2727c 125.5193,0.0000 227.2727,-101.7535 227.2727 -227.2727Z"/></g><g stroke-linejoin="miter" stroke-opacity="1.0" fill-opacity="1.0" stroke="rgb(128,0,128)" stroke-width="9.090909090909093" fill="rgb(147,112,219)" stroke-linecap="butt" stroke-miterlimit="10.0"><path d="M 431.8182,250.0000 c 0.0000,-100.4154 -81.4028,-181.8182 -181.8182 -181.8182c -100.4154,-0.0000 -181.8182,81.4028 -181.8182 181.8182c -0.0000,100.4154 81.4028,181.8182 181.8182 181.8182c 100.4154,0.0000 181.8182,-81.4028 181.8182 -181.8182Z"/></g><g stroke-linejoin="miter" stroke-opacity="1.0" fill-opacity="1.0" stroke="rgb(255,255,0)" stroke-width="7.272727272727275" fill="rgb(255,255,224)" stroke-linecap="butt" stroke-miterlimit="10.0"><path d="M 395.4545,250.0000 c 0.0000,-80.3323 -65.1222,-145.4545 -145.4545 -145.4545c -80.3323,-0.0000 -145.4545,65.1222 -145.4545 145.4545c -0.0000,80.3323 65.1222,145.4545 145.4545 145.4545c 80.3323,0.0000 145.4545,-65.1222 145.4545 -145.4545Z"/></g><g stroke-linejoin="miter" stroke-opacity="1.0" fill-opacity="1.0" stroke="rgb(0,139,139)" stroke-width="5.818181818181821" fill="rgb(0,255,255)" stroke-linecap="butt" stroke-miterlimit="10.0"><path d="M 366.3636,250.0000 c 0.0000,-64.2659 -52.0978,-116.3636 -116.3636 -116.3636c -64.2659,-0.0000 -116.3636,52.0978 -116.3636 116.3636c -0.0000,64.2659 52.0978,116.3636 116.3636 116.3636c 64.2659,0.0000 116.3636,-52.0978 116.3636 -116.3636Z"/></g><g stroke-linejoin="miter" stroke-opacity="1.0" fill-opacity="1.0" stroke="rgb(0,0,0)" stroke-width="0.0" fill="rgb(0,139,139)" stroke-linecap="butt" stroke-miterlimit="10.0"><path d="M 343.0909,257.0570 c 0.0000,-10.4990 -8.5112,-19.0102 -19.0102 -19.0102c -10.4990,-0.0000 -19.0102,8.5112 -19.0102 19.0102c -0.0000,10.4990 8.5112,19.0102 19.0102 19.0102c 10.4990,0.0000 19.0102,-8.5112 19.0102 -19.0102Z"/></g><g stroke-linejoin="miter" stroke-opacity="1.0" fill-opacity="1.0" stroke="rgb(0,0,0)" stroke-width="0.0" fill="rgb(255,255,0)" stroke-linecap="butt" stroke-miterlimit="10.0"><path d="M 305.0705,258.7246 c 0.0000,-9.5781 -7.7646,-17.3426 -17.3426 -17.3426c -9.5781,-0.0000 -17.3426,7.7646 -17.3426 17.3426c -0.0000,9.5781 7.7646,17.3426 17.3426 17.3426c 9.5781,0.0000 17.3426,-7.7646 17.3426 -17.3426Z"/></g><g stroke-linejoin="miter" stroke-opacity="1.0" fill-opacity="1.0" stroke="rgb(0,0,0)" stroke-width="0.0" fill="rgb(128,0,128)" stroke-linecap="butt" stroke-miterlimit="10.0"><path d="M 270.3852,258.7246 c 0.0000,-9.5781 -7.7646,-17.3426 -17.3426 -17.3426c -9.5781,-0.0000 -17.3426,7.7646 -17.3426 17.3426c -0.0000,9.5781 7.7646,17.3426 17.3426 17.3426c 9.5781,0.0000 17.3426,-7.7646 17.3426 -17.3426Z"/></g><g stroke-linejoin="miter" stroke-opacity="1.0" fill-opacity="0.0" stroke="rgb(0,0,0)" stroke-width="1.0" fill="rgb(0,0,0)" stroke-linecap="butt" stroke-miterlimit="10.0"><path d="M 253.0426,241.3820 c 6.1144,-1.6676 12.2288,-3.3351 18.0097 -3.3351c 5.7809,0.0000 11.2282,1.6676 16.6756 3.3351"/></g><g stroke-linejoin="miter" stroke-opacity="1.0" fill-opacity="1.0" stroke="rgb(0,0,0)" stroke-width="0.0" fill="rgb(0,0,0)" stroke-linecap="butt" stroke-miterlimit="10.0"></g><g stroke-linejoin="miter" stroke-opacity="1.0" fill-opacity="1.0" stroke="rgb(0,0,0)" stroke-width="0.0" fill="rgb(0,0,0)" stroke-linecap="butt" stroke-miterlimit="10.0"></g><g stroke-linejoin="miter" stroke-opacity="1.0" fill-opacity="1.0" stroke="rgb(0,0,0)" stroke-width="0.0" fill="rgb(0,0,0)" stroke-linecap="butt" stroke-miterlimit="10.0"></g><g stroke-linejoin="miter" stroke-opacity="1.0" fill-opacity="1.0" stroke="rgb(0,0,0)" stroke-width="0.0" fill="rgb(0,0,0)" stroke-linecap="butt" stroke-miterlimit="10.0"></g><g stroke-linejoin="miter" stroke-opacity="1.0" fill-opacity="0.0" stroke="rgb(0,0,0)" stroke-width="1.0" fill="rgb(0,0,0)" stroke-linecap="butt" stroke-miterlimit="10.0"><path d="M 270.3852,238.0468 c 9.4656,-2.5815 18.9311,-5.1630 27.8804 -5.1630c 8.9492,-0.0000 17.3822,2.5815 25.8151 5.1630"/></g><g stroke-linejoin="miter" stroke-opacity="1.0" fill-opacity="1.0" stroke="rgb(0,0,0)" stroke-width="0.0" fill="rgb(0,0,0)" stroke-linecap="butt" stroke-miterlimit="10.0"></g><g stroke-linejoin="miter" stroke-opacity="1.0" fill-opacity="1.0" stroke="rgb(0,0,0)" stroke-width="0.0" fill="rgb(0,0,0)" stroke-linecap="butt" stroke-miterlimit="10.0"></g><g stroke-linejoin="miter" stroke-opacity="1.0" fill-opacity="1.0" stroke="rgb(0,0,0)" stroke-width="0.0" fill="rgb(0,0,0)" stroke-linecap="butt" stroke-miterlimit="10.0"></g><g stroke-linejoin="miter" stroke-opacity="1.0" fill-opacity="1.0" stroke="rgb(0,0,0)" stroke-width="0.0" fill="rgb(0,0,0)" stroke-linecap="butt" stroke-miterlimit="10.0"></g><g stroke-linejoin="miter" stroke-opacity="1.0" fill-opacity="1.0" stroke="rgb(0,0,0)" stroke-width="0.0" fill="rgb(255,255,0)" stroke-linecap="butt" stroke-miterlimit="10.0"><path d="M 235.6999,256.3695 c 0.0000,-10.8787 -8.8190,-19.6977 -19.6977 -19.6977c -10.8787,-0.0000 -19.6977,8.8190 -19.6977 19.6977c -0.0000,10.8787 8.8190,19.6977 19.6977 19.6977c 10.8787,0.0000 19.6977,-8.8190 19.6977 -19.6977Z"/></g><g stroke-linejoin="miter" stroke-opacity="1.0" fill-opacity="1.0" stroke="rgb(0,0,0)" stroke-width="0.0" fill="rgb(0,0,255)" stroke-linecap="butt" stroke-miterlimit="10.0"><path d="M 196.3045,256.3695 c 0.0000,-10.8787 -8.8190,-19.6977 -19.6977 -19.6977c -10.8787,-0.0000 -19.6977,8.8190 -19.6977 19.6977c -0.0000,10.8787 8.8190,19.6977 19.6977 19.6977c 10.8787,0.0000 19.6977,-8.8190 19.6977 -19.6977Z"/></g><g stroke-linejoin="miter" stroke-opacity="1.0" fill-opacity="0.0" stroke="rgb(0,0,0)" stroke-width="1.0" fill="rgb(0,0,0)" stroke-linecap="butt" stroke-miterlimit="10.0"><path d="M 176.6068,236.6718 c 6.9447,-1.8940 13.8894,-3.7880 20.4553 -3.7880c 6.5659,-0.0000 12.7530,1.8940 18.9401 3.7880"/></g><g stroke-linejoin="miter" stroke-opacity="1.0" fill-opacity="1.0" stroke="rgb(0,0,0)" stroke-width="0.0" fill="rgb(0,0,0)" stroke-linecap="butt" stroke-miterlimit="10.0"></g><g stroke-linejoin="miter" stroke-opacity="1.0" fill-opacity="1.0" stroke="rgb(0,0,0)" stroke-width="0.0" fill="rgb(0,0,0)" stroke-linecap="butt" stroke-miterlimit="10.0"></g><g stroke-linejoin="miter" stroke-opacity="1.0" fill-opacity="1.0" stroke="rgb(0,0,0)" stroke-width="0.0" fill="rgb(0,0,0)" stroke-linecap="butt" stroke-miterlimit="10.0"></g><g stroke-linejoin="miter" stroke-opacity="1.0" fill-opacity="1.0" stroke="rgb(0,0,0)" stroke-width="0.0" fill="rgb(0,0,0)" stroke-linecap="butt" stroke-miterlimit="10.0"></g><g stroke-linejoin="miter" stroke-opacity="1.0" fill-opacity="0.0" stroke="rgb(0,0,0)" stroke-width="1.0" fill="rgb(0,0,0)" stroke-linecap="butt" stroke-miterlimit="10.0"><path d="M 196.3045,232.8838 c 16.4103,-4.4755 32.8205,-8.9510 48.3357 -8.9510c 15.5152,-0.0000 30.1352,4.4755 44.7552 8.9510"/></g><g stroke-linejoin="miter" stroke-opacity="1.0" fill-opacity="1.0" stroke="rgb(0,0,0)" stroke-width="0.0" fill="rgb(0,0,0)" stroke-linecap="butt" stroke-miterlimit="10.0"></g><g stroke-linejoin="miter" stroke-opacity="1.0" fill-opacity="1.0" stroke="rgb(0,0,0)" stroke-width="0.0" fill="rgb(0,0,0)" stroke-linecap="butt" stroke-miterlimit="10.0"></g><g stroke-linejoin="miter" stroke-opacity="1.0" fill-opacity="1.0" stroke="rgb(0,0,0)" stroke-width="0.0" fill="rgb(0,0,0)" stroke-linecap="butt" stroke-miterlimit="10.0"></g><g stroke-linejoin="miter" stroke-opacity="1.0" fill-opacity="1.0" stroke="rgb(0,0,0)" stroke-width="0.0" fill="rgb(0,0,0)" stroke-linecap="butt" stroke-miterlimit="10.0"></g></svg>