<?xml version="1.0" encoding="UTF-8"?>
<!DOCTYPE svg PUBLIC "-//W3C//DTD SVG 1.1//EN"
    "http://www.w3.org/Graphics/SVG/1.1/DTD/svg11.dtd"><svg xmlns="http://www.w3.org/2000/svg" height="201.0571" stroke-opacity="1" viewBox="0 0 500 201" font-size="1" width="500.0000" xmlns:xlink="http://www.w3.org/1999/xlink" stroke="rgb(0,0,0)" version="1.1"><defs></defs><g stroke-linejoin="miter" stroke-opacity="1.0" fill-opacity="1.0" stroke="rgb(255,0,0)" stroke-width="4.023150762281197" fill="rgb(255,192,203)" stroke-linecap="butt" stroke-miterlimit="10.0"><path d="M 477.2727,111.4551 c 0.0000,-44.4385 -36.0245,-80.4630 -80.4630 -80.4630c -44.4385,-0.0000 -80.4630,36.0245 -80.4630 80.4630c -0.0000,44.4385 36.0245,80.4630 80.4630 80.4630c 44.4385,0.0000 80.4630,-36.0245 80.4630 -80.4630Z"/></g><g stroke-linejoin="miter" stroke-opacity="1.0" fill-opacity="1.0" stroke="rgb(0,0,255)" stroke-width="3.2185206098249584" fill="rgb(173,216,230)" stroke-linecap="butt" stroke-miterlimit="10.0"><path d="M 461.1801,111.4551 c 0.0000,-35.5508 -28.8196,-64.3704 -64.3704 -64.3704c -35.5508,-0.0000 -64.3704,28.8196 -64.3704 64.3704c -0.0000,35.5508 28.8196,64.3704 64.3704 64.3704c 35.5508,0.0000 64.3704,-28.8196 64.3704 -64.3704Z"/></g><g stroke-linejoin="miter" stroke-opacity="1.0" fill-opacity="1.0" stroke="rgb(0,0,0)" stroke-width="0.0" fill="rgb(0,0,255)" stroke-linecap="butt" stroke-miterlimit="10.0"><path d="M 448.3060,116.8373 c 0.0000,-6.5514 -5.3110,-11.8623 -11.8623 -11.8623c -6.5514,-0.0000 -11.8623,5.3110 -11.8623 11.8623c -0.0000,6.5514 5.3110,11.8623 11.8623 11.8623c 6.5514,0.0000 11.8623,-5.3110 11.8623 -11.8623Z"/></g><g stroke-linejoin="miter" stroke-opacity="1.0" fill-opacity="1.0" stroke="rgb(0,0,0)" stroke-width="0.0" fill="rgb(255,0,0)" stroke-linecap="butt" stroke-miterlimit="10.0"><path d="M 424.5814,116.8373 c 0.0000,-6.5514 -5.3110,-11.8623 -11.8623 -11.8623c -6.5514,-0.0000 -11.8623,5.3110 -11.8623 11.8623c -0.0000,6.5514 5.3110,11.8623 11.8623 11.8623c 6.5514,0.0000 11.8623,-5.3110 11.8623 -11.8623Z"/></g><g stroke-linejoin="miter" stroke-opacity="1.0" fill-opacity="0.0" stroke="rgb(0,0,0)" stroke-width="1.0" fill="rgb(0,0,0)" stroke-linecap="butt" stroke-miterlimit="10.0"><path d="M 412.7190,104.9749 c 4.1822,-1.1406 8.3645,-2.2812 12.3186 -2.2812c 3.9541,0.0000 7.6801,1.1406 11.4061 2.2812"/></g><g stroke-linejoin="miter" stroke-opacity="1.0" fill-opacity="1.0" stroke="rgb(0,0,0)" stroke-width="0.0" fill="rgb(0,0,0)" stroke-linecap="butt" stroke-miterlimit="10.0"></g><g stroke-linejoin="miter" stroke-opacity="1.0" fill-opacity="1.0" stroke="rgb(0,0,0)" stroke-width="0.0" fill="rgb(0,0,0)" stroke-linecap="butt" stroke-miterlimit="10.0"></g><g stroke-linejoin="miter" stroke-opacity="1.0" fill-opacity="1.0" stroke="rgb(0,0,0)" stroke-width="0.0" fill="rgb(0,0,0)" stroke-linecap="butt" stroke-miterlimit="10.0"></g><g stroke-linejoin="miter" stroke-opacity="1.0" fill-opacity="1.0" stroke="rgb(0,0,0)" stroke-width="0.0" fill="rgb(0,0,0)" stroke-linecap="butt" stroke-miterlimit="10.0"></g><g stroke-linejoin="miter" stroke-opacity="1.0" fill-opacity="1.0" stroke="rgb(0,0,0)" stroke-width="0.0" fill="rgb(255,0,0)" stroke-linecap="butt" stroke-miterlimit="10.0"><path d="M 400.8567,115.6967 c 0.0000,-7.1813 -5.8216,-13.0029 -13.0029 -13.0029c -7.1813,-0.0000 -13.0029,5.8216 -13.0029 13.0029c -0.0000,7.1813 5.8216,13.0029 13.0029 13.0029c 7.1813,0.0000 13.0029,-5.8216 13.0029 -13.0029Z"/></g><g stroke-linejoin="miter" stroke-opacity="1.0" fill-opacity="0.0" stroke="rgb(0,0,0)" stroke-width="1.0" fill="rgb(0,0,0)" stroke-linecap="butt" stroke-miterlimit="10.0"><path d="M 387.8537,102.6937 c 6.4744,-1.7658 12.9488,-3.5315 19.0701 -3.5315c 6.1213,-0.0000 11.8894,1.7658 17.6575 3.5315"/></g><g stroke-linejoin="miter" stroke-opacity="1.0" fill-opacity="1.0" stroke="rgb(0,0,0)" stroke-width="0.0" fill="rgb(0,0,0)" stroke-linecap="butt" stroke-miterlimit="10.0"></g><g stroke-linejoin="miter" stroke-opacity="1.0" fill-opacity="1.0" stroke="rgb(0,0,0)" stroke-width="0.0" fill="rgb(0,0,0)" stroke-linecap="butt" stroke-miterlimit="10.0"></g><g stroke-linejoin="miter" stroke-opacity="1.0" fill-opacity="1.0" stroke="rgb(0,0,0)" stroke-width="0.0" fill="rgb(0,0,0)" stroke-linecap="butt" stroke-miterlimit="10.0"></g><g stroke-linejoin="miter" stroke-opacity="1.0" fill-opacity="1.0" stroke="rgb(0,0,0)" stroke-width="0.0" fill="rgb(0,0,0)" stroke-linecap="butt" stroke-miterlimit="10.0"></g><g stroke-linejoin="miter" stroke-opacity="1.0" fill-opacity="1.0" stroke="rgb(0,0,0)" stroke-width="0.0" fill="rgb(255,0,0)" stroke-linecap="butt" stroke-miterlimit="10.0"><path d="M 374.8508,113.9309 c 0.0000,-8.1565 -6.6122,-14.7687 -14.7687 -14.7687c -8.1565,-0.0000 -14.7687,6.6122 -14.7687 14.7687c -0.0000,8.1565 6.6122,14.7687 14.7687 14.7687c 8.1565,0.0000 14.7687,-6.6122 14.7687 -14.7687Z"/></g><g stroke-linejoin="miter" stroke-opacity="1.0" fill-opacity="0.0" stroke="rgb(0,0,0)" stroke-width="1.0" fill="rgb(0,0,0)" stroke-linecap="butt" stroke-miterlimit="10.0"><path d="M 360.0821,99.1622 c 9.0779,-2.4758 18.1558,-4.9516 26.7385 -4.9516c 8.5827,0.0000 16.6703,2.4758 24.7579 4.9516"/></g><g stroke-linejoin="miter" stroke-opacity="1.0" fill-opacity="1.0" stroke="rgb(0,0,0)" stroke-width="0.0" fill="rgb(0,0,0)" stroke-linecap="butt" stroke-miterlimit="10.0"></g><g stroke-linejoin="miter" stroke-opacity="1.0" fill-opacity="1.0" stroke="rgb(0,0,0)" stroke-width="0.0" fill="rgb(0,0,0)" stroke-linecap="butt" stroke-miterlimit="10.0"></g><g stroke-linejoin="miter" stroke-opacity="1.0" fill-opacity="1.0" stroke="rgb(0,0,0)" stroke-width="0.0" fill="rgb(0,0,0)" stroke-linecap="butt" stroke-miterlimit="10.0"></g><g stroke-linejoin="miter" stroke-opacity="1.0" fill-opacity="1.0" stroke="rgb(0,0,0)" stroke-width="0.0" fill="rgb(0,0,0)" stroke-linecap="butt" stroke-miterlimit="10.0"></g><g stroke-linejoin="miter" stroke-opacity="1.0" fill-opacity="1.0" stroke="rgb(255,0,0)" stroke-width="3.6702428006775834" fill="rgb(255,192,203)" stroke-linecap="butt" stroke-miterlimit="10.0"><path d="M 316.3467,118.5133 c 0.0000,-40.5404 -32.8645,-73.4049 -73.4049 -73.4049c -40.5404,-0.0000 -73.4049,32.8645 -73.4049 73.4049c -0.0000,40.5404 32.8645,73.4049 73.4049 73.4049c 40.5404,0.0000 73.4049,-32.8645 73.4049 -73.4049Z"/></g><g stroke-linejoin="miter" stroke-opacity="1.0" fill-opacity="1.0" stroke="rgb(0,0,255)" stroke-width="2.9361942405420667" fill="rgb(173,216,230)" stroke-linecap="butt" stroke-miterlimit="10.0"><path d="M 301.6657,118.5133 c 0.0000,-32.4323 -26.2916,-58.7239 -58.7239 -58.7239c -32.4323,-0.0000 -58.7239,26.2916 -58.7239 58.7239c -0.0000,32.4323 26.2916,58.7239 58.7239 58.7239c 32.4323,0.0000 58.7239,-26.2916 58.7239 -58.7239Z"/></g><g stroke-linejoin="miter" stroke-opacity="1.0" fill-opacity="1.0" stroke="rgb(0,0,0)" stroke-width="0.0" fill="rgb(0,0,255)" stroke-linecap="butt" stroke-miterlimit="10.0"><path d="M 289.9209,125.3425 c 0.0000,-3.4469 -2.7943,-6.2413 -6.2413 -6.2413c -3.4469,-0.0000 -6.2413,2.7943 -6.2413 6.2413c -0.0000,3.4469 2.7943,6.2413 6.2413 6.2413c 3.4469,0.0000 6.2413,-2.7943 6.2413 -6.2413Z"/></g><g stroke-linejoin="miter" stroke-opacity="1.0" fill-opacity="1.0" stroke="rgb(0,0,0)" stroke-width="0.0" fill="rgb(255,0,0)" stroke-linecap="butt" stroke-miterlimit="10.0"><path d="M 277.4384,125.3425 c 0.0000,-3.4469 -2.7943,-6.2413 -6.2413 -6.2413c -3.4469,-0.0000 -6.2413,2.7943 -6.2413 6.2413c -0.0000,3.4469 2.7943,6.2413 6.2413 6.2413c 3.4469,0.0000 6.2413,-2.7943 6.2413 -6.2413Z"/></g><g stroke-linejoin="miter" stroke-opacity="1.0" fill-opacity="0.0" stroke="rgb(0,0,0)" stroke-width="1.0" fill="rgb(0,0,0)" stroke-linecap="butt" stroke-miterlimit="10.0"><path d="M 271.1972,119.1012 c 2.2004,-0.6001 4.4009,-1.2002 6.4813 -1.2002c 2.0804,0.0000 4.0408,0.6001 6.0012 1.2002"/></g><g stroke-linejoin="miter" stroke-opacity="1.0" fill-opacity="1.0" stroke="rgb(0,0,0)" stroke-width="0.0" fill="rgb(0,0,0)" stroke-linecap="butt" stroke-miterlimit="10.0"></g><g stroke-linejoin="miter" stroke-opacity="1.0" fill-opacity="1.0" stroke="rgb(0,0,0)" stroke-width="0.0" fill="rgb(0,0,0)" stroke-linecap="butt" stroke-miterlimit="10.0"></g><g stroke-linejoin="miter" stroke-opacity="1.0" fill-opacity="1.0" stroke="rgb(0,0,0)" stroke-width="0.0" fill="rgb(0,0,0)" stroke-linecap="butt" stroke-miterlimit="10.0"></g><g stroke-linejoin="miter" stroke-opacity="1.0" fill-opacity="1.0" stroke="rgb(0,0,0)" stroke-width="0.0" fill="rgb(0,0,0)" stroke-linecap="butt" stroke-miterlimit="10.0"></g><g stroke-linejoin="miter" stroke-opacity="1.0" fill-opacity="1.0" stroke="rgb(0,0,0)" stroke-width="0.0" fill="rgb(255,0,0)" stroke-linecap="butt" stroke-miterlimit="10.0"><path d="M 264.9559,124.7423 c 0.0000,-3.7784 -3.0630,-6.8414 -6.8414 -6.8414c -3.7784,-0.0000 -6.8414,3.0630 -6.8414 6.8414c -0.0000,3.7784 3.0630,6.8414 6.8414 6.8414c 3.7784,0.0000 6.8414,-3.0630 6.8414 -6.8414Z"/></g><g stroke-linejoin="miter" stroke-opacity="1.0" fill-opacity="0.0" stroke="rgb(0,0,0)" stroke-width="1.0" fill="rgb(0,0,0)" stroke-linecap="butt" stroke-miterlimit="10.0"><path d="M 258.1146,117.9010 c 3.4065,-0.9290 6.8129,-1.8581 10.0335 -1.8581c 3.2206,0.0000 6.2555,0.9290 9.2903 1.8581"/></g><g stroke-linejoin="miter" stroke-opacity="1.0" fill-opacity="1.0" stroke="rgb(0,0,0)" stroke-width="0.0" fill="rgb(0,0,0)" stroke-linecap="butt" stroke-miterlimit="10.0"></g><g stroke-linejoin="miter" stroke-opacity="1.0" fill-opacity="1.0" stroke="rgb(0,0,0)" stroke-width="0.0" fill="rgb(0,0,0)" stroke-linecap="butt" stroke-miterlimit="10.0"></g><g stroke-linejoin="miter" stroke-opacity="1.0" fill-opacity="1.0" stroke="rgb(0,0,0)" stroke-width="0.0" fill="rgb(0,0,0)" stroke-linecap="butt" stroke-miterlimit="10.0"></g><g stroke-linejoin="miter" stroke-opacity="1.0" fill-opacity="1.0" stroke="rgb(0,0,0)" stroke-width="0.0" fill="rgb(0,0,0)" stroke-linecap="butt" stroke-miterlimit="10.0"></g><g stroke-linejoin="miter" stroke-opacity="1.0" fill-opacity="1.0" stroke="rgb(0,0,0)" stroke-width="0.0" fill="rgb(255,0,0)" stroke-linecap="butt" stroke-miterlimit="10.0"><path d="M 251.2732,123.8133 c 0.0000,-4.2915 -3.4789,-7.7704 -7.7704 -7.7704c -4.2915,-0.0000 -7.7704,3.4789 -7.7704 7.7704c -0.0000,4.2915 3.4789,7.7704 7.7704 7.7704c 4.2915,0.0000 7.7704,-3.4789 7.7704 -7.7704Z"/></g><g stroke-linejoin="miter" stroke-opacity="1.0" fill-opacity="0.0" stroke="rgb(0,0,0)" stroke-width="1.0" fill="rgb(0,0,0)" stroke-linecap="butt" stroke-miterlimit="10.0"><path d="M 243.5028,116.0429 c 4.7762,-1.3026 9.5525,-2.6052 14.0682 -2.6052c 4.5157,-0.0000 8.7709,1.3026 13.0261 2.6052"/></g><g stroke-linejoin="miter" stroke-opacity="1.0" fill-opacity="1.0" stroke="rgb(0,0,0)" stroke-width="0.0" fill="rgb(0,0,0)" stroke-linecap="butt" stroke-miterlimit="10.0"></g><g stroke-linejoin="miter" stroke-opacity="1.0" fill-opacity="1.0" stroke="rgb(0,0,0)" stroke-width="0.0" fill="rgb(0,0,0)" stroke-linecap="butt" stroke-miterlimit="10.0"></g><g stroke-linejoin="miter" stroke-opacity="1.0" fill-opacity="1.0" stroke="rgb(0,0,0)" stroke-width="0.0" fill="rgb(0,0,0)" stroke-linecap="butt" stroke-miterlimit="10.0"></g><g stroke-linejoin="miter" stroke-opacity="1.0" fill-opacity="1.0" stroke="rgb(0,0,0)" stroke-width="0.0" fill="rgb(0,0,0)" stroke-linecap="butt" stroke-miterlimit="10.0"></g><g stroke-linejoin="miter" stroke-opacity="1.0" fill-opacity="1.0" stroke="rgb(0,0,0)" stroke-width="0.0" fill="rgb(255,0,0)" stroke-linecap="butt" stroke-miterlimit="10.0"><path d="M 235.7324,122.5107 c 0.0000,-5.0109 -4.0621,-9.0730 -9.0730 -9.0730c -5.0109,-0.0000 -9.0730,4.0621 -9.0730 9.0730c -0.0000,5.0109 4.0621,9.0730 9.0730 9.0730c 5.0109,0.0000 9.0730,-4.0621 9.0730 -9.0730Z"/></g><g stroke-linejoin="miter" stroke-opacity="1.0" fill-opacity="0.0" stroke="rgb(0,0,0)" stroke-width="1.0" fill="rgb(0,0,0)" stroke-linecap="butt" stroke-miterlimit="10.0"><path d="M 226.6594,113.4377 c 6.3756,-1.7388 12.7513,-3.4776 18.7792 -3.4776c 6.0279,-0.0000 11.7080,1.7388 17.3881 3.4776"/></g><g stroke-linejoin="miter" stroke-opacity="1.0" fill-opacity="1.0" stroke="rgb(0,0,0)" stroke-width="0.0" fill="rgb(0,0,0)" stroke-linecap="butt" stroke-miterlimit="10.0"></g><g stroke-linejoin="miter" stroke-opacity="1.0" fill-opacity="1.0" stroke="rgb(0,0,0)" stroke-width="0.0" fill="rgb(0,0,0)" stroke-linecap="butt" stroke-miterlimit="10.0"></g><g stroke-linejoin="miter" stroke-opacity="1.0" fill-opacity="1.0" stroke="rgb(0,0,0)" stroke-width="0.0" fill="rgb(0,0,0)" stroke-linecap="butt" stroke-miterlimit="10.0"></g><g stroke-linejoin="miter" stroke-opacity="1.0" fill-opacity="1.0" stroke="rgb(0,0,0)" stroke-width="0.0" fill="rgb(0,0,0)" stroke-linecap="butt" stroke-miterlimit="10.0"></g><g stroke-linejoin="miter" stroke-opacity="1.0" fill-opacity="1.0" stroke="rgb(0,0,0)" stroke-width="0.0" fill="rgb(255,0,0)" stroke-linecap="butt" stroke-miterlimit="10.0"><path d="M 217.5864,120.7719 c 0.0000,-5.9712 -4.8406,-10.8118 -10.8118 -10.8118c -5.9712,-0.0000 -10.8118,4.8406 -10.8118 10.8118c -0.0000,5.9712 4.8406,10.8118 10.8118 10.8118c 5.9712,0.0000 10.8118,-4.8406 10.8118 -10.8118Z"/></g><g stroke-linejoin="miter" stroke-opacity="1.0" fill-opacity="0.0" stroke="rgb(0,0,0)" stroke-width="1.0" fill="rgb(0,0,0)" stroke-linecap="butt" stroke-miterlimit="10.0"><path d="M 206.7746,109.9601 c 8.2816,-2.2586 16.5631,-4.5172 24.3930 -4.5172c 7.8299,0.0000 15.2080,2.2586 22.5861 4.5172"/></g><g stroke-linejoin="miter" stroke-opacity="1.0" fill-opacity="1.0" stroke="rgb(0,0,0)" stroke-width="0.0" fill="rgb(0,0,0)" stroke-linecap="butt" stroke-miterlimit="10.0"></g><g stroke-linejoin="miter" stroke-opacity="1.0" fill-opacity="1.0" stroke="rgb(0,0,0)" stroke-width="0.0" fill="rgb(0,0,0)" stroke-linecap="butt" stroke-miterlimit="10.0"></g><g stroke-linejoin="miter" stroke-opacity="1.0" fill-opacity="1.0" stroke="rgb(0,0,0)" stroke-width="0.0" fill="rgb(0,0,0)" stroke-linecap="butt" stroke-miterlimit="10.0"></g><g stroke-linejoin="miter" stroke-opacity="1.0" fill-opacity="1.0" stroke="rgb(0,0,0)" stroke-width="0.0" fill="rgb(0,0,0)" stroke-linecap="butt" stroke-miterlimit="10.0"></g><g stroke-linejoin="miter" stroke-opacity="1.0" fill-opacity="1.0" stroke="rgb(0,0,255)" stroke-width="3.6702428006775834" fill="rgb(173,216,230)" stroke-linecap="butt" stroke-miterlimit="10.0"><path d="M 169.5370,118.5133 c 0.0000,-40.5404 -32.8645,-73.4049 -73.4049 -73.4049c -40.5404,-0.0000 -73.4049,32.8645 -73.4049 73.4049c -0.0000,40.5404 32.8645,73.4049 73.4049 73.4049c 40.5404,0.0000 73.4049,-32.8645 73.4049 -73.4049Z"/></g><g stroke-linejoin="miter" stroke-opacity="1.0" fill-opacity="1.0" stroke="rgb(255,0,0)" stroke-width="2.9361942405420667" fill="rgb(255,192,203)" stroke-linecap="butt" stroke-miterlimit="10.0"><path d="M 154.8560,118.5133 c 0.0000,-32.4323 -26.2916,-58.7239 -58.7239 -58.7239c -32.4323,-0.0000 -58.7239,26.2916 -58.7239 58.7239c -0.0000,32.4323 26.2916,58.7239 58.7239 58.7239c 32.4323,0.0000 58.7239,-26.2916 58.7239 -58.7239Z"/></g><g stroke-linejoin="miter" stroke-opacity="1.0" fill-opacity="1.0" stroke="rgb(165,42,42)" stroke-width="2.3489553924336533" fill="rgb(244,164,96)" stroke-linecap="butt" stroke-miterlimit="10.0"><path d="M 143.1112,118.5133 c 0.0000,-25.9458 -21.0333,-46.9791 -46.9791 -46.9791c -25.9458,-0.0000 -46.9791,21.0333 -46.9791 46.9791c -0.0000,25.9458 21.0333,46.9791 46.9791 46.9791c 25.9458,0.0000 46.9791,-21.0333 46.9791 -46.9791Z"/></g><g stroke-linejoin="miter" stroke-opacity="1.0" fill-opacity="1.0" stroke="rgb(0,128,0)" stroke-width="1.879164313946923" fill="rgb(144,238,144)" stroke-linecap="butt" stroke-miterlimit="10.0"><path d="M 133.7154,118.5133 c 0.0000,-20.7567 -16.8266,-37.5833 -37.5833 -37.5833c -20.7567,-0.0000 -37.5833,16.8266 -37.5833 37.5833c -0.0000,20.7567 16.8266,37.5833 37.5833 37.5833c 20.7567,0.0000 37.5833,-16.8266 37.5833 -37.5833Z"/></g><g stroke-linejoin="miter" stroke-opacity="1.0" fill-opacity="1.0" stroke="rgb(0,0,0)" stroke-width="0.0" fill="rgb(0,128,0)" stroke-linecap="butt" stroke-miterlimit="10.0"><path d="M 126.1988,120.7926 c 0.0000,-3.3910 -2.7489,-6.1399 -6.1399 -6.1399c -3.3910,-0.0000 -6.1399,2.7489 -6.1399 6.1399c -0.0000,3.3910 2.7489,6.1399 6.1399 6.1399c 3.3910,0.0000 6.1399,-2.7489 6.1399 -6.1399Z"/></g><g stroke-linejoin="miter" stroke-opacity="1.0" fill-opacity="1.0" stroke="rgb(0,0,0)" stroke-width="0.0" fill="rgb(165,42,42)" stroke-linecap="butt" stroke-miterlimit="10.0"><path d="M 113.9189,121.3312 c 0.0000,-3.0935 -2.5078,-5.6014 -5.6014 -5.6014c -3.0935,-0.0000 -5.6014,2.5078 -5.6014 5.6014c -0.0000,3.0935 2.5078,5.6014 5.6014 5.6014c 3.0935,0.0000 5.6014,-2.5078 5.6014 -5.6014Z"/></g><g stroke-linejoin="miter" stroke-opacity="1.0" fill-opacity="1.0" stroke="rgb(0,0,0)" stroke-width="0.0" fill="rgb(255,0,0)" stroke-linecap="butt" stroke-miterlimit="10.0"><path d="M 102.7162,121.3312 c 0.0000,-3.0935 -2.5078,-5.6014 -5.6014 -5.6014c -3.0935,-0.0000 -5.6014,2.5078 -5.6014 5.6014c -0.0000,3.0935 2.5078,5.6014 5.6014 5.6014c 3.0935,0.0000 5.6014,-2.5078 5.6014 -5.6014Z"/></g><g stroke-linejoin="miter" stroke-opacity="1.0" fill-opacity="0.0" stroke="rgb(0,0,0)" stroke-width="1.0" fill="rgb(0,0,0)" stroke-linecap="butt" stroke-miterlimit="10.0"><path d="M 97.1148,115.7298 c 1.9748,-0.5386 3.9497,-1.0772 5.8168 -1.0772c 1.8671,0.0000 3.6265,0.5386 5.3859 1.0772"/></g><g stroke-linejoin="miter" stroke-opacity="1.0" fill-opacity="1.0" stroke="rgb(0,0,0)" stroke-width="0.0" fill="rgb(0,0,0)" stroke-linecap="butt" stroke-miterlimit="10.0"></g><g stroke-linejoin="miter" stroke-opacity="1.0" fill-opacity="1.0" stroke="rgb(0,0,0)" stroke-width="0.0" fill="rgb(0,0,0)" stroke-linecap="butt" stroke-miterlimit="10.0"></g><g stroke-linejoin="miter" stroke-opacity="1.0" fill-opacity="1.0" stroke="rgb(0,0,0)" stroke-width="0.0" fill="rgb(0,0,0)" stroke-linecap="butt" stroke-miterlimit="10.0"></g><g stroke-linejoin="miter" stroke-opacity="1.0" fill-opacity="1.0" stroke="rgb(0,0,0)" stroke-width="0.0" fill="rgb(0,0,0)" stroke-linecap="butt" stroke-miterlimit="10.0"></g><g stroke-linejoin="miter" stroke-opacity="1.0" fill-opacity="0.0" stroke="rgb(0,0,0)" stroke-width="1.0" fill="rgb(0,0,0)" stroke-linecap="butt" stroke-miterlimit="10.0"><path d="M 102.7162,114.6526 c 3.0572,-0.8338 6.1144,-1.6676 9.0048 -1.6676c 2.8904,-0.0000 5.6141,0.8338 8.3378 1.6676"/></g><g stroke-linejoin="miter" stroke-opacity="1.0" fill-opacity="1.0" stroke="rgb(0,0,0)" stroke-width="0.0" fill="rgb(0,0,0)" stroke-linecap="butt" stroke-miterlimit="10.0"></g><g stroke-linejoin="miter" stroke-opacity="1.0" fill-opacity="1.0" stroke="rgb(0,0,0)" stroke-width="0.0" fill="rgb(0,0,0)" stroke-linecap="butt" stroke-miterlimit="10.0"></g><g stroke-linejoin="miter" stroke-opacity="1.0" fill-opacity="1.0" stroke="rgb(0,0,0)" stroke-width="0.0" fill="rgb(0,0,0)" stroke-linecap="butt" stroke-miterlimit="10.0"></g><g stroke-linejoin="miter" stroke-opacity="1.0" fill-opacity="1.0" stroke="rgb(0,0,0)" stroke-width="0.0" fill="rgb(0,0,0)" stroke-linecap="butt" stroke-miterlimit="10.0"></g><g stroke-linejoin="miter" stroke-opacity="1.0" fill-opacity="1.0" stroke="rgb(0,0,0)" stroke-width="0.0" fill="rgb(165,42,42)" stroke-linecap="butt" stroke-miterlimit="10.0"><path d="M 91.5135,120.5705 c 0.0000,-3.5136 -2.8484,-6.3620 -6.3620 -6.3620c -3.5136,-0.0000 -6.3620,2.8484 -6.3620 6.3620c -0.0000,3.5136 2.8484,6.3620 6.3620 6.3620c 3.5136,0.0000 6.3620,-2.8484 6.3620 -6.3620Z"/></g><g stroke-linejoin="miter" stroke-opacity="1.0" fill-opacity="1.0" stroke="rgb(0,0,0)" stroke-width="0.0" fill="rgb(0,0,255)" stroke-linecap="butt" stroke-miterlimit="10.0"><path d="M 78.7895,120.5705 c 0.0000,-3.5136 -2.8484,-6.3620 -6.3620 -6.3620c -3.5136,-0.0000 -6.3620,2.8484 -6.3620 6.3620c -0.0000,3.5136 2.8484,6.3620 6.3620 6.3620c 3.5136,0.0000 6.3620,-2.8484 6.3620 -6.3620Z"/></g><g stroke-linejoin="miter" stroke-opacity="1.0" fill-opacity="0.0" stroke="rgb(0,0,0)" stroke-width="1.0" fill="rgb(0,0,0)" stroke-linecap="butt" stroke-miterlimit="10.0"><path d="M 72.4275,114.2085 c 2.2430,-0.6117 4.4860,-1.2235 6.6067 -1.2235c 2.1207,-0.0000 4.1190,0.6117 6.1173 1.2235"/></g><g stroke-linejoin="miter" stroke-opacity="1.0" fill-opacity="1.0" stroke="rgb(0,0,0)" stroke-width="0.0" fill="rgb(0,0,0)" stroke-linecap="butt" stroke-miterlimit="10.0"></g><g stroke-linejoin="miter" stroke-opacity="1.0" fill-opacity="1.0" stroke="rgb(0,0,0)" stroke-width="0.0" fill="rgb(0,0,0)" stroke-linecap="butt" stroke-miterlimit="10.0"></g><g stroke-linejoin="miter" stroke-opacity="1.0" fill-opacity="1.0" stroke="rgb(0,0,0)" stroke-width="0.0" fill="rgb(0,0,0)" stroke-linecap="butt" stroke-miterlimit="10.0"></g><g stroke-linejoin="miter" stroke-opacity="1.0" fill-opacity="1.0" stroke="rgb(0,0,0)" stroke-width="0.0" fill="rgb(0,0,0)" stroke-linecap="butt" stroke-miterlimit="10.0"></g><g stroke-linejoin="miter" stroke-opacity="1.0" fill-opacity="0.0" stroke="rgb(0,0,0)" stroke-width="1.0" fill="rgb(0,0,0)" stroke-linecap="butt" stroke-miterlimit="10.0"><path d="M 78.7895,112.9851 c 5.3002,-1.4455 10.6004,-2.8910 15.6115 -2.8910c 5.0111,-0.0000 9.7331,1.4455 14.4551 2.8910"/></g><g stroke-linejoin="miter" stroke-opacity="1.0" fill-opacity="1.0" stroke="rgb(0,0,0)" stroke-width="0.0" fill="rgb(0,0,0)" stroke-linecap="butt" stroke-miterlimit="10.0"></g><g stroke-linejoin="miter" stroke-opacity="1.0" fill-opacity="1.0" stroke="rgb(0,0,0)" stroke-width="0.0" fill="rgb(0,0,0)" stroke-linecap="butt" stroke-miterlimit="10.0"></g><g stroke-linejoin="miter" stroke-opacity="1.0" fill-opacity="1.0" stroke="rgb(0,0,0)" stroke-width="0.0" fill="rgb(0,0,0)" stroke-linecap="butt" stroke-miterlimit="10.0"></g><g stroke-linejoin="miter" stroke-opacity="1.0" fill-opacity="1.0" stroke="rgb(0,0,0)" stroke-width="0.0" fill="rgb(0,0,0)" stroke-linecap="butt" stroke-miterlimit="10.0"></g><g stroke-linejoin="miter" stroke-opacity="1.0" fill-opacity="0.0" stroke="rgb(0,0,0)" stroke-width="1.0" fill="rgb(0,0,0)" stroke-linecap="butt" stroke-miterlimit="10.0"><path d="M 96.1321,45.1084 c 25.8799,-7.0582 51.7598,-14.1163 76.2281 -14.1163c 24.4683,-0.0000 47.5249,7.0582 70.5816 14.1163"/></g><g stroke-linejoin="miter" stroke-opacity="1.0" fill-opacity="1.0" stroke="rgb(0,0,0)" stroke-width="0.0" fill="rgb(0,0,0)" stroke-linecap="butt" stroke-miterlimit="10.0"></g><g stroke-linejoin="miter" stroke-opacity="1.0" fill-opacity="1.0" stroke="rgb(0,0,0)" stroke-width="0.0" fill="rgb(0,0,0)" stroke-linecap="butt" stroke-miterlimit="10.0"></g><g stroke-linejoin="miter" stroke-opacity="1.0" fill-opacity="1.0" stroke="rgb(0,0,0)" stroke-width="0.0" fill="rgb(0,0,0)" stroke-linecap="butt" stroke-miterlimit="10.0"></g><g stroke-linejoin="miter" stroke-opacity="1.0" fill-opacity="1.0" stroke="rgb(0,0,0)" stroke-width="0.0" fill="rgb(0,0,0)" stroke-linecap="butt" stroke-miterlimit="10.0"></g><g stroke-linejoin="miter" stroke-opacity="1.0" fill-opacity="0.0" stroke="rgb(0,0,0)" stroke-width="1.0" fill="rgb(0,0,0)" stroke-linecap="butt" stroke-miterlimit="10.0"><path d="M 169.5370,30.9921 c 40.0641,-10.9266 80.1282,-21.8531 118.0070 -21.8531c 37.8788,-0.0000 73.5723,10.9266 109.2657 21.8531"/></g><g stroke-linejoin="miter" stroke-opacity="1.0" fill-opacity="1.0" stroke="rgb(0,0,0)" stroke-width="0.0" fill="rgb(0,0,0)" stroke-linecap="butt" stroke-miterlimit="10.0"></g><g stroke-linejoin="miter" stroke-opacity="1.0" fill-opacity="1.0" stroke="rgb(0,0,0)" stroke-width="0.0" fill="rgb(0,0,0)" stroke-linecap="butt" stroke-miterlimit="10.0"></g><g stroke-linejoin="miter" stroke-opacity="1.0" fill-opacity="1.0" stroke="rgb(0,0,0)" stroke-width="0.0" fill="rgb(0,0,0)" stroke-linecap="butt" stroke-miterlimit="10.0"></g><g stroke-linejoin="miter" stroke-opacity="1.0" fill-opacity="1.0" stroke="rgb(0,0,0)" stroke-width="0.0" fill="rgb(0,0,0)" stroke-linecap="butt" stroke-miterlimit="10.0"></g></svg>