<?xml version="1.0" encoding="UTF-8"?>
<!DOCTYPE svg PUBLIC "-//W3C//DTD SVG 1.1//EN"
    "http://www.w3.org/Graphics/SVG/1.1/DTD/svg11.dtd"><svg xmlns="http://www.w3.org/2000/svg" height="152.6290" stroke-opacity="1" viewBox="0 0 500 153" font-size="1" width="500.0000" xmlns:xlink="http://www.w3.org/1999/xlink" stroke="rgb(0,0,0)" version="1.1"><defs></defs><g stroke-linejoin="miter" stroke-opacity="1.0" fill-opacity="1.0" font-size="17.344206426484906px" stroke="rgb(0,0,0)" stroke-width="1.1050032273367065" fill="rgb(0,0,0)" stroke-linecap="butt" stroke-miterlimit="10.0"><text dominant-baseline="middle" transform="matrix(1.0000,0.0000,0.0000,1.0000,284.9318,58.9703)" stroke="none" text-anchor="middle">Burst</text></g><g stroke-linejoin="miter" stroke-opacity="1.0" fill-opacity="0.0" stroke="rgb(0,0,0)" stroke-width="1.1050032273367065" fill="rgb(0,0,0)" stroke-linecap="butt" stroke-miterlimit="10.0"><path d="M 232.8992,76.3145 h 94.3965 "/></g><g stroke-linejoin="miter" stroke-opacity="1.0" fill-opacity="1.0" stroke="rgb(0,0,0)" stroke-width="0.0" fill="rgb(0,0,0)" stroke-linecap="butt" stroke-miterlimit="10.0"></g><g stroke-linejoin="miter" stroke-opacity="1.0" fill-opacity="1.0" stroke="rgb(0,0,0)" stroke-width="0.0" fill="rgb(0,0,0)" stroke-linecap="butt" stroke-miterlimit="10.0"></g><g stroke-linejoin="miter" stroke-opacity="1.0" fill-opacity="1.0" stroke="rgb(0,0,0)" stroke-width="0.0" fill="rgb(0,0,0)" stroke-linecap="butt" stroke-miterlimit="10.0"><path d="M 336.9645,76.3145 l -11.3103,-3.6750 l 1.9320,3.6750 l -1.9320,3.6750 Z"/></g><g stroke-linejoin="miter" stroke-opacity="1.0" fill-opacity="1.0" stroke="rgb(0,0,0)" stroke-width="0.0" fill="rgb(0,0,0)" stroke-linecap="butt" stroke-miterlimit="10.0"><path d="M 327.5861,76.3145 h -0.2905 v -0.5525 l 0.2905,0.5525 h -0.2905 v 0.5525 Z"/></g><g stroke-linejoin="miter" stroke-opacity="1.0" fill-opacity="1.0" stroke="rgb(255,255,0)" stroke-width="3.4688412852969814" fill="rgb(255,255,224)" stroke-linecap="butt" stroke-miterlimit="10.0"><path d="M 493.0623,76.3145 c 0.0000,-38.3158 -31.0611,-69.3768 -69.3768 -69.3768c -38.3158,-0.0000 -69.3768,31.0611 -69.3768 69.3768c -0.0000,38.3158 31.0611,69.3768 69.3768 69.3768c 38.3158,0.0000 69.3768,-31.0611 69.3768 -69.3768Z"/></g><g stroke-linejoin="miter" stroke-opacity="1.0" fill-opacity="1.0" stroke="rgb(0,139,139)" stroke-width="2.7750730282375855" fill="rgb(0,255,255)" stroke-linecap="butt" stroke-miterlimit="10.0"><path d="M 479.1870,76.3145 c 0.0000,-30.6526 -24.8489,-55.5015 -55.5015 -55.5015c -30.6526,-0.0000 -55.5015,24.8489 -55.5015 55.5015c -0.0000,30.6526 24.8489,55.5015 55.5015 55.5015c 30.6526,0.0000 55.5015,-24.8489 55.5015 -55.5015Z"/></g><g stroke-linejoin="miter" stroke-opacity="1.0" fill-opacity="1.0" stroke="rgb(0,0,0)" stroke-width="0.0" fill="rgb(0,139,139)" stroke-linecap="butt" stroke-miterlimit="10.0"><path d="M 468.0867,79.6805 c 0.0000,-5.0077 -4.0595,-9.0672 -9.0672 -9.0672c -5.0077,-0.0000 -9.0672,4.0595 -9.0672 9.0672c -0.0000,5.0077 4.0595,9.0672 9.0672 9.0672c 5.0077,0.0000 9.0672,-4.0595 9.0672 -9.0672Z"/></g><g stroke-linejoin="miter" stroke-opacity="1.0" fill-opacity="1.0" stroke="rgb(0,0,0)" stroke-width="0.0" fill="rgb(255,255,0)" stroke-linecap="butt" stroke-miterlimit="10.0"><path d="M 449.9522,80.4758 c 0.0000,-4.5684 -3.7034,-8.2718 -8.2718 -8.2718c -4.5684,-0.0000 -8.2718,3.7034 -8.2718 8.2718c -0.0000,4.5684 3.7034,8.2718 8.2718 8.2718c 4.5684,0.0000 8.2718,-3.7034 8.2718 -8.2718Z"/></g><g stroke-linejoin="miter" stroke-opacity="1.0" fill-opacity="1.0" stroke="rgb(255,0,0)" stroke-width="0.41359227935618864" fill="rgb(255,192,203)" stroke-linecap="butt" stroke-miterlimit="10.0"><path d="M 433.4085,80.4758 c 0.0000,-4.5684 -3.7034,-8.2718 -8.2718 -8.2718c -4.5684,-0.0000 -8.2718,3.7034 -8.2718 8.2718c -0.0000,4.5684 3.7034,8.2718 8.2718 8.2718c 4.5684,0.0000 8.2718,-3.7034 8.2718 -8.2718Z"/></g><g stroke-linejoin="miter" stroke-opacity="1.0" fill-opacity="1.0" stroke="rgb(0,128,0)" stroke-width="0.330873823484951" fill="rgb(144,238,144)" stroke-linecap="butt" stroke-miterlimit="10.0"><path d="M 431.7542,80.4758 c 0.0000,-3.6547 -2.9627,-6.6175 -6.6175 -6.6175c -3.6547,-0.0000 -6.6175,2.9627 -6.6175 6.6175c -0.0000,3.6547 2.9627,6.6175 6.6175 6.6175c 3.6547,0.0000 6.6175,-2.9627 6.6175 -6.6175Z"/></g><g stroke-linejoin="miter" stroke-opacity="1.0" fill-opacity="1.0" stroke="rgb(0,0,0)" stroke-width="0.0" fill="rgb(0,128,0)" stroke-linecap="butt" stroke-miterlimit="10.0"><path d="M 430.4307,81.0291 c 0.0000,-0.6735 -0.5460,-1.2195 -1.2195 -1.2195c -0.6735,-0.0000 -1.2195,0.5460 -1.2195 1.2195c -0.0000,0.6735 0.5460,1.2195 1.2195 1.2195c 0.6735,0.0000 1.2195,-0.5460 1.2195 -1.2195Z"/></g><g stroke-linejoin="miter" stroke-opacity="1.0" fill-opacity="1.0" stroke="rgb(0,0,0)" stroke-width="0.0" fill="rgb(255,0,0)" stroke-linecap="butt" stroke-miterlimit="10.0"><path d="M 427.9917,81.0291 c 0.0000,-0.6735 -0.5460,-1.2195 -1.2195 -1.2195c -0.6735,-0.0000 -1.2195,0.5460 -1.2195 1.2195c -0.0000,0.6735 0.5460,1.2195 1.2195 1.2195c 0.6735,0.0000 1.2195,-0.5460 1.2195 -1.2195Z"/></g><g stroke-linejoin="miter" stroke-opacity="1.0" fill-opacity="0.0" stroke="rgb(0,0,0)" stroke-width="1.0" fill="rgb(0,0,0)" stroke-linecap="butt" stroke-miterlimit="10.0"><path d="M 426.7722,79.8097 c 0.4299,-0.1173 0.8599,-0.2345 1.2664 -0.2345c 0.4065,0.0000 0.7895,0.1173 1.1726 0.2345"/></g><g stroke-linejoin="miter" stroke-opacity="1.0" fill-opacity="1.0" stroke="rgb(0,0,0)" stroke-width="0.0" fill="rgb(0,0,0)" stroke-linecap="butt" stroke-miterlimit="10.0"></g><g stroke-linejoin="miter" stroke-opacity="1.0" fill-opacity="1.0" stroke="rgb(0,0,0)" stroke-width="0.0" fill="rgb(0,0,0)" stroke-linecap="butt" stroke-miterlimit="10.0"></g><g stroke-linejoin="miter" stroke-opacity="1.0" fill-opacity="1.0" stroke="rgb(0,0,0)" stroke-width="0.0" fill="rgb(0,0,0)" stroke-linecap="butt" stroke-miterlimit="10.0"></g><g stroke-linejoin="miter" stroke-opacity="1.0" fill-opacity="1.0" stroke="rgb(0,0,0)" stroke-width="0.0" fill="rgb(0,0,0)" stroke-linecap="butt" stroke-miterlimit="10.0"></g><g stroke-linejoin="miter" stroke-opacity="1.0" fill-opacity="1.0" stroke="rgb(0,0,0)" stroke-width="0.0" fill="rgb(255,0,0)" stroke-linecap="butt" stroke-miterlimit="10.0"><path d="M 425.5527,80.9119 c 0.0000,-0.7383 -0.5985,-1.3367 -1.3367 -1.3367c -0.7383,-0.0000 -1.3367,0.5985 -1.3367 1.3367c -0.0000,0.7383 0.5985,1.3367 1.3367 1.3367c 0.7383,0.0000 1.3367,-0.5985 1.3367 -1.3367Z"/></g><g stroke-linejoin="miter" stroke-opacity="1.0" fill-opacity="0.0" stroke="rgb(0,0,0)" stroke-width="1.0" fill="rgb(0,0,0)" stroke-linecap="butt" stroke-miterlimit="10.0"><path d="M 424.2160,79.5751 c 0.6656,-0.1815 1.3312,-0.3630 1.9605 -0.3630c 0.6293,0.0000 1.2223,0.1815 1.8152 0.3630"/></g><g stroke-linejoin="miter" stroke-opacity="1.0" fill-opacity="1.0" stroke="rgb(0,0,0)" stroke-width="0.0" fill="rgb(0,0,0)" stroke-linecap="butt" stroke-miterlimit="10.0"></g><g stroke-linejoin="miter" stroke-opacity="1.0" fill-opacity="1.0" stroke="rgb(0,0,0)" stroke-width="0.0" fill="rgb(0,0,0)" stroke-linecap="butt" stroke-miterlimit="10.0"></g><g stroke-linejoin="miter" stroke-opacity="1.0" fill-opacity="1.0" stroke="rgb(0,0,0)" stroke-width="0.0" fill="rgb(0,0,0)" stroke-linecap="butt" stroke-miterlimit="10.0"></g><g stroke-linejoin="miter" stroke-opacity="1.0" fill-opacity="1.0" stroke="rgb(0,0,0)" stroke-width="0.0" fill="rgb(0,0,0)" stroke-linecap="butt" stroke-miterlimit="10.0"></g><g stroke-linejoin="miter" stroke-opacity="1.0" fill-opacity="1.0" stroke="rgb(0,0,0)" stroke-width="0.0" fill="rgb(255,0,0)" stroke-linecap="butt" stroke-miterlimit="10.0"><path d="M 422.8792,80.7304 c 0.0000,-0.8385 -0.6798,-1.5183 -1.5183 -1.5183c -0.8385,-0.0000 -1.5183,0.6798 -1.5183 1.5183c -0.0000,0.8385 0.6798,1.5183 1.5183 1.5183c 0.8385,0.0000 1.5183,-0.6798 1.5183 -1.5183Z"/></g><g stroke-linejoin="miter" stroke-opacity="1.0" fill-opacity="0.0" stroke="rgb(0,0,0)" stroke-width="1.0" fill="rgb(0,0,0)" stroke-linecap="butt" stroke-miterlimit="10.0"><path d="M 421.3610,79.2121 c 0.9332,-0.2545 1.8665,-0.5090 2.7488 -0.5090c 0.8823,0.0000 1.7138,0.2545 2.5452 0.5090"/></g><g stroke-linejoin="miter" stroke-opacity="1.0" fill-opacity="1.0" stroke="rgb(0,0,0)" stroke-width="0.0" fill="rgb(0,0,0)" stroke-linecap="butt" stroke-miterlimit="10.0"></g><g stroke-linejoin="miter" stroke-opacity="1.0" fill-opacity="1.0" stroke="rgb(0,0,0)" stroke-width="0.0" fill="rgb(0,0,0)" stroke-linecap="butt" stroke-miterlimit="10.0"></g><g stroke-linejoin="miter" stroke-opacity="1.0" fill-opacity="1.0" stroke="rgb(0,0,0)" stroke-width="0.0" fill="rgb(0,0,0)" stroke-linecap="butt" stroke-miterlimit="10.0"></g><g stroke-linejoin="miter" stroke-opacity="1.0" fill-opacity="1.0" stroke="rgb(0,0,0)" stroke-width="0.0" fill="rgb(0,0,0)" stroke-linecap="butt" stroke-miterlimit="10.0"></g><g stroke-linejoin="miter" stroke-opacity="1.0" fill-opacity="0.0" stroke="rgb(0,0,0)" stroke-width="1.0" fill="rgb(0,0,0)" stroke-linecap="butt" stroke-miterlimit="10.0"><path d="M 425.1367,72.2040 c 2.9164,-0.7954 5.8327,-1.5907 8.5900 -1.5907c 2.7573,0.0000 5.3555,0.7954 7.9537 1.5907"/></g><g stroke-linejoin="miter" stroke-opacity="1.0" fill-opacity="1.0" stroke="rgb(0,0,0)" stroke-width="0.0" fill="rgb(0,0,0)" stroke-linecap="butt" stroke-miterlimit="10.0"></g><g stroke-linejoin="miter" stroke-opacity="1.0" fill-opacity="1.0" stroke="rgb(0,0,0)" stroke-width="0.0" fill="rgb(0,0,0)" stroke-linecap="butt" stroke-miterlimit="10.0"></g><g stroke-linejoin="miter" stroke-opacity="1.0" fill-opacity="1.0" stroke="rgb(0,0,0)" stroke-width="0.0" fill="rgb(0,0,0)" stroke-linecap="butt" stroke-miterlimit="10.0"></g><g stroke-linejoin="miter" stroke-opacity="1.0" fill-opacity="1.0" stroke="rgb(0,0,0)" stroke-width="0.0" fill="rgb(0,0,0)" stroke-linecap="butt" stroke-miterlimit="10.0"></g><g stroke-linejoin="miter" stroke-opacity="1.0" fill-opacity="0.0" stroke="rgb(0,0,0)" stroke-width="1.0" fill="rgb(0,0,0)" stroke-linecap="butt" stroke-miterlimit="10.0"><path d="M 433.4085,70.6133 c 4.5147,-1.2313 9.0295,-2.4626 13.2980 -2.4626c 4.2685,-0.0000 8.2907,1.2313 12.3129 2.4626"/></g><g stroke-linejoin="miter" stroke-opacity="1.0" fill-opacity="1.0" stroke="rgb(0,0,0)" stroke-width="0.0" fill="rgb(0,0,0)" stroke-linecap="butt" stroke-miterlimit="10.0"></g><g stroke-linejoin="miter" stroke-opacity="1.0" fill-opacity="1.0" stroke="rgb(0,0,0)" stroke-width="0.0" fill="rgb(0,0,0)" stroke-linecap="butt" stroke-miterlimit="10.0"></g><g stroke-linejoin="miter" stroke-opacity="1.0" fill-opacity="1.0" stroke="rgb(0,0,0)" stroke-width="0.0" fill="rgb(0,0,0)" stroke-linecap="butt" stroke-miterlimit="10.0"></g><g stroke-linejoin="miter" stroke-opacity="1.0" fill-opacity="1.0" stroke="rgb(0,0,0)" stroke-width="0.0" fill="rgb(0,0,0)" stroke-linecap="butt" stroke-miterlimit="10.0"></g><g stroke-linejoin="miter" stroke-opacity="1.0" fill-opacity="1.0" stroke="rgb(0,0,0)" stroke-width="0.0" fill="rgb(255,255,0)" stroke-linecap="butt" stroke-miterlimit="10.0"><path d="M 416.8648,79.3526 c 0.0000,-5.1888 -4.2063,-9.3951 -9.3951 -9.3951c -5.1888,-0.0000 -9.3951,4.2063 -9.3951 9.3951c -0.0000,5.1888 4.2063,9.3951 9.3951 9.3951c 5.1888,0.0000 9.3951,-4.2063 9.3951 -9.3951Z"/></g><g stroke-linejoin="miter" stroke-opacity="1.0" fill-opacity="1.0" stroke="rgb(255,0,0)" stroke-width="0.46975654806093425" fill="rgb(255,192,203)" stroke-linecap="butt" stroke-miterlimit="10.0"><path d="M 398.0746,79.3526 c 0.0000,-5.1888 -4.2063,-9.3951 -9.3951 -9.3951c -5.1888,-0.0000 -9.3951,4.2063 -9.3951 9.3951c -0.0000,5.1888 4.2063,9.3951 9.3951 9.3951c 5.1888,0.0000 9.3951,-4.2063 9.3951 -9.3951Z"/></g><g stroke-linejoin="miter" stroke-opacity="1.0" fill-opacity="1.0" stroke="rgb(0,128,0)" stroke-width="0.37580523844874747" fill="rgb(144,238,144)" stroke-linecap="butt" stroke-miterlimit="10.0"><path d="M 396.1956,79.3526 c 0.0000,-4.1510 -3.3651,-7.5161 -7.5161 -7.5161c -4.1510,-0.0000 -7.5161,3.3651 -7.5161 7.5161c -0.0000,4.1510 3.3651,7.5161 7.5161 7.5161c 4.1510,0.0000 7.5161,-3.3651 7.5161 -7.5161Z"/></g><g stroke-linejoin="miter" stroke-opacity="1.0" fill-opacity="1.0" stroke="rgb(0,0,0)" stroke-width="0.0" fill="rgb(0,128,0)" stroke-linecap="butt" stroke-miterlimit="10.0"><path d="M 394.6923,80.2266 c 0.0000,-0.4412 -0.3576,-0.7988 -0.7988 -0.7988c -0.4412,-0.0000 -0.7988,0.3576 -0.7988 0.7988c -0.0000,0.4412 0.3576,0.7988 0.7988 0.7988c 0.4412,0.0000 0.7988,-0.3576 0.7988 -0.7988Z"/></g><g stroke-linejoin="miter" stroke-opacity="1.0" fill-opacity="1.0" stroke="rgb(0,0,0)" stroke-width="0.0" fill="rgb(255,0,0)" stroke-linecap="butt" stroke-miterlimit="10.0"><path d="M 393.0947,80.2266 c 0.0000,-0.4412 -0.3576,-0.7988 -0.7988 -0.7988c -0.4412,-0.0000 -0.7988,0.3576 -0.7988 0.7988c -0.0000,0.4412 0.3576,0.7988 0.7988 0.7988c 0.4412,0.0000 0.7988,-0.3576 0.7988 -0.7988Z"/></g><g stroke-linejoin="miter" stroke-opacity="1.0" fill-opacity="0.0" stroke="rgb(0,0,0)" stroke-width="1.0" fill="rgb(0,0,0)" stroke-linecap="butt" stroke-miterlimit="10.0"><path d="M 392.2959,79.4278 c 0.2816,-0.0768 0.5633,-0.1536 0.8295 -0.1536c 0.2663,0.0000 0.5172,0.0768 0.7681 0.1536"/></g><g stroke-linejoin="miter" stroke-opacity="1.0" fill-opacity="1.0" stroke="rgb(0,0,0)" stroke-width="0.0" fill="rgb(0,0,0)" stroke-linecap="butt" stroke-miterlimit="10.0"></g><g stroke-linejoin="miter" stroke-opacity="1.0" fill-opacity="1.0" stroke="rgb(0,0,0)" stroke-width="0.0" fill="rgb(0,0,0)" stroke-linecap="butt" stroke-miterlimit="10.0"></g><g stroke-linejoin="miter" stroke-opacity="1.0" fill-opacity="1.0" stroke="rgb(0,0,0)" stroke-width="0.0" fill="rgb(0,0,0)" stroke-linecap="butt" stroke-miterlimit="10.0"></g><g stroke-linejoin="miter" stroke-opacity="1.0" fill-opacity="1.0" stroke="rgb(0,0,0)" stroke-width="0.0" fill="rgb(0,0,0)" stroke-linecap="butt" stroke-miterlimit="10.0"></g><g stroke-linejoin="miter" stroke-opacity="1.0" fill-opacity="1.0" stroke="rgb(0,0,0)" stroke-width="0.0" fill="rgb(255,0,0)" stroke-linecap="butt" stroke-miterlimit="10.0"><path d="M 391.4971,80.1498 c 0.0000,-0.4836 -0.3920,-0.8756 -0.8756 -0.8756c -0.4836,-0.0000 -0.8756,0.3920 -0.8756 0.8756c -0.0000,0.4836 0.3920,0.8756 0.8756 0.8756c 0.4836,0.0000 0.8756,-0.3920 0.8756 -0.8756Z"/></g><g stroke-linejoin="miter" stroke-opacity="1.0" fill-opacity="0.0" stroke="rgb(0,0,0)" stroke-width="1.0" fill="rgb(0,0,0)" stroke-linecap="butt" stroke-miterlimit="10.0"><path d="M 390.6214,79.2742 c 0.4360,-0.1189 0.8720,-0.2378 1.2842 -0.2378c 0.4122,0.0000 0.8006,0.1189 1.1891 0.2378"/></g><g stroke-linejoin="miter" stroke-opacity="1.0" fill-opacity="1.0" stroke="rgb(0,0,0)" stroke-width="0.0" fill="rgb(0,0,0)" stroke-linecap="butt" stroke-miterlimit="10.0"></g><g stroke-linejoin="miter" stroke-opacity="1.0" fill-opacity="1.0" stroke="rgb(0,0,0)" stroke-width="0.0" fill="rgb(0,0,0)" stroke-linecap="butt" stroke-miterlimit="10.0"></g><g stroke-linejoin="miter" stroke-opacity="1.0" fill-opacity="1.0" stroke="rgb(0,0,0)" stroke-width="0.0" fill="rgb(0,0,0)" stroke-linecap="butt" stroke-miterlimit="10.0"></g><g stroke-linejoin="miter" stroke-opacity="1.0" fill-opacity="1.0" stroke="rgb(0,0,0)" stroke-width="0.0" fill="rgb(0,0,0)" stroke-linecap="butt" stroke-miterlimit="10.0"></g><g stroke-linejoin="miter" stroke-opacity="1.0" fill-opacity="1.0" stroke="rgb(0,0,0)" stroke-width="0.0" fill="rgb(255,0,0)" stroke-linecap="butt" stroke-miterlimit="10.0"><path d="M 389.7458,80.0309 c 0.0000,-0.5493 -0.4453,-0.9945 -0.9945 -0.9945c -0.5493,-0.0000 -0.9945,0.4453 -0.9945 0.9945c -0.0000,0.5493 0.4453,0.9945 0.9945 0.9945c 0.5493,0.0000 0.9945,-0.4453 0.9945 -0.9945Z"/></g><g stroke-linejoin="miter" stroke-opacity="1.0" fill-opacity="0.0" stroke="rgb(0,0,0)" stroke-width="1.0" fill="rgb(0,0,0)" stroke-linecap="butt" stroke-miterlimit="10.0"><path d="M 388.7513,79.0364 c 0.6113,-0.1667 1.2226,-0.3334 1.8006 -0.3334c 0.5780,-0.0000 1.1226,0.1667 1.6672 0.3334"/></g><g stroke-linejoin="miter" stroke-opacity="1.0" fill-opacity="1.0" stroke="rgb(0,0,0)" stroke-width="0.0" fill="rgb(0,0,0)" stroke-linecap="butt" stroke-miterlimit="10.0"></g><g stroke-linejoin="miter" stroke-opacity="1.0" fill-opacity="1.0" stroke="rgb(0,0,0)" stroke-width="0.0" fill="rgb(0,0,0)" stroke-linecap="butt" stroke-miterlimit="10.0"></g><g stroke-linejoin="miter" stroke-opacity="1.0" fill-opacity="1.0" stroke="rgb(0,0,0)" stroke-width="0.0" fill="rgb(0,0,0)" stroke-linecap="butt" stroke-miterlimit="10.0"></g><g stroke-linejoin="miter" stroke-opacity="1.0" fill-opacity="1.0" stroke="rgb(0,0,0)" stroke-width="0.0" fill="rgb(0,0,0)" stroke-linecap="butt" stroke-miterlimit="10.0"></g><g stroke-linejoin="miter" stroke-opacity="1.0" fill-opacity="1.0" stroke="rgb(0,0,0)" stroke-width="0.0" fill="rgb(255,0,0)" stroke-linecap="butt" stroke-miterlimit="10.0"><path d="M 387.7567,79.8642 c 0.0000,-0.6413 -0.5199,-1.1613 -1.1613 -1.1613c -0.6413,-0.0000 -1.1613,0.5199 -1.1613 1.1613c -0.0000,0.6413 0.5199,1.1613 1.1613 1.1613c 0.6413,0.0000 1.1613,-0.5199 1.1613 -1.1613Z"/></g><g stroke-linejoin="miter" stroke-opacity="1.0" fill-opacity="0.0" stroke="rgb(0,0,0)" stroke-width="1.0" fill="rgb(0,0,0)" stroke-linecap="butt" stroke-miterlimit="10.0"><path d="M 386.5955,78.7029 c 0.8160,-0.2226 1.6320,-0.4451 2.4036 -0.4451c 0.7715,-0.0000 1.4985,0.2226 2.2255 0.4451"/></g><g stroke-linejoin="miter" stroke-opacity="1.0" fill-opacity="1.0" stroke="rgb(0,0,0)" stroke-width="0.0" fill="rgb(0,0,0)" stroke-linecap="butt" stroke-miterlimit="10.0"></g><g stroke-linejoin="miter" stroke-opacity="1.0" fill-opacity="1.0" stroke="rgb(0,0,0)" stroke-width="0.0" fill="rgb(0,0,0)" stroke-linecap="butt" stroke-miterlimit="10.0"></g><g stroke-linejoin="miter" stroke-opacity="1.0" fill-opacity="1.0" stroke="rgb(0,0,0)" stroke-width="0.0" fill="rgb(0,0,0)" stroke-linecap="butt" stroke-miterlimit="10.0"></g><g stroke-linejoin="miter" stroke-opacity="1.0" fill-opacity="1.0" stroke="rgb(0,0,0)" stroke-width="0.0" fill="rgb(0,0,0)" stroke-linecap="butt" stroke-miterlimit="10.0"></g><g stroke-linejoin="miter" stroke-opacity="1.0" fill-opacity="1.0" stroke="rgb(0,0,0)" stroke-width="0.0" fill="rgb(255,0,0)" stroke-linecap="butt" stroke-miterlimit="10.0"><path d="M 385.4342,79.6416 c 0.0000,-0.7643 -0.6196,-1.3838 -1.3838 -1.3838c -0.7643,-0.0000 -1.3838,0.6196 -1.3838 1.3838c -0.0000,0.7643 0.6196,1.3838 1.3838 1.3838c 0.7643,0.0000 1.3838,-0.6196 1.3838 -1.3838Z"/></g><g stroke-linejoin="miter" stroke-opacity="1.0" fill-opacity="0.0" stroke="rgb(0,0,0)" stroke-width="1.0" fill="rgb(0,0,0)" stroke-linecap="butt" stroke-miterlimit="10.0"><path d="M 384.0504,78.2578 c 1.0600,-0.2891 2.1199,-0.5782 3.1221 -0.5782c 1.0021,0.0000 1.9465,0.2891 2.8908 0.5782"/></g><g stroke-linejoin="miter" stroke-opacity="1.0" fill-opacity="1.0" stroke="rgb(0,0,0)" stroke-width="0.0" fill="rgb(0,0,0)" stroke-linecap="butt" stroke-miterlimit="10.0"></g><g stroke-linejoin="miter" stroke-opacity="1.0" fill-opacity="1.0" stroke="rgb(0,0,0)" stroke-width="0.0" fill="rgb(0,0,0)" stroke-linecap="butt" stroke-miterlimit="10.0"></g><g stroke-linejoin="miter" stroke-opacity="1.0" fill-opacity="1.0" stroke="rgb(0,0,0)" stroke-width="0.0" fill="rgb(0,0,0)" stroke-linecap="butt" stroke-miterlimit="10.0"></g><g stroke-linejoin="miter" stroke-opacity="1.0" fill-opacity="1.0" stroke="rgb(0,0,0)" stroke-width="0.0" fill="rgb(0,0,0)" stroke-linecap="butt" stroke-miterlimit="10.0"></g><g stroke-linejoin="miter" stroke-opacity="1.0" fill-opacity="0.0" stroke="rgb(0,0,0)" stroke-width="1.0" fill="rgb(0,0,0)" stroke-linecap="butt" stroke-miterlimit="10.0"><path d="M 388.6795,69.9574 c 3.3124,-0.9034 6.6248,-1.8068 9.7565 -1.8068c 3.1317,-0.0000 6.0827,0.9034 9.0338 1.8068"/></g><g stroke-linejoin="miter" stroke-opacity="1.0" fill-opacity="1.0" stroke="rgb(0,0,0)" stroke-width="0.0" fill="rgb(0,0,0)" stroke-linecap="butt" stroke-miterlimit="10.0"></g><g stroke-linejoin="miter" stroke-opacity="1.0" fill-opacity="1.0" stroke="rgb(0,0,0)" stroke-width="0.0" fill="rgb(0,0,0)" stroke-linecap="butt" stroke-miterlimit="10.0"></g><g stroke-linejoin="miter" stroke-opacity="1.0" fill-opacity="1.0" stroke="rgb(0,0,0)" stroke-width="0.0" fill="rgb(0,0,0)" stroke-linecap="butt" stroke-miterlimit="10.0"></g><g stroke-linejoin="miter" stroke-opacity="1.0" fill-opacity="1.0" stroke="rgb(0,0,0)" stroke-width="0.0" fill="rgb(0,0,0)" stroke-linecap="butt" stroke-miterlimit="10.0"></g><g stroke-linejoin="miter" stroke-opacity="1.0" fill-opacity="0.0" stroke="rgb(0,0,0)" stroke-width="1.0" fill="rgb(0,0,0)" stroke-linecap="butt" stroke-miterlimit="10.0"><path d="M 398.0746,68.1507 c 7.8271,-2.1347 15.6543,-4.2693 23.0545 -4.2693c 7.4002,-0.0000 14.3735,2.1347 21.3467 4.2693"/></g><g stroke-linejoin="miter" stroke-opacity="1.0" fill-opacity="1.0" stroke="rgb(0,0,0)" stroke-width="0.0" fill="rgb(0,0,0)" stroke-linecap="butt" stroke-miterlimit="10.0"></g><g stroke-linejoin="miter" stroke-opacity="1.0" fill-opacity="1.0" stroke="rgb(0,0,0)" stroke-width="0.0" fill="rgb(0,0,0)" stroke-linecap="butt" stroke-miterlimit="10.0"></g><g stroke-linejoin="miter" stroke-opacity="1.0" fill-opacity="1.0" stroke="rgb(0,0,0)" stroke-width="0.0" fill="rgb(0,0,0)" stroke-linecap="butt" stroke-miterlimit="10.0"></g><g stroke-linejoin="miter" stroke-opacity="1.0" fill-opacity="1.0" stroke="rgb(0,0,0)" stroke-width="0.0" fill="rgb(0,0,0)" stroke-linecap="butt" stroke-miterlimit="10.0"></g><g stroke-linejoin="miter" stroke-opacity="1.0" fill-opacity="1.0" stroke="rgb(255,0,0)" stroke-width="1.734420642648491" fill="rgb(255,192,203)" stroke-linecap="butt" stroke-miterlimit="10.0"><path d="M 205.7571,81.0251 c 0.0000,-19.1579 -15.5305,-34.6884 -34.6884 -34.6884c -19.1579,-0.0000 -34.6884,15.5305 -34.6884 34.6884c -0.0000,19.1579 15.5305,34.6884 34.6884 34.6884c 19.1579,0.0000 34.6884,-15.5305 34.6884 -34.6884Z"/></g><g stroke-linejoin="miter" stroke-opacity="1.0" fill-opacity="1.0" stroke="rgb(0,128,0)" stroke-width="1.387536514118793" fill="rgb(144,238,144)" stroke-linecap="butt" stroke-miterlimit="10.0"><path d="M 198.8194,81.0251 c 0.0000,-15.3263 -12.4244,-27.7507 -27.7507 -27.7507c -15.3263,-0.0000 -27.7507,12.4244 -27.7507 27.7507c -0.0000,15.3263 12.4244,27.7507 27.7507 27.7507c 15.3263,0.0000 27.7507,-12.4244 27.7507 -27.7507Z"/></g><g stroke-linejoin="miter" stroke-opacity="1.0" fill-opacity="1.0" stroke="rgb(0,0,0)" stroke-width="0.0" fill="rgb(0,128,0)" stroke-linecap="butt" stroke-miterlimit="10.0"><path d="M 193.2692,83.3454 c 0.0000,-2.8244 -2.2896,-5.1140 -5.1140 -5.1140c -2.8244,-0.0000 -5.1140,2.2896 -5.1140 5.1140c -0.0000,2.8244 2.2896,5.1140 5.1140 5.1140c 2.8244,0.0000 5.1140,-2.2896 5.1140 -5.1140Z"/></g><g stroke-linejoin="miter" stroke-opacity="1.0" fill-opacity="1.0" stroke="rgb(0,0,0)" stroke-width="0.0" fill="rgb(255,0,0)" stroke-linecap="butt" stroke-miterlimit="10.0"><path d="M 183.0413,83.3454 c 0.0000,-2.8244 -2.2896,-5.1140 -5.1140 -5.1140c -2.8244,-0.0000 -5.1140,2.2896 -5.1140 5.1140c -0.0000,2.8244 2.2896,5.1140 5.1140 5.1140c 2.8244,0.0000 5.1140,-2.2896 5.1140 -5.1140Z"/></g><g stroke-linejoin="miter" stroke-opacity="1.0" fill-opacity="0.0" stroke="rgb(0,0,0)" stroke-width="1.0" fill="rgb(0,0,0)" stroke-linecap="butt" stroke-miterlimit="10.0"><path d="M 177.9273,78.2314 c 1.8030,-0.4917 3.6060,-0.9835 5.3107 -0.9835c 1.7047,0.0000 3.3110,0.4917 4.9173 0.9835"/></g><g stroke-linejoin="miter" stroke-opacity="1.0" fill-opacity="1.0" stroke="rgb(0,0,0)" stroke-width="0.0" fill="rgb(0,0,0)" stroke-linecap="butt" stroke-miterlimit="10.0"></g><g stroke-linejoin="miter" stroke-opacity="1.0" fill-opacity="1.0" stroke="rgb(0,0,0)" stroke-width="0.0" fill="rgb(0,0,0)" stroke-linecap="butt" stroke-miterlimit="10.0"></g><g stroke-linejoin="miter" stroke-opacity="1.0" fill-opacity="1.0" stroke="rgb(0,0,0)" stroke-width="0.0" fill="rgb(0,0,0)" stroke-linecap="butt" stroke-miterlimit="10.0"></g><g stroke-linejoin="miter" stroke-opacity="1.0" fill-opacity="1.0" stroke="rgb(0,0,0)" stroke-width="0.0" fill="rgb(0,0,0)" stroke-linecap="butt" stroke-miterlimit="10.0"></g><g stroke-linejoin="miter" stroke-opacity="1.0" fill-opacity="1.0" stroke="rgb(0,0,0)" stroke-width="0.0" fill="rgb(255,0,0)" stroke-linecap="butt" stroke-miterlimit="10.0"><path d="M 172.8133,82.8536 c 0.0000,-3.0959 -2.5098,-5.6057 -5.6057 -5.6057c -3.0959,-0.0000 -5.6057,2.5098 -5.6057 5.6057c -0.0000,3.0959 2.5098,5.6057 5.6057 5.6057c 3.0959,0.0000 5.6057,-2.5098 5.6057 -5.6057Z"/></g><g stroke-linejoin="miter" stroke-opacity="1.0" fill-opacity="0.0" stroke="rgb(0,0,0)" stroke-width="1.0" fill="rgb(0,0,0)" stroke-linecap="butt" stroke-miterlimit="10.0"><path d="M 167.2076,77.2479 c 2.7912,-0.7612 5.5824,-1.5225 8.2213 -1.5225c 2.6389,-0.0000 5.1256,0.7612 7.6123 1.5225"/></g><g stroke-linejoin="miter" stroke-opacity="1.0" fill-opacity="1.0" stroke="rgb(0,0,0)" stroke-width="0.0" fill="rgb(0,0,0)" stroke-linecap="butt" stroke-miterlimit="10.0"></g><g stroke-linejoin="miter" stroke-opacity="1.0" fill-opacity="1.0" stroke="rgb(0,0,0)" stroke-width="0.0" fill="rgb(0,0,0)" stroke-linecap="butt" stroke-miterlimit="10.0"></g><g stroke-linejoin="miter" stroke-opacity="1.0" fill-opacity="1.0" stroke="rgb(0,0,0)" stroke-width="0.0" fill="rgb(0,0,0)" stroke-linecap="butt" stroke-miterlimit="10.0"></g><g stroke-linejoin="miter" stroke-opacity="1.0" fill-opacity="1.0" stroke="rgb(0,0,0)" stroke-width="0.0" fill="rgb(0,0,0)" stroke-linecap="butt" stroke-miterlimit="10.0"></g><g stroke-linejoin="miter" stroke-opacity="1.0" fill-opacity="1.0" stroke="rgb(0,0,0)" stroke-width="0.0" fill="rgb(255,0,0)" stroke-linecap="butt" stroke-miterlimit="10.0"><path d="M 161.6019,82.0924 c 0.0000,-3.5164 -2.8506,-6.3669 -6.3669 -6.3669c -3.5164,-0.0000 -6.3669,2.8506 -6.3669 6.3669c -0.0000,3.5164 2.8506,6.3669 6.3669 6.3669c 3.5164,0.0000 6.3669,-2.8506 6.3669 -6.3669Z"/></g><g stroke-linejoin="miter" stroke-opacity="1.0" fill-opacity="0.0" stroke="rgb(0,0,0)" stroke-width="1.0" fill="rgb(0,0,0)" stroke-linecap="butt" stroke-miterlimit="10.0"><path d="M 155.2350,75.7255 c 3.9136,-1.0673 7.8271,-2.1347 11.5272 -2.1347c 3.7001,0.0000 7.1867,1.0673 10.6734 2.1347"/></g><g stroke-linejoin="miter" stroke-opacity="1.0" fill-opacity="1.0" stroke="rgb(0,0,0)" stroke-width="0.0" fill="rgb(0,0,0)" stroke-linecap="butt" stroke-miterlimit="10.0"></g><g stroke-linejoin="miter" stroke-opacity="1.0" fill-opacity="1.0" stroke="rgb(0,0,0)" stroke-width="0.0" fill="rgb(0,0,0)" stroke-linecap="butt" stroke-miterlimit="10.0"></g><g stroke-linejoin="miter" stroke-opacity="1.0" fill-opacity="1.0" stroke="rgb(0,0,0)" stroke-width="0.0" fill="rgb(0,0,0)" stroke-linecap="butt" stroke-miterlimit="10.0"></g><g stroke-linejoin="miter" stroke-opacity="1.0" fill-opacity="1.0" stroke="rgb(0,0,0)" stroke-width="0.0" fill="rgb(0,0,0)" stroke-linecap="butt" stroke-miterlimit="10.0"></g><g stroke-linejoin="miter" stroke-opacity="1.0" fill-opacity="1.0" stroke="rgb(255,0,0)" stroke-width="1.5822784810126584" fill="rgb(255,192,203)" stroke-linecap="butt" stroke-miterlimit="10.0"><path d="M 136.3802,84.0679 c 0.0000,-17.4774 -14.1682,-31.6456 -31.6456 -31.6456c -17.4774,-0.0000 -31.6456,14.1682 -31.6456 31.6456c -0.0000,17.4774 14.1682,31.6456 31.6456 31.6456c 17.4774,0.0000 31.6456,-14.1682 31.6456 -31.6456Z"/></g><g stroke-linejoin="miter" stroke-opacity="1.0" fill-opacity="1.0" stroke="rgb(0,128,0)" stroke-width="1.2658227848101269" fill="rgb(144,238,144)" stroke-linecap="butt" stroke-miterlimit="10.0"><path d="M 130.0511,84.0679 c 0.0000,-13.9819 -11.3346,-25.3165 -25.3165 -25.3165c -13.9819,-0.0000 -25.3165,11.3346 -25.3165 25.3165c -0.0000,13.9819 11.3346,25.3165 25.3165 25.3165c 13.9819,0.0000 25.3165,-11.3346 25.3165 -25.3165Z"/></g><g stroke-linejoin="miter" stroke-opacity="1.0" fill-opacity="1.0" stroke="rgb(0,0,0)" stroke-width="0.0" fill="rgb(0,128,0)" stroke-linecap="butt" stroke-miterlimit="10.0"><path d="M 124.9878,87.0120 c 0.0000,-1.4860 -1.2047,-2.6907 -2.6907 -2.6907c -1.4860,-0.0000 -2.6907,1.2047 -2.6907 2.6907c -0.0000,1.4860 1.2047,2.6907 2.6907 2.6907c 1.4860,0.0000 2.6907,-1.2047 2.6907 -2.6907Z"/></g><g stroke-linejoin="miter" stroke-opacity="1.0" fill-opacity="1.0" stroke="rgb(0,0,0)" stroke-width="0.0" fill="rgb(255,0,0)" stroke-linecap="butt" stroke-miterlimit="10.0"><path d="M 119.6065,87.0120 c 0.0000,-1.4860 -1.2047,-2.6907 -2.6907 -2.6907c -1.4860,-0.0000 -2.6907,1.2047 -2.6907 2.6907c -0.0000,1.4860 1.2047,2.6907 2.6907 2.6907c 1.4860,0.0000 2.6907,-1.2047 2.6907 -2.6907Z"/></g><g stroke-linejoin="miter" stroke-opacity="1.0" fill-opacity="0.0" stroke="rgb(0,0,0)" stroke-width="1.0" fill="rgb(0,0,0)" stroke-linecap="butt" stroke-miterlimit="10.0"><path d="M 116.9158,84.3214 c 0.9486,-0.2587 1.8973,-0.5174 2.7942 -0.5174c 0.8969,0.0000 1.7420,0.2587 2.5872 0.5174"/></g><g stroke-linejoin="miter" stroke-opacity="1.0" fill-opacity="1.0" stroke="rgb(0,0,0)" stroke-width="0.0" fill="rgb(0,0,0)" stroke-linecap="butt" stroke-miterlimit="10.0"></g><g stroke-linejoin="miter" stroke-opacity="1.0" fill-opacity="1.0" stroke="rgb(0,0,0)" stroke-width="0.0" fill="rgb(0,0,0)" stroke-linecap="butt" stroke-miterlimit="10.0"></g><g stroke-linejoin="miter" stroke-opacity="1.0" fill-opacity="1.0" stroke="rgb(0,0,0)" stroke-width="0.0" fill="rgb(0,0,0)" stroke-linecap="butt" stroke-miterlimit="10.0"></g><g stroke-linejoin="miter" stroke-opacity="1.0" fill-opacity="1.0" stroke="rgb(0,0,0)" stroke-width="0.0" fill="rgb(0,0,0)" stroke-linecap="butt" stroke-miterlimit="10.0"></g><g stroke-linejoin="miter" stroke-opacity="1.0" fill-opacity="1.0" stroke="rgb(0,0,0)" stroke-width="0.0" fill="rgb(255,0,0)" stroke-linecap="butt" stroke-miterlimit="10.0"><path d="M 114.2252,86.7533 c 0.0000,-1.6289 -1.3205,-2.9494 -2.9494 -2.9494c -1.6289,-0.0000 -2.9494,1.3205 -2.9494 2.9494c -0.0000,1.6289 1.3205,2.9494 2.9494 2.9494c 1.6289,0.0000 2.9494,-1.3205 2.9494 -2.9494Z"/></g><g stroke-linejoin="miter" stroke-opacity="1.0" fill-opacity="0.0" stroke="rgb(0,0,0)" stroke-width="1.0" fill="rgb(0,0,0)" stroke-linecap="butt" stroke-miterlimit="10.0"><path d="M 111.2758,83.8039 c 1.4686,-0.4005 2.9371,-0.8010 4.3256 -0.8010c 1.3885,0.0000 2.6968,0.4005 4.0052 0.8010"/></g><g stroke-linejoin="miter" stroke-opacity="1.0" fill-opacity="1.0" stroke="rgb(0,0,0)" stroke-width="0.0" fill="rgb(0,0,0)" stroke-linecap="butt" stroke-miterlimit="10.0"></g><g stroke-linejoin="miter" stroke-opacity="1.0" fill-opacity="1.0" stroke="rgb(0,0,0)" stroke-width="0.0" fill="rgb(0,0,0)" stroke-linecap="butt" stroke-miterlimit="10.0"></g><g stroke-linejoin="miter" stroke-opacity="1.0" fill-opacity="1.0" stroke="rgb(0,0,0)" stroke-width="0.0" fill="rgb(0,0,0)" stroke-linecap="butt" stroke-miterlimit="10.0"></g><g stroke-linejoin="miter" stroke-opacity="1.0" fill-opacity="1.0" stroke="rgb(0,0,0)" stroke-width="0.0" fill="rgb(0,0,0)" stroke-linecap="butt" stroke-miterlimit="10.0"></g><g stroke-linejoin="miter" stroke-opacity="1.0" fill-opacity="1.0" stroke="rgb(0,0,0)" stroke-width="0.0" fill="rgb(255,0,0)" stroke-linecap="butt" stroke-miterlimit="10.0"><path d="M 108.3264,86.3528 c 0.0000,-1.8501 -1.4998,-3.3499 -3.3499 -3.3499c -1.8501,-0.0000 -3.3499,1.4998 -3.3499 3.3499c -0.0000,1.8501 1.4998,3.3499 3.3499 3.3499c 1.8501,0.0000 3.3499,-1.4998 3.3499 -3.3499Z"/></g><g stroke-linejoin="miter" stroke-opacity="1.0" fill-opacity="0.0" stroke="rgb(0,0,0)" stroke-width="1.0" fill="rgb(0,0,0)" stroke-linecap="butt" stroke-miterlimit="10.0"><path d="M 104.9765,83.0029 c 2.0591,-0.5616 4.1182,-1.1231 6.0649 -1.1231c 1.9468,-0.0000 3.7812,0.5616 5.6157 1.1231"/></g><g stroke-linejoin="miter" stroke-opacity="1.0" fill-opacity="1.0" stroke="rgb(0,0,0)" stroke-width="0.0" fill="rgb(0,0,0)" stroke-linecap="butt" stroke-miterlimit="10.0"></g><g stroke-linejoin="miter" stroke-opacity="1.0" fill-opacity="1.0" stroke="rgb(0,0,0)" stroke-width="0.0" fill="rgb(0,0,0)" stroke-linecap="butt" stroke-miterlimit="10.0"></g><g stroke-linejoin="miter" stroke-opacity="1.0" fill-opacity="1.0" stroke="rgb(0,0,0)" stroke-width="0.0" fill="rgb(0,0,0)" stroke-linecap="butt" stroke-miterlimit="10.0"></g><g stroke-linejoin="miter" stroke-opacity="1.0" fill-opacity="1.0" stroke="rgb(0,0,0)" stroke-width="0.0" fill="rgb(0,0,0)" stroke-linecap="butt" stroke-miterlimit="10.0"></g><g stroke-linejoin="miter" stroke-opacity="1.0" fill-opacity="1.0" stroke="rgb(0,0,0)" stroke-width="0.0" fill="rgb(255,0,0)" stroke-linecap="butt" stroke-miterlimit="10.0"><path d="M 101.6266,85.7912 c 0.0000,-2.1602 -1.7512,-3.9115 -3.9115 -3.9115c -2.1602,-0.0000 -3.9115,1.7512 -3.9115 3.9115c -0.0000,2.1602 1.7512,3.9115 3.9115 3.9115c 2.1602,0.0000 3.9115,-1.7512 3.9115 -3.9115Z"/></g><g stroke-linejoin="miter" stroke-opacity="1.0" fill-opacity="0.0" stroke="rgb(0,0,0)" stroke-width="1.0" fill="rgb(0,0,0)" stroke-linecap="butt" stroke-miterlimit="10.0"><path d="M 97.7151,81.8798 c 2.7486,-0.7496 5.4972,-1.4992 8.0959 -1.4992c 2.5987,-0.0000 5.0474,0.7496 7.4962 1.4992"/></g><g stroke-linejoin="miter" stroke-opacity="1.0" fill-opacity="1.0" stroke="rgb(0,0,0)" stroke-width="0.0" fill="rgb(0,0,0)" stroke-linecap="butt" stroke-miterlimit="10.0"></g><g stroke-linejoin="miter" stroke-opacity="1.0" fill-opacity="1.0" stroke="rgb(0,0,0)" stroke-width="0.0" fill="rgb(0,0,0)" stroke-linecap="butt" stroke-miterlimit="10.0"></g><g stroke-linejoin="miter" stroke-opacity="1.0" fill-opacity="1.0" stroke="rgb(0,0,0)" stroke-width="0.0" fill="rgb(0,0,0)" stroke-linecap="butt" stroke-miterlimit="10.0"></g><g stroke-linejoin="miter" stroke-opacity="1.0" fill-opacity="1.0" stroke="rgb(0,0,0)" stroke-width="0.0" fill="rgb(0,0,0)" stroke-linecap="butt" stroke-miterlimit="10.0"></g><g stroke-linejoin="miter" stroke-opacity="1.0" fill-opacity="1.0" stroke="rgb(0,0,0)" stroke-width="0.0" fill="rgb(255,0,0)" stroke-linecap="butt" stroke-miterlimit="10.0"><path d="M 93.8037,85.0416 c 0.0000,-2.5742 -2.0868,-4.6611 -4.6611 -4.6611c -2.5742,-0.0000 -4.6611,2.0868 -4.6611 4.6611c -0.0000,2.5742 2.0868,4.6611 4.6611 4.6611c 2.5742,0.0000 4.6611,-2.0868 4.6611 -4.6611Z"/></g><g stroke-linejoin="miter" stroke-opacity="1.0" fill-opacity="0.0" stroke="rgb(0,0,0)" stroke-width="1.0" fill="rgb(0,0,0)" stroke-linecap="butt" stroke-miterlimit="10.0"><path d="M 89.1426,80.3805 c 3.5703,-0.9737 7.1405,-1.9474 10.5161 -1.9474c 3.3755,0.0000 6.5563,0.9737 9.7371 1.9474"/></g><g stroke-linejoin="miter" stroke-opacity="1.0" fill-opacity="1.0" stroke="rgb(0,0,0)" stroke-width="0.0" fill="rgb(0,0,0)" stroke-linecap="butt" stroke-miterlimit="10.0"></g><g stroke-linejoin="miter" stroke-opacity="1.0" fill-opacity="1.0" stroke="rgb(0,0,0)" stroke-width="0.0" fill="rgb(0,0,0)" stroke-linecap="butt" stroke-miterlimit="10.0"></g><g stroke-linejoin="miter" stroke-opacity="1.0" fill-opacity="1.0" stroke="rgb(0,0,0)" stroke-width="0.0" fill="rgb(0,0,0)" stroke-linecap="butt" stroke-miterlimit="10.0"></g><g stroke-linejoin="miter" stroke-opacity="1.0" fill-opacity="1.0" stroke="rgb(0,0,0)" stroke-width="0.0" fill="rgb(0,0,0)" stroke-linecap="butt" stroke-miterlimit="10.0"></g><g stroke-linejoin="miter" stroke-opacity="1.0" fill-opacity="1.0" stroke="rgb(0,0,255)" stroke-width="1.5822784810126584" fill="rgb(173,216,230)" stroke-linecap="butt" stroke-miterlimit="10.0"><path d="M 73.0891,84.0679 c 0.0000,-17.4774 -14.1682,-31.6456 -31.6456 -31.6456c -17.4774,-0.0000 -31.6456,14.1682 -31.6456 31.6456c -0.0000,17.4774 14.1682,31.6456 31.6456 31.6456c 17.4774,0.0000 31.6456,-14.1682 31.6456 -31.6456Z"/></g><g stroke-linejoin="miter" stroke-opacity="1.0" fill-opacity="1.0" stroke="rgb(128,0,128)" stroke-width="1.2658227848101269" fill="rgb(147,112,219)" stroke-linecap="butt" stroke-miterlimit="10.0"><path d="M 66.7600,84.0679 c 0.0000,-13.9819 -11.3346,-25.3165 -25.3165 -25.3165c -13.9819,-0.0000 -25.3165,11.3346 -25.3165 25.3165c -0.0000,13.9819 11.3346,25.3165 25.3165 25.3165c 13.9819,0.0000 25.3165,-11.3346 25.3165 -25.3165Z"/></g><g stroke-linejoin="miter" stroke-opacity="1.0" fill-opacity="1.0" stroke="rgb(255,255,0)" stroke-width="1.0126582278481016" fill="rgb(255,255,224)" stroke-linecap="butt" stroke-miterlimit="10.0"><path d="M 61.6967,84.0679 c 0.0000,-11.1855 -9.0677,-20.2532 -20.2532 -20.2532c -11.1855,-0.0000 -20.2532,9.0677 -20.2532 20.2532c -0.0000,11.1855 9.0677,20.2532 20.2532 20.2532c 11.1855,0.0000 20.2532,-9.0677 20.2532 -20.2532Z"/></g><g stroke-linejoin="miter" stroke-opacity="1.0" fill-opacity="1.0" stroke="rgb(0,139,139)" stroke-width="0.8101265822784813" fill="rgb(0,255,255)" stroke-linecap="butt" stroke-miterlimit="10.0"><path d="M 57.6461,84.0679 c 0.0000,-8.9484 -7.2541,-16.2025 -16.2025 -16.2025c -8.9484,-0.0000 -16.2025,7.2541 -16.2025 16.2025c -0.0000,8.9484 7.2541,16.2025 16.2025 16.2025c 8.9484,0.0000 16.2025,-7.2541 16.2025 -16.2025Z"/></g><g stroke-linejoin="miter" stroke-opacity="1.0" fill-opacity="1.0" stroke="rgb(0,0,0)" stroke-width="0.0" fill="rgb(0,139,139)" stroke-linecap="butt" stroke-miterlimit="10.0"><path d="M 54.4056,85.0505 c 0.0000,-1.4619 -1.1851,-2.6470 -2.6470 -2.6470c -1.4619,-0.0000 -2.6470,1.1851 -2.6470 2.6470c -0.0000,1.4619 1.1851,2.6470 2.6470 2.6470c 1.4619,0.0000 2.6470,-1.1851 2.6470 -2.6470Z"/></g><g stroke-linejoin="miter" stroke-opacity="1.0" fill-opacity="1.0" stroke="rgb(0,0,0)" stroke-width="0.0" fill="rgb(255,255,0)" stroke-linecap="butt" stroke-miterlimit="10.0"><path d="M 49.1116,85.2827 c 0.0000,-1.3337 -1.0811,-2.4148 -2.4148 -2.4148c -1.3337,-0.0000 -2.4148,1.0811 -2.4148 2.4148c -0.0000,1.3337 1.0811,2.4148 2.4148 2.4148c 1.3337,0.0000 2.4148,-1.0811 2.4148 -2.4148Z"/></g><g stroke-linejoin="miter" stroke-opacity="1.0" fill-opacity="1.0" stroke="rgb(0,0,0)" stroke-width="0.0" fill="rgb(128,0,128)" stroke-linecap="butt" stroke-miterlimit="10.0"><path d="M 44.2820,85.2827 c 0.0000,-1.3337 -1.0811,-2.4148 -2.4148 -2.4148c -1.3337,-0.0000 -2.4148,1.0811 -2.4148 2.4148c -0.0000,1.3337 1.0811,2.4148 2.4148 2.4148c 1.3337,0.0000 2.4148,-1.0811 2.4148 -2.4148Z"/></g><g stroke-linejoin="miter" stroke-opacity="1.0" fill-opacity="0.0" stroke="rgb(0,0,0)" stroke-width="1.0" fill="rgb(0,0,0)" stroke-linecap="butt" stroke-miterlimit="10.0"><path d="M 41.8672,82.8679 c 0.8514,-0.2322 1.7027,-0.4644 2.5077 -0.4644c 0.8049,0.0000 1.5634,0.2322 2.3219 0.4644"/></g><g stroke-linejoin="miter" stroke-opacity="1.0" fill-opacity="1.0" stroke="rgb(0,0,0)" stroke-width="0.0" fill="rgb(0,0,0)" stroke-linecap="butt" stroke-miterlimit="10.0"></g><g stroke-linejoin="miter" stroke-opacity="1.0" fill-opacity="1.0" stroke="rgb(0,0,0)" stroke-width="0.0" fill="rgb(0,0,0)" stroke-linecap="butt" stroke-miterlimit="10.0"></g><g stroke-linejoin="miter" stroke-opacity="1.0" fill-opacity="1.0" stroke="rgb(0,0,0)" stroke-width="0.0" fill="rgb(0,0,0)" stroke-linecap="butt" stroke-miterlimit="10.0"></g><g stroke-linejoin="miter" stroke-opacity="1.0" fill-opacity="1.0" stroke="rgb(0,0,0)" stroke-width="0.0" fill="rgb(0,0,0)" stroke-linecap="butt" stroke-miterlimit="10.0"></g><g stroke-linejoin="miter" stroke-opacity="1.0" fill-opacity="0.0" stroke="rgb(0,0,0)" stroke-width="1.0" fill="rgb(0,0,0)" stroke-linecap="butt" stroke-miterlimit="10.0"><path d="M 44.2820,82.4035 c 1.3180,-0.3595 2.6360,-0.7189 3.8821 -0.7189c 1.2461,-0.0000 2.4203,0.3595 3.5945 0.7189"/></g><g stroke-linejoin="miter" stroke-opacity="1.0" fill-opacity="1.0" stroke="rgb(0,0,0)" stroke-width="0.0" fill="rgb(0,0,0)" stroke-linecap="butt" stroke-miterlimit="10.0"></g><g stroke-linejoin="miter" stroke-opacity="1.0" fill-opacity="1.0" stroke="rgb(0,0,0)" stroke-width="0.0" fill="rgb(0,0,0)" stroke-linecap="butt" stroke-miterlimit="10.0"></g><g stroke-linejoin="miter" stroke-opacity="1.0" fill-opacity="1.0" stroke="rgb(0,0,0)" stroke-width="0.0" fill="rgb(0,0,0)" stroke-linecap="butt" stroke-miterlimit="10.0"></g><g stroke-linejoin="miter" stroke-opacity="1.0" fill-opacity="1.0" stroke="rgb(0,0,0)" stroke-width="0.0" fill="rgb(0,0,0)" stroke-linecap="butt" stroke-miterlimit="10.0"></g><g stroke-linejoin="miter" stroke-opacity="1.0" fill-opacity="1.0" stroke="rgb(0,0,0)" stroke-width="0.0" fill="rgb(255,255,0)" stroke-linecap="butt" stroke-miterlimit="10.0"><path d="M 39.4524,84.9548 c 0.0000,-1.5148 -1.2280,-2.7427 -2.7427 -2.7427c -1.5148,-0.0000 -2.7427,1.2280 -2.7427 2.7427c -0.0000,1.5148 1.2280,2.7427 2.7427 2.7427c 1.5148,0.0000 2.7427,-1.2280 2.7427 -2.7427Z"/></g><g stroke-linejoin="miter" stroke-opacity="1.0" fill-opacity="1.0" stroke="rgb(0,0,0)" stroke-width="0.0" fill="rgb(0,0,255)" stroke-linecap="butt" stroke-miterlimit="10.0"><path d="M 33.9669,84.9548 c 0.0000,-1.5148 -1.2280,-2.7427 -2.7427 -2.7427c -1.5148,-0.0000 -2.7427,1.2280 -2.7427 2.7427c -0.0000,1.5148 1.2280,2.7427 2.7427 2.7427c 1.5148,0.0000 2.7427,-1.2280 2.7427 -2.7427Z"/></g><g stroke-linejoin="miter" stroke-opacity="1.0" fill-opacity="0.0" stroke="rgb(0,0,0)" stroke-width="1.0" fill="rgb(0,0,0)" stroke-linecap="butt" stroke-miterlimit="10.0"><path d="M 31.2242,82.2121 c 0.9670,-0.2637 1.9340,-0.5274 2.8482 -0.5274c 0.9142,-0.0000 1.7757,0.2637 2.6372 0.5274"/></g><g stroke-linejoin="miter" stroke-opacity="1.0" fill-opacity="1.0" stroke="rgb(0,0,0)" stroke-width="0.0" fill="rgb(0,0,0)" stroke-linecap="butt" stroke-miterlimit="10.0"></g><g stroke-linejoin="miter" stroke-opacity="1.0" fill-opacity="1.0" stroke="rgb(0,0,0)" stroke-width="0.0" fill="rgb(0,0,0)" stroke-linecap="butt" stroke-miterlimit="10.0"></g><g stroke-linejoin="miter" stroke-opacity="1.0" fill-opacity="1.0" stroke="rgb(0,0,0)" stroke-width="0.0" fill="rgb(0,0,0)" stroke-linecap="butt" stroke-miterlimit="10.0"></g><g stroke-linejoin="miter" stroke-opacity="1.0" fill-opacity="1.0" stroke="rgb(0,0,0)" stroke-width="0.0" fill="rgb(0,0,0)" stroke-linecap="butt" stroke-miterlimit="10.0"></g><g stroke-linejoin="miter" stroke-opacity="1.0" fill-opacity="0.0" stroke="rgb(0,0,0)" stroke-width="1.0" fill="rgb(0,0,0)" stroke-linecap="butt" stroke-miterlimit="10.0"><path d="M 33.9669,81.6846 c 2.2850,-0.6232 4.5699,-1.2463 6.7303 -1.2463c 2.1603,-0.0000 4.1960,0.6232 6.2317 1.2463"/></g><g stroke-linejoin="miter" stroke-opacity="1.0" fill-opacity="1.0" stroke="rgb(0,0,0)" stroke-width="0.0" fill="rgb(0,0,0)" stroke-linecap="butt" stroke-miterlimit="10.0"></g><g stroke-linejoin="miter" stroke-opacity="1.0" fill-opacity="1.0" stroke="rgb(0,0,0)" stroke-width="0.0" fill="rgb(0,0,0)" stroke-linecap="butt" stroke-miterlimit="10.0"></g><g stroke-linejoin="miter" stroke-opacity="1.0" fill-opacity="1.0" stroke="rgb(0,0,0)" stroke-width="0.0" fill="rgb(0,0,0)" stroke-linecap="butt" stroke-miterlimit="10.0"></g><g stroke-linejoin="miter" stroke-opacity="1.0" fill-opacity="1.0" stroke="rgb(0,0,0)" stroke-width="0.0" fill="rgb(0,0,0)" stroke-linecap="butt" stroke-miterlimit="10.0"></g><g stroke-linejoin="miter" stroke-opacity="1.0" fill-opacity="0.0" stroke="rgb(0,0,0)" stroke-width="1.0" fill="rgb(0,0,0)" stroke-linecap="butt" stroke-miterlimit="10.0"><path d="M 41.4435,52.4223 c 11.1571,-3.0428 22.3142,-6.0857 32.8627 -6.0857c 10.5485,-0.0000 20.4885,3.0428 30.4284 6.0857"/></g><g stroke-linejoin="miter" stroke-opacity="1.0" fill-opacity="1.0" stroke="rgb(0,0,0)" stroke-width="0.0" fill="rgb(0,0,0)" stroke-linecap="butt" stroke-miterlimit="10.0"></g><g stroke-linejoin="miter" stroke-opacity="1.0" fill-opacity="1.0" stroke="rgb(0,0,0)" stroke-width="0.0" fill="rgb(0,0,0)" stroke-linecap="butt" stroke-miterlimit="10.0"></g><g stroke-linejoin="miter" stroke-opacity="1.0" fill-opacity="1.0" stroke="rgb(0,0,0)" stroke-width="0.0" fill="rgb(0,0,0)" stroke-linecap="butt" stroke-miterlimit="10.0"></g><g stroke-linejoin="miter" stroke-opacity="1.0" fill-opacity="1.0" stroke="rgb(0,0,0)" stroke-width="0.0" fill="rgb(0,0,0)" stroke-linecap="butt" stroke-miterlimit="10.0"></g><g stroke-linejoin="miter" stroke-opacity="1.0" fill-opacity="0.0" stroke="rgb(0,0,0)" stroke-width="1.0" fill="rgb(0,0,0)" stroke-linecap="butt" stroke-miterlimit="10.0"><path d="M 73.0891,46.3367 c 17.2720,-4.7106 34.5441,-9.4211 50.8740 -9.4211c 16.3299,-0.0000 31.7177,4.7106 47.1056 9.4211"/></g><g stroke-linejoin="miter" stroke-opacity="1.0" fill-opacity="1.0" stroke="rgb(0,0,0)" stroke-width="0.0" fill="rgb(0,0,0)" stroke-linecap="butt" stroke-miterlimit="10.0"></g><g stroke-linejoin="miter" stroke-opacity="1.0" fill-opacity="1.0" stroke="rgb(0,0,0)" stroke-width="0.0" fill="rgb(0,0,0)" stroke-linecap="butt" stroke-miterlimit="10.0"></g><g stroke-linejoin="miter" stroke-opacity="1.0" fill-opacity="1.0" stroke="rgb(0,0,0)" stroke-width="0.0" fill="rgb(0,0,0)" stroke-linecap="butt" stroke-miterlimit="10.0"></g><g stroke-linejoin="miter" stroke-opacity="1.0" fill-opacity="1.0" stroke="rgb(0,0,0)" stroke-width="0.0" fill="rgb(0,0,0)" stroke-linecap="butt" stroke-miterlimit="10.0"></g></svg>