<?xml version="1.0" encoding="UTF-8"?>
<!DOCTYPE svg PUBLIC "-//W3C//DTD SVG 1.1//EN"
    "http://www.w3.org/Graphics/SVG/1.1/DTD/svg11.dtd"><svg xmlns="http://www.w3.org/2000/svg" height="106.7961" stroke-opacity="1" viewBox="0 0 500 107" font-size="1" width="500.0000" xmlns:xlink="http://www.w3.org/1999/xlink" stroke="rgb(0,0,0)" version="1.1"><defs></defs><g stroke-linejoin="miter" stroke-opacity="1.0" fill-opacity="1.0" font-size="12.135922330097088px" stroke="rgb(0,0,0)" stroke-width="0.9243207949834488" fill="rgb(0,0,0)" stroke-linecap="butt" stroke-miterlimit="10.0"><text dominant-baseline="middle" transform="matrix(1.0000,0.0000,0.0000,1.0000,155.3398,41.2621)" stroke="none" text-anchor="middle">Burst</text></g><g stroke-linejoin="miter" stroke-opacity="1.0" fill-opacity="0.0" stroke="rgb(0,0,0)" stroke-width="0.9243207949834488" fill="rgb(0,0,0)" stroke-linecap="butt" stroke-miterlimit="10.0"><path d="M 118.9320,53.3981 h 64.7277 "/></g><g stroke-linejoin="miter" stroke-opacity="1.0" fill-opacity="1.0" stroke="rgb(0,0,0)" stroke-width="0.0" fill="rgb(0,0,0)" stroke-linecap="butt" stroke-miterlimit="10.0"></g><g stroke-linejoin="miter" stroke-opacity="1.0" fill-opacity="1.0" stroke="rgb(0,0,0)" stroke-width="0.0" fill="rgb(0,0,0)" stroke-linecap="butt" stroke-miterlimit="10.0"></g><g stroke-linejoin="miter" stroke-opacity="1.0" fill-opacity="1.0" stroke="rgb(0,0,0)" stroke-width="0.0" fill="rgb(0,0,0)" stroke-linecap="butt" stroke-miterlimit="10.0"><path d="M 191.7476,53.3981 l -9.4610,-3.0741 l 1.6161,3.0741 l -1.6161,3.0741 Z"/></g><g stroke-linejoin="miter" stroke-opacity="1.0" fill-opacity="1.0" stroke="rgb(0,0,0)" stroke-width="0.0" fill="rgb(0,0,0)" stroke-linecap="butt" stroke-miterlimit="10.0"><path d="M 183.9027,53.3981 h -0.2430 v -0.4622 l 0.2430,0.4622 h -0.2430 v 0.4622 Z"/></g><g stroke-linejoin="miter" stroke-opacity="1.0" fill-opacity="1.0" font-size="12.135922330097088px" stroke="rgb(0,0,0)" stroke-width="0.9243207949834488" fill="rgb(0,0,0)" stroke-linecap="butt" stroke-miterlimit="10.0"><text dominant-baseline="middle" transform="matrix(1.0000,0.0000,0.0000,1.0000,349.5146,41.2621)" stroke="none" text-anchor="middle">Burst</text></g><g stroke-linejoin="miter" stroke-opacity="1.0" fill-opacity="0.0" stroke="rgb(0,0,0)" stroke-width="0.9243207949834488" fill="rgb(0,0,0)" stroke-linecap="butt" stroke-miterlimit="10.0"><path d="M 313.1068,53.3981 h 64.7277 "/></g><g stroke-linejoin="miter" stroke-opacity="1.0" fill-opacity="1.0" stroke="rgb(0,0,0)" stroke-width="0.0" fill="rgb(0,0,0)" stroke-linecap="butt" stroke-miterlimit="10.0"></g><g stroke-linejoin="miter" stroke-opacity="1.0" fill-opacity="1.0" stroke="rgb(0,0,0)" stroke-width="0.0" fill="rgb(0,0,0)" stroke-linecap="butt" stroke-miterlimit="10.0"></g><g stroke-linejoin="miter" stroke-opacity="1.0" fill-opacity="1.0" stroke="rgb(0,0,0)" stroke-width="0.0" fill="rgb(0,0,0)" stroke-linecap="butt" stroke-miterlimit="10.0"><path d="M 385.9223,53.3981 l -9.4610,-3.0741 l 1.6161,3.0741 l -1.6161,3.0741 Z"/></g><g stroke-linejoin="miter" stroke-opacity="1.0" fill-opacity="1.0" stroke="rgb(0,0,0)" stroke-width="0.0" fill="rgb(0,0,0)" stroke-linecap="butt" stroke-miterlimit="10.0"><path d="M 378.0775,53.3981 h -0.2430 v -0.4622 l 0.2430,0.4622 h -0.2430 v 0.4622 Z"/></g><g stroke-linejoin="miter" stroke-opacity="1.0" fill-opacity="1.0" stroke="rgb(255,255,0)" stroke-width="2.4271844660194177" fill="rgb(255,255,224)" stroke-linecap="butt" stroke-miterlimit="10.0"><path d="M 495.1456,53.3981 c 0.0000,-26.8099 -21.7338,-48.5437 -48.5437 -48.5437c -26.8099,-0.0000 -48.5437,21.7338 -48.5437 48.5437c -0.0000,26.8099 21.7338,48.5437 48.5437 48.5437c 26.8099,0.0000 48.5437,-21.7338 48.5437 -48.5437Z"/></g><g stroke-linejoin="miter" stroke-opacity="1.0" fill-opacity="1.0" stroke="rgb(0,139,139)" stroke-width="1.9417475728155342" fill="rgb(0,255,255)" stroke-linecap="butt" stroke-miterlimit="10.0"><path d="M 485.4369,53.3981 c 0.0000,-21.4480 -17.3870,-38.8350 -38.8350 -38.8350c -21.4480,-0.0000 -38.8350,17.3870 -38.8350 38.8350c -0.0000,21.4480 17.3870,38.8350 38.8350 38.8350c 21.4480,0.0000 38.8350,-17.3870 38.8350 -38.8350Z"/></g><g stroke-linejoin="miter" stroke-opacity="1.0" fill-opacity="1.0" stroke="rgb(0,0,0)" stroke-width="0.0" fill="rgb(0,139,139)" stroke-linecap="butt" stroke-miterlimit="10.0"><path d="M 477.6699,59.2359 c 0.0000,-1.1200 -0.9079,-2.0279 -2.0279 -2.0279c -1.1200,-0.0000 -2.0279,0.9079 -2.0279 2.0279c -0.0000,1.1200 0.9079,2.0279 2.0279 2.0279c 1.1200,0.0000 2.0279,-0.9079 2.0279 -2.0279Z"/></g><g stroke-linejoin="miter" stroke-opacity="1.0" fill-opacity="1.0" stroke="rgb(0,0,0)" stroke-width="0.0" fill="rgb(255,255,0)" stroke-linecap="butt" stroke-miterlimit="10.0"><path d="M 473.6141,59.2359 c 0.0000,-1.1200 -0.9079,-2.0279 -2.0279 -2.0279c -1.1200,-0.0000 -2.0279,0.9079 -2.0279 2.0279c -0.0000,1.1200 0.9079,2.0279 2.0279 2.0279c 1.1200,0.0000 2.0279,-0.9079 2.0279 -2.0279Z"/></g><g stroke-linejoin="miter" stroke-opacity="1.0" fill-opacity="0.0" stroke="rgb(0,0,0)" stroke-width="1.0" fill="rgb(0,0,0)" stroke-linecap="butt" stroke-miterlimit="10.0"><path d="M 471.5863,57.2081 c 0.7150,-0.1950 1.4299,-0.3900 2.1059 -0.3900c 0.6760,0.0000 1.3129,0.1950 1.9499 0.3900"/></g><g stroke-linejoin="miter" stroke-opacity="1.0" fill-opacity="1.0" stroke="rgb(0,0,0)" stroke-width="0.0" fill="rgb(0,0,0)" stroke-linecap="butt" stroke-miterlimit="10.0"></g><g stroke-linejoin="miter" stroke-opacity="1.0" fill-opacity="1.0" stroke="rgb(0,0,0)" stroke-width="0.0" fill="rgb(0,0,0)" stroke-linecap="butt" stroke-miterlimit="10.0"></g><g stroke-linejoin="miter" stroke-opacity="1.0" fill-opacity="1.0" stroke="rgb(0,0,0)" stroke-width="0.0" fill="rgb(0,0,0)" stroke-linecap="butt" stroke-miterlimit="10.0"></g><g stroke-linejoin="miter" stroke-opacity="1.0" fill-opacity="1.0" stroke="rgb(0,0,0)" stroke-width="0.0" fill="rgb(0,0,0)" stroke-linecap="butt" stroke-miterlimit="10.0"></g><g stroke-linejoin="miter" stroke-opacity="1.0" fill-opacity="1.0" stroke="rgb(0,0,0)" stroke-width="0.0" fill="rgb(255,255,0)" stroke-linecap="butt" stroke-miterlimit="10.0"><path d="M 469.5584,59.0410 c 0.0000,-1.2277 -0.9952,-2.2229 -2.2229 -2.2229c -1.2277,-0.0000 -2.2229,0.9952 -2.2229 2.2229c -0.0000,1.2277 0.9952,2.2229 2.2229 2.2229c 1.2277,0.0000 2.2229,-0.9952 2.2229 -2.2229Z"/></g><g stroke-linejoin="miter" stroke-opacity="1.0" fill-opacity="0.0" stroke="rgb(0,0,0)" stroke-width="1.0" fill="rgb(0,0,0)" stroke-linecap="butt" stroke-miterlimit="10.0"><path d="M 467.3355,56.8181 c 1.1068,-0.3019 2.2136,-0.6037 3.2601 -0.6037c 1.0464,0.0000 2.0325,0.3019 3.0186 0.6037"/></g><g stroke-linejoin="miter" stroke-opacity="1.0" fill-opacity="1.0" stroke="rgb(0,0,0)" stroke-width="0.0" fill="rgb(0,0,0)" stroke-linecap="butt" stroke-miterlimit="10.0"></g><g stroke-linejoin="miter" stroke-opacity="1.0" fill-opacity="1.0" stroke="rgb(0,0,0)" stroke-width="0.0" fill="rgb(0,0,0)" stroke-linecap="butt" stroke-miterlimit="10.0"></g><g stroke-linejoin="miter" stroke-opacity="1.0" fill-opacity="1.0" stroke="rgb(0,0,0)" stroke-width="0.0" fill="rgb(0,0,0)" stroke-linecap="butt" stroke-miterlimit="10.0"></g><g stroke-linejoin="miter" stroke-opacity="1.0" fill-opacity="1.0" stroke="rgb(0,0,0)" stroke-width="0.0" fill="rgb(0,0,0)" stroke-linecap="butt" stroke-miterlimit="10.0"></g><g stroke-linejoin="miter" stroke-opacity="1.0" fill-opacity="1.0" stroke="rgb(0,0,0)" stroke-width="0.0" fill="rgb(255,255,0)" stroke-linecap="butt" stroke-miterlimit="10.0"><path d="M 465.1127,58.7391 c 0.0000,-1.3944 -1.1304,-2.5247 -2.5247 -2.5247c -1.3944,-0.0000 -2.5247,1.1304 -2.5247 2.5247c -0.0000,1.3944 1.1304,2.5247 2.5247 2.5247c 1.3944,0.0000 2.5247,-1.1304 2.5247 -2.5247Z"/></g><g stroke-linejoin="miter" stroke-opacity="1.0" fill-opacity="0.0" stroke="rgb(0,0,0)" stroke-width="1.0" fill="rgb(0,0,0)" stroke-linecap="butt" stroke-miterlimit="10.0"><path d="M 462.5879,56.2144 c 1.5519,-0.4232 3.1037,-0.8465 4.5710 -0.8465c 1.4672,-0.0000 2.8498,0.4232 4.2324 0.8465"/></g><g stroke-linejoin="miter" stroke-opacity="1.0" fill-opacity="1.0" stroke="rgb(0,0,0)" stroke-width="0.0" fill="rgb(0,0,0)" stroke-linecap="butt" stroke-miterlimit="10.0"></g><g stroke-linejoin="miter" stroke-opacity="1.0" fill-opacity="1.0" stroke="rgb(0,0,0)" stroke-width="0.0" fill="rgb(0,0,0)" stroke-linecap="butt" stroke-miterlimit="10.0"></g><g stroke-linejoin="miter" stroke-opacity="1.0" fill-opacity="1.0" stroke="rgb(0,0,0)" stroke-width="0.0" fill="rgb(0,0,0)" stroke-linecap="butt" stroke-miterlimit="10.0"></g><g stroke-linejoin="miter" stroke-opacity="1.0" fill-opacity="1.0" stroke="rgb(0,0,0)" stroke-width="0.0" fill="rgb(0,0,0)" stroke-linecap="butt" stroke-miterlimit="10.0"></g><g stroke-linejoin="miter" stroke-opacity="1.0" fill-opacity="1.0" stroke="rgb(0,0,0)" stroke-width="0.0" fill="rgb(255,255,0)" stroke-linecap="butt" stroke-miterlimit="10.0"><path d="M 460.0632,58.3159 c 0.0000,-1.6281 -1.3198,-2.9480 -2.9480 -2.9480c -1.6281,-0.0000 -2.9480,1.3198 -2.9480 2.9480c -0.0000,1.6281 1.3198,2.9480 2.9480 2.9480c 1.6281,0.0000 2.9480,-1.3198 2.9480 -2.9480Z"/></g><g stroke-linejoin="miter" stroke-opacity="1.0" fill-opacity="0.0" stroke="rgb(0,0,0)" stroke-width="1.0" fill="rgb(0,0,0)" stroke-linecap="butt" stroke-miterlimit="10.0"><path d="M 457.1152,55.3679 c 2.0715,-0.5650 4.1431,-1.1299 6.1016 -1.1299c 1.9586,-0.0000 3.8041,0.5650 5.6497 1.1299"/></g><g stroke-linejoin="miter" stroke-opacity="1.0" fill-opacity="1.0" stroke="rgb(0,0,0)" stroke-width="0.0" fill="rgb(0,0,0)" stroke-linecap="butt" stroke-miterlimit="10.0"></g><g stroke-linejoin="miter" stroke-opacity="1.0" fill-opacity="1.0" stroke="rgb(0,0,0)" stroke-width="0.0" fill="rgb(0,0,0)" stroke-linecap="butt" stroke-miterlimit="10.0"></g><g stroke-linejoin="miter" stroke-opacity="1.0" fill-opacity="1.0" stroke="rgb(0,0,0)" stroke-width="0.0" fill="rgb(0,0,0)" stroke-linecap="butt" stroke-miterlimit="10.0"></g><g stroke-linejoin="miter" stroke-opacity="1.0" fill-opacity="1.0" stroke="rgb(0,0,0)" stroke-width="0.0" fill="rgb(0,0,0)" stroke-linecap="butt" stroke-miterlimit="10.0"></g><g stroke-linejoin="miter" stroke-opacity="1.0" fill-opacity="1.0" stroke="rgb(0,0,0)" stroke-width="0.0" fill="rgb(255,255,0)" stroke-linecap="butt" stroke-miterlimit="10.0"><path d="M 454.1673,57.7509 c 0.0000,-1.9401 -1.5728,-3.5129 -3.5129 -3.5129c -1.9401,-0.0000 -3.5129,1.5728 -3.5129 3.5129c -0.0000,1.9401 1.5728,3.5129 3.5129 3.5129c 1.9401,0.0000 3.5129,-1.5728 3.5129 -3.5129Z"/></g><g stroke-linejoin="miter" stroke-opacity="1.0" fill-opacity="0.0" stroke="rgb(0,0,0)" stroke-width="1.0" fill="rgb(0,0,0)" stroke-linecap="butt" stroke-miterlimit="10.0"><path d="M 450.6544,54.2380 c 2.6908,-0.7339 5.3816,-1.4677 7.9257 -1.4677c 2.5440,-0.0000 4.9413,0.7339 7.3386 1.4677"/></g><g stroke-linejoin="miter" stroke-opacity="1.0" fill-opacity="1.0" stroke="rgb(0,0,0)" stroke-width="0.0" fill="rgb(0,0,0)" stroke-linecap="butt" stroke-miterlimit="10.0"></g><g stroke-linejoin="miter" stroke-opacity="1.0" fill-opacity="1.0" stroke="rgb(0,0,0)" stroke-width="0.0" fill="rgb(0,0,0)" stroke-linecap="butt" stroke-miterlimit="10.0"></g><g stroke-linejoin="miter" stroke-opacity="1.0" fill-opacity="1.0" stroke="rgb(0,0,0)" stroke-width="0.0" fill="rgb(0,0,0)" stroke-linecap="butt" stroke-miterlimit="10.0"></g><g stroke-linejoin="miter" stroke-opacity="1.0" fill-opacity="1.0" stroke="rgb(0,0,0)" stroke-width="0.0" fill="rgb(0,0,0)" stroke-linecap="butt" stroke-miterlimit="10.0"></g><g stroke-linejoin="miter" stroke-opacity="1.0" fill-opacity="1.0" stroke="rgb(0,0,0)" stroke-width="0.0" fill="rgb(255,255,0)" stroke-linecap="butt" stroke-miterlimit="10.0"><path d="M 447.1414,57.0170 c 0.0000,-2.3454 -1.9014,-4.2468 -4.2468 -4.2468c -2.3454,-0.0000 -4.2468,1.9014 -4.2468 4.2468c -0.0000,2.3454 1.9014,4.2468 4.2468 4.2468c 2.3454,0.0000 4.2468,-1.9014 4.2468 -4.2468Z"/></g><g stroke-linejoin="miter" stroke-opacity="1.0" fill-opacity="0.0" stroke="rgb(0,0,0)" stroke-width="1.0" fill="rgb(0,0,0)" stroke-linecap="butt" stroke-miterlimit="10.0"><path d="M 442.8946,52.7703 c 3.4394,-0.9380 6.8789,-1.8761 10.1307 -1.8761c 3.2518,0.0000 6.3161,0.9380 9.3803 1.8761"/></g><g stroke-linejoin="miter" stroke-opacity="1.0" fill-opacity="1.0" stroke="rgb(0,0,0)" stroke-width="0.0" fill="rgb(0,0,0)" stroke-linecap="butt" stroke-miterlimit="10.0"></g><g stroke-linejoin="miter" stroke-opacity="1.0" fill-opacity="1.0" stroke="rgb(0,0,0)" stroke-width="0.0" fill="rgb(0,0,0)" stroke-linecap="butt" stroke-miterlimit="10.0"></g><g stroke-linejoin="miter" stroke-opacity="1.0" fill-opacity="1.0" stroke="rgb(0,0,0)" stroke-width="0.0" fill="rgb(0,0,0)" stroke-linecap="butt" stroke-miterlimit="10.0"></g><g stroke-linejoin="miter" stroke-opacity="1.0" fill-opacity="1.0" stroke="rgb(0,0,0)" stroke-width="0.0" fill="rgb(0,0,0)" stroke-linecap="butt" stroke-miterlimit="10.0"></g><g stroke-linejoin="miter" stroke-opacity="1.0" fill-opacity="1.0" stroke="rgb(0,0,0)" stroke-width="0.0" fill="rgb(255,255,0)" stroke-linecap="butt" stroke-miterlimit="10.0"><path d="M 438.6478,56.0790 c 0.0000,-2.8635 -2.3213,-5.1848 -5.1848 -5.1848c -2.8635,-0.0000 -5.1848,2.3213 -5.1848 5.1848c -0.0000,2.8635 2.3213,5.1848 5.1848 5.1848c 2.8635,0.0000 5.1848,-2.3213 5.1848 -5.1848Z"/></g><g stroke-linejoin="miter" stroke-opacity="1.0" fill-opacity="0.0" stroke="rgb(0,0,0)" stroke-width="1.0" fill="rgb(0,0,0)" stroke-linecap="butt" stroke-miterlimit="10.0"><path d="M 433.4630,50.8942 c 4.3534,-1.1873 8.7069,-2.3746 12.8228 -2.3746c 4.1160,0.0000 7.9945,1.1873 11.8730 2.3746"/></g><g stroke-linejoin="miter" stroke-opacity="1.0" fill-opacity="1.0" stroke="rgb(0,0,0)" stroke-width="0.0" fill="rgb(0,0,0)" stroke-linecap="butt" stroke-miterlimit="10.0"></g><g stroke-linejoin="miter" stroke-opacity="1.0" fill-opacity="1.0" stroke="rgb(0,0,0)" stroke-width="0.0" fill="rgb(0,0,0)" stroke-linecap="butt" stroke-miterlimit="10.0"></g><g stroke-linejoin="miter" stroke-opacity="1.0" fill-opacity="1.0" stroke="rgb(0,0,0)" stroke-width="0.0" fill="rgb(0,0,0)" stroke-linecap="butt" stroke-miterlimit="10.0"></g><g stroke-linejoin="miter" stroke-opacity="1.0" fill-opacity="1.0" stroke="rgb(0,0,0)" stroke-width="0.0" fill="rgb(0,0,0)" stroke-linecap="butt" stroke-miterlimit="10.0"></g><g stroke-linejoin="miter" stroke-opacity="1.0" fill-opacity="1.0" stroke="rgb(0,0,0)" stroke-width="0.0" fill="rgb(255,255,0)" stroke-linecap="butt" stroke-miterlimit="10.0"><path d="M 428.2782,54.8917 c 0.0000,-3.5192 -2.8529,-6.3721 -6.3721 -6.3721c -3.5192,-0.0000 -6.3721,2.8529 -6.3721 6.3721c -0.0000,3.5192 2.8529,6.3721 6.3721 6.3721c 3.5192,0.0000 6.3721,-2.8529 6.3721 -6.3721Z"/></g><g stroke-linejoin="miter" stroke-opacity="1.0" fill-opacity="0.0" stroke="rgb(0,0,0)" stroke-width="1.0" fill="rgb(0,0,0)" stroke-linecap="butt" stroke-miterlimit="10.0"><path d="M 421.9061,48.5196 c 5.4767,-1.4937 10.9534,-2.9873 16.1314 -2.9873c 5.1780,-0.0000 10.0573,1.4937 14.9365 2.9873"/></g><g stroke-linejoin="miter" stroke-opacity="1.0" fill-opacity="1.0" stroke="rgb(0,0,0)" stroke-width="0.0" fill="rgb(0,0,0)" stroke-linecap="butt" stroke-miterlimit="10.0"></g><g stroke-linejoin="miter" stroke-opacity="1.0" fill-opacity="1.0" stroke="rgb(0,0,0)" stroke-width="0.0" fill="rgb(0,0,0)" stroke-linecap="butt" stroke-miterlimit="10.0"></g><g stroke-linejoin="miter" stroke-opacity="1.0" fill-opacity="1.0" stroke="rgb(0,0,0)" stroke-width="0.0" fill="rgb(0,0,0)" stroke-linecap="butt" stroke-miterlimit="10.0"></g><g stroke-linejoin="miter" stroke-opacity="1.0" fill-opacity="1.0" stroke="rgb(0,0,0)" stroke-width="0.0" fill="rgb(0,0,0)" stroke-linecap="butt" stroke-miterlimit="10.0"></g><g stroke-linejoin="miter" stroke-opacity="1.0" fill-opacity="1.0" stroke="rgb(255,255,0)" stroke-width="2.4271844660194177" fill="rgb(255,255,224)" stroke-linecap="butt" stroke-miterlimit="10.0"><path d="M 296.1165,53.3981 c 0.0000,-26.8099 -21.7338,-48.5437 -48.5437 -48.5437c -26.8099,-0.0000 -48.5437,21.7338 -48.5437 48.5437c -0.0000,26.8099 21.7338,48.5437 48.5437 48.5437c 26.8099,0.0000 48.5437,-21.7338 48.5437 -48.5437Z"/></g><g stroke-linejoin="miter" stroke-opacity="1.0" fill-opacity="1.0" stroke="rgb(0,139,139)" stroke-width="1.9417475728155342" fill="rgb(0,255,255)" stroke-linecap="butt" stroke-miterlimit="10.0"><path d="M 286.4078,53.3981 c 0.0000,-21.4480 -17.3870,-38.8350 -38.8350 -38.8350c -21.4480,-0.0000 -38.8350,17.3870 -38.8350 38.8350c -0.0000,21.4480 17.3870,38.8350 38.8350 38.8350c 21.4480,0.0000 38.8350,-17.3870 38.8350 -38.8350Z"/></g><g stroke-linejoin="miter" stroke-opacity="1.0" fill-opacity="1.0" stroke="rgb(0,0,0)" stroke-width="0.0" fill="rgb(0,139,139)" stroke-linecap="butt" stroke-miterlimit="10.0"><path d="M 278.6408,57.3242 c 0.0000,-2.9610 -2.4003,-5.3613 -5.3613 -5.3613c -2.9610,-0.0000 -5.3613,2.4003 -5.3613 5.3613c -0.0000,2.9610 2.4003,5.3613 5.3613 5.3613c 2.9610,0.0000 5.3613,-2.4003 5.3613 -5.3613Z"/></g><g stroke-linejoin="miter" stroke-opacity="1.0" fill-opacity="1.0" stroke="rgb(0,0,0)" stroke-width="0.0" fill="rgb(255,255,0)" stroke-linecap="butt" stroke-miterlimit="10.0"><path d="M 267.9182,57.3242 c 0.0000,-2.9610 -2.4003,-5.3613 -5.3613 -5.3613c -2.9610,-0.0000 -5.3613,2.4003 -5.3613 5.3613c -0.0000,2.9610 2.4003,5.3613 5.3613 5.3613c 2.9610,0.0000 5.3613,-2.4003 5.3613 -5.3613Z"/></g><g stroke-linejoin="miter" stroke-opacity="1.0" fill-opacity="0.0" stroke="rgb(0,0,0)" stroke-width="1.0" fill="rgb(0,0,0)" stroke-linecap="butt" stroke-miterlimit="10.0"><path d="M 262.5569,51.9629 c 1.8902,-0.5155 3.7804,-1.0310 5.5675 -1.0310c 1.7871,0.0000 3.4711,0.5155 5.1551 1.0310"/></g><g stroke-linejoin="miter" stroke-opacity="1.0" fill-opacity="1.0" stroke="rgb(0,0,0)" stroke-width="0.0" fill="rgb(0,0,0)" stroke-linecap="butt" stroke-miterlimit="10.0"></g><g stroke-linejoin="miter" stroke-opacity="1.0" fill-opacity="1.0" stroke="rgb(0,0,0)" stroke-width="0.0" fill="rgb(0,0,0)" stroke-linecap="butt" stroke-miterlimit="10.0"></g><g stroke-linejoin="miter" stroke-opacity="1.0" fill-opacity="1.0" stroke="rgb(0,0,0)" stroke-width="0.0" fill="rgb(0,0,0)" stroke-linecap="butt" stroke-miterlimit="10.0"></g><g stroke-linejoin="miter" stroke-opacity="1.0" fill-opacity="1.0" stroke="rgb(0,0,0)" stroke-width="0.0" fill="rgb(0,0,0)" stroke-linecap="butt" stroke-miterlimit="10.0"></g><g stroke-linejoin="miter" stroke-opacity="1.0" fill-opacity="1.0" stroke="rgb(0,0,0)" stroke-width="0.0" fill="rgb(255,255,0)" stroke-linecap="butt" stroke-miterlimit="10.0"><path d="M 257.1957,56.8087 c 0.0000,-3.2457 -2.6311,-5.8768 -5.8768 -5.8768c -3.2457,-0.0000 -5.8768,2.6311 -5.8768 5.8768c -0.0000,3.2457 2.6311,5.8768 5.8768 5.8768c 3.2457,0.0000 5.8768,-2.6311 5.8768 -5.8768Z"/></g><g stroke-linejoin="miter" stroke-opacity="1.0" fill-opacity="0.0" stroke="rgb(0,0,0)" stroke-width="1.0" fill="rgb(0,0,0)" stroke-linecap="butt" stroke-miterlimit="10.0"><path d="M 251.3189,50.9319 c 2.9262,-0.7980 5.8523,-1.5961 8.6189 -1.5961c 2.7666,0.0000 5.3735,0.7980 7.9805 1.5961"/></g><g stroke-linejoin="miter" stroke-opacity="1.0" fill-opacity="1.0" stroke="rgb(0,0,0)" stroke-width="0.0" fill="rgb(0,0,0)" stroke-linecap="butt" stroke-miterlimit="10.0"></g><g stroke-linejoin="miter" stroke-opacity="1.0" fill-opacity="1.0" stroke="rgb(0,0,0)" stroke-width="0.0" fill="rgb(0,0,0)" stroke-linecap="butt" stroke-miterlimit="10.0"></g><g stroke-linejoin="miter" stroke-opacity="1.0" fill-opacity="1.0" stroke="rgb(0,0,0)" stroke-width="0.0" fill="rgb(0,0,0)" stroke-linecap="butt" stroke-miterlimit="10.0"></g><g stroke-linejoin="miter" stroke-opacity="1.0" fill-opacity="1.0" stroke="rgb(0,0,0)" stroke-width="0.0" fill="rgb(0,0,0)" stroke-linecap="butt" stroke-miterlimit="10.0"></g><g stroke-linejoin="miter" stroke-opacity="1.0" fill-opacity="1.0" stroke="rgb(0,0,0)" stroke-width="0.0" fill="rgb(255,255,0)" stroke-linecap="butt" stroke-miterlimit="10.0"><path d="M 245.4421,56.0107 c 0.0000,-3.6864 -2.9884,-6.6748 -6.6748 -6.6748c -3.6864,-0.0000 -6.6748,2.9884 -6.6748 6.6748c -0.0000,3.6864 2.9884,6.6748 6.6748 6.6748c 3.6864,0.0000 6.6748,-2.9884 6.6748 -6.6748Z"/></g><g stroke-linejoin="miter" stroke-opacity="1.0" fill-opacity="0.0" stroke="rgb(0,0,0)" stroke-width="1.0" fill="rgb(0,0,0)" stroke-linecap="butt" stroke-miterlimit="10.0"><path d="M 238.7673,49.3358 c 4.1028,-1.1190 8.2056,-2.2379 12.0847 -2.2379c 3.8790,0.0000 7.5343,1.1190 11.1895 2.2379"/></g><g stroke-linejoin="miter" stroke-opacity="1.0" fill-opacity="1.0" stroke="rgb(0,0,0)" stroke-width="0.0" fill="rgb(0,0,0)" stroke-linecap="butt" stroke-miterlimit="10.0"></g><g stroke-linejoin="miter" stroke-opacity="1.0" fill-opacity="1.0" stroke="rgb(0,0,0)" stroke-width="0.0" fill="rgb(0,0,0)" stroke-linecap="butt" stroke-miterlimit="10.0"></g><g stroke-linejoin="miter" stroke-opacity="1.0" fill-opacity="1.0" stroke="rgb(0,0,0)" stroke-width="0.0" fill="rgb(0,0,0)" stroke-linecap="butt" stroke-miterlimit="10.0"></g><g stroke-linejoin="miter" stroke-opacity="1.0" fill-opacity="1.0" stroke="rgb(0,0,0)" stroke-width="0.0" fill="rgb(0,0,0)" stroke-linecap="butt" stroke-miterlimit="10.0"></g><g stroke-linejoin="miter" stroke-opacity="1.0" fill-opacity="1.0" stroke="rgb(0,128,0)" stroke-width="0.38968916236043083" fill="rgb(144,238,144)" stroke-linecap="butt" stroke-miterlimit="10.0"><path d="M 232.0924,54.8917 c 0.0000,-4.3044 -3.4894,-7.7938 -7.7938 -7.7938c -4.3044,-0.0000 -7.7938,3.4894 -7.7938 7.7938c -0.0000,4.3044 3.4894,7.7938 7.7938 7.7938c 4.3044,0.0000 7.7938,-3.4894 7.7938 -7.7938Z"/></g><g stroke-linejoin="miter" stroke-opacity="1.0" fill-opacity="1.0" stroke="rgb(0,0,0)" stroke-width="0.0" fill="rgb(0,128,0)" stroke-linecap="butt" stroke-miterlimit="10.0"><path d="M 230.5337,55.7981 c 0.0000,-0.4575 -0.3709,-0.8283 -0.8283 -0.8283c -0.4575,-0.0000 -0.8283,0.3709 -0.8283 0.8283c -0.0000,0.4575 0.3709,0.8283 0.8283 0.8283c 0.4575,0.0000 0.8283,-0.3709 0.8283 -0.8283Z"/></g><g stroke-linejoin="miter" stroke-opacity="1.0" fill-opacity="1.0" stroke="rgb(0,0,0)" stroke-width="0.0" fill="rgb(255,255,0)" stroke-linecap="butt" stroke-miterlimit="10.0"><path d="M 228.8770,55.7981 c 0.0000,-0.4575 -0.3709,-0.8283 -0.8283 -0.8283c -0.4575,-0.0000 -0.8283,0.3709 -0.8283 0.8283c -0.0000,0.4575 0.3709,0.8283 0.8283 0.8283c 0.4575,0.0000 0.8283,-0.3709 0.8283 -0.8283Z"/></g><g stroke-linejoin="miter" stroke-opacity="1.0" fill-opacity="0.0" stroke="rgb(0,0,0)" stroke-width="1.0" fill="rgb(0,0,0)" stroke-linecap="butt" stroke-miterlimit="10.0"><path d="M 228.0487,54.9697 c 0.2920,-0.0796 0.5841,-0.1593 0.8602 -0.1593c 0.2761,0.0000 0.5363,0.0796 0.7965 0.1593"/></g><g stroke-linejoin="miter" stroke-opacity="1.0" fill-opacity="1.0" stroke="rgb(0,0,0)" stroke-width="0.0" fill="rgb(0,0,0)" stroke-linecap="butt" stroke-miterlimit="10.0"></g><g stroke-linejoin="miter" stroke-opacity="1.0" fill-opacity="1.0" stroke="rgb(0,0,0)" stroke-width="0.0" fill="rgb(0,0,0)" stroke-linecap="butt" stroke-miterlimit="10.0"></g><g stroke-linejoin="miter" stroke-opacity="1.0" fill-opacity="1.0" stroke="rgb(0,0,0)" stroke-width="0.0" fill="rgb(0,0,0)" stroke-linecap="butt" stroke-miterlimit="10.0"></g><g stroke-linejoin="miter" stroke-opacity="1.0" fill-opacity="1.0" stroke="rgb(0,0,0)" stroke-width="0.0" fill="rgb(0,0,0)" stroke-linecap="butt" stroke-miterlimit="10.0"></g><g stroke-linejoin="miter" stroke-opacity="1.0" fill-opacity="1.0" stroke="rgb(0,0,0)" stroke-width="0.0" fill="rgb(255,255,0)" stroke-linecap="butt" stroke-miterlimit="10.0"><path d="M 227.2203,55.7184 c 0.0000,-0.5015 -0.4065,-0.9080 -0.9080 -0.9080c -0.5015,-0.0000 -0.9080,0.4065 -0.9080 0.9080c -0.0000,0.5015 0.4065,0.9080 0.9080 0.9080c 0.5015,0.0000 0.9080,-0.4065 0.9080 -0.9080Z"/></g><g stroke-linejoin="miter" stroke-opacity="1.0" fill-opacity="0.0" stroke="rgb(0,0,0)" stroke-width="1.0" fill="rgb(0,0,0)" stroke-linecap="butt" stroke-miterlimit="10.0"><path d="M 226.3124,54.8104 c 0.4521,-0.1233 0.9042,-0.2466 1.3316 -0.2466c 0.4274,0.0000 0.8302,0.1233 1.2330 0.2466"/></g><g stroke-linejoin="miter" stroke-opacity="1.0" fill-opacity="1.0" stroke="rgb(0,0,0)" stroke-width="0.0" fill="rgb(0,0,0)" stroke-linecap="butt" stroke-miterlimit="10.0"></g><g stroke-linejoin="miter" stroke-opacity="1.0" fill-opacity="1.0" stroke="rgb(0,0,0)" stroke-width="0.0" fill="rgb(0,0,0)" stroke-linecap="butt" stroke-miterlimit="10.0"></g><g stroke-linejoin="miter" stroke-opacity="1.0" fill-opacity="1.0" stroke="rgb(0,0,0)" stroke-width="0.0" fill="rgb(0,0,0)" stroke-linecap="butt" stroke-miterlimit="10.0"></g><g stroke-linejoin="miter" stroke-opacity="1.0" fill-opacity="1.0" stroke="rgb(0,0,0)" stroke-width="0.0" fill="rgb(0,0,0)" stroke-linecap="butt" stroke-miterlimit="10.0"></g><g stroke-linejoin="miter" stroke-opacity="1.0" fill-opacity="1.0" stroke="rgb(0,0,0)" stroke-width="0.0" fill="rgb(255,255,0)" stroke-linecap="butt" stroke-miterlimit="10.0"><path d="M 225.4044,55.5951 c 0.0000,-0.5696 -0.4617,-1.0313 -1.0313 -1.0313c -0.5696,-0.0000 -1.0313,0.4617 -1.0313 1.0313c -0.0000,0.5696 0.4617,1.0313 1.0313 1.0313c 0.5696,0.0000 1.0313,-0.4617 1.0313 -1.0313Z"/></g><g stroke-linejoin="miter" stroke-opacity="1.0" fill-opacity="0.0" stroke="rgb(0,0,0)" stroke-width="1.0" fill="rgb(0,0,0)" stroke-linecap="butt" stroke-miterlimit="10.0"><path d="M 224.3731,54.5638 c 0.6339,-0.1729 1.2678,-0.3458 1.8671 -0.3458c 0.5993,-0.0000 1.1641,0.1729 1.7288 0.3458"/></g><g stroke-linejoin="miter" stroke-opacity="1.0" fill-opacity="1.0" stroke="rgb(0,0,0)" stroke-width="0.0" fill="rgb(0,0,0)" stroke-linecap="butt" stroke-miterlimit="10.0"></g><g stroke-linejoin="miter" stroke-opacity="1.0" fill-opacity="1.0" stroke="rgb(0,0,0)" stroke-width="0.0" fill="rgb(0,0,0)" stroke-linecap="butt" stroke-miterlimit="10.0"></g><g stroke-linejoin="miter" stroke-opacity="1.0" fill-opacity="1.0" stroke="rgb(0,0,0)" stroke-width="0.0" fill="rgb(0,0,0)" stroke-linecap="butt" stroke-miterlimit="10.0"></g><g stroke-linejoin="miter" stroke-opacity="1.0" fill-opacity="1.0" stroke="rgb(0,0,0)" stroke-width="0.0" fill="rgb(0,0,0)" stroke-linecap="butt" stroke-miterlimit="10.0"></g><g stroke-linejoin="miter" stroke-opacity="1.0" fill-opacity="1.0" stroke="rgb(0,0,0)" stroke-width="0.0" fill="rgb(255,255,0)" stroke-linecap="butt" stroke-miterlimit="10.0"><path d="M 223.3418,55.4222 c 0.0000,-0.6650 -0.5391,-1.2042 -1.2042 -1.2042c -0.6650,-0.0000 -1.2042,0.5391 -1.2042 1.2042c -0.0000,0.6650 0.5391,1.2042 1.2042 1.2042c 0.6650,0.0000 1.2042,-0.5391 1.2042 -1.2042Z"/></g><g stroke-linejoin="miter" stroke-opacity="1.0" fill-opacity="0.0" stroke="rgb(0,0,0)" stroke-width="1.0" fill="rgb(0,0,0)" stroke-linecap="butt" stroke-miterlimit="10.0"><path d="M 222.1376,54.2181 c 0.8462,-0.2308 1.6923,-0.4615 2.4924 -0.4615c 0.8000,0.0000 1.5539,0.2308 2.3077 0.4615"/></g><g stroke-linejoin="miter" stroke-opacity="1.0" fill-opacity="1.0" stroke="rgb(0,0,0)" stroke-width="0.0" fill="rgb(0,0,0)" stroke-linecap="butt" stroke-miterlimit="10.0"></g><g stroke-linejoin="miter" stroke-opacity="1.0" fill-opacity="1.0" stroke="rgb(0,0,0)" stroke-width="0.0" fill="rgb(0,0,0)" stroke-linecap="butt" stroke-miterlimit="10.0"></g><g stroke-linejoin="miter" stroke-opacity="1.0" fill-opacity="1.0" stroke="rgb(0,0,0)" stroke-width="0.0" fill="rgb(0,0,0)" stroke-linecap="butt" stroke-miterlimit="10.0"></g><g stroke-linejoin="miter" stroke-opacity="1.0" fill-opacity="1.0" stroke="rgb(0,0,0)" stroke-width="0.0" fill="rgb(0,0,0)" stroke-linecap="butt" stroke-miterlimit="10.0"></g><g stroke-linejoin="miter" stroke-opacity="1.0" fill-opacity="1.0" stroke="rgb(0,0,0)" stroke-width="0.0" fill="rgb(255,255,0)" stroke-linecap="butt" stroke-miterlimit="10.0"><path d="M 220.9335,55.1915 c 0.0000,-0.7925 -0.6424,-1.4349 -1.4349 -1.4349c -0.7925,-0.0000 -1.4349,0.6424 -1.4349 1.4349c -0.0000,0.7925 0.6424,1.4349 1.4349 1.4349c 0.7925,0.0000 1.4349,-0.6424 1.4349 -1.4349Z"/></g><g stroke-linejoin="miter" stroke-opacity="1.0" fill-opacity="0.0" stroke="rgb(0,0,0)" stroke-width="1.0" fill="rgb(0,0,0)" stroke-linecap="butt" stroke-miterlimit="10.0"><path d="M 219.4985,53.7565 c 1.0991,-0.2998 2.1982,-0.5995 3.2374 -0.5995c 1.0392,0.0000 2.0184,0.2998 2.9976 0.5995"/></g><g stroke-linejoin="miter" stroke-opacity="1.0" fill-opacity="1.0" stroke="rgb(0,0,0)" stroke-width="0.0" fill="rgb(0,0,0)" stroke-linecap="butt" stroke-miterlimit="10.0"></g><g stroke-linejoin="miter" stroke-opacity="1.0" fill-opacity="1.0" stroke="rgb(0,0,0)" stroke-width="0.0" fill="rgb(0,0,0)" stroke-linecap="butt" stroke-miterlimit="10.0"></g><g stroke-linejoin="miter" stroke-opacity="1.0" fill-opacity="1.0" stroke="rgb(0,0,0)" stroke-width="0.0" fill="rgb(0,0,0)" stroke-linecap="butt" stroke-miterlimit="10.0"></g><g stroke-linejoin="miter" stroke-opacity="1.0" fill-opacity="1.0" stroke="rgb(0,0,0)" stroke-width="0.0" fill="rgb(0,0,0)" stroke-linecap="butt" stroke-miterlimit="10.0"></g><g stroke-linejoin="miter" stroke-opacity="1.0" fill-opacity="0.0" stroke="rgb(0,0,0)" stroke-width="1.0" fill="rgb(0,0,0)" stroke-linecap="butt" stroke-miterlimit="10.0"><path d="M 224.2986,47.0979 c 5.4767,-1.4937 10.9534,-2.9873 16.1314 -2.9873c 5.1780,-0.0000 10.0573,1.4937 14.9365 2.9873"/></g><g stroke-linejoin="miter" stroke-opacity="1.0" fill-opacity="1.0" stroke="rgb(0,0,0)" stroke-width="0.0" fill="rgb(0,0,0)" stroke-linecap="butt" stroke-miterlimit="10.0"></g><g stroke-linejoin="miter" stroke-opacity="1.0" fill-opacity="1.0" stroke="rgb(0,0,0)" stroke-width="0.0" fill="rgb(0,0,0)" stroke-linecap="butt" stroke-miterlimit="10.0"></g><g stroke-linejoin="miter" stroke-opacity="1.0" fill-opacity="1.0" stroke="rgb(0,0,0)" stroke-width="0.0" fill="rgb(0,0,0)" stroke-linecap="butt" stroke-miterlimit="10.0"></g><g stroke-linejoin="miter" stroke-opacity="1.0" fill-opacity="1.0" stroke="rgb(0,0,0)" stroke-width="0.0" fill="rgb(0,0,0)" stroke-linecap="butt" stroke-miterlimit="10.0"></g><g stroke-linejoin="miter" stroke-opacity="1.0" fill-opacity="1.0" stroke="rgb(255,255,0)" stroke-width="2.4271844660194177" fill="rgb(255,255,224)" stroke-linecap="butt" stroke-miterlimit="10.0"><path d="M 101.9417,53.3981 c 0.0000,-26.8099 -21.7338,-48.5437 -48.5437 -48.5437c -26.8099,-0.0000 -48.5437,21.7338 -48.5437 48.5437c -0.0000,26.8099 21.7338,48.5437 48.5437 48.5437c 26.8099,0.0000 48.5437,-21.7338 48.5437 -48.5437Z"/></g><g stroke-linejoin="miter" stroke-opacity="1.0" fill-opacity="1.0" stroke="rgb(0,139,139)" stroke-width="1.9417475728155342" fill="rgb(0,255,255)" stroke-linecap="butt" stroke-miterlimit="10.0"><path d="M 92.2330,53.3981 c 0.0000,-21.4480 -17.3870,-38.8350 -38.8350 -38.8350c -21.4480,-0.0000 -38.8350,17.3870 -38.8350 38.8350c -0.0000,21.4480 17.3870,38.8350 38.8350 38.8350c 21.4480,0.0000 38.8350,-17.3870 38.8350 -38.8350Z"/></g><g stroke-linejoin="miter" stroke-opacity="1.0" fill-opacity="1.0" stroke="rgb(0,0,0)" stroke-width="0.0" fill="rgb(0,139,139)" stroke-linecap="butt" stroke-miterlimit="10.0"><path d="M 84.4660,55.8566 c 0.0000,-5.5418 -4.4925,-10.0344 -10.0344 -10.0344c -5.5418,-0.0000 -10.0344,4.4925 -10.0344 10.0344c -0.0000,5.5418 4.4925,10.0344 10.0344 10.0344c 5.5418,0.0000 10.0344,-4.4925 10.0344 -10.0344Z"/></g><g stroke-linejoin="miter" stroke-opacity="1.0" fill-opacity="1.0" stroke="rgb(0,128,0)" stroke-width="0.5017186275101009" fill="rgb(144,238,144)" stroke-linecap="butt" stroke-miterlimit="10.0"><path d="M 64.3973,55.8566 c 0.0000,-5.5418 -4.4925,-10.0344 -10.0344 -10.0344c -5.5418,-0.0000 -10.0344,4.4925 -10.0344 10.0344c -0.0000,5.5418 4.4925,10.0344 10.0344 10.0344c 5.5418,0.0000 10.0344,-4.4925 10.0344 -10.0344Z"/></g><g stroke-linejoin="miter" stroke-opacity="1.0" fill-opacity="1.0" stroke="rgb(0,0,0)" stroke-width="0.0" fill="rgb(0,128,0)" stroke-linecap="butt" stroke-miterlimit="10.0"><path d="M 62.3904,56.6955 c 0.0000,-1.0213 -0.8279,-1.8492 -1.8492 -1.8492c -1.0213,-0.0000 -1.8492,0.8279 -1.8492 1.8492c -0.0000,1.0213 0.8279,1.8492 1.8492 1.8492c 1.0213,0.0000 1.8492,-0.8279 1.8492 -1.8492Z"/></g><g stroke-linejoin="miter" stroke-opacity="1.0" fill-opacity="1.0" stroke="rgb(0,0,0)" stroke-width="0.0" fill="rgb(255,255,0)" stroke-linecap="butt" stroke-miterlimit="10.0"><path d="M 58.6921,56.6955 c 0.0000,-1.0213 -0.8279,-1.8492 -1.8492 -1.8492c -1.0213,-0.0000 -1.8492,0.8279 -1.8492 1.8492c -0.0000,1.0213 0.8279,1.8492 1.8492 1.8492c 1.0213,0.0000 1.8492,-0.8279 1.8492 -1.8492Z"/></g><g stroke-linejoin="miter" stroke-opacity="1.0" fill-opacity="0.0" stroke="rgb(0,0,0)" stroke-width="1.0" fill="rgb(0,0,0)" stroke-linecap="butt" stroke-miterlimit="10.0"><path d="M 56.8429,54.8464 c 0.6519,-0.1778 1.3039,-0.3556 1.9203 -0.3556c 0.6164,0.0000 1.1972,0.1778 1.7780 0.3556"/></g><g stroke-linejoin="miter" stroke-opacity="1.0" fill-opacity="1.0" stroke="rgb(0,0,0)" stroke-width="0.0" fill="rgb(0,0,0)" stroke-linecap="butt" stroke-miterlimit="10.0"></g><g stroke-linejoin="miter" stroke-opacity="1.0" fill-opacity="1.0" stroke="rgb(0,0,0)" stroke-width="0.0" fill="rgb(0,0,0)" stroke-linecap="butt" stroke-miterlimit="10.0"></g><g stroke-linejoin="miter" stroke-opacity="1.0" fill-opacity="1.0" stroke="rgb(0,0,0)" stroke-width="0.0" fill="rgb(0,0,0)" stroke-linecap="butt" stroke-miterlimit="10.0"></g><g stroke-linejoin="miter" stroke-opacity="1.0" fill-opacity="1.0" stroke="rgb(0,0,0)" stroke-width="0.0" fill="rgb(0,0,0)" stroke-linecap="butt" stroke-miterlimit="10.0"></g><g stroke-linejoin="miter" stroke-opacity="1.0" fill-opacity="1.0" stroke="rgb(0,0,0)" stroke-width="0.0" fill="rgb(255,255,0)" stroke-linecap="butt" stroke-miterlimit="10.0"><path d="M 54.9938,56.5177 c 0.0000,-1.1195 -0.9075,-2.0270 -2.0270 -2.0270c -1.1195,-0.0000 -2.0270,0.9075 -2.0270 2.0270c -0.0000,1.1195 0.9075,2.0270 2.0270 2.0270c 1.1195,0.0000 2.0270,-0.9075 2.0270 -2.0270Z"/></g><g stroke-linejoin="miter" stroke-opacity="1.0" fill-opacity="0.0" stroke="rgb(0,0,0)" stroke-width="1.0" fill="rgb(0,0,0)" stroke-linecap="butt" stroke-miterlimit="10.0"><path d="M 52.9668,54.4908 c 1.0093,-0.2753 2.0185,-0.5505 2.9727 -0.5505c 0.9542,-0.0000 1.8534,0.2753 2.7525 0.5505"/></g><g stroke-linejoin="miter" stroke-opacity="1.0" fill-opacity="1.0" stroke="rgb(0,0,0)" stroke-width="0.0" fill="rgb(0,0,0)" stroke-linecap="butt" stroke-miterlimit="10.0"></g><g stroke-linejoin="miter" stroke-opacity="1.0" fill-opacity="1.0" stroke="rgb(0,0,0)" stroke-width="0.0" fill="rgb(0,0,0)" stroke-linecap="butt" stroke-miterlimit="10.0"></g><g stroke-linejoin="miter" stroke-opacity="1.0" fill-opacity="1.0" stroke="rgb(0,0,0)" stroke-width="0.0" fill="rgb(0,0,0)" stroke-linecap="butt" stroke-miterlimit="10.0"></g><g stroke-linejoin="miter" stroke-opacity="1.0" fill-opacity="1.0" stroke="rgb(0,0,0)" stroke-width="0.0" fill="rgb(0,0,0)" stroke-linecap="butt" stroke-miterlimit="10.0"></g><g stroke-linejoin="miter" stroke-opacity="1.0" fill-opacity="1.0" stroke="rgb(0,0,0)" stroke-width="0.0" fill="rgb(255,255,0)" stroke-linecap="butt" stroke-miterlimit="10.0"><path d="M 50.9398,56.2425 c 0.0000,-1.2715 -1.0307,-2.3022 -2.3022 -2.3022c -1.2715,-0.0000 -2.3022,1.0307 -2.3022 2.3022c -0.0000,1.2715 1.0307,2.3022 2.3022 2.3022c 1.2715,0.0000 2.3022,-1.0307 2.3022 -2.3022Z"/></g><g stroke-linejoin="miter" stroke-opacity="1.0" fill-opacity="0.0" stroke="rgb(0,0,0)" stroke-width="1.0" fill="rgb(0,0,0)" stroke-linecap="butt" stroke-miterlimit="10.0"><path d="M 48.6376,53.9403 c 1.4151,-0.3859 2.8302,-0.7719 4.1681 -0.7719c 1.3379,0.0000 2.5986,0.3859 3.8594 0.7719"/></g><g stroke-linejoin="miter" stroke-opacity="1.0" fill-opacity="1.0" stroke="rgb(0,0,0)" stroke-width="0.0" fill="rgb(0,0,0)" stroke-linecap="butt" stroke-miterlimit="10.0"></g><g stroke-linejoin="miter" stroke-opacity="1.0" fill-opacity="1.0" stroke="rgb(0,0,0)" stroke-width="0.0" fill="rgb(0,0,0)" stroke-linecap="butt" stroke-miterlimit="10.0"></g><g stroke-linejoin="miter" stroke-opacity="1.0" fill-opacity="1.0" stroke="rgb(0,0,0)" stroke-width="0.0" fill="rgb(0,0,0)" stroke-linecap="butt" stroke-miterlimit="10.0"></g><g stroke-linejoin="miter" stroke-opacity="1.0" fill-opacity="1.0" stroke="rgb(0,0,0)" stroke-width="0.0" fill="rgb(0,0,0)" stroke-linecap="butt" stroke-miterlimit="10.0"></g><g stroke-linejoin="miter" stroke-opacity="1.0" fill-opacity="0.0" stroke="rgb(0,0,0)" stroke-width="1.0" fill="rgb(0,0,0)" stroke-linecap="butt" stroke-miterlimit="10.0"><path d="M 54.3629,45.8222 c 3.5378,-0.9648 7.0755,-1.9297 10.4203 -1.9297c 3.3448,0.0000 6.4966,0.9648 9.6484 1.9297"/></g><g stroke-linejoin="miter" stroke-opacity="1.0" fill-opacity="1.0" stroke="rgb(0,0,0)" stroke-width="0.0" fill="rgb(0,0,0)" stroke-linecap="butt" stroke-miterlimit="10.0"></g><g stroke-linejoin="miter" stroke-opacity="1.0" fill-opacity="1.0" stroke="rgb(0,0,0)" stroke-width="0.0" fill="rgb(0,0,0)" stroke-linecap="butt" stroke-miterlimit="10.0"></g><g stroke-linejoin="miter" stroke-opacity="1.0" fill-opacity="1.0" stroke="rgb(0,0,0)" stroke-width="0.0" fill="rgb(0,0,0)" stroke-linecap="butt" stroke-miterlimit="10.0"></g><g stroke-linejoin="miter" stroke-opacity="1.0" fill-opacity="1.0" stroke="rgb(0,0,0)" stroke-width="0.0" fill="rgb(0,0,0)" stroke-linecap="butt" stroke-miterlimit="10.0"></g><g stroke-linejoin="miter" stroke-opacity="1.0" fill-opacity="1.0" stroke="rgb(0,128,0)" stroke-width="0.5499608032322258" fill="rgb(144,238,144)" stroke-linecap="butt" stroke-miterlimit="10.0"><path d="M 44.3285,54.8917 c 0.0000,-6.0747 -4.9245,-10.9992 -10.9992 -10.9992c -6.0747,-0.0000 -10.9992,4.9245 -10.9992 10.9992c -0.0000,6.0747 4.9245,10.9992 10.9992 10.9992c 6.0747,0.0000 10.9992,-4.9245 10.9992 -10.9992Z"/></g><g stroke-linejoin="miter" stroke-opacity="1.0" fill-opacity="1.0" stroke="rgb(0,0,0)" stroke-width="0.0" fill="rgb(0,128,0)" stroke-linecap="butt" stroke-miterlimit="10.0"><path d="M 42.1287,56.1708 c 0.0000,-0.6456 -0.5234,-1.1690 -1.1690 -1.1690c -0.6456,-0.0000 -1.1690,0.5234 -1.1690 1.1690c -0.0000,0.6456 0.5234,1.1690 1.1690 1.1690c 0.6456,0.0000 1.1690,-0.5234 1.1690 -1.1690Z"/></g><g stroke-linejoin="miter" stroke-opacity="1.0" fill-opacity="1.0" stroke="rgb(0,0,0)" stroke-width="0.0" fill="rgb(255,255,0)" stroke-linecap="butt" stroke-miterlimit="10.0"><path d="M 39.7907,56.1708 c 0.0000,-0.6456 -0.5234,-1.1690 -1.1690 -1.1690c -0.6456,-0.0000 -1.1690,0.5234 -1.1690 1.1690c -0.0000,0.6456 0.5234,1.1690 1.1690 1.1690c 0.6456,0.0000 1.1690,-0.5234 1.1690 -1.1690Z"/></g><g stroke-linejoin="miter" stroke-opacity="1.0" fill-opacity="0.0" stroke="rgb(0,0,0)" stroke-width="1.0" fill="rgb(0,0,0)" stroke-linecap="butt" stroke-miterlimit="10.0"><path d="M 38.6217,55.0018 c 0.4122,-0.1124 0.8243,-0.2248 1.2140 -0.2248c 0.3897,0.0000 0.7569,0.1124 1.1240 0.2248"/></g><g stroke-linejoin="miter" stroke-opacity="1.0" fill-opacity="1.0" stroke="rgb(0,0,0)" stroke-width="0.0" fill="rgb(0,0,0)" stroke-linecap="butt" stroke-miterlimit="10.0"></g><g stroke-linejoin="miter" stroke-opacity="1.0" fill-opacity="1.0" stroke="rgb(0,0,0)" stroke-width="0.0" fill="rgb(0,0,0)" stroke-linecap="butt" stroke-miterlimit="10.0"></g><g stroke-linejoin="miter" stroke-opacity="1.0" fill-opacity="1.0" stroke="rgb(0,0,0)" stroke-width="0.0" fill="rgb(0,0,0)" stroke-linecap="butt" stroke-miterlimit="10.0"></g><g stroke-linejoin="miter" stroke-opacity="1.0" fill-opacity="1.0" stroke="rgb(0,0,0)" stroke-width="0.0" fill="rgb(0,0,0)" stroke-linecap="butt" stroke-miterlimit="10.0"></g><g stroke-linejoin="miter" stroke-opacity="1.0" fill-opacity="1.0" stroke="rgb(0,0,0)" stroke-width="0.0" fill="rgb(255,255,0)" stroke-linecap="butt" stroke-miterlimit="10.0"><path d="M 37.4526,56.0584 c 0.0000,-0.7077 -0.5737,-1.2814 -1.2814 -1.2814c -0.7077,-0.0000 -1.2814,0.5737 -1.2814 1.2814c -0.0000,0.7077 0.5737,1.2814 1.2814 1.2814c 0.7077,0.0000 1.2814,-0.5737 1.2814 -1.2814Z"/></g><g stroke-linejoin="miter" stroke-opacity="1.0" fill-opacity="0.0" stroke="rgb(0,0,0)" stroke-width="1.0" fill="rgb(0,0,0)" stroke-linecap="butt" stroke-miterlimit="10.0"><path d="M 36.1712,54.7770 c 0.6380,-0.1740 1.2761,-0.3480 1.8793 -0.3480c 0.6032,0.0000 1.1717,0.1740 1.7401 0.3480"/></g><g stroke-linejoin="miter" stroke-opacity="1.0" fill-opacity="1.0" stroke="rgb(0,0,0)" stroke-width="0.0" fill="rgb(0,0,0)" stroke-linecap="butt" stroke-miterlimit="10.0"></g><g stroke-linejoin="miter" stroke-opacity="1.0" fill-opacity="1.0" stroke="rgb(0,0,0)" stroke-width="0.0" fill="rgb(0,0,0)" stroke-linecap="butt" stroke-miterlimit="10.0"></g><g stroke-linejoin="miter" stroke-opacity="1.0" fill-opacity="1.0" stroke="rgb(0,0,0)" stroke-width="0.0" fill="rgb(0,0,0)" stroke-linecap="butt" stroke-miterlimit="10.0"></g><g stroke-linejoin="miter" stroke-opacity="1.0" fill-opacity="1.0" stroke="rgb(0,0,0)" stroke-width="0.0" fill="rgb(0,0,0)" stroke-linecap="butt" stroke-miterlimit="10.0"></g><g stroke-linejoin="miter" stroke-opacity="1.0" fill-opacity="1.0" stroke="rgb(0,0,0)" stroke-width="0.0" fill="rgb(255,255,0)" stroke-linecap="butt" stroke-miterlimit="10.0"><path d="M 34.8898,55.8844 c 0.0000,-0.8038 -0.6516,-1.4554 -1.4554 -1.4554c -0.8038,-0.0000 -1.4554,0.6516 -1.4554 1.4554c -0.0000,0.8038 0.6516,1.4554 1.4554 1.4554c 0.8038,0.0000 1.4554,-0.6516 1.4554 -1.4554Z"/></g><g stroke-linejoin="miter" stroke-opacity="1.0" fill-opacity="0.0" stroke="rgb(0,0,0)" stroke-width="1.0" fill="rgb(0,0,0)" stroke-linecap="butt" stroke-miterlimit="10.0"><path d="M 33.4344,54.4290 c 0.8946,-0.2440 1.7892,-0.4880 2.6350 -0.4880c 0.8458,-0.0000 1.6428,0.2440 2.4398 0.4880"/></g><g stroke-linejoin="miter" stroke-opacity="1.0" fill-opacity="1.0" stroke="rgb(0,0,0)" stroke-width="0.0" fill="rgb(0,0,0)" stroke-linecap="butt" stroke-miterlimit="10.0"></g><g stroke-linejoin="miter" stroke-opacity="1.0" fill-opacity="1.0" stroke="rgb(0,0,0)" stroke-width="0.0" fill="rgb(0,0,0)" stroke-linecap="butt" stroke-miterlimit="10.0"></g><g stroke-linejoin="miter" stroke-opacity="1.0" fill-opacity="1.0" stroke="rgb(0,0,0)" stroke-width="0.0" fill="rgb(0,0,0)" stroke-linecap="butt" stroke-miterlimit="10.0"></g><g stroke-linejoin="miter" stroke-opacity="1.0" fill-opacity="1.0" stroke="rgb(0,0,0)" stroke-width="0.0" fill="rgb(0,0,0)" stroke-linecap="butt" stroke-miterlimit="10.0"></g><g stroke-linejoin="miter" stroke-opacity="1.0" fill-opacity="1.0" stroke="rgb(0,0,0)" stroke-width="0.0" fill="rgb(255,255,0)" stroke-linecap="butt" stroke-miterlimit="10.0"><path d="M 31.9790,55.6404 c 0.0000,-0.9386 -0.7609,-1.6994 -1.6994 -1.6994c -0.9386,-0.0000 -1.6994,0.7609 -1.6994 1.6994c -0.0000,0.9386 0.7609,1.6994 1.6994 1.6994c 0.9386,0.0000 1.6994,-0.7609 1.6994 -1.6994Z"/></g><g stroke-linejoin="miter" stroke-opacity="1.0" fill-opacity="0.0" stroke="rgb(0,0,0)" stroke-width="1.0" fill="rgb(0,0,0)" stroke-linecap="butt" stroke-miterlimit="10.0"><path d="M 30.2795,53.9410 c 1.1942,-0.3257 2.3884,-0.6514 3.5174 -0.6514c 1.1290,-0.0000 2.1930,0.3257 3.2569 0.6514"/></g><g stroke-linejoin="miter" stroke-opacity="1.0" fill-opacity="1.0" stroke="rgb(0,0,0)" stroke-width="0.0" fill="rgb(0,0,0)" stroke-linecap="butt" stroke-miterlimit="10.0"></g><g stroke-linejoin="miter" stroke-opacity="1.0" fill-opacity="1.0" stroke="rgb(0,0,0)" stroke-width="0.0" fill="rgb(0,0,0)" stroke-linecap="butt" stroke-miterlimit="10.0"></g><g stroke-linejoin="miter" stroke-opacity="1.0" fill-opacity="1.0" stroke="rgb(0,0,0)" stroke-width="0.0" fill="rgb(0,0,0)" stroke-linecap="butt" stroke-miterlimit="10.0"></g><g stroke-linejoin="miter" stroke-opacity="1.0" fill-opacity="1.0" stroke="rgb(0,0,0)" stroke-width="0.0" fill="rgb(0,0,0)" stroke-linecap="butt" stroke-miterlimit="10.0"></g><g stroke-linejoin="miter" stroke-opacity="1.0" fill-opacity="1.0" stroke="rgb(0,0,0)" stroke-width="0.0" fill="rgb(255,255,0)" stroke-linecap="butt" stroke-miterlimit="10.0"><path d="M 28.5801,55.3148 c 0.0000,-1.1184 -0.9067,-2.0251 -2.0251 -2.0251c -1.1184,-0.0000 -2.0251,0.9067 -2.0251 2.0251c -0.0000,1.1184 0.9067,2.0251 2.0251 2.0251c 1.1184,0.0000 2.0251,-0.9067 2.0251 -2.0251Z"/></g><g stroke-linejoin="miter" stroke-opacity="1.0" fill-opacity="0.0" stroke="rgb(0,0,0)" stroke-width="1.0" fill="rgb(0,0,0)" stroke-linecap="butt" stroke-miterlimit="10.0"><path d="M 26.5550,53.2897 c 1.5512,-0.4230 3.1023,-0.8461 4.5689 -0.8461c 1.4666,0.0000 2.8485,0.4230 4.2305 0.8461"/></g><g stroke-linejoin="miter" stroke-opacity="1.0" fill-opacity="1.0" stroke="rgb(0,0,0)" stroke-width="0.0" fill="rgb(0,0,0)" stroke-linecap="butt" stroke-miterlimit="10.0"></g><g stroke-linejoin="miter" stroke-opacity="1.0" fill-opacity="1.0" stroke="rgb(0,0,0)" stroke-width="0.0" fill="rgb(0,0,0)" stroke-linecap="butt" stroke-miterlimit="10.0"></g><g stroke-linejoin="miter" stroke-opacity="1.0" fill-opacity="1.0" stroke="rgb(0,0,0)" stroke-width="0.0" fill="rgb(0,0,0)" stroke-linecap="butt" stroke-miterlimit="10.0"></g><g stroke-linejoin="miter" stroke-opacity="1.0" fill-opacity="1.0" stroke="rgb(0,0,0)" stroke-width="0.0" fill="rgb(0,0,0)" stroke-linecap="butt" stroke-miterlimit="10.0"></g><g stroke-linejoin="miter" stroke-opacity="1.0" fill-opacity="0.0" stroke="rgb(0,0,0)" stroke-width="1.0" fill="rgb(0,0,0)" stroke-linecap="butt" stroke-miterlimit="10.0"><path d="M 33.3293,43.8925 c 5.4767,-1.4937 10.9534,-2.9873 16.1314 -2.9873c 5.1780,-0.0000 10.0573,1.4937 14.9365 2.9873"/></g><g stroke-linejoin="miter" stroke-opacity="1.0" fill-opacity="1.0" stroke="rgb(0,0,0)" stroke-width="0.0" fill="rgb(0,0,0)" stroke-linecap="butt" stroke-miterlimit="10.0"></g><g stroke-linejoin="miter" stroke-opacity="1.0" fill-opacity="1.0" stroke="rgb(0,0,0)" stroke-width="0.0" fill="rgb(0,0,0)" stroke-linecap="butt" stroke-miterlimit="10.0"></g><g stroke-linejoin="miter" stroke-opacity="1.0" fill-opacity="1.0" stroke="rgb(0,0,0)" stroke-width="0.0" fill="rgb(0,0,0)" stroke-linecap="butt" stroke-miterlimit="10.0"></g><g stroke-linejoin="miter" stroke-opacity="1.0" fill-opacity="1.0" stroke="rgb(0,0,0)" stroke-width="0.0" fill="rgb(0,0,0)" stroke-linecap="butt" stroke-miterlimit="10.0"></g></svg>