<?xml version="1.0" encoding="UTF-8"?>
<!DOCTYPE svg PUBLIC "-//W3C//DTD SVG 1.1//EN"
    "http://www.w3.org/Graphics/SVG/1.1/DTD/svg11.dtd"><svg xmlns="http://www.w3.org/2000/svg" height="500.0000" stroke-opacity="1" viewBox="0 0 500 500" font-size="1" width="500.0000" xmlns:xlink="http://www.w3.org/1999/xlink" stroke="rgb(0,0,0)" version="1.1"><defs></defs><g stroke-linejoin="miter" stroke-opacity="1.0" fill-opacity="1.0" stroke="rgb(255,0,0)" stroke-width="11.363636363636367" fill="rgb(255,192,203)" stroke-linecap="butt" stroke-miterlimit="10.0"><path d="M 477.2727,250.0000 c 0.0000,-125.5193 -101.7535,-227.2727 -227.2727 -227.2727c -125.5193,-0.0000 -227.2727,101.7535 -227.2727 227.2727c -0.0000,125.5193 101.7535,227.2727 227.2727 227.2727c 125.5193,0.0000 227.2727,-101.7535 227.2727 -227.2727Z"/></g><g stroke-linejoin="miter" stroke-opacity="1.0" fill-opacity="1.0" stroke="rgb(0,0,255)" stroke-width="4.545454545454546" fill="rgb(173,216,230)" stroke-linecap="butt" stroke-miterlimit="10.0"><path d="M 431.8182,258.7413 c 0.0000,-50.2077 -40.7014,-90.9091 -90.9091 -90.9091c -50.2077,-0.0000 -90.9091,40.7014 -90.9091 90.9091c -0.0000,50.2077 40.7014,90.9091 90.9091 90.9091c 50.2077,0.0000 90.9091,-40.7014 90.9091 -90.9091Z"/></g><g stroke-linejoin="miter" stroke-opacity="1.0" fill-opacity="1.0" stroke="rgb(0,0,0)" stroke-width="0.0" fill="rgb(0,0,255)" stroke-linecap="butt" stroke-miterlimit="10.0"><path d="M 413.6364,264.4964 c 0.0000,-12.9729 -10.5166,-23.4896 -23.4896 -23.4896c -12.9729,-0.0000 -23.4896,10.5166 -23.4896 23.4896c -0.0000,12.9729 10.5166,23.4896 23.4896 23.4896c 12.9729,0.0000 23.4896,-10.5166 23.4896 -23.4896Z"/></g><g stroke-linejoin="miter" stroke-opacity="1.0" fill-opacity="1.0" stroke="rgb(0,0,0)" stroke-width="0.0" fill="rgb(255,0,0)" stroke-linecap="butt" stroke-miterlimit="10.0"><path d="M 366.6573,264.4964 c 0.0000,-12.9729 -10.5166,-23.4896 -23.4896 -23.4896c -12.9729,-0.0000 -23.4896,10.5166 -23.4896 23.4896c -0.0000,12.9729 10.5166,23.4896 23.4896 23.4896c 12.9729,0.0000 23.4896,-10.5166 23.4896 -23.4896Z"/></g><g stroke-linejoin="miter" stroke-opacity="1.0" fill-opacity="0.0" stroke="rgb(0,0,0)" stroke-width="1.0" fill="rgb(0,0,0)" stroke-linecap="butt" stroke-miterlimit="10.0"><path d="M 343.1677,241.0068 c 8.2816,-2.2586 16.5631,-4.5172 24.3930 -4.5172c 7.8299,0.0000 15.2080,2.2586 22.5861 4.5172"/></g><g stroke-linejoin="miter" stroke-opacity="1.0" fill-opacity="1.0" stroke="rgb(0,0,0)" stroke-width="0.0" fill="rgb(0,0,0)" stroke-linecap="butt" stroke-miterlimit="10.0"></g><g stroke-linejoin="miter" stroke-opacity="1.0" fill-opacity="1.0" stroke="rgb(0,0,0)" stroke-width="0.0" fill="rgb(0,0,0)" stroke-linecap="butt" stroke-miterlimit="10.0"></g><g stroke-linejoin="miter" stroke-opacity="1.0" fill-opacity="1.0" stroke="rgb(0,0,0)" stroke-width="0.0" fill="rgb(0,0,0)" stroke-linecap="butt" stroke-miterlimit="10.0"></g><g stroke-linejoin="miter" stroke-opacity="1.0" fill-opacity="1.0" stroke="rgb(0,0,0)" stroke-width="0.0" fill="rgb(0,0,0)" stroke-linecap="butt" stroke-miterlimit="10.0"></g><g stroke-linejoin="miter" stroke-opacity="1.0" fill-opacity="1.0" stroke="rgb(0,0,0)" stroke-width="0.0" fill="rgb(255,0,0)" stroke-linecap="butt" stroke-miterlimit="10.0"><path d="M 319.6781,262.2378 c 0.0000,-14.2203 -11.5278,-25.7482 -25.7482 -25.7482c -14.2203,-0.0000 -25.7482,11.5278 -25.7482 25.7482c -0.0000,14.2203 11.5278,25.7482 25.7482 25.7482c 14.2203,0.0000 25.7482,-11.5278 25.7482 -25.7482Z"/></g><g stroke-linejoin="miter" stroke-opacity="1.0" fill-opacity="0.0" stroke="rgb(0,0,0)" stroke-width="1.0" fill="rgb(0,0,0)" stroke-linecap="butt" stroke-miterlimit="10.0"><path d="M 293.9300,236.4896 c 12.8205,-3.4965 25.6410,-6.9930 37.7622 -6.9930c 12.1212,-0.0000 23.5431,3.4965 34.9650 6.9930"/></g><g stroke-linejoin="miter" stroke-opacity="1.0" fill-opacity="1.0" stroke="rgb(0,0,0)" stroke-width="0.0" fill="rgb(0,0,0)" stroke-linecap="butt" stroke-miterlimit="10.0"></g><g stroke-linejoin="miter" stroke-opacity="1.0" fill-opacity="1.0" stroke="rgb(0,0,0)" stroke-width="0.0" fill="rgb(0,0,0)" stroke-linecap="butt" stroke-miterlimit="10.0"></g><g stroke-linejoin="miter" stroke-opacity="1.0" fill-opacity="1.0" stroke="rgb(0,0,0)" stroke-width="0.0" fill="rgb(0,0,0)" stroke-linecap="butt" stroke-miterlimit="10.0"></g><g stroke-linejoin="miter" stroke-opacity="1.0" fill-opacity="1.0" stroke="rgb(0,0,0)" stroke-width="0.0" fill="rgb(0,0,0)" stroke-linecap="butt" stroke-miterlimit="10.0"></g><g stroke-linejoin="miter" stroke-opacity="1.0" fill-opacity="1.0" stroke="rgb(165,42,42)" stroke-width="4.545454545454546" fill="rgb(244,164,96)" stroke-linecap="butt" stroke-miterlimit="10.0"><path d="M 250.0000,258.7413 c 0.0000,-50.2077 -40.7014,-90.9091 -90.9091 -90.9091c -50.2077,-0.0000 -90.9091,40.7014 -90.9091 90.9091c -0.0000,50.2077 40.7014,90.9091 90.9091 90.9091c 50.2077,0.0000 90.9091,-40.7014 90.9091 -90.9091Z"/></g><g stroke-linejoin="miter" stroke-opacity="1.0" fill-opacity="1.0" stroke="rgb(0,128,0)" stroke-width="3.6363636363636367" fill="rgb(144,238,144)" stroke-linecap="butt" stroke-miterlimit="10.0"><path d="M 231.8182,258.7413 c 0.0000,-40.1662 -32.5611,-72.7273 -72.7273 -72.7273c -40.1662,-0.0000 -72.7273,32.5611 -72.7273 72.7273c -0.0000,40.1662 32.5611,72.7273 72.7273 72.7273c 40.1662,0.0000 72.7273,-32.5611 72.7273 -72.7273Z"/></g><g stroke-linejoin="miter" stroke-opacity="1.0" fill-opacity="1.0" stroke="rgb(0,0,0)" stroke-width="0.0" fill="rgb(0,128,0)" stroke-linecap="butt" stroke-miterlimit="10.0"><path d="M 217.2727,266.0939 c 0.0000,-5.5451 -4.4952,-10.0402 -10.0402 -10.0402c -5.5451,-0.0000 -10.0402,4.4952 -10.0402 10.0402c -0.0000,5.5451 4.4952,10.0402 10.0402 10.0402c 5.5451,0.0000 10.0402,-4.4952 10.0402 -10.0402Z"/></g><g stroke-linejoin="miter" stroke-opacity="1.0" fill-opacity="1.0" stroke="rgb(0,0,0)" stroke-width="0.0" fill="rgb(165,42,42)" stroke-linecap="butt" stroke-miterlimit="10.0"><path d="M 197.1923,266.0939 c 0.0000,-5.5451 -4.4952,-10.0402 -10.0402 -10.0402c -5.5451,-0.0000 -10.0402,4.4952 -10.0402 10.0402c -0.0000,5.5451 4.4952,10.0402 10.0402 10.0402c 5.5451,0.0000 10.0402,-4.4952 10.0402 -10.0402Z"/></g><g stroke-linejoin="miter" stroke-opacity="1.0" fill-opacity="0.0" stroke="rgb(0,0,0)" stroke-width="1.0" fill="rgb(0,0,0)" stroke-linecap="butt" stroke-miterlimit="10.0"><path d="M 187.1521,256.0537 c 3.5398,-0.9654 7.0796,-1.9308 10.4264 -1.9308c 3.3467,0.0000 6.5004,0.9654 9.6541 1.9308"/></g><g stroke-linejoin="miter" stroke-opacity="1.0" fill-opacity="1.0" stroke="rgb(0,0,0)" stroke-width="0.0" fill="rgb(0,0,0)" stroke-linecap="butt" stroke-miterlimit="10.0"></g><g stroke-linejoin="miter" stroke-opacity="1.0" fill-opacity="1.0" stroke="rgb(0,0,0)" stroke-width="0.0" fill="rgb(0,0,0)" stroke-linecap="butt" stroke-miterlimit="10.0"></g><g stroke-linejoin="miter" stroke-opacity="1.0" fill-opacity="1.0" stroke="rgb(0,0,0)" stroke-width="0.0" fill="rgb(0,0,0)" stroke-linecap="butt" stroke-miterlimit="10.0"></g><g stroke-linejoin="miter" stroke-opacity="1.0" fill-opacity="1.0" stroke="rgb(0,0,0)" stroke-width="0.0" fill="rgb(0,0,0)" stroke-linecap="butt" stroke-miterlimit="10.0"></g><g stroke-linejoin="miter" stroke-opacity="1.0" fill-opacity="1.0" stroke="rgb(0,0,0)" stroke-width="0.0" fill="rgb(165,42,42)" stroke-linecap="butt" stroke-miterlimit="10.0"><path d="M 177.1119,265.1285 c 0.0000,-6.0782 -4.9274,-11.0056 -11.0056 -11.0056c -6.0782,-0.0000 -11.0056,4.9274 -11.0056 11.0056c -0.0000,6.0782 4.9274,11.0056 11.0056 11.0056c 6.0782,0.0000 11.0056,-4.9274 11.0056 -11.0056Z"/></g><g stroke-linejoin="miter" stroke-opacity="1.0" fill-opacity="0.0" stroke="rgb(0,0,0)" stroke-width="1.0" fill="rgb(0,0,0)" stroke-linecap="butt" stroke-miterlimit="10.0"><path d="M 166.1063,254.1229 c 5.4799,-1.4945 10.9598,-2.9890 16.1408 -2.9890c 5.1810,0.0000 10.0631,1.4945 14.9452 2.9890"/></g><g stroke-linejoin="miter" stroke-opacity="1.0" fill-opacity="1.0" stroke="rgb(0,0,0)" stroke-width="0.0" fill="rgb(0,0,0)" stroke-linecap="butt" stroke-miterlimit="10.0"></g><g stroke-linejoin="miter" stroke-opacity="1.0" fill-opacity="1.0" stroke="rgb(0,0,0)" stroke-width="0.0" fill="rgb(0,0,0)" stroke-linecap="butt" stroke-miterlimit="10.0"></g><g stroke-linejoin="miter" stroke-opacity="1.0" fill-opacity="1.0" stroke="rgb(0,0,0)" stroke-width="0.0" fill="rgb(0,0,0)" stroke-linecap="butt" stroke-miterlimit="10.0"></g><g stroke-linejoin="miter" stroke-opacity="1.0" fill-opacity="1.0" stroke="rgb(0,0,0)" stroke-width="0.0" fill="rgb(0,0,0)" stroke-linecap="butt" stroke-miterlimit="10.0"></g><g stroke-linejoin="miter" stroke-opacity="1.0" fill-opacity="1.0" stroke="rgb(0,0,0)" stroke-width="0.0" fill="rgb(165,42,42)" stroke-linecap="butt" stroke-miterlimit="10.0"><path d="M 155.1006,263.6340 c 0.0000,-6.9036 -5.5965,-12.5001 -12.5001 -12.5001c -6.9036,-0.0000 -12.5001,5.5965 -12.5001 12.5001c -0.0000,6.9036 5.5965,12.5001 12.5001 12.5001c 6.9036,0.0000 12.5001,-5.5965 12.5001 -12.5001Z"/></g><g stroke-linejoin="miter" stroke-opacity="1.0" fill-opacity="0.0" stroke="rgb(0,0,0)" stroke-width="1.0" fill="rgb(0,0,0)" stroke-linecap="butt" stroke-miterlimit="10.0"><path d="M 142.6005,251.1338 c 7.6835,-2.0955 15.3669,-4.1910 22.6313 -4.1910c 7.2644,0.0000 14.1096,2.0955 20.9549 4.1910"/></g><g stroke-linejoin="miter" stroke-opacity="1.0" fill-opacity="1.0" stroke="rgb(0,0,0)" stroke-width="0.0" fill="rgb(0,0,0)" stroke-linecap="butt" stroke-miterlimit="10.0"></g><g stroke-linejoin="miter" stroke-opacity="1.0" fill-opacity="1.0" stroke="rgb(0,0,0)" stroke-width="0.0" fill="rgb(0,0,0)" stroke-linecap="butt" stroke-miterlimit="10.0"></g><g stroke-linejoin="miter" stroke-opacity="1.0" fill-opacity="1.0" stroke="rgb(0,0,0)" stroke-width="0.0" fill="rgb(0,0,0)" stroke-linecap="butt" stroke-miterlimit="10.0"></g><g stroke-linejoin="miter" stroke-opacity="1.0" fill-opacity="1.0" stroke="rgb(0,0,0)" stroke-width="0.0" fill="rgb(0,0,0)" stroke-linecap="butt" stroke-miterlimit="10.0"></g><g stroke-linejoin="miter" stroke-opacity="1.0" fill-opacity="1.0" stroke="rgb(0,0,0)" stroke-width="0.0" fill="rgb(165,42,42)" stroke-linecap="butt" stroke-miterlimit="10.0"><path d="M 130.1004,261.5385 c 0.0000,-8.0609 -6.5347,-14.5956 -14.5956 -14.5956c -8.0609,-0.0000 -14.5956,6.5347 -14.5956 14.5956c -0.0000,8.0609 6.5347,14.5956 14.5956 14.5956c 8.0609,0.0000 14.5956,-6.5347 14.5956 -14.5956Z"/></g><g stroke-linejoin="miter" stroke-opacity="1.0" fill-opacity="0.0" stroke="rgb(0,0,0)" stroke-width="1.0" fill="rgb(0,0,0)" stroke-linecap="butt" stroke-miterlimit="10.0"><path d="M 115.5047,246.9428 c 10.2564,-2.7972 20.5128,-5.5944 30.2098 -5.5944c 9.6970,-0.0000 18.8345,2.7972 27.9720 5.5944"/></g><g stroke-linejoin="miter" stroke-opacity="1.0" fill-opacity="1.0" stroke="rgb(0,0,0)" stroke-width="0.0" fill="rgb(0,0,0)" stroke-linecap="butt" stroke-miterlimit="10.0"></g><g stroke-linejoin="miter" stroke-opacity="1.0" fill-opacity="1.0" stroke="rgb(0,0,0)" stroke-width="0.0" fill="rgb(0,0,0)" stroke-linecap="butt" stroke-miterlimit="10.0"></g><g stroke-linejoin="miter" stroke-opacity="1.0" fill-opacity="1.0" stroke="rgb(0,0,0)" stroke-width="0.0" fill="rgb(0,0,0)" stroke-linecap="butt" stroke-miterlimit="10.0"></g><g stroke-linejoin="miter" stroke-opacity="1.0" fill-opacity="1.0" stroke="rgb(0,0,0)" stroke-width="0.0" fill="rgb(0,0,0)" stroke-linecap="butt" stroke-miterlimit="10.0"></g><g stroke-linejoin="miter" stroke-opacity="1.0" fill-opacity="0.0" stroke="rgb(0,0,0)" stroke-width="1.0" fill="rgb(0,0,0)" stroke-linecap="butt" stroke-miterlimit="10.0"><path d="M 159.0909,167.8322 c 32.0513,-8.7413 64.1026,-17.4825 94.4056 -17.4825c 30.3030,-0.0000 58.8578,8.7413 87.4126 17.4825"/></g><g stroke-linejoin="miter" stroke-opacity="1.0" fill-opacity="1.0" stroke="rgb(0,0,0)" stroke-width="0.0" fill="rgb(0,0,0)" stroke-linecap="butt" stroke-miterlimit="10.0"></g><g stroke-linejoin="miter" stroke-opacity="1.0" fill-opacity="1.0" stroke="rgb(0,0,0)" stroke-width="0.0" fill="rgb(0,0,0)" stroke-linecap="butt" stroke-miterlimit="10.0"></g><g stroke-linejoin="miter" stroke-opacity="1.0" fill-opacity="1.0" stroke="rgb(0,0,0)" stroke-width="0.0" fill="rgb(0,0,0)" stroke-linecap="butt" stroke-miterlimit="10.0"></g><g stroke-linejoin="miter" stroke-opacity="1.0" fill-opacity="1.0" stroke="rgb(0,0,0)" stroke-width="0.0" fill="rgb(0,0,0)" stroke-linecap="butt" stroke-miterlimit="10.0"></g></svg>