<?xml version="1.0" encoding="UTF-8"?>
<!DOCTYPE svg PUBLIC "-//W3C//DTD SVG 1.1//EN"
    "http://www.w3.org/Graphics/SVG/1.1/DTD/svg11.dtd"><svg xmlns="http://www.w3.org/2000/svg" height="500.0000" stroke-opacity="1" viewBox="0 0 500 500" font-size="1" width="500.0000" xmlns:xlink="http://www.w3.org/1999/xlink" stroke="rgb(0,0,0)" version="1.1"><defs></defs><g stroke-linejoin="miter" stroke-opacity="1.0" fill-opacity="1.0" stroke="rgb(255,0,0)" stroke-width="11.363636363636367" fill="rgb(255,192,203)" stroke-linecap="butt" stroke-miterlimit="10.0"><path d="M 477.2727,250.0000 c 0.0000,-125.5193 -101.7535,-227.2727 -227.2727 -227.2727c -125.5193,-0.0000 -227.2727,101.7535 -227.2727 227.2727c -0.0000,125.5193 101.7535,227.2727 227.2727 227.2727c 125.5193,0.0000 227.2727,-101.7535 227.2727 -227.2727Z"/></g><g stroke-linejoin="miter" stroke-opacity="1.0" fill-opacity="1.0" stroke="rgb(0,0,0)" stroke-width="0.0" fill="rgb(255,0,0)" stroke-linecap="butt" stroke-miterlimit="10.0"><path d="M 431.8182,264.3878 c 0.0000,-32.4323 -26.2916,-58.7239 -58.7239 -58.7239c -32.4323,-0.0000 -58.7239,26.2916 -58.7239 58.7239c -0.0000,32.4323 26.2916,58.7239 58.7239 58.7239c 32.4323,0.0000 58.7239,-26.2916 58.7239 -58.7239Z"/></g><g stroke-linejoin="miter" stroke-opacity="1.0" fill-opacity="1.0" stroke="rgb(0,128,0)" stroke-width="2.936194240542067" fill="rgb(144,238,144)" stroke-linecap="butt" stroke-miterlimit="10.0"><path d="M 314.3704,264.3878 c 0.0000,-32.4323 -26.2916,-58.7239 -58.7239 -58.7239c -32.4323,-0.0000 -58.7239,26.2916 -58.7239 58.7239c -0.0000,32.4323 26.2916,58.7239 58.7239 58.7239c 32.4323,0.0000 58.7239,-26.2916 58.7239 -58.7239Z"/></g><g stroke-linejoin="miter" stroke-opacity="1.0" fill-opacity="1.0" stroke="rgb(0,0,255)" stroke-width="2.3489553924336537" fill="rgb(173,216,230)" stroke-linecap="butt" stroke-miterlimit="10.0"><path d="M 302.6256,264.3878 c 0.0000,-25.9458 -21.0333,-46.9791 -46.9791 -46.9791c -25.9458,-0.0000 -46.9791,21.0333 -46.9791 46.9791c -0.0000,25.9458 21.0333,46.9791 46.9791 46.9791c 25.9458,0.0000 46.9791,-21.0333 46.9791 -46.9791Z"/></g><g stroke-linejoin="miter" stroke-opacity="1.0" fill-opacity="1.0" stroke="rgb(0,0,0)" stroke-width="0.0" fill="rgb(0,0,255)" stroke-linecap="butt" stroke-miterlimit="10.0"><path d="M 293.2298,267.3619 c 0.0000,-6.7040 -5.4347,-12.1387 -12.1387 -12.1387c -6.7040,-0.0000 -12.1387,5.4347 -12.1387 12.1387c -0.0000,6.7040 5.4347,12.1387 12.1387 12.1387c 6.7040,0.0000 12.1387,-5.4347 12.1387 -12.1387Z"/></g><g stroke-linejoin="miter" stroke-opacity="1.0" fill-opacity="1.0" stroke="rgb(0,0,0)" stroke-width="0.0" fill="rgb(0,128,0)" stroke-linecap="butt" stroke-miterlimit="10.0"><path d="M 268.9524,267.3619 c 0.0000,-6.7040 -5.4347,-12.1387 -12.1387 -12.1387c -6.7040,-0.0000 -12.1387,5.4347 -12.1387 12.1387c -0.0000,6.7040 5.4347,12.1387 12.1387 12.1387c 6.7040,0.0000 12.1387,-5.4347 12.1387 -12.1387Z"/></g><g stroke-linejoin="miter" stroke-opacity="1.0" fill-opacity="0.0" stroke="rgb(0,0,0)" stroke-width="1.0" fill="rgb(0,0,0)" stroke-linecap="butt" stroke-miterlimit="10.0"><path d="M 256.8137,255.2232 c 4.2797,-1.1672 8.5593,-2.3344 12.6056 -2.3344c 4.0462,0.0000 7.8590,1.1672 11.6718 2.3344"/></g><g stroke-linejoin="miter" stroke-opacity="1.0" fill-opacity="1.0" stroke="rgb(0,0,0)" stroke-width="0.0" fill="rgb(0,0,0)" stroke-linecap="butt" stroke-miterlimit="10.0"></g><g stroke-linejoin="miter" stroke-opacity="1.0" fill-opacity="1.0" stroke="rgb(0,0,0)" stroke-width="0.0" fill="rgb(0,0,0)" stroke-linecap="butt" stroke-miterlimit="10.0"></g><g stroke-linejoin="miter" stroke-opacity="1.0" fill-opacity="1.0" stroke="rgb(0,0,0)" stroke-width="0.0" fill="rgb(0,0,0)" stroke-linecap="butt" stroke-miterlimit="10.0"></g><g stroke-linejoin="miter" stroke-opacity="1.0" fill-opacity="1.0" stroke="rgb(0,0,0)" stroke-width="0.0" fill="rgb(0,0,0)" stroke-linecap="butt" stroke-miterlimit="10.0"></g><g stroke-linejoin="miter" stroke-opacity="1.0" fill-opacity="1.0" stroke="rgb(0,0,0)" stroke-width="0.0" fill="rgb(0,128,0)" stroke-linecap="butt" stroke-miterlimit="10.0"><path d="M 244.6750,266.1947 c 0.0000,-7.3486 -5.9572,-13.3059 -13.3059 -13.3059c -7.3486,-0.0000 -13.3059,5.9572 -13.3059 13.3059c -0.0000,7.3486 5.9572,13.3059 13.3059 13.3059c 7.3486,0.0000 13.3059,-5.9572 13.3059 -13.3059Z"/></g><g stroke-linejoin="miter" stroke-opacity="1.0" fill-opacity="0.0" stroke="rgb(0,0,0)" stroke-width="1.0" fill="rgb(0,0,0)" stroke-linecap="butt" stroke-miterlimit="10.0"><path d="M 231.3691,252.8888 c 6.6253,-1.8069 13.2505,-3.6138 19.5144 -3.6138c 6.2639,-0.0000 12.1664,1.8069 18.0689 3.6138"/></g><g stroke-linejoin="miter" stroke-opacity="1.0" fill-opacity="1.0" stroke="rgb(0,0,0)" stroke-width="0.0" fill="rgb(0,0,0)" stroke-linecap="butt" stroke-miterlimit="10.0"></g><g stroke-linejoin="miter" stroke-opacity="1.0" fill-opacity="1.0" stroke="rgb(0,0,0)" stroke-width="0.0" fill="rgb(0,0,0)" stroke-linecap="butt" stroke-miterlimit="10.0"></g><g stroke-linejoin="miter" stroke-opacity="1.0" fill-opacity="1.0" stroke="rgb(0,0,0)" stroke-width="0.0" fill="rgb(0,0,0)" stroke-linecap="butt" stroke-miterlimit="10.0"></g><g stroke-linejoin="miter" stroke-opacity="1.0" fill-opacity="1.0" stroke="rgb(0,0,0)" stroke-width="0.0" fill="rgb(0,0,0)" stroke-linecap="butt" stroke-miterlimit="10.0"></g><g stroke-linejoin="miter" stroke-opacity="1.0" fill-opacity="0.0" stroke="rgb(0,0,0)" stroke-width="1.0" fill="rgb(0,0,0)" stroke-linecap="butt" stroke-miterlimit="10.0"><path d="M 255.6465,205.6639 c 20.7039,-5.6465 41.4079,-11.2931 60.9825 -11.2931c 19.5746,0.0000 38.0200,5.6465 56.4653 11.2931"/></g><g stroke-linejoin="miter" stroke-opacity="1.0" fill-opacity="1.0" stroke="rgb(0,0,0)" stroke-width="0.0" fill="rgb(0,0,0)" stroke-linecap="butt" stroke-miterlimit="10.0"></g><g stroke-linejoin="miter" stroke-opacity="1.0" fill-opacity="1.0" stroke="rgb(0,0,0)" stroke-width="0.0" fill="rgb(0,0,0)" stroke-linecap="butt" stroke-miterlimit="10.0"></g><g stroke-linejoin="miter" stroke-opacity="1.0" fill-opacity="1.0" stroke="rgb(0,0,0)" stroke-width="0.0" fill="rgb(0,0,0)" stroke-linecap="butt" stroke-miterlimit="10.0"></g><g stroke-linejoin="miter" stroke-opacity="1.0" fill-opacity="1.0" stroke="rgb(0,0,0)" stroke-width="0.0" fill="rgb(0,0,0)" stroke-linecap="butt" stroke-miterlimit="10.0"></g><g stroke-linejoin="miter" stroke-opacity="1.0" fill-opacity="1.0" stroke="rgb(165,42,42)" stroke-width="3.2185206098249584" fill="rgb(244,164,96)" stroke-linecap="butt" stroke-miterlimit="10.0"><path d="M 196.9226,258.7413 c 0.0000,-35.5508 -28.8196,-64.3704 -64.3704 -64.3704c -35.5508,-0.0000 -64.3704,28.8196 -64.3704 64.3704c -0.0000,35.5508 28.8196,64.3704 64.3704 64.3704c 35.5508,0.0000 64.3704,-28.8196 64.3704 -64.3704Z"/></g><g stroke-linejoin="miter" stroke-opacity="1.0" fill-opacity="1.0" stroke="rgb(0,128,0)" stroke-width="2.574816487859967" fill="rgb(144,238,144)" stroke-linecap="butt" stroke-miterlimit="10.0"><path d="M 184.0486,258.7413 c 0.0000,-28.4406 -23.0557,-51.4963 -51.4963 -51.4963c -28.4406,-0.0000 -51.4963,23.0557 -51.4963 51.4963c -0.0000,28.4406 23.0557,51.4963 51.4963 51.4963c 28.4406,0.0000 51.4963,-23.0557 51.4963 -51.4963Z"/></g><g stroke-linejoin="miter" stroke-opacity="1.0" fill-opacity="1.0" stroke="rgb(0,0,0)" stroke-width="0.0" fill="rgb(0,128,0)" stroke-linecap="butt" stroke-miterlimit="10.0"><path d="M 173.7493,263.9475 c 0.0000,-3.9263 -3.1829,-7.1092 -7.1092 -7.1092c -3.9263,-0.0000 -7.1092,3.1829 -7.1092 7.1092c -0.0000,3.9263 3.1829,7.1092 7.1092 7.1092c 3.9263,0.0000 7.1092,-3.1829 7.1092 -7.1092Z"/></g><g stroke-linejoin="miter" stroke-opacity="1.0" fill-opacity="1.0" stroke="rgb(0,0,0)" stroke-width="0.0" fill="rgb(165,42,42)" stroke-linecap="butt" stroke-miterlimit="10.0"><path d="M 159.5309,263.9475 c 0.0000,-3.9263 -3.1829,-7.1092 -7.1092 -7.1092c -3.9263,-0.0000 -7.1092,3.1829 -7.1092 7.1092c -0.0000,3.9263 3.1829,7.1092 7.1092 7.1092c 3.9263,0.0000 7.1092,-3.1829 7.1092 -7.1092Z"/></g><g stroke-linejoin="miter" stroke-opacity="1.0" fill-opacity="0.0" stroke="rgb(0,0,0)" stroke-width="1.0" fill="rgb(0,0,0)" stroke-linecap="butt" stroke-miterlimit="10.0"><path d="M 152.4216,256.8382 c 2.5065,-0.6836 5.0129,-1.3672 7.3827 -1.3672c 2.3697,0.0000 4.6028,0.6836 6.8358 1.3672"/></g><g stroke-linejoin="miter" stroke-opacity="1.0" fill-opacity="1.0" stroke="rgb(0,0,0)" stroke-width="0.0" fill="rgb(0,0,0)" stroke-linecap="butt" stroke-miterlimit="10.0"></g><g stroke-linejoin="miter" stroke-opacity="1.0" fill-opacity="1.0" stroke="rgb(0,0,0)" stroke-width="0.0" fill="rgb(0,0,0)" stroke-linecap="butt" stroke-miterlimit="10.0"></g><g stroke-linejoin="miter" stroke-opacity="1.0" fill-opacity="1.0" stroke="rgb(0,0,0)" stroke-width="0.0" fill="rgb(0,0,0)" stroke-linecap="butt" stroke-miterlimit="10.0"></g><g stroke-linejoin="miter" stroke-opacity="1.0" fill-opacity="1.0" stroke="rgb(0,0,0)" stroke-width="0.0" fill="rgb(0,0,0)" stroke-linecap="butt" stroke-miterlimit="10.0"></g><g stroke-linejoin="miter" stroke-opacity="1.0" fill-opacity="1.0" stroke="rgb(0,0,0)" stroke-width="0.0" fill="rgb(165,42,42)" stroke-linecap="butt" stroke-miterlimit="10.0"><path d="M 145.3124,263.2639 c 0.0000,-4.3038 -3.4890,-7.7928 -7.7928 -7.7928c -4.3038,-0.0000 -7.7928,3.4890 -7.7928 7.7928c -0.0000,4.3038 3.4890,7.7928 7.7928 7.7928c 4.3038,0.0000 7.7928,-3.4890 7.7928 -7.7928Z"/></g><g stroke-linejoin="miter" stroke-opacity="1.0" fill-opacity="0.0" stroke="rgb(0,0,0)" stroke-width="1.0" fill="rgb(0,0,0)" stroke-linecap="butt" stroke-miterlimit="10.0"><path d="M 137.5196,255.4711 c 3.8802,-1.0582 7.7604,-2.1165 11.4289 -2.1165c 3.6685,0.0000 7.1254,1.0582 10.5823 2.1165"/></g><g stroke-linejoin="miter" stroke-opacity="1.0" fill-opacity="1.0" stroke="rgb(0,0,0)" stroke-width="0.0" fill="rgb(0,0,0)" stroke-linecap="butt" stroke-miterlimit="10.0"></g><g stroke-linejoin="miter" stroke-opacity="1.0" fill-opacity="1.0" stroke="rgb(0,0,0)" stroke-width="0.0" fill="rgb(0,0,0)" stroke-linecap="butt" stroke-miterlimit="10.0"></g><g stroke-linejoin="miter" stroke-opacity="1.0" fill-opacity="1.0" stroke="rgb(0,0,0)" stroke-width="0.0" fill="rgb(0,0,0)" stroke-linecap="butt" stroke-miterlimit="10.0"></g><g stroke-linejoin="miter" stroke-opacity="1.0" fill-opacity="1.0" stroke="rgb(0,0,0)" stroke-width="0.0" fill="rgb(0,0,0)" stroke-linecap="butt" stroke-miterlimit="10.0"></g><g stroke-linejoin="miter" stroke-opacity="1.0" fill-opacity="1.0" stroke="rgb(0,0,0)" stroke-width="0.0" fill="rgb(165,42,42)" stroke-linecap="butt" stroke-miterlimit="10.0"><path d="M 129.7268,262.2056 c 0.0000,-4.8883 -3.9627,-8.8510 -8.8510 -8.8510c -4.8883,-0.0000 -8.8510,3.9627 -8.8510 8.8510c -0.0000,4.8883 3.9627,8.8510 8.8510 8.8510c 4.8883,0.0000 8.8510,-3.9627 8.8510 -8.8510Z"/></g><g stroke-linejoin="miter" stroke-opacity="1.0" fill-opacity="0.0" stroke="rgb(0,0,0)" stroke-width="1.0" fill="rgb(0,0,0)" stroke-linecap="butt" stroke-miterlimit="10.0"><path d="M 120.8758,253.3546 c 5.4405,-1.4838 10.8809,-2.9675 16.0246 -2.9675c 5.1437,0.0000 9.9907,1.4838 14.8376 2.9675"/></g><g stroke-linejoin="miter" stroke-opacity="1.0" fill-opacity="1.0" stroke="rgb(0,0,0)" stroke-width="0.0" fill="rgb(0,0,0)" stroke-linecap="butt" stroke-miterlimit="10.0"></g><g stroke-linejoin="miter" stroke-opacity="1.0" fill-opacity="1.0" stroke="rgb(0,0,0)" stroke-width="0.0" fill="rgb(0,0,0)" stroke-linecap="butt" stroke-miterlimit="10.0"></g><g stroke-linejoin="miter" stroke-opacity="1.0" fill-opacity="1.0" stroke="rgb(0,0,0)" stroke-width="0.0" fill="rgb(0,0,0)" stroke-linecap="butt" stroke-miterlimit="10.0"></g><g stroke-linejoin="miter" stroke-opacity="1.0" fill-opacity="1.0" stroke="rgb(0,0,0)" stroke-width="0.0" fill="rgb(0,0,0)" stroke-linecap="butt" stroke-miterlimit="10.0"></g><g stroke-linejoin="miter" stroke-opacity="1.0" fill-opacity="1.0" stroke="rgb(0,0,0)" stroke-width="0.0" fill="rgb(165,42,42)" stroke-linecap="butt" stroke-miterlimit="10.0"><path d="M 112.0248,260.7219 c 0.0000,-5.7077 -4.6270,-10.3348 -10.3348 -10.3348c -5.7077,-0.0000 -10.3348,4.6270 -10.3348 10.3348c -0.0000,5.7077 4.6270,10.3348 10.3348 10.3348c 5.7077,0.0000 10.3348,-4.6270 10.3348 -10.3348Z"/></g><g stroke-linejoin="miter" stroke-opacity="1.0" fill-opacity="0.0" stroke="rgb(0,0,0)" stroke-width="1.0" fill="rgb(0,0,0)" stroke-linecap="butt" stroke-miterlimit="10.0"><path d="M 101.6900,250.3871 c 7.2623,-1.9806 14.5246,-3.9613 21.3908 -3.9613c 6.8662,-0.0000 13.3362,1.9806 19.8063 3.9613"/></g><g stroke-linejoin="miter" stroke-opacity="1.0" fill-opacity="1.0" stroke="rgb(0,0,0)" stroke-width="0.0" fill="rgb(0,0,0)" stroke-linecap="butt" stroke-miterlimit="10.0"></g><g stroke-linejoin="miter" stroke-opacity="1.0" fill-opacity="1.0" stroke="rgb(0,0,0)" stroke-width="0.0" fill="rgb(0,0,0)" stroke-linecap="butt" stroke-miterlimit="10.0"></g><g stroke-linejoin="miter" stroke-opacity="1.0" fill-opacity="1.0" stroke="rgb(0,0,0)" stroke-width="0.0" fill="rgb(0,0,0)" stroke-linecap="butt" stroke-miterlimit="10.0"></g><g stroke-linejoin="miter" stroke-opacity="1.0" fill-opacity="1.0" stroke="rgb(0,0,0)" stroke-width="0.0" fill="rgb(0,0,0)" stroke-linecap="butt" stroke-miterlimit="10.0"></g><g stroke-linejoin="miter" stroke-opacity="1.0" fill-opacity="0.0" stroke="rgb(0,0,0)" stroke-width="1.0" fill="rgb(0,0,0)" stroke-linecap="butt" stroke-miterlimit="10.0"><path d="M 132.5522,194.3708 c 32.0513,-8.7413 64.1026,-17.4825 94.4056 -17.4825c 30.3030,0.0000 58.8578,8.7413 87.4126 17.4825"/></g><g stroke-linejoin="miter" stroke-opacity="1.0" fill-opacity="1.0" stroke="rgb(0,0,0)" stroke-width="0.0" fill="rgb(0,0,0)" stroke-linecap="butt" stroke-miterlimit="10.0"></g><g stroke-linejoin="miter" stroke-opacity="1.0" fill-opacity="1.0" stroke="rgb(0,0,0)" stroke-width="0.0" fill="rgb(0,0,0)" stroke-linecap="butt" stroke-miterlimit="10.0"></g><g stroke-linejoin="miter" stroke-opacity="1.0" fill-opacity="1.0" stroke="rgb(0,0,0)" stroke-width="0.0" fill="rgb(0,0,0)" stroke-linecap="butt" stroke-miterlimit="10.0"></g><g stroke-linejoin="miter" stroke-opacity="1.0" fill-opacity="1.0" stroke="rgb(0,0,0)" stroke-width="0.0" fill="rgb(0,0,0)" stroke-linecap="butt" stroke-miterlimit="10.0"></g></svg>