<?xml version="1.0" encoding="UTF-8"?>
<!DOCTYPE svg PUBLIC "-//W3C//DTD SVG 1.1//EN"
    "http://www.w3.org/Graphics/SVG/1.1/DTD/svg11.dtd"><svg xmlns="http://www.w3.org/2000/svg" height="174.6032" stroke-opacity="1" viewBox="0 0 500 175" font-size="1" width="500.0000" xmlns:xlink="http://www.w3.org/1999/xlink" stroke="rgb(0,0,0)" version="1.1"><defs></defs><g stroke-linejoin="miter" stroke-opacity="1.0" fill-opacity="1.0" font-size="19.841269841269845px" stroke="rgb(0,0,0)" stroke-width="1.181873680570558" fill="rgb(0,0,0)" stroke-linecap="butt" stroke-miterlimit="10.0"><text dominant-baseline="middle" transform="matrix(1.0000,0.0000,0.0000,1.0000,253.9683,67.4603)" stroke="none" text-anchor="middle">Burst</text></g><g stroke-linejoin="miter" stroke-opacity="1.0" fill-opacity="0.0" stroke="rgb(0,0,0)" stroke-width="1.181873680570558" fill="rgb(0,0,0)" stroke-linecap="butt" stroke-miterlimit="10.0"><path d="M 194.4444,87.3016 h 108.7062 "/></g><g stroke-linejoin="miter" stroke-opacity="1.0" fill-opacity="1.0" stroke="rgb(0,0,0)" stroke-width="0.0" fill="rgb(0,0,0)" stroke-linecap="butt" stroke-miterlimit="10.0"></g><g stroke-linejoin="miter" stroke-opacity="1.0" fill-opacity="1.0" stroke="rgb(0,0,0)" stroke-width="0.0" fill="rgb(0,0,0)" stroke-linecap="butt" stroke-miterlimit="10.0"></g><g stroke-linejoin="miter" stroke-opacity="1.0" fill-opacity="1.0" stroke="rgb(0,0,0)" stroke-width="0.0" fill="rgb(0,0,0)" stroke-linecap="butt" stroke-miterlimit="10.0"><path d="M 313.4921,87.3016 l -12.0972,-3.9306 l 2.0664,3.9306 l -2.0664,3.9306 Z"/></g><g stroke-linejoin="miter" stroke-opacity="1.0" fill-opacity="1.0" stroke="rgb(0,0,0)" stroke-width="0.0" fill="rgb(0,0,0)" stroke-linecap="butt" stroke-miterlimit="10.0"><path d="M 303.4613,87.3016 h -0.3107 v -0.5909 l 0.3107,0.5909 h -0.3107 v 0.5909 Z"/></g><g stroke-linejoin="miter" stroke-opacity="1.0" fill-opacity="1.0" stroke="rgb(255,255,0)" stroke-width="3.9682539682539693" fill="rgb(255,255,224)" stroke-linecap="butt" stroke-miterlimit="10.0"><path d="M 492.0635,87.3016 c 0.0000,-43.8321 -35.5330,-79.3651 -79.3651 -79.3651c -43.8321,-0.0000 -79.3651,35.5330 -79.3651 79.3651c -0.0000,43.8321 35.5330,79.3651 79.3651 79.3651c 43.8321,0.0000 79.3651,-35.5330 79.3651 -79.3651Z"/></g><g stroke-linejoin="miter" stroke-opacity="1.0" fill-opacity="1.0" stroke="rgb(0,139,139)" stroke-width="3.1746031746031758" fill="rgb(0,255,255)" stroke-linecap="butt" stroke-miterlimit="10.0"><path d="M 476.1905,87.3016 c 0.0000,-35.0657 -28.4264,-63.4921 -63.4921 -63.4921c -35.0657,-0.0000 -63.4921,28.4264 -63.4921 63.4921c -0.0000,35.0657 28.4264,63.4921 63.4921 63.4921c 35.0657,0.0000 63.4921,-28.4264 63.4921 -63.4921Z"/></g><g stroke-linejoin="miter" stroke-opacity="1.0" fill-opacity="1.0" stroke="rgb(0,0,0)" stroke-width="0.0" fill="rgb(0,139,139)" stroke-linecap="butt" stroke-miterlimit="10.0"><path d="M 463.4921,91.3210 c 0.0000,-9.0605 -7.3449,-16.4054 -16.4054 -16.4054c -9.0605,-0.0000 -16.4054,7.3449 -16.4054 16.4054c -0.0000,9.0605 7.3449,16.4054 16.4054 16.4054c 9.0605,0.0000 16.4054,-7.3449 16.4054 -16.4054Z"/></g><g stroke-linejoin="miter" stroke-opacity="1.0" fill-opacity="1.0" stroke="rgb(0,128,0)" stroke-width="0.8202701370403237" fill="rgb(144,238,144)" stroke-linecap="butt" stroke-miterlimit="10.0"><path d="M 430.6813,91.3210 c 0.0000,-9.0605 -7.3449,-16.4054 -16.4054 -16.4054c -9.0605,-0.0000 -16.4054,7.3449 -16.4054 16.4054c -0.0000,9.0605 7.3449,16.4054 16.4054 16.4054c 9.0605,0.0000 16.4054,-7.3449 16.4054 -16.4054Z"/></g><g stroke-linejoin="miter" stroke-opacity="1.0" fill-opacity="1.0" stroke="rgb(0,0,0)" stroke-width="0.0" fill="rgb(0,128,0)" stroke-linecap="butt" stroke-miterlimit="10.0"><path d="M 427.4002,92.6927 c 0.0000,-1.6697 -1.3535,-3.0232 -3.0232 -3.0232c -1.6697,-0.0000 -3.0232,1.3535 -3.0232 3.0232c -0.0000,1.6697 1.3535,3.0232 3.0232 3.0232c 1.6697,0.0000 3.0232,-1.3535 3.0232 -3.0232Z"/></g><g stroke-linejoin="miter" stroke-opacity="1.0" fill-opacity="1.0" stroke="rgb(0,0,0)" stroke-width="0.0" fill="rgb(255,255,0)" stroke-linecap="butt" stroke-miterlimit="10.0"><path d="M 421.3537,92.6927 c 0.0000,-1.6697 -1.3535,-3.0232 -3.0232 -3.0232c -1.6697,-0.0000 -3.0232,1.3535 -3.0232 3.0232c -0.0000,1.6697 1.3535,3.0232 3.0232 3.0232c 1.6697,0.0000 3.0232,-1.3535 3.0232 -3.0232Z"/></g><g stroke-linejoin="miter" stroke-opacity="1.0" fill-opacity="0.0" stroke="rgb(0,0,0)" stroke-width="1.0" fill="rgb(0,0,0)" stroke-linecap="butt" stroke-miterlimit="10.0"><path d="M 418.3305,89.6695 c 1.0659,-0.2907 2.1318,-0.5814 3.1395 -0.5814c 1.0077,0.0000 1.9573,0.2907 2.9070 0.5814"/></g><g stroke-linejoin="miter" stroke-opacity="1.0" fill-opacity="1.0" stroke="rgb(0,0,0)" stroke-width="0.0" fill="rgb(0,0,0)" stroke-linecap="butt" stroke-miterlimit="10.0"></g><g stroke-linejoin="miter" stroke-opacity="1.0" fill-opacity="1.0" stroke="rgb(0,0,0)" stroke-width="0.0" fill="rgb(0,0,0)" stroke-linecap="butt" stroke-miterlimit="10.0"></g><g stroke-linejoin="miter" stroke-opacity="1.0" fill-opacity="1.0" stroke="rgb(0,0,0)" stroke-width="0.0" fill="rgb(0,0,0)" stroke-linecap="butt" stroke-miterlimit="10.0"></g><g stroke-linejoin="miter" stroke-opacity="1.0" fill-opacity="1.0" stroke="rgb(0,0,0)" stroke-width="0.0" fill="rgb(0,0,0)" stroke-linecap="butt" stroke-miterlimit="10.0"></g><g stroke-linejoin="miter" stroke-opacity="1.0" fill-opacity="1.0" stroke="rgb(0,0,0)" stroke-width="0.0" fill="rgb(255,255,0)" stroke-linecap="butt" stroke-miterlimit="10.0"><path d="M 415.3073,92.4020 c 0.0000,-1.8302 -1.4837,-3.3139 -3.3139 -3.3139c -1.8302,-0.0000 -3.3139,1.4837 -3.3139 3.3139c -0.0000,1.8302 1.4837,3.3139 3.3139 3.3139c 1.8302,0.0000 3.3139,-1.4837 3.3139 -3.3139Z"/></g><g stroke-linejoin="miter" stroke-opacity="1.0" fill-opacity="0.0" stroke="rgb(0,0,0)" stroke-width="1.0" fill="rgb(0,0,0)" stroke-linecap="butt" stroke-miterlimit="10.0"><path d="M 411.9933,89.0881 c 1.6501,-0.4500 3.3001,-0.9000 4.8602 -0.9000c 1.5601,-0.0000 3.0301,0.4500 4.5002 0.9000"/></g><g stroke-linejoin="miter" stroke-opacity="1.0" fill-opacity="1.0" stroke="rgb(0,0,0)" stroke-width="0.0" fill="rgb(0,0,0)" stroke-linecap="butt" stroke-miterlimit="10.0"></g><g stroke-linejoin="miter" stroke-opacity="1.0" fill-opacity="1.0" stroke="rgb(0,0,0)" stroke-width="0.0" fill="rgb(0,0,0)" stroke-linecap="butt" stroke-miterlimit="10.0"></g><g stroke-linejoin="miter" stroke-opacity="1.0" fill-opacity="1.0" stroke="rgb(0,0,0)" stroke-width="0.0" fill="rgb(0,0,0)" stroke-linecap="butt" stroke-miterlimit="10.0"></g><g stroke-linejoin="miter" stroke-opacity="1.0" fill-opacity="1.0" stroke="rgb(0,0,0)" stroke-width="0.0" fill="rgb(0,0,0)" stroke-linecap="butt" stroke-miterlimit="10.0"></g><g stroke-linejoin="miter" stroke-opacity="1.0" fill-opacity="1.0" stroke="rgb(0,0,0)" stroke-width="0.0" fill="rgb(255,255,0)" stroke-linecap="butt" stroke-miterlimit="10.0"><path d="M 408.6794,91.9520 c 0.0000,-2.0788 -1.6852,-3.7639 -3.7639 -3.7639c -2.0788,-0.0000 -3.7639,1.6852 -3.7639 3.7639c -0.0000,2.0788 1.6852,3.7639 3.7639 3.7639c 2.0788,0.0000 3.7639,-1.6852 3.7639 -3.7639Z"/></g><g stroke-linejoin="miter" stroke-opacity="1.0" fill-opacity="0.0" stroke="rgb(0,0,0)" stroke-width="1.0" fill="rgb(0,0,0)" stroke-linecap="butt" stroke-miterlimit="10.0"><path d="M 404.9155,88.1881 c 2.3136,-0.6310 4.6272,-1.2620 6.8146 -1.2620c 2.1874,-0.0000 4.2486,0.6310 6.3098 1.2620"/></g><g stroke-linejoin="miter" stroke-opacity="1.0" fill-opacity="1.0" stroke="rgb(0,0,0)" stroke-width="0.0" fill="rgb(0,0,0)" stroke-linecap="butt" stroke-miterlimit="10.0"></g><g stroke-linejoin="miter" stroke-opacity="1.0" fill-opacity="1.0" stroke="rgb(0,0,0)" stroke-width="0.0" fill="rgb(0,0,0)" stroke-linecap="butt" stroke-miterlimit="10.0"></g><g stroke-linejoin="miter" stroke-opacity="1.0" fill-opacity="1.0" stroke="rgb(0,0,0)" stroke-width="0.0" fill="rgb(0,0,0)" stroke-linecap="butt" stroke-miterlimit="10.0"></g><g stroke-linejoin="miter" stroke-opacity="1.0" fill-opacity="1.0" stroke="rgb(0,0,0)" stroke-width="0.0" fill="rgb(0,0,0)" stroke-linecap="butt" stroke-miterlimit="10.0"></g><g stroke-linejoin="miter" stroke-opacity="1.0" fill-opacity="0.0" stroke="rgb(0,0,0)" stroke-width="1.0" fill="rgb(0,0,0)" stroke-linecap="butt" stroke-miterlimit="10.0"><path d="M 414.2759,74.9156 c 5.7840,-1.5774 11.5679,-3.1549 17.0364 -3.1549c 5.4685,0.0000 10.6214,1.5774 15.7744 3.1549"/></g><g stroke-linejoin="miter" stroke-opacity="1.0" fill-opacity="1.0" stroke="rgb(0,0,0)" stroke-width="0.0" fill="rgb(0,0,0)" stroke-linecap="butt" stroke-miterlimit="10.0"></g><g stroke-linejoin="miter" stroke-opacity="1.0" fill-opacity="1.0" stroke="rgb(0,0,0)" stroke-width="0.0" fill="rgb(0,0,0)" stroke-linecap="butt" stroke-miterlimit="10.0"></g><g stroke-linejoin="miter" stroke-opacity="1.0" fill-opacity="1.0" stroke="rgb(0,0,0)" stroke-width="0.0" fill="rgb(0,0,0)" stroke-linecap="butt" stroke-miterlimit="10.0"></g><g stroke-linejoin="miter" stroke-opacity="1.0" fill-opacity="1.0" stroke="rgb(0,0,0)" stroke-width="0.0" fill="rgb(0,0,0)" stroke-linecap="butt" stroke-miterlimit="10.0"></g><g stroke-linejoin="miter" stroke-opacity="1.0" fill-opacity="1.0" stroke="rgb(0,128,0)" stroke-width="0.8991422656018933" fill="rgb(144,238,144)" stroke-linecap="butt" stroke-miterlimit="10.0"><path d="M 397.8705,89.7436 c 0.0000,-9.9317 -8.0512,-17.9828 -17.9828 -17.9828c -9.9317,-0.0000 -17.9828,8.0512 -17.9828 17.9828c -0.0000,9.9317 8.0512,17.9828 17.9828 17.9828c 9.9317,0.0000 17.9828,-8.0512 17.9828 -17.9828Z"/></g><g stroke-linejoin="miter" stroke-opacity="1.0" fill-opacity="1.0" stroke="rgb(0,0,0)" stroke-width="0.0" fill="rgb(0,128,0)" stroke-linecap="butt" stroke-miterlimit="10.0"><path d="M 394.2739,91.8349 c 0.0000,-1.0555 -0.8557,-1.9112 -1.9112 -1.9112c -1.0555,-0.0000 -1.9112,0.8557 -1.9112 1.9112c -0.0000,1.0555 0.8557,1.9112 1.9112 1.9112c 1.0555,0.0000 1.9112,-0.8557 1.9112 -1.9112Z"/></g><g stroke-linejoin="miter" stroke-opacity="1.0" fill-opacity="1.0" stroke="rgb(0,0,0)" stroke-width="0.0" fill="rgb(255,255,0)" stroke-linecap="butt" stroke-miterlimit="10.0"><path d="M 390.4514,91.8349 c 0.0000,-1.0555 -0.8557,-1.9112 -1.9112 -1.9112c -1.0555,-0.0000 -1.9112,0.8557 -1.9112 1.9112c -0.0000,1.0555 0.8557,1.9112 1.9112 1.9112c 1.0555,0.0000 1.9112,-0.8557 1.9112 -1.9112Z"/></g><g stroke-linejoin="miter" stroke-opacity="1.0" fill-opacity="0.0" stroke="rgb(0,0,0)" stroke-width="1.0" fill="rgb(0,0,0)" stroke-linecap="butt" stroke-miterlimit="10.0"><path d="M 388.5402,89.9236 c 0.6738,-0.1838 1.3477,-0.3675 1.9847 -0.3675c 0.6371,0.0000 1.2374,0.1838 1.8377 0.3675"/></g><g stroke-linejoin="miter" stroke-opacity="1.0" fill-opacity="1.0" stroke="rgb(0,0,0)" stroke-width="0.0" fill="rgb(0,0,0)" stroke-linecap="butt" stroke-miterlimit="10.0"></g><g stroke-linejoin="miter" stroke-opacity="1.0" fill-opacity="1.0" stroke="rgb(0,0,0)" stroke-width="0.0" fill="rgb(0,0,0)" stroke-linecap="butt" stroke-miterlimit="10.0"></g><g stroke-linejoin="miter" stroke-opacity="1.0" fill-opacity="1.0" stroke="rgb(0,0,0)" stroke-width="0.0" fill="rgb(0,0,0)" stroke-linecap="butt" stroke-miterlimit="10.0"></g><g stroke-linejoin="miter" stroke-opacity="1.0" fill-opacity="1.0" stroke="rgb(0,0,0)" stroke-width="0.0" fill="rgb(0,0,0)" stroke-linecap="butt" stroke-miterlimit="10.0"></g><g stroke-linejoin="miter" stroke-opacity="1.0" fill-opacity="1.0" stroke="rgb(0,0,0)" stroke-width="0.0" fill="rgb(255,255,0)" stroke-linecap="butt" stroke-miterlimit="10.0"><path d="M 386.6289,91.6511 c 0.0000,-1.1570 -0.9380,-2.0950 -2.0950 -2.0950c -1.1570,-0.0000 -2.0950,0.9380 -2.0950 2.0950c -0.0000,1.1570 0.9380,2.0950 2.0950 2.0950c 1.1570,0.0000 2.0950,-0.9380 2.0950 -2.0950Z"/></g><g stroke-linejoin="miter" stroke-opacity="1.0" fill-opacity="0.0" stroke="rgb(0,0,0)" stroke-width="1.0" fill="rgb(0,0,0)" stroke-linecap="butt" stroke-miterlimit="10.0"><path d="M 384.5339,89.5561 c 1.0431,-0.2845 2.0863,-0.5690 3.0725 -0.5690c 0.9862,0.0000 1.9156,0.2845 2.8449 0.5690"/></g><g stroke-linejoin="miter" stroke-opacity="1.0" fill-opacity="1.0" stroke="rgb(0,0,0)" stroke-width="0.0" fill="rgb(0,0,0)" stroke-linecap="butt" stroke-miterlimit="10.0"></g><g stroke-linejoin="miter" stroke-opacity="1.0" fill-opacity="1.0" stroke="rgb(0,0,0)" stroke-width="0.0" fill="rgb(0,0,0)" stroke-linecap="butt" stroke-miterlimit="10.0"></g><g stroke-linejoin="miter" stroke-opacity="1.0" fill-opacity="1.0" stroke="rgb(0,0,0)" stroke-width="0.0" fill="rgb(0,0,0)" stroke-linecap="butt" stroke-miterlimit="10.0"></g><g stroke-linejoin="miter" stroke-opacity="1.0" fill-opacity="1.0" stroke="rgb(0,0,0)" stroke-width="0.0" fill="rgb(0,0,0)" stroke-linecap="butt" stroke-miterlimit="10.0"></g><g stroke-linejoin="miter" stroke-opacity="1.0" fill-opacity="1.0" stroke="rgb(0,0,0)" stroke-width="0.0" fill="rgb(255,255,0)" stroke-linecap="butt" stroke-miterlimit="10.0"><path d="M 382.4389,91.3666 c 0.0000,-1.3142 -1.0653,-2.3795 -2.3795 -2.3795c -1.3142,-0.0000 -2.3795,1.0653 -2.3795 2.3795c -0.0000,1.3142 1.0653,2.3795 2.3795 2.3795c 1.3142,0.0000 2.3795,-1.0653 2.3795 -2.3795Z"/></g><g stroke-linejoin="miter" stroke-opacity="1.0" fill-opacity="0.0" stroke="rgb(0,0,0)" stroke-width="1.0" fill="rgb(0,0,0)" stroke-linecap="butt" stroke-miterlimit="10.0"><path d="M 380.0594,88.9871 c 1.4626,-0.3989 2.9252,-0.7978 4.3081 -0.7978c 1.3828,-0.0000 2.6859,0.3989 3.9889 0.7978"/></g><g stroke-linejoin="miter" stroke-opacity="1.0" fill-opacity="1.0" stroke="rgb(0,0,0)" stroke-width="0.0" fill="rgb(0,0,0)" stroke-linecap="butt" stroke-miterlimit="10.0"></g><g stroke-linejoin="miter" stroke-opacity="1.0" fill-opacity="1.0" stroke="rgb(0,0,0)" stroke-width="0.0" fill="rgb(0,0,0)" stroke-linecap="butt" stroke-miterlimit="10.0"></g><g stroke-linejoin="miter" stroke-opacity="1.0" fill-opacity="1.0" stroke="rgb(0,0,0)" stroke-width="0.0" fill="rgb(0,0,0)" stroke-linecap="butt" stroke-miterlimit="10.0"></g><g stroke-linejoin="miter" stroke-opacity="1.0" fill-opacity="1.0" stroke="rgb(0,0,0)" stroke-width="0.0" fill="rgb(0,0,0)" stroke-linecap="butt" stroke-miterlimit="10.0"></g><g stroke-linejoin="miter" stroke-opacity="1.0" fill-opacity="1.0" stroke="rgb(0,0,0)" stroke-width="0.0" fill="rgb(255,255,0)" stroke-linecap="butt" stroke-miterlimit="10.0"><path d="M 377.6799,90.9677 c 0.0000,-1.5345 -1.2439,-2.7784 -2.7784 -2.7784c -1.5345,-0.0000 -2.7784,1.2439 -2.7784 2.7784c -0.0000,1.5345 1.2439,2.7784 2.7784 2.7784c 1.5345,0.0000 2.7784,-1.2439 2.7784 -2.7784Z"/></g><g stroke-linejoin="miter" stroke-opacity="1.0" fill-opacity="0.0" stroke="rgb(0,0,0)" stroke-width="1.0" fill="rgb(0,0,0)" stroke-linecap="butt" stroke-miterlimit="10.0"><path d="M 374.9015,88.1893 c 1.9524,-0.5325 3.9048,-1.0649 5.7507 -1.0649c 1.8459,-0.0000 3.5853,0.5325 5.3247 1.0649"/></g><g stroke-linejoin="miter" stroke-opacity="1.0" fill-opacity="1.0" stroke="rgb(0,0,0)" stroke-width="0.0" fill="rgb(0,0,0)" stroke-linecap="butt" stroke-miterlimit="10.0"></g><g stroke-linejoin="miter" stroke-opacity="1.0" fill-opacity="1.0" stroke="rgb(0,0,0)" stroke-width="0.0" fill="rgb(0,0,0)" stroke-linecap="butt" stroke-miterlimit="10.0"></g><g stroke-linejoin="miter" stroke-opacity="1.0" fill-opacity="1.0" stroke="rgb(0,0,0)" stroke-width="0.0" fill="rgb(0,0,0)" stroke-linecap="butt" stroke-miterlimit="10.0"></g><g stroke-linejoin="miter" stroke-opacity="1.0" fill-opacity="1.0" stroke="rgb(0,0,0)" stroke-width="0.0" fill="rgb(0,0,0)" stroke-linecap="butt" stroke-miterlimit="10.0"></g><g stroke-linejoin="miter" stroke-opacity="1.0" fill-opacity="1.0" stroke="rgb(0,0,0)" stroke-width="0.0" fill="rgb(255,255,0)" stroke-linecap="butt" stroke-miterlimit="10.0"><path d="M 372.1231,90.4352 c 0.0000,-1.8285 -1.4823,-3.3109 -3.3109 -3.3109c -1.8285,-0.0000 -3.3109,1.4823 -3.3109 3.3109c -0.0000,1.8285 1.4823,3.3109 3.3109 3.3109c 1.8285,0.0000 3.3109,-1.4823 3.3109 -3.3109Z"/></g><g stroke-linejoin="miter" stroke-opacity="1.0" fill-opacity="0.0" stroke="rgb(0,0,0)" stroke-width="1.0" fill="rgb(0,0,0)" stroke-linecap="butt" stroke-miterlimit="10.0"><path d="M 368.8122,87.1244 c 2.5360,-0.6916 5.0721,-1.3833 7.4698 -1.3833c 2.3977,0.0000 4.6571,0.6916 6.9165 1.3833"/></g><g stroke-linejoin="miter" stroke-opacity="1.0" fill-opacity="1.0" stroke="rgb(0,0,0)" stroke-width="0.0" fill="rgb(0,0,0)" stroke-linecap="butt" stroke-miterlimit="10.0"></g><g stroke-linejoin="miter" stroke-opacity="1.0" fill-opacity="1.0" stroke="rgb(0,0,0)" stroke-width="0.0" fill="rgb(0,0,0)" stroke-linecap="butt" stroke-miterlimit="10.0"></g><g stroke-linejoin="miter" stroke-opacity="1.0" fill-opacity="1.0" stroke="rgb(0,0,0)" stroke-width="0.0" fill="rgb(0,0,0)" stroke-linecap="butt" stroke-miterlimit="10.0"></g><g stroke-linejoin="miter" stroke-opacity="1.0" fill-opacity="1.0" stroke="rgb(0,0,0)" stroke-width="0.0" fill="rgb(0,0,0)" stroke-linecap="butt" stroke-miterlimit="10.0"></g><g stroke-linejoin="miter" stroke-opacity="1.0" fill-opacity="0.0" stroke="rgb(0,0,0)" stroke-width="1.0" fill="rgb(0,0,0)" stroke-linecap="butt" stroke-miterlimit="10.0"><path d="M 379.8876,71.7607 c 8.9540,-2.4420 17.9080,-4.8840 26.3736 -4.8840c 8.4656,0.0000 16.4428,2.4420 24.4200 4.8840"/></g><g stroke-linejoin="miter" stroke-opacity="1.0" fill-opacity="1.0" stroke="rgb(0,0,0)" stroke-width="0.0" fill="rgb(0,0,0)" stroke-linecap="butt" stroke-miterlimit="10.0"></g><g stroke-linejoin="miter" stroke-opacity="1.0" fill-opacity="1.0" stroke="rgb(0,0,0)" stroke-width="0.0" fill="rgb(0,0,0)" stroke-linecap="butt" stroke-miterlimit="10.0"></g><g stroke-linejoin="miter" stroke-opacity="1.0" fill-opacity="1.0" stroke="rgb(0,0,0)" stroke-width="0.0" fill="rgb(0,0,0)" stroke-linecap="butt" stroke-miterlimit="10.0"></g><g stroke-linejoin="miter" stroke-opacity="1.0" fill-opacity="1.0" stroke="rgb(0,0,0)" stroke-width="0.0" fill="rgb(0,0,0)" stroke-linecap="butt" stroke-miterlimit="10.0"></g><g stroke-linejoin="miter" stroke-opacity="1.0" fill-opacity="1.0" stroke="rgb(255,255,0)" stroke-width="3.9682539682539693" fill="rgb(255,255,224)" stroke-linecap="butt" stroke-miterlimit="10.0"><path d="M 166.6667,87.3016 c 0.0000,-43.8321 -35.5330,-79.3651 -79.3651 -79.3651c -43.8321,-0.0000 -79.3651,35.5330 -79.3651 79.3651c -0.0000,43.8321 35.5330,79.3651 79.3651 79.3651c 43.8321,0.0000 79.3651,-35.5330 79.3651 -79.3651Z"/></g><g stroke-linejoin="miter" stroke-opacity="1.0" fill-opacity="1.0" stroke="rgb(0,139,139)" stroke-width="3.1746031746031758" fill="rgb(0,255,255)" stroke-linecap="butt" stroke-miterlimit="10.0"><path d="M 150.7937,87.3016 c 0.0000,-35.0657 -28.4264,-63.4921 -63.4921 -63.4921c -35.0657,-0.0000 -63.4921,28.4264 -63.4921 63.4921c -0.0000,35.0657 28.4264,63.4921 63.4921 63.4921c 35.0657,0.0000 63.4921,-28.4264 63.4921 -63.4921Z"/></g><g stroke-linejoin="miter" stroke-opacity="1.0" fill-opacity="1.0" stroke="rgb(0,0,0)" stroke-width="0.0" fill="rgb(0,139,139)" stroke-linecap="butt" stroke-miterlimit="10.0"><path d="M 138.0952,91.1522 c 0.0000,-5.7286 -4.6440,-10.3726 -10.3726 -10.3726c -5.7286,-0.0000 -10.3726,4.6440 -10.3726 10.3726c -0.0000,5.7286 4.6440,10.3726 10.3726 10.3726c 5.7286,0.0000 10.3726,-4.6440 10.3726 -10.3726Z"/></g><g stroke-linejoin="miter" stroke-opacity="1.0" fill-opacity="1.0" stroke="rgb(0,0,0)" stroke-width="0.0" fill="rgb(255,255,0)" stroke-linecap="butt" stroke-miterlimit="10.0"><path d="M 117.3500,92.0620 c 0.0000,-5.2261 -4.2366,-9.4628 -9.4628 -9.4628c -5.2261,-0.0000 -9.4628,4.2366 -9.4628 9.4628c -0.0000,5.2261 4.2366,9.4628 9.4628 9.4628c 5.2261,0.0000 9.4628,-4.2366 9.4628 -9.4628Z"/></g><g stroke-linejoin="miter" stroke-opacity="1.0" fill-opacity="1.0" stroke="rgb(255,0,0)" stroke-width="0.47313758941665934" fill="rgb(255,192,203)" stroke-linecap="butt" stroke-miterlimit="10.0"><path d="M 98.4245,92.0620 c 0.0000,-5.2261 -4.2366,-9.4628 -9.4628 -9.4628c -5.2261,-0.0000 -9.4628,4.2366 -9.4628 9.4628c -0.0000,5.2261 4.2366,9.4628 9.4628 9.4628c 5.2261,0.0000 9.4628,-4.2366 9.4628 -9.4628Z"/></g><g stroke-linejoin="miter" stroke-opacity="1.0" fill-opacity="1.0" stroke="rgb(0,128,0)" stroke-width="0.3785100715333275" fill="rgb(144,238,144)" stroke-linecap="butt" stroke-miterlimit="10.0"><path d="M 96.5319,92.0620 c 0.0000,-4.1809 -3.3893,-7.5702 -7.5702 -7.5702c -4.1809,-0.0000 -7.5702,3.3893 -7.5702 7.5702c -0.0000,4.1809 3.3893,7.5702 7.5702 7.5702c 4.1809,0.0000 7.5702,-3.3893 7.5702 -7.5702Z"/></g><g stroke-linejoin="miter" stroke-opacity="1.0" fill-opacity="1.0" stroke="rgb(0,0,0)" stroke-width="0.0" fill="rgb(0,128,0)" stroke-linecap="butt" stroke-miterlimit="10.0"><path d="M 95.0179,92.6950 c 0.0000,-0.7705 -0.6246,-1.3951 -1.3951 -1.3951c -0.7705,-0.0000 -1.3951,0.6246 -1.3951 1.3951c -0.0000,0.7705 0.6246,1.3951 1.3951 1.3951c 0.7705,0.0000 1.3951,-0.6246 1.3951 -1.3951Z"/></g><g stroke-linejoin="miter" stroke-opacity="1.0" fill-opacity="1.0" stroke="rgb(0,0,0)" stroke-width="0.0" fill="rgb(255,0,0)" stroke-linecap="butt" stroke-miterlimit="10.0"><path d="M 92.2278,92.6950 c 0.0000,-0.7705 -0.6246,-1.3951 -1.3951 -1.3951c -0.7705,-0.0000 -1.3951,0.6246 -1.3951 1.3951c -0.0000,0.7705 0.6246,1.3951 1.3951 1.3951c 0.7705,0.0000 1.3951,-0.6246 1.3951 -1.3951Z"/></g><g stroke-linejoin="miter" stroke-opacity="1.0" fill-opacity="0.0" stroke="rgb(0,0,0)" stroke-width="1.0" fill="rgb(0,0,0)" stroke-linecap="butt" stroke-miterlimit="10.0"><path d="M 90.8327,91.2999 c 0.4918,-0.1341 0.9837,-0.2683 1.4487 -0.2683c 0.4650,0.0000 0.9032,0.1341 1.3414 0.2683"/></g><g stroke-linejoin="miter" stroke-opacity="1.0" fill-opacity="1.0" stroke="rgb(0,0,0)" stroke-width="0.0" fill="rgb(0,0,0)" stroke-linecap="butt" stroke-miterlimit="10.0"></g><g stroke-linejoin="miter" stroke-opacity="1.0" fill-opacity="1.0" stroke="rgb(0,0,0)" stroke-width="0.0" fill="rgb(0,0,0)" stroke-linecap="butt" stroke-miterlimit="10.0"></g><g stroke-linejoin="miter" stroke-opacity="1.0" fill-opacity="1.0" stroke="rgb(0,0,0)" stroke-width="0.0" fill="rgb(0,0,0)" stroke-linecap="butt" stroke-miterlimit="10.0"></g><g stroke-linejoin="miter" stroke-opacity="1.0" fill-opacity="1.0" stroke="rgb(0,0,0)" stroke-width="0.0" fill="rgb(0,0,0)" stroke-linecap="butt" stroke-miterlimit="10.0"></g><g stroke-linejoin="miter" stroke-opacity="1.0" fill-opacity="1.0" stroke="rgb(0,0,0)" stroke-width="0.0" fill="rgb(255,0,0)" stroke-linecap="butt" stroke-miterlimit="10.0"><path d="M 89.4377,92.5609 c 0.0000,-0.8446 -0.6846,-1.5292 -1.5292 -1.5292c -0.8446,-0.0000 -1.5292,0.6846 -1.5292 1.5292c -0.0000,0.8446 0.6846,1.5292 1.5292 1.5292c 0.8446,0.0000 1.5292,-0.6846 1.5292 -1.5292Z"/></g><g stroke-linejoin="miter" stroke-opacity="1.0" fill-opacity="0.0" stroke="rgb(0,0,0)" stroke-width="1.0" fill="rgb(0,0,0)" stroke-linecap="butt" stroke-miterlimit="10.0"><path d="M 87.9085,91.0317 c 0.7614,-0.2077 1.5228,-0.4153 2.2427 -0.4153c 0.7199,0.0000 1.3982,0.2077 2.0766 0.4153"/></g><g stroke-linejoin="miter" stroke-opacity="1.0" fill-opacity="1.0" stroke="rgb(0,0,0)" stroke-width="0.0" fill="rgb(0,0,0)" stroke-linecap="butt" stroke-miterlimit="10.0"></g><g stroke-linejoin="miter" stroke-opacity="1.0" fill-opacity="1.0" stroke="rgb(0,0,0)" stroke-width="0.0" fill="rgb(0,0,0)" stroke-linecap="butt" stroke-miterlimit="10.0"></g><g stroke-linejoin="miter" stroke-opacity="1.0" fill-opacity="1.0" stroke="rgb(0,0,0)" stroke-width="0.0" fill="rgb(0,0,0)" stroke-linecap="butt" stroke-miterlimit="10.0"></g><g stroke-linejoin="miter" stroke-opacity="1.0" fill-opacity="1.0" stroke="rgb(0,0,0)" stroke-width="0.0" fill="rgb(0,0,0)" stroke-linecap="butt" stroke-miterlimit="10.0"></g><g stroke-linejoin="miter" stroke-opacity="1.0" fill-opacity="1.0" stroke="rgb(0,0,0)" stroke-width="0.0" fill="rgb(255,0,0)" stroke-linecap="butt" stroke-miterlimit="10.0"><path d="M 86.3793,92.3532 c 0.0000,-0.9592 -0.7776,-1.7369 -1.7369 -1.7369c -0.9592,-0.0000 -1.7369,0.7776 -1.7369 1.7369c -0.0000,0.9592 0.7776,1.7369 1.7369 1.7369c 0.9592,0.0000 1.7369,-0.7776 1.7369 -1.7369Z"/></g><g stroke-linejoin="miter" stroke-opacity="1.0" fill-opacity="0.0" stroke="rgb(0,0,0)" stroke-width="1.0" fill="rgb(0,0,0)" stroke-linecap="butt" stroke-miterlimit="10.0"><path d="M 84.6424,90.6163 c 1.0676,-0.2912 2.1352,-0.5823 3.1445 -0.5823c 1.0094,0.0000 1.9605,0.2912 2.9116 0.5823"/></g><g stroke-linejoin="miter" stroke-opacity="1.0" fill-opacity="1.0" stroke="rgb(0,0,0)" stroke-width="0.0" fill="rgb(0,0,0)" stroke-linecap="butt" stroke-miterlimit="10.0"></g><g stroke-linejoin="miter" stroke-opacity="1.0" fill-opacity="1.0" stroke="rgb(0,0,0)" stroke-width="0.0" fill="rgb(0,0,0)" stroke-linecap="butt" stroke-miterlimit="10.0"></g><g stroke-linejoin="miter" stroke-opacity="1.0" fill-opacity="1.0" stroke="rgb(0,0,0)" stroke-width="0.0" fill="rgb(0,0,0)" stroke-linecap="butt" stroke-miterlimit="10.0"></g><g stroke-linejoin="miter" stroke-opacity="1.0" fill-opacity="1.0" stroke="rgb(0,0,0)" stroke-width="0.0" fill="rgb(0,0,0)" stroke-linecap="butt" stroke-miterlimit="10.0"></g><g stroke-linejoin="miter" stroke-opacity="1.0" fill-opacity="0.0" stroke="rgb(0,0,0)" stroke-width="1.0" fill="rgb(0,0,0)" stroke-linecap="butt" stroke-miterlimit="10.0"><path d="M 88.9617,82.5993 c 3.3362,-0.9099 6.6725,-1.8198 9.8267 -1.8198c 3.1543,0.0000 6.1265,0.9099 9.0988 1.8198"/></g><g stroke-linejoin="miter" stroke-opacity="1.0" fill-opacity="1.0" stroke="rgb(0,0,0)" stroke-width="0.0" fill="rgb(0,0,0)" stroke-linecap="butt" stroke-miterlimit="10.0"></g><g stroke-linejoin="miter" stroke-opacity="1.0" fill-opacity="1.0" stroke="rgb(0,0,0)" stroke-width="0.0" fill="rgb(0,0,0)" stroke-linecap="butt" stroke-miterlimit="10.0"></g><g stroke-linejoin="miter" stroke-opacity="1.0" fill-opacity="1.0" stroke="rgb(0,0,0)" stroke-width="0.0" fill="rgb(0,0,0)" stroke-linecap="butt" stroke-miterlimit="10.0"></g><g stroke-linejoin="miter" stroke-opacity="1.0" fill-opacity="1.0" stroke="rgb(0,0,0)" stroke-width="0.0" fill="rgb(0,0,0)" stroke-linecap="butt" stroke-miterlimit="10.0"></g><g stroke-linejoin="miter" stroke-opacity="1.0" fill-opacity="0.0" stroke="rgb(0,0,0)" stroke-width="1.0" fill="rgb(0,0,0)" stroke-linecap="butt" stroke-miterlimit="10.0"><path d="M 98.4245,80.7795 c 5.1647,-1.4086 10.3295,-2.8171 15.2125 -2.8171c 4.8830,-0.0000 9.4843,1.4086 14.0856 2.8171"/></g><g stroke-linejoin="miter" stroke-opacity="1.0" fill-opacity="1.0" stroke="rgb(0,0,0)" stroke-width="0.0" fill="rgb(0,0,0)" stroke-linecap="butt" stroke-miterlimit="10.0"></g><g stroke-linejoin="miter" stroke-opacity="1.0" fill-opacity="1.0" stroke="rgb(0,0,0)" stroke-width="0.0" fill="rgb(0,0,0)" stroke-linecap="butt" stroke-miterlimit="10.0"></g><g stroke-linejoin="miter" stroke-opacity="1.0" fill-opacity="1.0" stroke="rgb(0,0,0)" stroke-width="0.0" fill="rgb(0,0,0)" stroke-linecap="butt" stroke-miterlimit="10.0"></g><g stroke-linejoin="miter" stroke-opacity="1.0" fill-opacity="1.0" stroke="rgb(0,0,0)" stroke-width="0.0" fill="rgb(0,0,0)" stroke-linecap="butt" stroke-miterlimit="10.0"></g><g stroke-linejoin="miter" stroke-opacity="1.0" fill-opacity="1.0" stroke="rgb(0,0,0)" stroke-width="0.0" fill="rgb(255,255,0)" stroke-linecap="butt" stroke-miterlimit="10.0"><path d="M 79.4990,90.7770 c 0.0000,-5.9358 -4.8119,-10.7478 -10.7478 -10.7478c -5.9358,-0.0000 -10.7478,4.8119 -10.7478 10.7478c -0.0000,5.9358 4.8119,10.7478 10.7478 10.7478c 5.9358,0.0000 10.7478,-4.8119 10.7478 -10.7478Z"/></g><g stroke-linejoin="miter" stroke-opacity="1.0" fill-opacity="1.0" stroke="rgb(255,0,0)" stroke-width="0.5373878862250957" fill="rgb(255,192,203)" stroke-linecap="butt" stroke-miterlimit="10.0"><path d="M 58.0035,90.7770 c 0.0000,-5.9358 -4.8119,-10.7478 -10.7478 -10.7478c -5.9358,-0.0000 -10.7478,4.8119 -10.7478 10.7478c -0.0000,5.9358 4.8119,10.7478 10.7478 10.7478c 5.9358,0.0000 10.7478,-4.8119 10.7478 -10.7478Z"/></g><g stroke-linejoin="miter" stroke-opacity="1.0" fill-opacity="1.0" stroke="rgb(0,128,0)" stroke-width="0.4299103089800766" fill="rgb(144,238,144)" stroke-linecap="butt" stroke-miterlimit="10.0"><path d="M 55.8539,90.7770 c 0.0000,-4.7487 -3.8495,-8.5982 -8.5982 -8.5982c -4.7487,-0.0000 -8.5982,3.8495 -8.5982 8.5982c -0.0000,4.7487 3.8495,8.5982 8.5982 8.5982c 4.7487,0.0000 8.5982,-3.8495 8.5982 -8.5982Z"/></g><g stroke-linejoin="miter" stroke-opacity="1.0" fill-opacity="1.0" stroke="rgb(0,0,0)" stroke-width="0.0" fill="rgb(0,128,0)" stroke-linecap="butt" stroke-miterlimit="10.0"><path d="M 54.1343,91.7769 c 0.0000,-0.5047 -0.4091,-0.9138 -0.9138 -0.9138c -0.5047,-0.0000 -0.9138,0.4091 -0.9138 0.9138c -0.0000,0.5047 0.4091,0.9138 0.9138 0.9138c 0.5047,0.0000 0.9138,-0.4091 0.9138 -0.9138Z"/></g><g stroke-linejoin="miter" stroke-opacity="1.0" fill-opacity="1.0" stroke="rgb(0,0,0)" stroke-width="0.0" fill="rgb(255,0,0)" stroke-linecap="butt" stroke-miterlimit="10.0"><path d="M 52.3066,91.7769 c 0.0000,-0.5047 -0.4091,-0.9138 -0.9138 -0.9138c -0.5047,-0.0000 -0.9138,0.4091 -0.9138 0.9138c -0.0000,0.5047 0.4091,0.9138 0.9138 0.9138c 0.5047,0.0000 0.9138,-0.4091 0.9138 -0.9138Z"/></g><g stroke-linejoin="miter" stroke-opacity="1.0" fill-opacity="0.0" stroke="rgb(0,0,0)" stroke-width="1.0" fill="rgb(0,0,0)" stroke-linecap="butt" stroke-miterlimit="10.0"><path d="M 51.3928,90.8631 c 0.3222,-0.0879 0.6444,-0.1757 0.9490 -0.1757c 0.3046,0.0000 0.5916,0.0879 0.8787 0.1757"/></g><g stroke-linejoin="miter" stroke-opacity="1.0" fill-opacity="1.0" stroke="rgb(0,0,0)" stroke-width="0.0" fill="rgb(0,0,0)" stroke-linecap="butt" stroke-miterlimit="10.0"></g><g stroke-linejoin="miter" stroke-opacity="1.0" fill-opacity="1.0" stroke="rgb(0,0,0)" stroke-width="0.0" fill="rgb(0,0,0)" stroke-linecap="butt" stroke-miterlimit="10.0"></g><g stroke-linejoin="miter" stroke-opacity="1.0" fill-opacity="1.0" stroke="rgb(0,0,0)" stroke-width="0.0" fill="rgb(0,0,0)" stroke-linecap="butt" stroke-miterlimit="10.0"></g><g stroke-linejoin="miter" stroke-opacity="1.0" fill-opacity="1.0" stroke="rgb(0,0,0)" stroke-width="0.0" fill="rgb(0,0,0)" stroke-linecap="butt" stroke-miterlimit="10.0"></g><g stroke-linejoin="miter" stroke-opacity="1.0" fill-opacity="1.0" stroke="rgb(0,0,0)" stroke-width="0.0" fill="rgb(255,0,0)" stroke-linecap="butt" stroke-miterlimit="10.0"><path d="M 50.4789,91.6891 c 0.0000,-0.5532 -0.4485,-1.0017 -1.0017 -1.0017c -0.5532,-0.0000 -1.0017,0.4485 -1.0017 1.0017c -0.0000,0.5532 0.4485,1.0017 1.0017 1.0017c 0.5532,0.0000 1.0017,-0.4485 1.0017 -1.0017Z"/></g><g stroke-linejoin="miter" stroke-opacity="1.0" fill-opacity="0.0" stroke="rgb(0,0,0)" stroke-width="1.0" fill="rgb(0,0,0)" stroke-linecap="butt" stroke-miterlimit="10.0"><path d="M 49.4772,90.6874 c 0.4988,-0.1360 0.9975,-0.2721 1.4691 -0.2721c 0.4716,0.0000 0.9159,0.1360 1.3603 0.2721"/></g><g stroke-linejoin="miter" stroke-opacity="1.0" fill-opacity="1.0" stroke="rgb(0,0,0)" stroke-width="0.0" fill="rgb(0,0,0)" stroke-linecap="butt" stroke-miterlimit="10.0"></g><g stroke-linejoin="miter" stroke-opacity="1.0" fill-opacity="1.0" stroke="rgb(0,0,0)" stroke-width="0.0" fill="rgb(0,0,0)" stroke-linecap="butt" stroke-miterlimit="10.0"></g><g stroke-linejoin="miter" stroke-opacity="1.0" fill-opacity="1.0" stroke="rgb(0,0,0)" stroke-width="0.0" fill="rgb(0,0,0)" stroke-linecap="butt" stroke-miterlimit="10.0"></g><g stroke-linejoin="miter" stroke-opacity="1.0" fill-opacity="1.0" stroke="rgb(0,0,0)" stroke-width="0.0" fill="rgb(0,0,0)" stroke-linecap="butt" stroke-miterlimit="10.0"></g><g stroke-linejoin="miter" stroke-opacity="1.0" fill-opacity="1.0" stroke="rgb(0,0,0)" stroke-width="0.0" fill="rgb(255,0,0)" stroke-linecap="butt" stroke-miterlimit="10.0"><path d="M 48.4756,91.5530 c 0.0000,-0.6283 -0.5094,-1.1377 -1.1377 -1.1377c -0.6283,-0.0000 -1.1377,0.5094 -1.1377 1.1377c -0.0000,0.6283 0.5094,1.1377 1.1377 1.1377c 0.6283,0.0000 1.1377,-0.5094 1.1377 -1.1377Z"/></g><g stroke-linejoin="miter" stroke-opacity="1.0" fill-opacity="0.0" stroke="rgb(0,0,0)" stroke-width="1.0" fill="rgb(0,0,0)" stroke-linecap="butt" stroke-miterlimit="10.0"><path d="M 47.3378,90.4153 c 0.6993,-0.1907 1.3986,-0.3814 2.0598 -0.3814c 0.6612,-0.0000 1.2842,0.1907 1.9072 0.3814"/></g><g stroke-linejoin="miter" stroke-opacity="1.0" fill-opacity="1.0" stroke="rgb(0,0,0)" stroke-width="0.0" fill="rgb(0,0,0)" stroke-linecap="butt" stroke-miterlimit="10.0"></g><g stroke-linejoin="miter" stroke-opacity="1.0" fill-opacity="1.0" stroke="rgb(0,0,0)" stroke-width="0.0" fill="rgb(0,0,0)" stroke-linecap="butt" stroke-miterlimit="10.0"></g><g stroke-linejoin="miter" stroke-opacity="1.0" fill-opacity="1.0" stroke="rgb(0,0,0)" stroke-width="0.0" fill="rgb(0,0,0)" stroke-linecap="butt" stroke-miterlimit="10.0"></g><g stroke-linejoin="miter" stroke-opacity="1.0" fill-opacity="1.0" stroke="rgb(0,0,0)" stroke-width="0.0" fill="rgb(0,0,0)" stroke-linecap="butt" stroke-miterlimit="10.0"></g><g stroke-linejoin="miter" stroke-opacity="1.0" fill-opacity="1.0" stroke="rgb(0,0,0)" stroke-width="0.0" fill="rgb(255,0,0)" stroke-linecap="butt" stroke-miterlimit="10.0"><path d="M 46.2001,91.3623 c 0.0000,-0.7337 -0.5948,-1.3284 -1.3284 -1.3284c -0.7337,-0.0000 -1.3284,0.5948 -1.3284 1.3284c -0.0000,0.7337 0.5948,1.3284 1.3284 1.3284c 0.7337,0.0000 1.3284,-0.5948 1.3284 -1.3284Z"/></g><g stroke-linejoin="miter" stroke-opacity="1.0" fill-opacity="0.0" stroke="rgb(0,0,0)" stroke-width="1.0" fill="rgb(0,0,0)" stroke-linecap="butt" stroke-miterlimit="10.0"><path d="M 44.8717,90.0339 c 0.9335,-0.2546 1.8670,-0.5092 2.7496 -0.5092c 0.8826,-0.0000 1.7143,0.2546 2.5459 0.5092"/></g><g stroke-linejoin="miter" stroke-opacity="1.0" fill-opacity="1.0" stroke="rgb(0,0,0)" stroke-width="0.0" fill="rgb(0,0,0)" stroke-linecap="butt" stroke-miterlimit="10.0"></g><g stroke-linejoin="miter" stroke-opacity="1.0" fill-opacity="1.0" stroke="rgb(0,0,0)" stroke-width="0.0" fill="rgb(0,0,0)" stroke-linecap="butt" stroke-miterlimit="10.0"></g><g stroke-linejoin="miter" stroke-opacity="1.0" fill-opacity="1.0" stroke="rgb(0,0,0)" stroke-width="0.0" fill="rgb(0,0,0)" stroke-linecap="butt" stroke-miterlimit="10.0"></g><g stroke-linejoin="miter" stroke-opacity="1.0" fill-opacity="1.0" stroke="rgb(0,0,0)" stroke-width="0.0" fill="rgb(0,0,0)" stroke-linecap="butt" stroke-miterlimit="10.0"></g><g stroke-linejoin="miter" stroke-opacity="1.0" fill-opacity="1.0" stroke="rgb(0,0,0)" stroke-width="0.0" fill="rgb(255,0,0)" stroke-linecap="butt" stroke-miterlimit="10.0"><path d="M 43.5432,91.1077 c 0.0000,-0.8743 -0.7088,-1.5830 -1.5830 -1.5830c -0.8743,-0.0000 -1.5830,0.7088 -1.5830 1.5830c -0.0000,0.8743 0.7088,1.5830 1.5830 1.5830c 0.8743,0.0000 1.5830,-0.7088 1.5830 -1.5830Z"/></g><g stroke-linejoin="miter" stroke-opacity="1.0" fill-opacity="0.0" stroke="rgb(0,0,0)" stroke-width="1.0" fill="rgb(0,0,0)" stroke-linecap="butt" stroke-miterlimit="10.0"><path d="M 41.9602,89.5247 c 1.2126,-0.3307 2.4251,-0.6614 3.5716 -0.6614c 1.1464,0.0000 2.2267,0.3307 3.3070 0.6614"/></g><g stroke-linejoin="miter" stroke-opacity="1.0" fill-opacity="1.0" stroke="rgb(0,0,0)" stroke-width="0.0" fill="rgb(0,0,0)" stroke-linecap="butt" stroke-miterlimit="10.0"></g><g stroke-linejoin="miter" stroke-opacity="1.0" fill-opacity="1.0" stroke="rgb(0,0,0)" stroke-width="0.0" fill="rgb(0,0,0)" stroke-linecap="butt" stroke-miterlimit="10.0"></g><g stroke-linejoin="miter" stroke-opacity="1.0" fill-opacity="1.0" stroke="rgb(0,0,0)" stroke-width="0.0" fill="rgb(0,0,0)" stroke-linecap="butt" stroke-miterlimit="10.0"></g><g stroke-linejoin="miter" stroke-opacity="1.0" fill-opacity="1.0" stroke="rgb(0,0,0)" stroke-width="0.0" fill="rgb(0,0,0)" stroke-linecap="butt" stroke-miterlimit="10.0"></g><g stroke-linejoin="miter" stroke-opacity="1.0" fill-opacity="0.0" stroke="rgb(0,0,0)" stroke-width="1.0" fill="rgb(0,0,0)" stroke-linecap="butt" stroke-miterlimit="10.0"><path d="M 47.2557,80.0293 c 3.7893,-1.0334 7.5785,-2.0669 11.1611 -2.0669c 3.5826,-0.0000 6.9585,1.0334 10.3344 2.0669"/></g><g stroke-linejoin="miter" stroke-opacity="1.0" fill-opacity="1.0" stroke="rgb(0,0,0)" stroke-width="0.0" fill="rgb(0,0,0)" stroke-linecap="butt" stroke-miterlimit="10.0"></g><g stroke-linejoin="miter" stroke-opacity="1.0" fill-opacity="1.0" stroke="rgb(0,0,0)" stroke-width="0.0" fill="rgb(0,0,0)" stroke-linecap="butt" stroke-miterlimit="10.0"></g><g stroke-linejoin="miter" stroke-opacity="1.0" fill-opacity="1.0" stroke="rgb(0,0,0)" stroke-width="0.0" fill="rgb(0,0,0)" stroke-linecap="butt" stroke-miterlimit="10.0"></g><g stroke-linejoin="miter" stroke-opacity="1.0" fill-opacity="1.0" stroke="rgb(0,0,0)" stroke-width="0.0" fill="rgb(0,0,0)" stroke-linecap="butt" stroke-miterlimit="10.0"></g><g stroke-linejoin="miter" stroke-opacity="1.0" fill-opacity="0.0" stroke="rgb(0,0,0)" stroke-width="1.0" fill="rgb(0,0,0)" stroke-linecap="butt" stroke-miterlimit="10.0"><path d="M 58.0035,77.9624 c 8.9540,-2.4420 17.9080,-4.8840 26.3736 -4.8840c 8.4656,-0.0000 16.4428,2.4420 24.4200 4.8840"/></g><g stroke-linejoin="miter" stroke-opacity="1.0" fill-opacity="1.0" stroke="rgb(0,0,0)" stroke-width="0.0" fill="rgb(0,0,0)" stroke-linecap="butt" stroke-miterlimit="10.0"></g><g stroke-linejoin="miter" stroke-opacity="1.0" fill-opacity="1.0" stroke="rgb(0,0,0)" stroke-width="0.0" fill="rgb(0,0,0)" stroke-linecap="butt" stroke-miterlimit="10.0"></g><g stroke-linejoin="miter" stroke-opacity="1.0" fill-opacity="1.0" stroke="rgb(0,0,0)" stroke-width="0.0" fill="rgb(0,0,0)" stroke-linecap="butt" stroke-miterlimit="10.0"></g><g stroke-linejoin="miter" stroke-opacity="1.0" fill-opacity="1.0" stroke="rgb(0,0,0)" stroke-width="0.0" fill="rgb(0,0,0)" stroke-linecap="butt" stroke-miterlimit="10.0"></g></svg>