<?xml version="1.0" encoding="UTF-8"?>
<!DOCTYPE svg PUBLIC "-//W3C//DTD SVG 1.1//EN"
    "http://www.w3.org/Graphics/SVG/1.1/DTD/svg11.dtd"><svg xmlns="http://www.w3.org/2000/svg" height="174.6032" stroke-opacity="1" viewBox="0 0 500 175" font-size="1" width="500.0000" xmlns:xlink="http://www.w3.org/1999/xlink" stroke="rgb(0,0,0)" version="1.1"><defs></defs><g stroke-linejoin="miter" stroke-opacity="1.0" fill-opacity="1.0" font-size="19.841269841269845px" stroke="rgb(0,0,0)" stroke-width="1.181873680570558" fill="rgb(0,0,0)" stroke-linecap="butt" stroke-miterlimit="10.0"><text dominant-baseline="middle" transform="matrix(1.0000,0.0000,0.0000,1.0000,253.9683,67.4603)" stroke="none" text-anchor="middle">Equal</text></g><g stroke-linejoin="miter" stroke-opacity="1.0" fill-opacity="0.0" stroke="rgb(0,0,0)" stroke-width="1.181873680570558" fill="rgb(0,0,0)" stroke-linecap="butt" stroke-miterlimit="10.0"><path d="M 194.4444,87.3016 h 108.7062 "/></g><g stroke-linejoin="miter" stroke-opacity="1.0" fill-opacity="1.0" stroke="rgb(0,0,0)" stroke-width="0.0" fill="rgb(0,0,0)" stroke-linecap="butt" stroke-miterlimit="10.0"></g><g stroke-linejoin="miter" stroke-opacity="1.0" fill-opacity="1.0" stroke="rgb(0,0,0)" stroke-width="0.0" fill="rgb(0,0,0)" stroke-linecap="butt" stroke-miterlimit="10.0"></g><g stroke-linejoin="miter" stroke-opacity="1.0" fill-opacity="1.0" stroke="rgb(0,0,0)" stroke-width="0.0" fill="rgb(0,0,0)" stroke-linecap="butt" stroke-miterlimit="10.0"><path d="M 313.4921,87.3016 l -12.0972,-3.9306 l 2.0664,3.9306 l -2.0664,3.9306 Z"/></g><g stroke-linejoin="miter" stroke-opacity="1.0" fill-opacity="1.0" stroke="rgb(0,0,0)" stroke-width="0.0" fill="rgb(0,0,0)" stroke-linecap="butt" stroke-miterlimit="10.0"><path d="M 303.4613,87.3016 h -0.3107 v -0.5909 l 0.3107,0.5909 h -0.3107 v 0.5909 Z"/></g><g stroke-linejoin="miter" stroke-opacity="1.0" fill-opacity="0.0" stroke="rgb(0,0,0)" stroke-width="1.181873680570558" fill="rgb(0,0,0)" stroke-linecap="butt" stroke-miterlimit="10.0"><path d="M 313.4921,87.3016 l -108.7062,-0.0000 "/></g><g stroke-linejoin="miter" stroke-opacity="1.0" fill-opacity="1.0" stroke="rgb(0,0,0)" stroke-width="0.0" fill="rgb(0,0,0)" stroke-linecap="butt" stroke-miterlimit="10.0"></g><g stroke-linejoin="miter" stroke-opacity="1.0" fill-opacity="1.0" stroke="rgb(0,0,0)" stroke-width="0.0" fill="rgb(0,0,0)" stroke-linecap="butt" stroke-miterlimit="10.0"></g><g stroke-linejoin="miter" stroke-opacity="1.0" fill-opacity="1.0" stroke="rgb(0,0,0)" stroke-width="0.0" fill="rgb(0,0,0)" stroke-linecap="butt" stroke-miterlimit="10.0"><path d="M 194.4444,87.3016 l 12.0972,3.9306 l -2.0664,-3.9306 l 2.0664,-3.9306 Z"/></g><g stroke-linejoin="miter" stroke-opacity="1.0" fill-opacity="1.0" stroke="rgb(0,0,0)" stroke-width="0.0" fill="rgb(0,0,0)" stroke-linecap="butt" stroke-miterlimit="10.0"><path d="M 204.4752,87.3016 l 0.3107,0.0000 l -0.0000,0.5909 l -0.3107,-0.5909 l 0.3107,0.0000 l 0.0000,-0.5909 Z"/></g><g stroke-linejoin="miter" stroke-opacity="1.0" fill-opacity="1.0" stroke="rgb(255,0,0)" stroke-width="3.9682539682539693" fill="rgb(255,192,203)" stroke-linecap="butt" stroke-miterlimit="10.0"><path d="M 492.0635,87.3016 c 0.0000,-43.8321 -35.5330,-79.3651 -79.3651 -79.3651c -43.8321,-0.0000 -79.3651,35.5330 -79.3651 79.3651c -0.0000,43.8321 35.5330,79.3651 79.3651 79.3651c 43.8321,0.0000 79.3651,-35.5330 79.3651 -79.3651Z"/></g><g stroke-linejoin="miter" stroke-opacity="1.0" fill-opacity="1.0" stroke="rgb(0,0,255)" stroke-width="3.1746031746031758" fill="rgb(173,216,230)" stroke-linecap="butt" stroke-miterlimit="10.0"><path d="M 476.1905,87.3016 c 0.0000,-35.0657 -28.4264,-63.4921 -63.4921 -63.4921c -35.0657,-0.0000 -63.4921,28.4264 -63.4921 63.4921c -0.0000,35.0657 28.4264,63.4921 63.4921 63.4921c 35.0657,0.0000 63.4921,-28.4264 63.4921 -63.4921Z"/></g><g stroke-linejoin="miter" stroke-opacity="1.0" fill-opacity="1.0" stroke="rgb(0,128,0)" stroke-width="2.539682539682541" fill="rgb(144,238,144)" stroke-linecap="butt" stroke-miterlimit="10.0"><path d="M 463.4921,87.3016 c 0.0000,-28.0526 -22.7411,-50.7937 -50.7937 -50.7937c -28.0526,-0.0000 -50.7937,22.7411 -50.7937 50.7937c -0.0000,28.0526 22.7411,50.7937 50.7937 50.7937c 28.0526,0.0000 50.7937,-22.7411 50.7937 -50.7937Z"/></g><g stroke-linejoin="miter" stroke-opacity="1.0" fill-opacity="1.0" stroke="rgb(0,0,0)" stroke-width="0.0" fill="rgb(0,0,255)" stroke-linecap="butt" stroke-miterlimit="10.0"><path d="M 453.3333,89.2552 c 0.0000,-7.9453 -6.4410,-14.3863 -14.3863 -14.3863c -7.9453,-0.0000 -14.3863,6.4410 -14.3863 14.3863c -0.0000,7.9453 6.4410,14.3863 14.3863 14.3863c 7.9453,0.0000 14.3863,-6.4410 14.3863 -14.3863Z"/></g><g stroke-linejoin="miter" stroke-opacity="1.0" fill-opacity="1.0" stroke="rgb(0,0,0)" stroke-width="0.0" fill="rgb(255,0,0)" stroke-linecap="butt" stroke-miterlimit="10.0"><path d="M 424.5608,90.5171 c 0.0000,-7.2484 -5.8760,-13.1243 -13.1243 -13.1243c -7.2484,-0.0000 -13.1243,5.8760 -13.1243 13.1243c -0.0000,7.2484 5.8760,13.1243 13.1243 13.1243c 7.2484,0.0000 13.1243,-5.8760 13.1243 -13.1243Z"/></g><g stroke-linejoin="miter" stroke-opacity="1.0" fill-opacity="1.0" stroke="rgb(0,0,0)" stroke-width="0.0" fill="rgb(0,128,0)" stroke-linecap="butt" stroke-miterlimit="10.0"><path d="M 398.3121,90.5171 c 0.0000,-7.2484 -5.8760,-13.1243 -13.1243 -13.1243c -7.2484,-0.0000 -13.1243,5.8760 -13.1243 13.1243c -0.0000,7.2484 5.8760,13.1243 13.1243 13.1243c 7.2484,0.0000 13.1243,-5.8760 13.1243 -13.1243Z"/></g><g stroke-linejoin="miter" stroke-opacity="1.0" fill-opacity="0.0" stroke="rgb(0,0,0)" stroke-width="1.0" fill="rgb(0,0,0)" stroke-linecap="butt" stroke-miterlimit="10.0"><path d="M 385.1878,77.3928 c 4.6272,-1.2620 9.2543,-2.5239 13.6291 -2.5239c 4.3748,0.0000 8.4972,1.2620 12.6195 2.5239"/></g><g stroke-linejoin="miter" stroke-opacity="1.0" fill-opacity="1.0" stroke="rgb(0,0,0)" stroke-width="0.0" fill="rgb(0,0,0)" stroke-linecap="butt" stroke-miterlimit="10.0"></g><g stroke-linejoin="miter" stroke-opacity="1.0" fill-opacity="1.0" stroke="rgb(0,0,0)" stroke-width="0.0" fill="rgb(0,0,0)" stroke-linecap="butt" stroke-miterlimit="10.0"></g><g stroke-linejoin="miter" stroke-opacity="1.0" fill-opacity="1.0" stroke="rgb(0,0,0)" stroke-width="0.0" fill="rgb(0,0,0)" stroke-linecap="butt" stroke-miterlimit="10.0"></g><g stroke-linejoin="miter" stroke-opacity="1.0" fill-opacity="1.0" stroke="rgb(0,0,0)" stroke-width="0.0" fill="rgb(0,0,0)" stroke-linecap="butt" stroke-miterlimit="10.0"></g><g stroke-linejoin="miter" stroke-opacity="1.0" fill-opacity="0.0" stroke="rgb(0,0,0)" stroke-width="1.0" fill="rgb(0,0,0)" stroke-linecap="butt" stroke-miterlimit="10.0"><path d="M 398.3121,74.8689 c 7.1632,-1.9536 14.3264,-3.9072 21.0989 -3.9072c 6.7725,-0.0000 13.1543,1.9536 19.5360 3.9072"/></g><g stroke-linejoin="miter" stroke-opacity="1.0" fill-opacity="1.0" stroke="rgb(0,0,0)" stroke-width="0.0" fill="rgb(0,0,0)" stroke-linecap="butt" stroke-miterlimit="10.0"></g><g stroke-linejoin="miter" stroke-opacity="1.0" fill-opacity="1.0" stroke="rgb(0,0,0)" stroke-width="0.0" fill="rgb(0,0,0)" stroke-linecap="butt" stroke-miterlimit="10.0"></g><g stroke-linejoin="miter" stroke-opacity="1.0" fill-opacity="1.0" stroke="rgb(0,0,0)" stroke-width="0.0" fill="rgb(0,0,0)" stroke-linecap="butt" stroke-miterlimit="10.0"></g><g stroke-linejoin="miter" stroke-opacity="1.0" fill-opacity="1.0" stroke="rgb(0,0,0)" stroke-width="0.0" fill="rgb(0,0,0)" stroke-linecap="butt" stroke-miterlimit="10.0"></g><g stroke-linejoin="miter" stroke-opacity="1.0" fill-opacity="1.0" stroke="rgb(0,0,0)" stroke-width="0.0" fill="rgb(0,0,0)" stroke-linecap="butt" stroke-miterlimit="10.0"><path d="M 166.6667,87.3016 c 0.0000,-43.8321 -35.5330,-79.3651 -79.3651 -79.3651c -43.8321,-0.0000 -79.3651,35.5330 -79.3651 79.3651c -0.0000,43.8321 35.5330,79.3651 79.3651 79.3651c 43.8321,0.0000 79.3651,-35.5330 79.3651 -79.3651Z"/></g><g stroke-linejoin="miter" stroke-opacity="1.0" fill-opacity="1.0" font-size="119.04761904761907px" stroke="rgb(0,0,0)" stroke-width="1.181873680570558" fill="rgb(255,255,255)" stroke-linecap="butt" stroke-miterlimit="10.0"><text dominant-baseline="middle" transform="matrix(1.0000,0.0000,0.0000,1.0000,87.3016,111.1111)" stroke="none" text-anchor="middle">C</text></g></svg>