<?xml version="1.0" encoding="UTF-8"?>
<!DOCTYPE svg PUBLIC "-//W3C//DTD SVG 1.1//EN"
    "http://www.w3.org/Graphics/SVG/1.1/DTD/svg11.dtd"><svg xmlns="http://www.w3.org/2000/svg" height="201.0571" stroke-opacity="1" viewBox="0 0 500 201" font-size="1" width="500.0000" xmlns:xlink="http://www.w3.org/1999/xlink" stroke="rgb(0,0,0)" version="1.1"><defs></defs><g stroke-linejoin="miter" stroke-opacity="1.0" fill-opacity="1.0" stroke="rgb(0,0,0)" stroke-width="0.0" fill="rgb(0,0,255)" stroke-linecap="butt" stroke-miterlimit="10.0"><path d="M 477.2727,111.4551 c 0.0000,-44.4385 -36.0245,-80.4630 -80.4630 -80.4630c -44.4385,-0.0000 -80.4630,36.0245 -80.4630 80.4630c -0.0000,44.4385 36.0245,80.4630 80.4630 80.4630c 44.4385,0.0000 80.4630,-36.0245 80.4630 -80.4630Z"/></g><g stroke-linejoin="miter" stroke-opacity="1.0" fill-opacity="1.0" stroke="rgb(0,0,0)" stroke-width="0.0" fill="rgb(255,0,0)" stroke-linecap="butt" stroke-miterlimit="10.0"><path d="M 316.3467,118.5133 c 0.0000,-40.5404 -32.8645,-73.4049 -73.4049 -73.4049c -40.5404,-0.0000 -73.4049,32.8645 -73.4049 73.4049c -0.0000,40.5404 32.8645,73.4049 73.4049 73.4049c 40.5404,0.0000 73.4049,-32.8645 73.4049 -73.4049Z"/></g><g stroke-linejoin="miter" stroke-opacity="1.0" fill-opacity="1.0" stroke="rgb(255,0,0)" stroke-width="3.6702428006775834" fill="rgb(255,192,203)" stroke-linecap="butt" stroke-miterlimit="10.0"><path d="M 169.5370,118.5133 c 0.0000,-40.5404 -32.8645,-73.4049 -73.4049 -73.4049c -40.5404,-0.0000 -73.4049,32.8645 -73.4049 73.4049c -0.0000,40.5404 32.8645,73.4049 73.4049 73.4049c 40.5404,0.0000 73.4049,-32.8645 73.4049 -73.4049Z"/></g><g stroke-linejoin="miter" stroke-opacity="1.0" fill-opacity="1.0" stroke="rgb(0,0,255)" stroke-width="2.9361942405420667" fill="rgb(173,216,230)" stroke-linecap="butt" stroke-miterlimit="10.0"><path d="M 154.8560,118.5133 c 0.0000,-32.4323 -26.2916,-58.7239 -58.7239 -58.7239c -32.4323,-0.0000 -58.7239,26.2916 -58.7239 58.7239c -0.0000,32.4323 26.2916,58.7239 58.7239 58.7239c 32.4323,0.0000 58.7239,-26.2916 58.7239 -58.7239Z"/></g><g stroke-linejoin="miter" stroke-opacity="1.0" fill-opacity="1.0" stroke="rgb(0,128,0)" stroke-width="2.3489553924336533" fill="rgb(144,238,144)" stroke-linecap="butt" stroke-miterlimit="10.0"><path d="M 143.1112,118.5133 c 0.0000,-25.9458 -21.0333,-46.9791 -46.9791 -46.9791c -25.9458,-0.0000 -46.9791,21.0333 -46.9791 46.9791c -0.0000,25.9458 21.0333,46.9791 46.9791 46.9791c 25.9458,0.0000 46.9791,-21.0333 46.9791 -46.9791Z"/></g><g stroke-linejoin="miter" stroke-opacity="1.0" fill-opacity="1.0" stroke="rgb(0,0,0)" stroke-width="0.0" fill="rgb(0,0,255)" stroke-linecap="butt" stroke-miterlimit="10.0"><path d="M 133.7154,120.3202 c 0.0000,-7.3486 -5.9572,-13.3059 -13.3059 -13.3059c -7.3486,-0.0000 -13.3059,5.9572 -13.3059 13.3059c -0.0000,7.3486 5.9572,13.3059 13.3059 13.3059c 7.3486,0.0000 13.3059,-5.9572 13.3059 -13.3059Z"/></g><g stroke-linejoin="miter" stroke-opacity="1.0" fill-opacity="1.0" stroke="rgb(0,0,0)" stroke-width="0.0" fill="rgb(255,0,0)" stroke-linecap="butt" stroke-miterlimit="10.0"><path d="M 107.1036,121.4874 c 0.0000,-6.7040 -5.4347,-12.1387 -12.1387 -12.1387c -6.7040,-0.0000 -12.1387,5.4347 -12.1387 12.1387c -0.0000,6.7040 5.4347,12.1387 12.1387 12.1387c 6.7040,0.0000 12.1387,-5.4347 12.1387 -12.1387Z"/></g><g stroke-linejoin="miter" stroke-opacity="1.0" fill-opacity="1.0" stroke="rgb(0,0,0)" stroke-width="0.0" fill="rgb(0,128,0)" stroke-linecap="butt" stroke-miterlimit="10.0"><path d="M 82.8262,121.4874 c 0.0000,-6.7040 -5.4347,-12.1387 -12.1387 -12.1387c -6.7040,-0.0000 -12.1387,5.4347 -12.1387 12.1387c -0.0000,6.7040 5.4347,12.1387 12.1387 12.1387c 6.7040,0.0000 12.1387,-5.4347 12.1387 -12.1387Z"/></g><g stroke-linejoin="miter" stroke-opacity="1.0" fill-opacity="0.0" stroke="rgb(0,0,0)" stroke-width="1.0" fill="rgb(0,0,0)" stroke-linecap="butt" stroke-miterlimit="10.0"><path d="M 70.6875,109.3487 c 4.2797,-1.1672 8.5593,-2.3344 12.6056 -2.3344c 4.0462,0.0000 7.8590,1.1672 11.6718 2.3344"/></g><g stroke-linejoin="miter" stroke-opacity="1.0" fill-opacity="1.0" stroke="rgb(0,0,0)" stroke-width="0.0" fill="rgb(0,0,0)" stroke-linecap="butt" stroke-miterlimit="10.0"></g><g stroke-linejoin="miter" stroke-opacity="1.0" fill-opacity="1.0" stroke="rgb(0,0,0)" stroke-width="0.0" fill="rgb(0,0,0)" stroke-linecap="butt" stroke-miterlimit="10.0"></g><g stroke-linejoin="miter" stroke-opacity="1.0" fill-opacity="1.0" stroke="rgb(0,0,0)" stroke-width="0.0" fill="rgb(0,0,0)" stroke-linecap="butt" stroke-miterlimit="10.0"></g><g stroke-linejoin="miter" stroke-opacity="1.0" fill-opacity="1.0" stroke="rgb(0,0,0)" stroke-width="0.0" fill="rgb(0,0,0)" stroke-linecap="butt" stroke-miterlimit="10.0"></g><g stroke-linejoin="miter" stroke-opacity="1.0" fill-opacity="0.0" stroke="rgb(0,0,0)" stroke-width="1.0" fill="rgb(0,0,0)" stroke-linecap="butt" stroke-miterlimit="10.0"><path d="M 82.8262,107.0143 c 6.6253,-1.8069 13.2505,-3.6138 19.5144 -3.6138c 6.2639,-0.0000 12.1664,1.8069 18.0689 3.6138"/></g><g stroke-linejoin="miter" stroke-opacity="1.0" fill-opacity="1.0" stroke="rgb(0,0,0)" stroke-width="0.0" fill="rgb(0,0,0)" stroke-linecap="butt" stroke-miterlimit="10.0"></g><g stroke-linejoin="miter" stroke-opacity="1.0" fill-opacity="1.0" stroke="rgb(0,0,0)" stroke-width="0.0" fill="rgb(0,0,0)" stroke-linecap="butt" stroke-miterlimit="10.0"></g><g stroke-linejoin="miter" stroke-opacity="1.0" fill-opacity="1.0" stroke="rgb(0,0,0)" stroke-width="0.0" fill="rgb(0,0,0)" stroke-linecap="butt" stroke-miterlimit="10.0"></g><g stroke-linejoin="miter" stroke-opacity="1.0" fill-opacity="1.0" stroke="rgb(0,0,0)" stroke-width="0.0" fill="rgb(0,0,0)" stroke-linecap="butt" stroke-miterlimit="10.0"></g><g stroke-linejoin="miter" stroke-opacity="1.0" fill-opacity="0.0" stroke="rgb(0,0,0)" stroke-width="1.0" fill="rgb(0,0,0)" stroke-linecap="butt" stroke-miterlimit="10.0"><path d="M 96.1321,45.1084 c 25.8799,-7.0582 51.7598,-14.1163 76.2281 -14.1163c 24.4683,-0.0000 47.5249,7.0582 70.5816 14.1163"/></g><g stroke-linejoin="miter" stroke-opacity="1.0" fill-opacity="1.0" stroke="rgb(0,0,0)" stroke-width="0.0" fill="rgb(0,0,0)" stroke-linecap="butt" stroke-miterlimit="10.0"></g><g stroke-linejoin="miter" stroke-opacity="1.0" fill-opacity="1.0" stroke="rgb(0,0,0)" stroke-width="0.0" fill="rgb(0,0,0)" stroke-linecap="butt" stroke-miterlimit="10.0"></g><g stroke-linejoin="miter" stroke-opacity="1.0" fill-opacity="1.0" stroke="rgb(0,0,0)" stroke-width="0.0" fill="rgb(0,0,0)" stroke-linecap="butt" stroke-miterlimit="10.0"></g><g stroke-linejoin="miter" stroke-opacity="1.0" fill-opacity="1.0" stroke="rgb(0,0,0)" stroke-width="0.0" fill="rgb(0,0,0)" stroke-linecap="butt" stroke-miterlimit="10.0"></g><g stroke-linejoin="miter" stroke-opacity="1.0" fill-opacity="0.0" stroke="rgb(0,0,0)" stroke-width="1.0" fill="rgb(0,0,0)" stroke-linecap="butt" stroke-miterlimit="10.0"><path d="M 169.5370,30.9921 c 40.0641,-10.9266 80.1282,-21.8531 118.0070 -21.8531c 37.8788,-0.0000 73.5723,10.9266 109.2657 21.8531"/></g><g stroke-linejoin="miter" stroke-opacity="1.0" fill-opacity="1.0" stroke="rgb(0,0,0)" stroke-width="0.0" fill="rgb(0,0,0)" stroke-linecap="butt" stroke-miterlimit="10.0"></g><g stroke-linejoin="miter" stroke-opacity="1.0" fill-opacity="1.0" stroke="rgb(0,0,0)" stroke-width="0.0" fill="rgb(0,0,0)" stroke-linecap="butt" stroke-miterlimit="10.0"></g><g stroke-linejoin="miter" stroke-opacity="1.0" fill-opacity="1.0" stroke="rgb(0,0,0)" stroke-width="0.0" fill="rgb(0,0,0)" stroke-linecap="butt" stroke-miterlimit="10.0"></g><g stroke-linejoin="miter" stroke-opacity="1.0" fill-opacity="1.0" stroke="rgb(0,0,0)" stroke-width="0.0" fill="rgb(0,0,0)" stroke-linecap="butt" stroke-miterlimit="10.0"></g></svg>