<?xml version="1.0" encoding="UTF-8"?>
<!DOCTYPE svg PUBLIC "-//W3C//DTD SVG 1.1//EN"
    "http://www.w3.org/Graphics/SVG/1.1/DTD/svg11.dtd"><svg xmlns="http://www.w3.org/2000/svg" height="103.7736" stroke-opacity="1" viewBox="0 0 500 104" font-size="1" width="500.0000" xmlns:xlink="http://www.w3.org/1999/xlink" stroke="rgb(0,0,0)" version="1.1"><defs></defs><g stroke-linejoin="miter" stroke-opacity="1.0" fill-opacity="1.0" stroke="rgb(0,0,0)" stroke-width="0.0" fill="rgb(0,0,0)" stroke-linecap="butt" stroke-miterlimit="10.0"><path d="M 495.2830,51.8868 c 0.0000,-26.0512 -21.1186,-47.1698 -47.1698 -47.1698c -26.0512,-0.0000 -47.1698,21.1186 -47.1698 47.1698c -0.0000,26.0512 21.1186,47.1698 47.1698 47.1698c 26.0512,0.0000 47.1698,-21.1186 47.1698 -47.1698Z"/></g><g stroke-linejoin="miter" stroke-opacity="1.0" fill-opacity="1.0" font-size="70.75471698113208px" stroke="rgb(0,0,0)" stroke-width="0.9111469032188404" fill="rgb(255,255,255)" stroke-linecap="butt" stroke-miterlimit="10.0"><text dominant-baseline="middle" transform="matrix(1.0000,0.0000,0.0000,1.0000,448.1132,66.0377)" stroke="none" text-anchor="middle">S</text></g><g stroke-linejoin="miter" stroke-opacity="1.0" fill-opacity="1.0" stroke="rgb(0,0,0)" stroke-width="0.0" fill="rgb(0,0,0)" stroke-linecap="butt" stroke-miterlimit="10.0"><path d="M 297.1698,51.8868 c 0.0000,-26.0512 -21.1186,-47.1698 -47.1698 -47.1698c -26.0512,-0.0000 -47.1698,21.1186 -47.1698 47.1698c -0.0000,26.0512 21.1186,47.1698 47.1698 47.1698c 26.0512,0.0000 47.1698,-21.1186 47.1698 -47.1698Z"/></g><g stroke-linejoin="miter" stroke-opacity="1.0" fill-opacity="1.0" font-size="70.75471698113208px" stroke="rgb(0,0,0)" stroke-width="0.9111469032188404" fill="rgb(255,255,255)" stroke-linecap="butt" stroke-miterlimit="10.0"><text dominant-baseline="middle" transform="matrix(1.0000,0.0000,0.0000,1.0000,250.0000,66.0377)" stroke="none" text-anchor="middle">F</text></g><g stroke-linejoin="miter" stroke-opacity="1.0" fill-opacity="1.0" stroke="rgb(0,0,0)" stroke-width="0.0" fill="rgb(0,0,0)" stroke-linecap="butt" stroke-miterlimit="10.0"><path d="M 99.0566,51.8868 c 0.0000,-26.0512 -21.1186,-47.1698 -47.1698 -47.1698c -26.0512,-0.0000 -47.1698,21.1186 -47.1698 47.1698c -0.0000,26.0512 21.1186,47.1698 47.1698 47.1698c 26.0512,0.0000 47.1698,-21.1186 47.1698 -47.1698Z"/></g><g stroke-linejoin="miter" stroke-opacity="1.0" fill-opacity="1.0" font-size="70.75471698113208px" stroke="rgb(0,0,0)" stroke-width="0.9111469032188404" fill="rgb(255,255,255)" stroke-linecap="butt" stroke-miterlimit="10.0"><text dominant-baseline="middle" transform="matrix(1.0000,0.0000,0.0000,1.0000,51.8868,66.0377)" stroke="none" text-anchor="middle">C</text></g></svg>