<?xml version="1.0" encoding="UTF-8"?>
<!DOCTYPE svg PUBLIC "-//W3C//DTD SVG 1.1//EN"
    "http://www.w3.org/Graphics/SVG/1.1/DTD/svg11.dtd"><svg xmlns="http://www.w3.org/2000/svg" height="604.8951" stroke-opacity="1" viewBox="0 0 500 605" font-size="1" width="500.0000" xmlns:xlink="http://www.w3.org/1999/xlink" stroke="rgb(0,0,0)" version="1.1"><defs></defs><g stroke-linejoin="miter" stroke-opacity="1.0" fill-opacity="1.0" stroke="rgb(255,0,0)" stroke-width="5.681818181818181" fill="rgb(255,192,203)" stroke-linecap="butt" stroke-miterlimit="10.0"><path d="M 477.2727,478.8024 c 0.0000,-62.7596 -50.8767,-113.6364 -113.6364 -113.6364c -62.7596,-0.0000 -113.6364,50.8767 -113.6364 113.6364c -0.0000,62.7596 50.8767,113.6364 113.6364 113.6364c 62.7596,0.0000 113.6364,-50.8767 113.6364 -113.6364Z"/></g><g stroke-linejoin="miter" stroke-opacity="1.0" fill-opacity="1.0" stroke="rgb(0,128,0)" stroke-width="4.545454545454545" fill="rgb(144,238,144)" stroke-linecap="butt" stroke-miterlimit="10.0"><path d="M 454.5455,478.8024 c 0.0000,-50.2077 -40.7014,-90.9091 -90.9091 -90.9091c -50.2077,-0.0000 -90.9091,40.7014 -90.9091 90.9091c -0.0000,50.2077 40.7014,90.9091 90.9091 90.9091c 50.2077,0.0000 90.9091,-40.7014 90.9091 -90.9091Z"/></g><g stroke-linejoin="miter" stroke-opacity="1.0" fill-opacity="1.0" stroke="rgb(0,0,0)" stroke-width="0.0" fill="rgb(0,128,0)" stroke-linecap="butt" stroke-miterlimit="10.0"><path d="M 436.3636,478.8024 c 0.0000,-40.1662 -32.5611,-72.7273 -72.7273 -72.7273c -40.1662,-0.0000 -72.7273,32.5611 -72.7273 72.7273c -0.0000,40.1662 32.5611,72.7273 72.7273 72.7273c 40.1662,0.0000 72.7273,-32.5611 72.7273 -72.7273Z"/></g><g stroke-linejoin="miter" stroke-opacity="1.0" fill-opacity="1.0" stroke="rgb(0,128,0)" stroke-width="5.681818181818181" fill="rgb(144,238,144)" stroke-linecap="butt" stroke-miterlimit="10.0"><path d="M 250.0000,478.8024 c 0.0000,-62.7596 -50.8767,-113.6364 -113.6364 -113.6364c -62.7596,-0.0000 -113.6364,50.8767 -113.6364 113.6364c -0.0000,62.7596 50.8767,113.6364 113.6364 113.6364c 62.7596,0.0000 113.6364,-50.8767 113.6364 -113.6364Z"/></g><g stroke-linejoin="miter" stroke-opacity="1.0" fill-opacity="1.0" stroke="rgb(0,0,0)" stroke-width="0.0" fill="rgb(0,0,255)" stroke-linecap="butt" stroke-miterlimit="10.0"><path d="M 227.2727,483.1731 c 0.0000,-17.7754 -14.4098,-32.1852 -32.1852 -32.1852c -17.7754,-0.0000 -32.1852,14.4098 -32.1852 32.1852c -0.0000,17.7754 14.4098,32.1852 32.1852 32.1852c 17.7754,0.0000 32.1852,-14.4098 32.1852 -32.1852Z"/></g><g stroke-linejoin="miter" stroke-opacity="1.0" fill-opacity="1.0" stroke="rgb(0,0,0)" stroke-width="0.0" fill="rgb(255,0,0)" stroke-linecap="butt" stroke-miterlimit="10.0"><path d="M 162.9023,485.9963 c 0.0000,-16.2162 -13.1458,-29.3619 -29.3619 -29.3619c -16.2162,-0.0000 -29.3619,13.1458 -29.3619 29.3619c -0.0000,16.2162 13.1458,29.3619 29.3619 29.3619c 16.2162,0.0000 29.3619,-13.1458 29.3619 -29.3619Z"/></g><g stroke-linejoin="miter" stroke-opacity="1.0" fill-opacity="1.0" stroke="rgb(0,0,0)" stroke-width="0.0" fill="rgb(0,128,0)" stroke-linecap="butt" stroke-miterlimit="10.0"><path d="M 104.1784,485.9963 c 0.0000,-16.2162 -13.1458,-29.3619 -29.3619 -29.3619c -16.2162,-0.0000 -29.3619,13.1458 -29.3619 29.3619c -0.0000,16.2162 13.1458,29.3619 29.3619 29.3619c 16.2162,0.0000 29.3619,-13.1458 29.3619 -29.3619Z"/></g><g stroke-linejoin="miter" stroke-opacity="1.0" fill-opacity="0.0" stroke="rgb(0,0,0)" stroke-width="1.0" fill="rgb(0,0,0)" stroke-linecap="butt" stroke-miterlimit="10.0"><path d="M 74.8165,456.6344 c 10.3520,-2.8233 20.7039,-5.6465 30.4912 -5.6465c 9.7873,-0.0000 19.0100,2.8233 28.2326 5.6465"/></g><g stroke-linejoin="miter" stroke-opacity="1.0" fill-opacity="1.0" stroke="rgb(0,0,0)" stroke-width="0.0" fill="rgb(0,0,0)" stroke-linecap="butt" stroke-miterlimit="10.0"></g><g stroke-linejoin="miter" stroke-opacity="1.0" fill-opacity="1.0" stroke="rgb(0,0,0)" stroke-width="0.0" fill="rgb(0,0,0)" stroke-linecap="butt" stroke-miterlimit="10.0"></g><g stroke-linejoin="miter" stroke-opacity="1.0" fill-opacity="1.0" stroke="rgb(0,0,0)" stroke-width="0.0" fill="rgb(0,0,0)" stroke-linecap="butt" stroke-miterlimit="10.0"></g><g stroke-linejoin="miter" stroke-opacity="1.0" fill-opacity="1.0" stroke="rgb(0,0,0)" stroke-width="0.0" fill="rgb(0,0,0)" stroke-linecap="butt" stroke-miterlimit="10.0"></g><g stroke-linejoin="miter" stroke-opacity="1.0" fill-opacity="0.0" stroke="rgb(0,0,0)" stroke-width="1.0" fill="rgb(0,0,0)" stroke-linecap="butt" stroke-miterlimit="10.0"><path d="M 104.1784,450.9879 c 16.0256,-4.3706 32.0513,-8.7413 47.2028 -8.7413c 15.1515,-0.0000 29.4289,4.3706 43.7063 8.7413"/></g><g stroke-linejoin="miter" stroke-opacity="1.0" fill-opacity="1.0" stroke="rgb(0,0,0)" stroke-width="0.0" fill="rgb(0,0,0)" stroke-linecap="butt" stroke-miterlimit="10.0"></g><g stroke-linejoin="miter" stroke-opacity="1.0" fill-opacity="1.0" stroke="rgb(0,0,0)" stroke-width="0.0" fill="rgb(0,0,0)" stroke-linecap="butt" stroke-miterlimit="10.0"></g><g stroke-linejoin="miter" stroke-opacity="1.0" fill-opacity="1.0" stroke="rgb(0,0,0)" stroke-width="0.0" fill="rgb(0,0,0)" stroke-linecap="butt" stroke-miterlimit="10.0"></g><g stroke-linejoin="miter" stroke-opacity="1.0" fill-opacity="1.0" stroke="rgb(0,0,0)" stroke-width="0.0" fill="rgb(0,0,0)" stroke-linecap="butt" stroke-miterlimit="10.0"></g><g stroke-linejoin="miter" stroke-opacity="1.0" fill-opacity="0.0" stroke="rgb(0,0,0)" stroke-width="1.0" fill="rgb(0,0,0)" stroke-linecap="butt" stroke-miterlimit="10.0"><path d="M 136.3636,365.1661 c 40.0641,-10.9266 80.1282,-21.8531 118.0070 -21.8531c 37.8788,-0.0000 73.5723,10.9266 109.2657 21.8531"/></g><g stroke-linejoin="miter" stroke-opacity="1.0" fill-opacity="1.0" stroke="rgb(0,0,0)" stroke-width="0.0" fill="rgb(0,0,0)" stroke-linecap="butt" stroke-miterlimit="10.0"></g><g stroke-linejoin="miter" stroke-opacity="1.0" fill-opacity="1.0" stroke="rgb(0,0,0)" stroke-width="0.0" fill="rgb(0,0,0)" stroke-linecap="butt" stroke-miterlimit="10.0"></g><g stroke-linejoin="miter" stroke-opacity="1.0" fill-opacity="1.0" stroke="rgb(0,0,0)" stroke-width="0.0" fill="rgb(0,0,0)" stroke-linecap="butt" stroke-miterlimit="10.0"></g><g stroke-linejoin="miter" stroke-opacity="1.0" fill-opacity="1.0" stroke="rgb(0,0,0)" stroke-width="0.0" fill="rgb(0,0,0)" stroke-linecap="butt" stroke-miterlimit="10.0"></g><g stroke-linejoin="miter" stroke-opacity="1.0" fill-opacity="1.0" stroke="rgb(255,0,0)" stroke-width="5.681818181818181" fill="rgb(255,192,203)" stroke-linecap="butt" stroke-miterlimit="10.0"><path d="M 477.2727,147.9458 c 0.0000,-62.7596 -50.8767,-113.6364 -113.6364 -113.6364c -62.7596,-0.0000 -113.6364,50.8767 -113.6364 113.6364c -0.0000,62.7596 50.8767,113.6364 113.6364 113.6364c 62.7596,0.0000 113.6364,-50.8767 113.6364 -113.6364Z"/></g><g stroke-linejoin="miter" stroke-opacity="1.0" fill-opacity="1.0" stroke="rgb(0,128,0)" stroke-width="4.545454545454545" fill="rgb(144,238,144)" stroke-linecap="butt" stroke-miterlimit="10.0"><path d="M 454.5455,147.9458 c 0.0000,-50.2077 -40.7014,-90.9091 -90.9091 -90.9091c -50.2077,-0.0000 -90.9091,40.7014 -90.9091 90.9091c -0.0000,50.2077 40.7014,90.9091 90.9091 90.9091c 50.2077,0.0000 90.9091,-40.7014 90.9091 -90.9091Z"/></g><g stroke-linejoin="miter" stroke-opacity="1.0" fill-opacity="1.0" stroke="rgb(0,0,0)" stroke-width="0.0" fill="rgb(255,0,0)" stroke-linecap="butt" stroke-miterlimit="10.0"><path d="M 436.3636,147.9458 c 0.0000,-40.1662 -32.5611,-72.7273 -72.7273 -72.7273c -40.1662,-0.0000 -72.7273,32.5611 -72.7273 72.7273c -0.0000,40.1662 32.5611,72.7273 72.7273 72.7273c 40.1662,0.0000 72.7273,-32.5611 72.7273 -72.7273Z"/></g><g stroke-linejoin="miter" stroke-opacity="1.0" fill-opacity="1.0" stroke="rgb(0,128,0)" stroke-width="5.681818181818181" fill="rgb(144,238,144)" stroke-linecap="butt" stroke-miterlimit="10.0"><path d="M 250.0000,147.9458 c 0.0000,-62.7596 -50.8767,-113.6364 -113.6364 -113.6364c -62.7596,-0.0000 -113.6364,50.8767 -113.6364 113.6364c -0.0000,62.7596 50.8767,113.6364 113.6364 113.6364c 62.7596,0.0000 113.6364,-50.8767 113.6364 -113.6364Z"/></g><g stroke-linejoin="miter" stroke-opacity="1.0" fill-opacity="1.0" stroke="rgb(0,0,0)" stroke-width="0.0" fill="rgb(0,0,255)" stroke-linecap="butt" stroke-miterlimit="10.0"><path d="M 227.2727,152.3164 c 0.0000,-17.7754 -14.4098,-32.1852 -32.1852 -32.1852c -17.7754,-0.0000 -32.1852,14.4098 -32.1852 32.1852c -0.0000,17.7754 14.4098,32.1852 32.1852 32.1852c 17.7754,0.0000 32.1852,-14.4098 32.1852 -32.1852Z"/></g><g stroke-linejoin="miter" stroke-opacity="1.0" fill-opacity="1.0" stroke="rgb(0,0,0)" stroke-width="0.0" fill="rgb(255,0,0)" stroke-linecap="butt" stroke-miterlimit="10.0"><path d="M 162.9023,155.1397 c 0.0000,-16.2162 -13.1458,-29.3619 -29.3619 -29.3619c -16.2162,-0.0000 -29.3619,13.1458 -29.3619 29.3619c -0.0000,16.2162 13.1458,29.3619 29.3619 29.3619c 16.2162,0.0000 29.3619,-13.1458 29.3619 -29.3619Z"/></g><g stroke-linejoin="miter" stroke-opacity="1.0" fill-opacity="1.0" stroke="rgb(0,0,0)" stroke-width="0.0" fill="rgb(0,128,0)" stroke-linecap="butt" stroke-miterlimit="10.0"><path d="M 104.1784,155.1397 c 0.0000,-16.2162 -13.1458,-29.3619 -29.3619 -29.3619c -16.2162,-0.0000 -29.3619,13.1458 -29.3619 29.3619c -0.0000,16.2162 13.1458,29.3619 29.3619 29.3619c 16.2162,0.0000 29.3619,-13.1458 29.3619 -29.3619Z"/></g><g stroke-linejoin="miter" stroke-opacity="1.0" fill-opacity="0.0" stroke="rgb(0,0,0)" stroke-width="1.0" fill="rgb(0,0,0)" stroke-linecap="butt" stroke-miterlimit="10.0"><path d="M 74.8165,125.7778 c 10.3520,-2.8233 20.7039,-5.6465 30.4912 -5.6465c 9.7873,-0.0000 19.0100,2.8233 28.2326 5.6465"/></g><g stroke-linejoin="miter" stroke-opacity="1.0" fill-opacity="1.0" stroke="rgb(0,0,0)" stroke-width="0.0" fill="rgb(0,0,0)" stroke-linecap="butt" stroke-miterlimit="10.0"></g><g stroke-linejoin="miter" stroke-opacity="1.0" fill-opacity="1.0" stroke="rgb(0,0,0)" stroke-width="0.0" fill="rgb(0,0,0)" stroke-linecap="butt" stroke-miterlimit="10.0"></g><g stroke-linejoin="miter" stroke-opacity="1.0" fill-opacity="1.0" stroke="rgb(0,0,0)" stroke-width="0.0" fill="rgb(0,0,0)" stroke-linecap="butt" stroke-miterlimit="10.0"></g><g stroke-linejoin="miter" stroke-opacity="1.0" fill-opacity="1.0" stroke="rgb(0,0,0)" stroke-width="0.0" fill="rgb(0,0,0)" stroke-linecap="butt" stroke-miterlimit="10.0"></g><g stroke-linejoin="miter" stroke-opacity="1.0" fill-opacity="0.0" stroke="rgb(0,0,0)" stroke-width="1.0" fill="rgb(0,0,0)" stroke-linecap="butt" stroke-miterlimit="10.0"><path d="M 104.1784,120.1312 c 16.0256,-4.3706 32.0513,-8.7413 47.2028 -8.7413c 15.1515,-0.0000 29.4289,4.3706 43.7063 8.7413"/></g><g stroke-linejoin="miter" stroke-opacity="1.0" fill-opacity="1.0" stroke="rgb(0,0,0)" stroke-width="0.0" fill="rgb(0,0,0)" stroke-linecap="butt" stroke-miterlimit="10.0"></g><g stroke-linejoin="miter" stroke-opacity="1.0" fill-opacity="1.0" stroke="rgb(0,0,0)" stroke-width="0.0" fill="rgb(0,0,0)" stroke-linecap="butt" stroke-miterlimit="10.0"></g><g stroke-linejoin="miter" stroke-opacity="1.0" fill-opacity="1.0" stroke="rgb(0,0,0)" stroke-width="0.0" fill="rgb(0,0,0)" stroke-linecap="butt" stroke-miterlimit="10.0"></g><g stroke-linejoin="miter" stroke-opacity="1.0" fill-opacity="1.0" stroke="rgb(0,0,0)" stroke-width="0.0" fill="rgb(0,0,0)" stroke-linecap="butt" stroke-miterlimit="10.0"></g><g stroke-linejoin="miter" stroke-opacity="1.0" fill-opacity="0.0" stroke="rgb(0,0,0)" stroke-width="1.0" fill="rgb(0,0,0)" stroke-linecap="butt" stroke-miterlimit="10.0"><path d="M 136.3636,34.3094 c 40.0641,-10.9266 80.1282,-21.8531 118.0070 -21.8531c 37.8788,-0.0000 73.5723,10.9266 109.2657 21.8531"/></g><g stroke-linejoin="miter" stroke-opacity="1.0" fill-opacity="1.0" stroke="rgb(0,0,0)" stroke-width="0.0" fill="rgb(0,0,0)" stroke-linecap="butt" stroke-miterlimit="10.0"></g><g stroke-linejoin="miter" stroke-opacity="1.0" fill-opacity="1.0" stroke="rgb(0,0,0)" stroke-width="0.0" fill="rgb(0,0,0)" stroke-linecap="butt" stroke-miterlimit="10.0"></g><g stroke-linejoin="miter" stroke-opacity="1.0" fill-opacity="1.0" stroke="rgb(0,0,0)" stroke-width="0.0" fill="rgb(0,0,0)" stroke-linecap="butt" stroke-miterlimit="10.0"></g><g stroke-linejoin="miter" stroke-opacity="1.0" fill-opacity="1.0" stroke="rgb(0,0,0)" stroke-width="0.0" fill="rgb(0,0,0)" stroke-linecap="butt" stroke-miterlimit="10.0"></g></svg>