<?xml version="1.0" encoding="UTF-8"?>
<!DOCTYPE svg PUBLIC "-//W3C//DTD SVG 1.1//EN"
    "http://www.w3.org/Graphics/SVG/1.1/DTD/svg11.dtd"><svg xmlns="http://www.w3.org/2000/svg" height="129.2009" stroke-opacity="1" viewBox="0 0 500 129" font-size="1" width="500.0000" xmlns:xlink="http://www.w3.org/1999/xlink" stroke="rgb(0,0,0)" version="1.1"><defs></defs><g stroke-linejoin="miter" stroke-opacity="1.0" fill-opacity="1.0" font-size="12.135922330097085px" stroke="rgb(0,0,0)" stroke-width="1.0166647281820587" fill="rgb(0,0,0)" stroke-linecap="butt" stroke-miterlimit="10.0"><text dominant-baseline="middle" transform="matrix(1.0000,0.0000,0.0000,1.0000,155.3398,87.7987)" stroke="none" text-anchor="middle">Burst</text></g><g stroke-linejoin="miter" stroke-opacity="1.0" fill-opacity="0.0" stroke="rgb(0,0,0)" stroke-width="1.0166647281820587" fill="rgb(0,0,0)" stroke-linecap="butt" stroke-miterlimit="10.0"><path d="M 191.7476,99.9347 l -63.9197,-0.0000 "/></g><g stroke-linejoin="miter" stroke-opacity="1.0" fill-opacity="1.0" stroke="rgb(0,0,0)" stroke-width="0.0" fill="rgb(0,0,0)" stroke-linecap="butt" stroke-miterlimit="10.0"></g><g stroke-linejoin="miter" stroke-opacity="1.0" fill-opacity="1.0" stroke="rgb(0,0,0)" stroke-width="0.0" fill="rgb(0,0,0)" stroke-linecap="butt" stroke-miterlimit="10.0"></g><g stroke-linejoin="miter" stroke-opacity="1.0" fill-opacity="1.0" stroke="rgb(0,0,0)" stroke-width="0.0" fill="rgb(0,0,0)" stroke-linecap="butt" stroke-miterlimit="10.0"><path d="M 118.9320,99.9347 l 10.4062,3.3812 l -1.7776,-3.3812 l 1.7776,-3.3812 Z"/></g><g stroke-linejoin="miter" stroke-opacity="1.0" fill-opacity="1.0" stroke="rgb(0,0,0)" stroke-width="0.0" fill="rgb(0,0,0)" stroke-linecap="butt" stroke-miterlimit="10.0"><path d="M 127.5606,99.9347 l 0.2672,0.0000 l -0.0000,0.5083 l -0.2672,-0.5083 l 0.2672,0.0000 l 0.0000,-0.5083 Z"/></g><g stroke-linejoin="miter" stroke-opacity="1.0" fill-opacity="1.0" font-size="12.135922330097085px" stroke="rgb(0,0,0)" stroke-width="1.0166647281820587" fill="rgb(0,0,0)" stroke-linecap="butt" stroke-miterlimit="10.0"><text dominant-baseline="middle" transform="matrix(1.0000,0.0000,0.0000,1.0000,349.5146,87.7987)" stroke="none" text-anchor="middle">Equal</text></g><g stroke-linejoin="miter" stroke-opacity="1.0" fill-opacity="0.0" stroke="rgb(0,0,0)" stroke-width="1.0166647281820587" fill="rgb(0,0,0)" stroke-linecap="butt" stroke-miterlimit="10.0"><path d="M 313.1068,99.9347 h 63.9197 "/></g><g stroke-linejoin="miter" stroke-opacity="1.0" fill-opacity="1.0" stroke="rgb(0,0,0)" stroke-width="0.0" fill="rgb(0,0,0)" stroke-linecap="butt" stroke-miterlimit="10.0"></g><g stroke-linejoin="miter" stroke-opacity="1.0" fill-opacity="1.0" stroke="rgb(0,0,0)" stroke-width="0.0" fill="rgb(0,0,0)" stroke-linecap="butt" stroke-miterlimit="10.0"></g><g stroke-linejoin="miter" stroke-opacity="1.0" fill-opacity="1.0" stroke="rgb(0,0,0)" stroke-width="0.0" fill="rgb(0,0,0)" stroke-linecap="butt" stroke-miterlimit="10.0"><path d="M 385.9223,99.9347 l -10.4062,-3.3812 l 1.7776,3.3812 l -1.7776,3.3812 Z"/></g><g stroke-linejoin="miter" stroke-opacity="1.0" fill-opacity="1.0" stroke="rgb(0,0,0)" stroke-width="0.0" fill="rgb(0,0,0)" stroke-linecap="butt" stroke-miterlimit="10.0"><path d="M 377.2938,99.9347 h -0.2672 v -0.5083 l 0.2672,0.5083 h -0.2672 v 0.5083 Z"/></g><g stroke-linejoin="miter" stroke-opacity="1.0" fill-opacity="0.0" stroke="rgb(0,0,0)" stroke-width="1.0166647281820587" fill="rgb(0,0,0)" stroke-linecap="butt" stroke-miterlimit="10.0"><path d="M 385.9223,99.9347 l -63.9197,-0.0000 "/></g><g stroke-linejoin="miter" stroke-opacity="1.0" fill-opacity="1.0" stroke="rgb(0,0,0)" stroke-width="0.0" fill="rgb(0,0,0)" stroke-linecap="butt" stroke-miterlimit="10.0"></g><g stroke-linejoin="miter" stroke-opacity="1.0" fill-opacity="1.0" stroke="rgb(0,0,0)" stroke-width="0.0" fill="rgb(0,0,0)" stroke-linecap="butt" stroke-miterlimit="10.0"></g><g stroke-linejoin="miter" stroke-opacity="1.0" fill-opacity="1.0" stroke="rgb(0,0,0)" stroke-width="0.0" fill="rgb(0,0,0)" stroke-linecap="butt" stroke-miterlimit="10.0"><path d="M 313.1068,99.9347 l 10.4062,3.3812 l -1.7776,-3.3812 l 1.7776,-3.3812 Z"/></g><g stroke-linejoin="miter" stroke-opacity="1.0" fill-opacity="1.0" stroke="rgb(0,0,0)" stroke-width="0.0" fill="rgb(0,0,0)" stroke-linecap="butt" stroke-miterlimit="10.0"><path d="M 321.7354,99.9347 l 0.2672,0.0000 l -0.0000,0.5083 l -0.2672,-0.5083 l 0.2672,0.0000 l 0.0000,-0.5083 Z"/></g><g stroke-linejoin="miter" stroke-opacity="1.0" fill-opacity="1.0" stroke="rgb(0,128,0)" stroke-width="1.2135922330097089" fill="rgb(144,238,144)" stroke-linecap="butt" stroke-miterlimit="10.0"><path d="M 495.1456,102.2685 c 0.0000,-13.4050 -10.8669,-24.2718 -24.2718 -24.2718c -13.4050,-0.0000 -24.2718,10.8669 -24.2718 24.2718c -0.0000,13.4050 10.8669,24.2718 24.2718 24.2718c 13.4050,0.0000 24.2718,-10.8669 24.2718 -24.2718Z"/></g><g stroke-linejoin="miter" stroke-opacity="1.0" fill-opacity="1.0" stroke="rgb(0,0,0)" stroke-width="0.0" fill="rgb(0,0,255)" stroke-linecap="butt" stroke-miterlimit="10.0"><path d="M 490.2913,103.2020 c 0.0000,-3.7967 -3.0778,-6.8745 -6.8745 -6.8745c -3.7967,-0.0000 -6.8745,3.0778 -6.8745 6.8745c -0.0000,3.7967 3.0778,6.8745 6.8745 6.8745c 3.7967,0.0000 6.8745,-3.0778 6.8745 -6.8745Z"/></g><g stroke-linejoin="miter" stroke-opacity="1.0" fill-opacity="1.0" stroke="rgb(0,0,0)" stroke-width="0.0" fill="rgb(255,0,0)" stroke-linecap="butt" stroke-miterlimit="10.0"><path d="M 476.5422,103.8050 c 0.0000,-3.4636 -2.8078,-6.2715 -6.2715 -6.2715c -3.4636,-0.0000 -6.2715,2.8078 -6.2715 6.2715c -0.0000,3.4636 2.8078,6.2715 6.2715 6.2715c 3.4636,0.0000 6.2715,-2.8078 6.2715 -6.2715Z"/></g><g stroke-linejoin="miter" stroke-opacity="1.0" fill-opacity="1.0" stroke="rgb(0,0,0)" stroke-width="0.0" fill="rgb(0,128,0)" stroke-linecap="butt" stroke-miterlimit="10.0"><path d="M 463.9993,103.8050 c 0.0000,-3.4636 -2.8078,-6.2715 -6.2715 -6.2715c -3.4636,-0.0000 -6.2715,2.8078 -6.2715 6.2715c -0.0000,3.4636 2.8078,6.2715 6.2715 6.2715c 3.4636,0.0000 6.2715,-2.8078 6.2715 -6.2715Z"/></g><g stroke-linejoin="miter" stroke-opacity="1.0" fill-opacity="0.0" stroke="rgb(0,0,0)" stroke-width="1.0" fill="rgb(0,0,0)" stroke-linecap="butt" stroke-miterlimit="10.0"><path d="M 457.7278,97.5336 c 2.2111,-0.6030 4.4222,-1.2061 6.5127 -1.2061c 2.0905,0.0000 4.0604,0.6030 6.0303 1.2061"/></g><g stroke-linejoin="miter" stroke-opacity="1.0" fill-opacity="1.0" stroke="rgb(0,0,0)" stroke-width="0.0" fill="rgb(0,0,0)" stroke-linecap="butt" stroke-miterlimit="10.0"></g><g stroke-linejoin="miter" stroke-opacity="1.0" fill-opacity="1.0" stroke="rgb(0,0,0)" stroke-width="0.0" fill="rgb(0,0,0)" stroke-linecap="butt" stroke-miterlimit="10.0"></g><g stroke-linejoin="miter" stroke-opacity="1.0" fill-opacity="1.0" stroke="rgb(0,0,0)" stroke-width="0.0" fill="rgb(0,0,0)" stroke-linecap="butt" stroke-miterlimit="10.0"></g><g stroke-linejoin="miter" stroke-opacity="1.0" fill-opacity="1.0" stroke="rgb(0,0,0)" stroke-width="0.0" fill="rgb(0,0,0)" stroke-linecap="butt" stroke-miterlimit="10.0"></g><g stroke-linejoin="miter" stroke-opacity="1.0" fill-opacity="0.0" stroke="rgb(0,0,0)" stroke-width="1.0" fill="rgb(0,0,0)" stroke-linecap="butt" stroke-miterlimit="10.0"><path d="M 463.9993,96.3275 c 3.4230,-0.9335 6.8459,-1.8671 10.0822 -1.8671c 3.2362,-0.0000 6.2858,0.9335 9.3353 1.8671"/></g><g stroke-linejoin="miter" stroke-opacity="1.0" fill-opacity="1.0" stroke="rgb(0,0,0)" stroke-width="0.0" fill="rgb(0,0,0)" stroke-linecap="butt" stroke-miterlimit="10.0"></g><g stroke-linejoin="miter" stroke-opacity="1.0" fill-opacity="1.0" stroke="rgb(0,0,0)" stroke-width="0.0" fill="rgb(0,0,0)" stroke-linecap="butt" stroke-miterlimit="10.0"></g><g stroke-linejoin="miter" stroke-opacity="1.0" fill-opacity="1.0" stroke="rgb(0,0,0)" stroke-width="0.0" fill="rgb(0,0,0)" stroke-linecap="butt" stroke-miterlimit="10.0"></g><g stroke-linejoin="miter" stroke-opacity="1.0" fill-opacity="1.0" stroke="rgb(0,0,0)" stroke-width="0.0" fill="rgb(0,0,0)" stroke-linecap="butt" stroke-miterlimit="10.0"></g><g stroke-linejoin="miter" stroke-opacity="1.0" fill-opacity="1.0" stroke="rgb(0,0,0)" stroke-width="0.0" fill="rgb(0,0,0)" stroke-linecap="butt" stroke-miterlimit="10.0"><path d="M 446.6019,102.2685 c 0.0000,-13.4050 -10.8669,-24.2718 -24.2718 -24.2718c -13.4050,-0.0000 -24.2718,10.8669 -24.2718 24.2718c -0.0000,13.4050 10.8669,24.2718 24.2718 24.2718c 13.4050,0.0000 24.2718,-10.8669 24.2718 -24.2718Z"/></g><g stroke-linejoin="miter" stroke-opacity="1.0" fill-opacity="1.0" font-size="36.407766990291265px" stroke="rgb(0,0,0)" stroke-width="1.0166647281820587" fill="rgb(255,255,255)" stroke-linecap="butt" stroke-miterlimit="10.0"><text dominant-baseline="middle" transform="matrix(1.0000,0.0000,0.0000,1.0000,422.3301,109.5500)" stroke="none" text-anchor="middle">S</text></g><g stroke-linejoin="miter" stroke-opacity="1.0" fill-opacity="0.0" stroke="rgb(0,0,0)" stroke-width="1.0" fill="rgb(0,0,0)" stroke-linecap="butt" stroke-miterlimit="10.0"><path d="M 422.3301,77.9966 c 8.5574,-2.3338 17.1148,-4.6677 25.2054 -4.6677c 8.0906,-0.0000 15.7145,2.3338 23.3383 4.6677"/></g><g stroke-linejoin="miter" stroke-opacity="1.0" fill-opacity="1.0" stroke="rgb(0,0,0)" stroke-width="0.0" fill="rgb(0,0,0)" stroke-linecap="butt" stroke-miterlimit="10.0"></g><g stroke-linejoin="miter" stroke-opacity="1.0" fill-opacity="1.0" stroke="rgb(0,0,0)" stroke-width="0.0" fill="rgb(0,0,0)" stroke-linecap="butt" stroke-miterlimit="10.0"></g><g stroke-linejoin="miter" stroke-opacity="1.0" fill-opacity="1.0" stroke="rgb(0,0,0)" stroke-width="0.0" fill="rgb(0,0,0)" stroke-linecap="butt" stroke-miterlimit="10.0"></g><g stroke-linejoin="miter" stroke-opacity="1.0" fill-opacity="1.0" stroke="rgb(0,0,0)" stroke-width="0.0" fill="rgb(0,0,0)" stroke-linecap="butt" stroke-miterlimit="10.0"></g><g stroke-linejoin="miter" stroke-opacity="1.0" fill-opacity="1.0" stroke="rgb(0,128,0)" stroke-width="1.2135922330097089" fill="rgb(144,238,144)" stroke-linecap="butt" stroke-miterlimit="10.0"><path d="M 296.1165,102.2685 c 0.0000,-13.4050 -10.8669,-24.2718 -24.2718 -24.2718c -13.4050,-0.0000 -24.2718,10.8669 -24.2718 24.2718c -0.0000,13.4050 10.8669,24.2718 24.2718 24.2718c 13.4050,0.0000 24.2718,-10.8669 24.2718 -24.2718Z"/></g><g stroke-linejoin="miter" stroke-opacity="1.0" fill-opacity="1.0" stroke="rgb(0,0,0)" stroke-width="0.0" fill="rgb(0,0,255)" stroke-linecap="butt" stroke-miterlimit="10.0"><path d="M 291.2621,103.2020 c 0.0000,-3.7967 -3.0778,-6.8745 -6.8745 -6.8745c -3.7967,-0.0000 -6.8745,3.0778 -6.8745 6.8745c -0.0000,3.7967 3.0778,6.8745 6.8745 6.8745c 3.7967,0.0000 6.8745,-3.0778 6.8745 -6.8745Z"/></g><g stroke-linejoin="miter" stroke-opacity="1.0" fill-opacity="1.0" stroke="rgb(0,0,0)" stroke-width="0.0" fill="rgb(255,0,0)" stroke-linecap="butt" stroke-miterlimit="10.0"><path d="M 277.5131,103.8050 c 0.0000,-3.4636 -2.8078,-6.2715 -6.2715 -6.2715c -3.4636,-0.0000 -6.2715,2.8078 -6.2715 6.2715c -0.0000,3.4636 2.8078,6.2715 6.2715 6.2715c 3.4636,0.0000 6.2715,-2.8078 6.2715 -6.2715Z"/></g><g stroke-linejoin="miter" stroke-opacity="1.0" fill-opacity="1.0" stroke="rgb(0,0,0)" stroke-width="0.0" fill="rgb(0,128,0)" stroke-linecap="butt" stroke-miterlimit="10.0"><path d="M 264.9702,103.8050 c 0.0000,-3.4636 -2.8078,-6.2715 -6.2715 -6.2715c -3.4636,-0.0000 -6.2715,2.8078 -6.2715 6.2715c -0.0000,3.4636 2.8078,6.2715 6.2715 6.2715c 3.4636,0.0000 6.2715,-2.8078 6.2715 -6.2715Z"/></g><g stroke-linejoin="miter" stroke-opacity="1.0" fill-opacity="0.0" stroke="rgb(0,0,0)" stroke-width="1.0" fill="rgb(0,0,0)" stroke-linecap="butt" stroke-miterlimit="10.0"><path d="M 258.6987,97.5336 c 2.2111,-0.6030 4.4222,-1.2061 6.5127 -1.2061c 2.0905,0.0000 4.0604,0.6030 6.0303 1.2061"/></g><g stroke-linejoin="miter" stroke-opacity="1.0" fill-opacity="1.0" stroke="rgb(0,0,0)" stroke-width="0.0" fill="rgb(0,0,0)" stroke-linecap="butt" stroke-miterlimit="10.0"></g><g stroke-linejoin="miter" stroke-opacity="1.0" fill-opacity="1.0" stroke="rgb(0,0,0)" stroke-width="0.0" fill="rgb(0,0,0)" stroke-linecap="butt" stroke-miterlimit="10.0"></g><g stroke-linejoin="miter" stroke-opacity="1.0" fill-opacity="1.0" stroke="rgb(0,0,0)" stroke-width="0.0" fill="rgb(0,0,0)" stroke-linecap="butt" stroke-miterlimit="10.0"></g><g stroke-linejoin="miter" stroke-opacity="1.0" fill-opacity="1.0" stroke="rgb(0,0,0)" stroke-width="0.0" fill="rgb(0,0,0)" stroke-linecap="butt" stroke-miterlimit="10.0"></g><g stroke-linejoin="miter" stroke-opacity="1.0" fill-opacity="0.0" stroke="rgb(0,0,0)" stroke-width="1.0" fill="rgb(0,0,0)" stroke-linecap="butt" stroke-miterlimit="10.0"><path d="M 264.9702,96.3275 c 3.4230,-0.9335 6.8459,-1.8671 10.0822 -1.8671c 3.2362,-0.0000 6.2858,0.9335 9.3353 1.8671"/></g><g stroke-linejoin="miter" stroke-opacity="1.0" fill-opacity="1.0" stroke="rgb(0,0,0)" stroke-width="0.0" fill="rgb(0,0,0)" stroke-linecap="butt" stroke-miterlimit="10.0"></g><g stroke-linejoin="miter" stroke-opacity="1.0" fill-opacity="1.0" stroke="rgb(0,0,0)" stroke-width="0.0" fill="rgb(0,0,0)" stroke-linecap="butt" stroke-miterlimit="10.0"></g><g stroke-linejoin="miter" stroke-opacity="1.0" fill-opacity="1.0" stroke="rgb(0,0,0)" stroke-width="0.0" fill="rgb(0,0,0)" stroke-linecap="butt" stroke-miterlimit="10.0"></g><g stroke-linejoin="miter" stroke-opacity="1.0" fill-opacity="1.0" stroke="rgb(0,0,0)" stroke-width="0.0" fill="rgb(0,0,0)" stroke-linecap="butt" stroke-miterlimit="10.0"></g><g stroke-linejoin="miter" stroke-opacity="1.0" fill-opacity="1.0" stroke="rgb(0,0,255)" stroke-width="1.2135922330097089" fill="rgb(173,216,230)" stroke-linecap="butt" stroke-miterlimit="10.0"><path d="M 247.5728,102.2685 c 0.0000,-13.4050 -10.8669,-24.2718 -24.2718 -24.2718c -13.4050,-0.0000 -24.2718,10.8669 -24.2718 24.2718c -0.0000,13.4050 10.8669,24.2718 24.2718 24.2718c 13.4050,0.0000 24.2718,-10.8669 24.2718 -24.2718Z"/></g><g stroke-linejoin="miter" stroke-opacity="1.0" fill-opacity="1.0" stroke="rgb(255,0,0)" stroke-width="0.4854368932038835" fill="rgb(255,192,203)" stroke-linecap="butt" stroke-miterlimit="10.0"><path d="M 242.7184,103.2020 c 0.0000,-5.3620 -4.3468,-9.7087 -9.7087 -9.7087c -5.3620,-0.0000 -9.7087,4.3468 -9.7087 9.7087c -0.0000,5.3620 4.3468,9.7087 9.7087 9.7087c 5.3620,0.0000 9.7087,-4.3468 9.7087 -9.7087Z"/></g><g stroke-linejoin="miter" stroke-opacity="1.0" fill-opacity="1.0" stroke="rgb(0,128,0)" stroke-width="0.38834951456310685" fill="rgb(144,238,144)" stroke-linecap="butt" stroke-miterlimit="10.0"><path d="M 240.7767,103.2020 c 0.0000,-4.2896 -3.4774,-7.7670 -7.7670 -7.7670c -4.2896,-0.0000 -7.7670,3.4774 -7.7670 7.7670c -0.0000,4.2896 3.4774,7.7670 7.7670 7.7670c 4.2896,0.0000 7.7670,-3.4774 7.7670 -7.7670Z"/></g><g stroke-linejoin="miter" stroke-opacity="1.0" fill-opacity="1.0" stroke="rgb(0,0,0)" stroke-width="0.0" fill="rgb(0,128,0)" stroke-linecap="butt" stroke-miterlimit="10.0"><path d="M 239.2233,103.2020 c 0.0000,-3.4317 -2.7819,-6.2136 -6.2136 -6.2136c -3.4317,-0.0000 -6.2136,2.7819 -6.2136 6.2136c -0.0000,3.4317 2.7819,6.2136 6.2136 6.2136c 3.4317,0.0000 6.2136,-2.7819 6.2136 -6.2136Z"/></g><g stroke-linejoin="miter" stroke-opacity="1.0" fill-opacity="1.0" stroke="rgb(0,0,0)" stroke-width="0.0" fill="rgb(0,0,255)" stroke-linecap="butt" stroke-miterlimit="10.0"><path d="M 223.3010,103.2020 c 0.0000,-5.3620 -4.3468,-9.7087 -9.7087 -9.7087c -5.3620,-0.0000 -9.7087,4.3468 -9.7087 9.7087c -0.0000,5.3620 4.3468,9.7087 9.7087 9.7087c 5.3620,0.0000 9.7087,-4.3468 9.7087 -9.7087Z"/></g><g stroke-linejoin="miter" stroke-opacity="1.0" fill-opacity="0.0" stroke="rgb(0,0,0)" stroke-width="1.0" fill="rgb(0,0,0)" stroke-linecap="butt" stroke-miterlimit="10.0"><path d="M 213.5922,93.4933 c 3.4230,-0.9335 6.8459,-1.8671 10.0822 -1.8671c 3.2362,-0.0000 6.2858,0.9335 9.3353 1.8671"/></g><g stroke-linejoin="miter" stroke-opacity="1.0" fill-opacity="1.0" stroke="rgb(0,0,0)" stroke-width="0.0" fill="rgb(0,0,0)" stroke-linecap="butt" stroke-miterlimit="10.0"></g><g stroke-linejoin="miter" stroke-opacity="1.0" fill-opacity="1.0" stroke="rgb(0,0,0)" stroke-width="0.0" fill="rgb(0,0,0)" stroke-linecap="butt" stroke-miterlimit="10.0"></g><g stroke-linejoin="miter" stroke-opacity="1.0" fill-opacity="1.0" stroke="rgb(0,0,0)" stroke-width="0.0" fill="rgb(0,0,0)" stroke-linecap="butt" stroke-miterlimit="10.0"></g><g stroke-linejoin="miter" stroke-opacity="1.0" fill-opacity="1.0" stroke="rgb(0,0,0)" stroke-width="0.0" fill="rgb(0,0,0)" stroke-linecap="butt" stroke-miterlimit="10.0"></g><g stroke-linejoin="miter" stroke-opacity="1.0" fill-opacity="0.0" stroke="rgb(0,0,0)" stroke-width="1.0" fill="rgb(0,0,0)" stroke-linecap="butt" stroke-miterlimit="10.0"><path d="M 223.3010,77.9966 c 8.5574,-2.3338 17.1148,-4.6677 25.2054 -4.6677c 8.0906,-0.0000 15.7145,2.3338 23.3383 4.6677"/></g><g stroke-linejoin="miter" stroke-opacity="1.0" fill-opacity="1.0" stroke="rgb(0,0,0)" stroke-width="0.0" fill="rgb(0,0,0)" stroke-linecap="butt" stroke-miterlimit="10.0"></g><g stroke-linejoin="miter" stroke-opacity="1.0" fill-opacity="1.0" stroke="rgb(0,0,0)" stroke-width="0.0" fill="rgb(0,0,0)" stroke-linecap="butt" stroke-miterlimit="10.0"></g><g stroke-linejoin="miter" stroke-opacity="1.0" fill-opacity="1.0" stroke="rgb(0,0,0)" stroke-width="0.0" fill="rgb(0,0,0)" stroke-linecap="butt" stroke-miterlimit="10.0"></g><g stroke-linejoin="miter" stroke-opacity="1.0" fill-opacity="1.0" stroke="rgb(0,0,0)" stroke-width="0.0" fill="rgb(0,0,0)" stroke-linecap="butt" stroke-miterlimit="10.0"></g><g stroke-linejoin="miter" stroke-opacity="1.0" fill-opacity="1.0" stroke="rgb(255,0,0)" stroke-width="1.2135922330097089" fill="rgb(255,192,203)" stroke-linecap="butt" stroke-miterlimit="10.0"><path d="M 101.9417,102.2685 c 0.0000,-13.4050 -10.8669,-24.2718 -24.2718 -24.2718c -13.4050,-0.0000 -24.2718,10.8669 -24.2718 24.2718c -0.0000,13.4050 10.8669,24.2718 24.2718 24.2718c 13.4050,0.0000 24.2718,-10.8669 24.2718 -24.2718Z"/></g><g stroke-linejoin="miter" stroke-opacity="1.0" fill-opacity="1.0" stroke="rgb(0,128,0)" stroke-width="0.9708737864077671" fill="rgb(144,238,144)" stroke-linecap="butt" stroke-miterlimit="10.0"><path d="M 97.0874,102.2685 c 0.0000,-10.7240 -8.6935,-19.4175 -19.4175 -19.4175c -10.7240,-0.0000 -19.4175,8.6935 -19.4175 19.4175c -0.0000,10.7240 8.6935,19.4175 19.4175 19.4175c 10.7240,0.0000 19.4175,-8.6935 19.4175 -19.4175Z"/></g><g stroke-linejoin="miter" stroke-opacity="1.0" fill-opacity="1.0" stroke="rgb(0,0,0)" stroke-width="0.0" fill="rgb(0,128,0)" stroke-linecap="butt" stroke-miterlimit="10.0"><path d="M 93.2039,102.2685 c 0.0000,-8.5792 -6.9548,-15.5340 -15.5340 -15.5340c -8.5792,-0.0000 -15.5340,6.9548 -15.5340 15.5340c -0.0000,8.5792 6.9548,15.5340 15.5340 15.5340c 8.5792,0.0000 15.5340,-6.9548 15.5340 -15.5340Z"/></g><g stroke-linejoin="miter" stroke-opacity="1.0" fill-opacity="1.0" stroke="rgb(0,128,0)" stroke-width="1.2135922330097089" fill="rgb(144,238,144)" stroke-linecap="butt" stroke-miterlimit="10.0"><path d="M 53.3981,102.2685 c 0.0000,-13.4050 -10.8669,-24.2718 -24.2718 -24.2718c -13.4050,-0.0000 -24.2718,10.8669 -24.2718 24.2718c -0.0000,13.4050 10.8669,24.2718 24.2718 24.2718c 13.4050,0.0000 24.2718,-10.8669 24.2718 -24.2718Z"/></g><g stroke-linejoin="miter" stroke-opacity="1.0" fill-opacity="1.0" stroke="rgb(0,0,0)" stroke-width="0.0" fill="rgb(0,0,255)" stroke-linecap="butt" stroke-miterlimit="10.0"><path d="M 48.5437,103.2020 c 0.0000,-3.7967 -3.0778,-6.8745 -6.8745 -6.8745c -3.7967,-0.0000 -6.8745,3.0778 -6.8745 6.8745c -0.0000,3.7967 3.0778,6.8745 6.8745 6.8745c 3.7967,0.0000 6.8745,-3.0778 6.8745 -6.8745Z"/></g><g stroke-linejoin="miter" stroke-opacity="1.0" fill-opacity="1.0" stroke="rgb(0,0,0)" stroke-width="0.0" fill="rgb(255,0,0)" stroke-linecap="butt" stroke-miterlimit="10.0"><path d="M 34.7947,103.8050 c 0.0000,-3.4636 -2.8078,-6.2715 -6.2715 -6.2715c -3.4636,-0.0000 -6.2715,2.8078 -6.2715 6.2715c -0.0000,3.4636 2.8078,6.2715 6.2715 6.2715c 3.4636,0.0000 6.2715,-2.8078 6.2715 -6.2715Z"/></g><g stroke-linejoin="miter" stroke-opacity="1.0" fill-opacity="1.0" stroke="rgb(0,0,0)" stroke-width="0.0" fill="rgb(0,128,0)" stroke-linecap="butt" stroke-miterlimit="10.0"><path d="M 22.2517,103.8050 c 0.0000,-3.4636 -2.8078,-6.2715 -6.2715 -6.2715c -3.4636,-0.0000 -6.2715,2.8078 -6.2715 6.2715c -0.0000,3.4636 2.8078,6.2715 6.2715 6.2715c 3.4636,0.0000 6.2715,-2.8078 6.2715 -6.2715Z"/></g><g stroke-linejoin="miter" stroke-opacity="1.0" fill-opacity="0.0" stroke="rgb(0,0,0)" stroke-width="1.0" fill="rgb(0,0,0)" stroke-linecap="butt" stroke-miterlimit="10.0"><path d="M 15.9802,97.5336 c 2.2111,-0.6030 4.4222,-1.2061 6.5127 -1.2061c 2.0905,0.0000 4.0604,0.6030 6.0303 1.2061"/></g><g stroke-linejoin="miter" stroke-opacity="1.0" fill-opacity="1.0" stroke="rgb(0,0,0)" stroke-width="0.0" fill="rgb(0,0,0)" stroke-linecap="butt" stroke-miterlimit="10.0"></g><g stroke-linejoin="miter" stroke-opacity="1.0" fill-opacity="1.0" stroke="rgb(0,0,0)" stroke-width="0.0" fill="rgb(0,0,0)" stroke-linecap="butt" stroke-miterlimit="10.0"></g><g stroke-linejoin="miter" stroke-opacity="1.0" fill-opacity="1.0" stroke="rgb(0,0,0)" stroke-width="0.0" fill="rgb(0,0,0)" stroke-linecap="butt" stroke-miterlimit="10.0"></g><g stroke-linejoin="miter" stroke-opacity="1.0" fill-opacity="1.0" stroke="rgb(0,0,0)" stroke-width="0.0" fill="rgb(0,0,0)" stroke-linecap="butt" stroke-miterlimit="10.0"></g><g stroke-linejoin="miter" stroke-opacity="1.0" fill-opacity="0.0" stroke="rgb(0,0,0)" stroke-width="1.0" fill="rgb(0,0,0)" stroke-linecap="butt" stroke-miterlimit="10.0"><path d="M 22.2517,96.3275 c 3.4230,-0.9335 6.8459,-1.8671 10.0822 -1.8671c 3.2362,-0.0000 6.2858,0.9335 9.3353 1.8671"/></g><g stroke-linejoin="miter" stroke-opacity="1.0" fill-opacity="1.0" stroke="rgb(0,0,0)" stroke-width="0.0" fill="rgb(0,0,0)" stroke-linecap="butt" stroke-miterlimit="10.0"></g><g stroke-linejoin="miter" stroke-opacity="1.0" fill-opacity="1.0" stroke="rgb(0,0,0)" stroke-width="0.0" fill="rgb(0,0,0)" stroke-linecap="butt" stroke-miterlimit="10.0"></g><g stroke-linejoin="miter" stroke-opacity="1.0" fill-opacity="1.0" stroke="rgb(0,0,0)" stroke-width="0.0" fill="rgb(0,0,0)" stroke-linecap="butt" stroke-miterlimit="10.0"></g><g stroke-linejoin="miter" stroke-opacity="1.0" fill-opacity="1.0" stroke="rgb(0,0,0)" stroke-width="0.0" fill="rgb(0,0,0)" stroke-linecap="butt" stroke-miterlimit="10.0"></g><g stroke-linejoin="miter" stroke-opacity="1.0" fill-opacity="0.0" stroke="rgb(0,0,0)" stroke-width="1.0" fill="rgb(0,0,0)" stroke-linecap="butt" stroke-miterlimit="10.0"><path d="M 29.1262,77.9966 c 8.5574,-2.3338 17.1148,-4.6677 25.2054 -4.6677c 8.0906,-0.0000 15.7145,2.3338 23.3383 4.6677"/></g><g stroke-linejoin="miter" stroke-opacity="1.0" fill-opacity="1.0" stroke="rgb(0,0,0)" stroke-width="0.0" fill="rgb(0,0,0)" stroke-linecap="butt" stroke-miterlimit="10.0"></g><g stroke-linejoin="miter" stroke-opacity="1.0" fill-opacity="1.0" stroke="rgb(0,0,0)" stroke-width="0.0" fill="rgb(0,0,0)" stroke-linecap="butt" stroke-miterlimit="10.0"></g><g stroke-linejoin="miter" stroke-opacity="1.0" fill-opacity="1.0" stroke="rgb(0,0,0)" stroke-width="0.0" fill="rgb(0,0,0)" stroke-linecap="butt" stroke-miterlimit="10.0"></g><g stroke-linejoin="miter" stroke-opacity="1.0" fill-opacity="1.0" stroke="rgb(0,0,0)" stroke-width="0.0" fill="rgb(0,0,0)" stroke-linecap="butt" stroke-miterlimit="10.0"></g><g stroke-linejoin="miter" stroke-opacity="1.0" fill-opacity="1.0" font-size="12.135922330097085px" stroke="rgb(0,0,0)" stroke-width="1.0166647281820587" fill="rgb(0,0,0)" stroke-linecap="butt" stroke-miterlimit="10.0"><text dominant-baseline="middle" transform="matrix(1.0000,0.0000,0.0000,1.0000,155.3398,17.1303)" stroke="none" text-anchor="middle">Burst</text></g><g stroke-linejoin="miter" stroke-opacity="1.0" fill-opacity="0.0" stroke="rgb(0,0,0)" stroke-width="1.0166647281820587" fill="rgb(0,0,0)" stroke-linecap="butt" stroke-miterlimit="10.0"><path d="M 191.7476,29.2662 l -63.9197,-0.0000 "/></g><g stroke-linejoin="miter" stroke-opacity="1.0" fill-opacity="1.0" stroke="rgb(0,0,0)" stroke-width="0.0" fill="rgb(0,0,0)" stroke-linecap="butt" stroke-miterlimit="10.0"></g><g stroke-linejoin="miter" stroke-opacity="1.0" fill-opacity="1.0" stroke="rgb(0,0,0)" stroke-width="0.0" fill="rgb(0,0,0)" stroke-linecap="butt" stroke-miterlimit="10.0"></g><g stroke-linejoin="miter" stroke-opacity="1.0" fill-opacity="1.0" stroke="rgb(0,0,0)" stroke-width="0.0" fill="rgb(0,0,0)" stroke-linecap="butt" stroke-miterlimit="10.0"><path d="M 118.9320,29.2662 l 10.4062,3.3812 l -1.7776,-3.3812 l 1.7776,-3.3812 Z"/></g><g stroke-linejoin="miter" stroke-opacity="1.0" fill-opacity="1.0" stroke="rgb(0,0,0)" stroke-width="0.0" fill="rgb(0,0,0)" stroke-linecap="butt" stroke-miterlimit="10.0"><path d="M 127.5606,29.2662 l 0.2672,0.0000 l -0.0000,0.5083 l -0.2672,-0.5083 l 0.2672,0.0000 l 0.0000,-0.5083 Z"/></g><g stroke-linejoin="miter" stroke-opacity="1.0" fill-opacity="1.0" font-size="12.135922330097085px" stroke="rgb(0,0,0)" stroke-width="1.0166647281820587" fill="rgb(0,0,0)" stroke-linecap="butt" stroke-miterlimit="10.0"><text dominant-baseline="middle" transform="matrix(1.0000,0.0000,0.0000,1.0000,349.5146,17.1303)" stroke="none" text-anchor="middle">Equal</text></g><g stroke-linejoin="miter" stroke-opacity="1.0" fill-opacity="0.0" stroke="rgb(0,0,0)" stroke-width="1.0166647281820587" fill="rgb(0,0,0)" stroke-linecap="butt" stroke-miterlimit="10.0"><path d="M 313.1068,29.2662 h 63.9197 "/></g><g stroke-linejoin="miter" stroke-opacity="1.0" fill-opacity="1.0" stroke="rgb(0,0,0)" stroke-width="0.0" fill="rgb(0,0,0)" stroke-linecap="butt" stroke-miterlimit="10.0"></g><g stroke-linejoin="miter" stroke-opacity="1.0" fill-opacity="1.0" stroke="rgb(0,0,0)" stroke-width="0.0" fill="rgb(0,0,0)" stroke-linecap="butt" stroke-miterlimit="10.0"></g><g stroke-linejoin="miter" stroke-opacity="1.0" fill-opacity="1.0" stroke="rgb(0,0,0)" stroke-width="0.0" fill="rgb(0,0,0)" stroke-linecap="butt" stroke-miterlimit="10.0"><path d="M 385.9223,29.2662 l -10.4062,-3.3812 l 1.7776,3.3812 l -1.7776,3.3812 Z"/></g><g stroke-linejoin="miter" stroke-opacity="1.0" fill-opacity="1.0" stroke="rgb(0,0,0)" stroke-width="0.0" fill="rgb(0,0,0)" stroke-linecap="butt" stroke-miterlimit="10.0"><path d="M 377.2938,29.2662 h -0.2672 v -0.5083 l 0.2672,0.5083 h -0.2672 v 0.5083 Z"/></g><g stroke-linejoin="miter" stroke-opacity="1.0" fill-opacity="0.0" stroke="rgb(0,0,0)" stroke-width="1.0166647281820587" fill="rgb(0,0,0)" stroke-linecap="butt" stroke-miterlimit="10.0"><path d="M 385.9223,29.2662 l -63.9197,-0.0000 "/></g><g stroke-linejoin="miter" stroke-opacity="1.0" fill-opacity="1.0" stroke="rgb(0,0,0)" stroke-width="0.0" fill="rgb(0,0,0)" stroke-linecap="butt" stroke-miterlimit="10.0"></g><g stroke-linejoin="miter" stroke-opacity="1.0" fill-opacity="1.0" stroke="rgb(0,0,0)" stroke-width="0.0" fill="rgb(0,0,0)" stroke-linecap="butt" stroke-miterlimit="10.0"></g><g stroke-linejoin="miter" stroke-opacity="1.0" fill-opacity="1.0" stroke="rgb(0,0,0)" stroke-width="0.0" fill="rgb(0,0,0)" stroke-linecap="butt" stroke-miterlimit="10.0"><path d="M 313.1068,29.2662 l 10.4062,3.3812 l -1.7776,-3.3812 l 1.7776,-3.3812 Z"/></g><g stroke-linejoin="miter" stroke-opacity="1.0" fill-opacity="1.0" stroke="rgb(0,0,0)" stroke-width="0.0" fill="rgb(0,0,0)" stroke-linecap="butt" stroke-miterlimit="10.0"><path d="M 321.7354,29.2662 l 0.2672,0.0000 l -0.0000,0.5083 l -0.2672,-0.5083 l 0.2672,0.0000 l 0.0000,-0.5083 Z"/></g><g stroke-linejoin="miter" stroke-opacity="1.0" fill-opacity="1.0" stroke="rgb(0,128,0)" stroke-width="1.2135922330097089" fill="rgb(144,238,144)" stroke-linecap="butt" stroke-miterlimit="10.0"><path d="M 495.1456,31.6001 c 0.0000,-13.4050 -10.8669,-24.2718 -24.2718 -24.2718c -13.4050,-0.0000 -24.2718,10.8669 -24.2718 24.2718c -0.0000,13.4050 10.8669,24.2718 24.2718 24.2718c 13.4050,0.0000 24.2718,-10.8669 24.2718 -24.2718Z"/></g><g stroke-linejoin="miter" stroke-opacity="1.0" fill-opacity="1.0" stroke="rgb(0,0,0)" stroke-width="0.0" fill="rgb(0,0,255)" stroke-linecap="butt" stroke-miterlimit="10.0"><path d="M 490.2913,32.5336 c 0.0000,-3.7967 -3.0778,-6.8745 -6.8745 -6.8745c -3.7967,-0.0000 -6.8745,3.0778 -6.8745 6.8745c -0.0000,3.7967 3.0778,6.8745 6.8745 6.8745c 3.7967,0.0000 6.8745,-3.0778 6.8745 -6.8745Z"/></g><g stroke-linejoin="miter" stroke-opacity="1.0" fill-opacity="1.0" stroke="rgb(0,0,0)" stroke-width="0.0" fill="rgb(255,0,0)" stroke-linecap="butt" stroke-miterlimit="10.0"><path d="M 476.5422,33.1366 c 0.0000,-3.4636 -2.8078,-6.2715 -6.2715 -6.2715c -3.4636,-0.0000 -6.2715,2.8078 -6.2715 6.2715c -0.0000,3.4636 2.8078,6.2715 6.2715 6.2715c 3.4636,0.0000 6.2715,-2.8078 6.2715 -6.2715Z"/></g><g stroke-linejoin="miter" stroke-opacity="1.0" fill-opacity="1.0" stroke="rgb(0,0,0)" stroke-width="0.0" fill="rgb(0,128,0)" stroke-linecap="butt" stroke-miterlimit="10.0"><path d="M 463.9993,33.1366 c 0.0000,-3.4636 -2.8078,-6.2715 -6.2715 -6.2715c -3.4636,-0.0000 -6.2715,2.8078 -6.2715 6.2715c -0.0000,3.4636 2.8078,6.2715 6.2715 6.2715c 3.4636,0.0000 6.2715,-2.8078 6.2715 -6.2715Z"/></g><g stroke-linejoin="miter" stroke-opacity="1.0" fill-opacity="0.0" stroke="rgb(0,0,0)" stroke-width="1.0" fill="rgb(0,0,0)" stroke-linecap="butt" stroke-miterlimit="10.0"><path d="M 457.7278,26.8652 c 2.2111,-0.6030 4.4222,-1.2061 6.5127 -1.2061c 2.0905,0.0000 4.0604,0.6030 6.0303 1.2061"/></g><g stroke-linejoin="miter" stroke-opacity="1.0" fill-opacity="1.0" stroke="rgb(0,0,0)" stroke-width="0.0" fill="rgb(0,0,0)" stroke-linecap="butt" stroke-miterlimit="10.0"></g><g stroke-linejoin="miter" stroke-opacity="1.0" fill-opacity="1.0" stroke="rgb(0,0,0)" stroke-width="0.0" fill="rgb(0,0,0)" stroke-linecap="butt" stroke-miterlimit="10.0"></g><g stroke-linejoin="miter" stroke-opacity="1.0" fill-opacity="1.0" stroke="rgb(0,0,0)" stroke-width="0.0" fill="rgb(0,0,0)" stroke-linecap="butt" stroke-miterlimit="10.0"></g><g stroke-linejoin="miter" stroke-opacity="1.0" fill-opacity="1.0" stroke="rgb(0,0,0)" stroke-width="0.0" fill="rgb(0,0,0)" stroke-linecap="butt" stroke-miterlimit="10.0"></g><g stroke-linejoin="miter" stroke-opacity="1.0" fill-opacity="0.0" stroke="rgb(0,0,0)" stroke-width="1.0" fill="rgb(0,0,0)" stroke-linecap="butt" stroke-miterlimit="10.0"><path d="M 463.9993,25.6591 c 3.4230,-0.9335 6.8459,-1.8671 10.0822 -1.8671c 3.2362,-0.0000 6.2858,0.9335 9.3353 1.8671"/></g><g stroke-linejoin="miter" stroke-opacity="1.0" fill-opacity="1.0" stroke="rgb(0,0,0)" stroke-width="0.0" fill="rgb(0,0,0)" stroke-linecap="butt" stroke-miterlimit="10.0"></g><g stroke-linejoin="miter" stroke-opacity="1.0" fill-opacity="1.0" stroke="rgb(0,0,0)" stroke-width="0.0" fill="rgb(0,0,0)" stroke-linecap="butt" stroke-miterlimit="10.0"></g><g stroke-linejoin="miter" stroke-opacity="1.0" fill-opacity="1.0" stroke="rgb(0,0,0)" stroke-width="0.0" fill="rgb(0,0,0)" stroke-linecap="butt" stroke-miterlimit="10.0"></g><g stroke-linejoin="miter" stroke-opacity="1.0" fill-opacity="1.0" stroke="rgb(0,0,0)" stroke-width="0.0" fill="rgb(0,0,0)" stroke-linecap="butt" stroke-miterlimit="10.0"></g><g stroke-linejoin="miter" stroke-opacity="1.0" fill-opacity="1.0" stroke="rgb(0,0,0)" stroke-width="0.0" fill="rgb(0,0,0)" stroke-linecap="butt" stroke-miterlimit="10.0"><path d="M 446.6019,31.6001 c 0.0000,-13.4050 -10.8669,-24.2718 -24.2718 -24.2718c -13.4050,-0.0000 -24.2718,10.8669 -24.2718 24.2718c -0.0000,13.4050 10.8669,24.2718 24.2718 24.2718c 13.4050,0.0000 24.2718,-10.8669 24.2718 -24.2718Z"/></g><g stroke-linejoin="miter" stroke-opacity="1.0" fill-opacity="1.0" font-size="36.407766990291265px" stroke="rgb(0,0,0)" stroke-width="1.0166647281820587" fill="rgb(255,255,255)" stroke-linecap="butt" stroke-miterlimit="10.0"><text dominant-baseline="middle" transform="matrix(1.0000,0.0000,0.0000,1.0000,422.3301,38.8816)" stroke="none" text-anchor="middle">F</text></g><g stroke-linejoin="miter" stroke-opacity="1.0" fill-opacity="0.0" stroke="rgb(0,0,0)" stroke-width="1.0" fill="rgb(0,0,0)" stroke-linecap="butt" stroke-miterlimit="10.0"><path d="M 422.3301,7.3282 c 8.5574,-2.3338 17.1148,-4.6677 25.2054 -4.6677c 8.0906,-0.0000 15.7145,2.3338 23.3383 4.6677"/></g><g stroke-linejoin="miter" stroke-opacity="1.0" fill-opacity="1.0" stroke="rgb(0,0,0)" stroke-width="0.0" fill="rgb(0,0,0)" stroke-linecap="butt" stroke-miterlimit="10.0"></g><g stroke-linejoin="miter" stroke-opacity="1.0" fill-opacity="1.0" stroke="rgb(0,0,0)" stroke-width="0.0" fill="rgb(0,0,0)" stroke-linecap="butt" stroke-miterlimit="10.0"></g><g stroke-linejoin="miter" stroke-opacity="1.0" fill-opacity="1.0" stroke="rgb(0,0,0)" stroke-width="0.0" fill="rgb(0,0,0)" stroke-linecap="butt" stroke-miterlimit="10.0"></g><g stroke-linejoin="miter" stroke-opacity="1.0" fill-opacity="1.0" stroke="rgb(0,0,0)" stroke-width="0.0" fill="rgb(0,0,0)" stroke-linecap="butt" stroke-miterlimit="10.0"></g><g stroke-linejoin="miter" stroke-opacity="1.0" fill-opacity="1.0" stroke="rgb(0,128,0)" stroke-width="1.2135922330097089" fill="rgb(144,238,144)" stroke-linecap="butt" stroke-miterlimit="10.0"><path d="M 296.1165,31.6001 c 0.0000,-13.4050 -10.8669,-24.2718 -24.2718 -24.2718c -13.4050,-0.0000 -24.2718,10.8669 -24.2718 24.2718c -0.0000,13.4050 10.8669,24.2718 24.2718 24.2718c 13.4050,0.0000 24.2718,-10.8669 24.2718 -24.2718Z"/></g><g stroke-linejoin="miter" stroke-opacity="1.0" fill-opacity="1.0" stroke="rgb(0,0,0)" stroke-width="0.0" fill="rgb(0,0,255)" stroke-linecap="butt" stroke-miterlimit="10.0"><path d="M 291.2621,32.5336 c 0.0000,-3.7967 -3.0778,-6.8745 -6.8745 -6.8745c -3.7967,-0.0000 -6.8745,3.0778 -6.8745 6.8745c -0.0000,3.7967 3.0778,6.8745 6.8745 6.8745c 3.7967,0.0000 6.8745,-3.0778 6.8745 -6.8745Z"/></g><g stroke-linejoin="miter" stroke-opacity="1.0" fill-opacity="1.0" stroke="rgb(0,0,0)" stroke-width="0.0" fill="rgb(255,0,0)" stroke-linecap="butt" stroke-miterlimit="10.0"><path d="M 277.5131,33.1366 c 0.0000,-3.4636 -2.8078,-6.2715 -6.2715 -6.2715c -3.4636,-0.0000 -6.2715,2.8078 -6.2715 6.2715c -0.0000,3.4636 2.8078,6.2715 6.2715 6.2715c 3.4636,0.0000 6.2715,-2.8078 6.2715 -6.2715Z"/></g><g stroke-linejoin="miter" stroke-opacity="1.0" fill-opacity="1.0" stroke="rgb(0,0,0)" stroke-width="0.0" fill="rgb(0,128,0)" stroke-linecap="butt" stroke-miterlimit="10.0"><path d="M 264.9702,33.1366 c 0.0000,-3.4636 -2.8078,-6.2715 -6.2715 -6.2715c -3.4636,-0.0000 -6.2715,2.8078 -6.2715 6.2715c -0.0000,3.4636 2.8078,6.2715 6.2715 6.2715c 3.4636,0.0000 6.2715,-2.8078 6.2715 -6.2715Z"/></g><g stroke-linejoin="miter" stroke-opacity="1.0" fill-opacity="0.0" stroke="rgb(0,0,0)" stroke-width="1.0" fill="rgb(0,0,0)" stroke-linecap="butt" stroke-miterlimit="10.0"><path d="M 258.6987,26.8652 c 2.2111,-0.6030 4.4222,-1.2061 6.5127 -1.2061c 2.0905,0.0000 4.0604,0.6030 6.0303 1.2061"/></g><g stroke-linejoin="miter" stroke-opacity="1.0" fill-opacity="1.0" stroke="rgb(0,0,0)" stroke-width="0.0" fill="rgb(0,0,0)" stroke-linecap="butt" stroke-miterlimit="10.0"></g><g stroke-linejoin="miter" stroke-opacity="1.0" fill-opacity="1.0" stroke="rgb(0,0,0)" stroke-width="0.0" fill="rgb(0,0,0)" stroke-linecap="butt" stroke-miterlimit="10.0"></g><g stroke-linejoin="miter" stroke-opacity="1.0" fill-opacity="1.0" stroke="rgb(0,0,0)" stroke-width="0.0" fill="rgb(0,0,0)" stroke-linecap="butt" stroke-miterlimit="10.0"></g><g stroke-linejoin="miter" stroke-opacity="1.0" fill-opacity="1.0" stroke="rgb(0,0,0)" stroke-width="0.0" fill="rgb(0,0,0)" stroke-linecap="butt" stroke-miterlimit="10.0"></g><g stroke-linejoin="miter" stroke-opacity="1.0" fill-opacity="0.0" stroke="rgb(0,0,0)" stroke-width="1.0" fill="rgb(0,0,0)" stroke-linecap="butt" stroke-miterlimit="10.0"><path d="M 264.9702,25.6591 c 3.4230,-0.9335 6.8459,-1.8671 10.0822 -1.8671c 3.2362,-0.0000 6.2858,0.9335 9.3353 1.8671"/></g><g stroke-linejoin="miter" stroke-opacity="1.0" fill-opacity="1.0" stroke="rgb(0,0,0)" stroke-width="0.0" fill="rgb(0,0,0)" stroke-linecap="butt" stroke-miterlimit="10.0"></g><g stroke-linejoin="miter" stroke-opacity="1.0" fill-opacity="1.0" stroke="rgb(0,0,0)" stroke-width="0.0" fill="rgb(0,0,0)" stroke-linecap="butt" stroke-miterlimit="10.0"></g><g stroke-linejoin="miter" stroke-opacity="1.0" fill-opacity="1.0" stroke="rgb(0,0,0)" stroke-width="0.0" fill="rgb(0,0,0)" stroke-linecap="butt" stroke-miterlimit="10.0"></g><g stroke-linejoin="miter" stroke-opacity="1.0" fill-opacity="1.0" stroke="rgb(0,0,0)" stroke-width="0.0" fill="rgb(0,0,0)" stroke-linecap="butt" stroke-miterlimit="10.0"></g><g stroke-linejoin="miter" stroke-opacity="1.0" fill-opacity="1.0" stroke="rgb(0,0,255)" stroke-width="1.2135922330097089" fill="rgb(173,216,230)" stroke-linecap="butt" stroke-miterlimit="10.0"><path d="M 247.5728,31.6001 c 0.0000,-13.4050 -10.8669,-24.2718 -24.2718 -24.2718c -13.4050,-0.0000 -24.2718,10.8669 -24.2718 24.2718c -0.0000,13.4050 10.8669,24.2718 24.2718 24.2718c 13.4050,0.0000 24.2718,-10.8669 24.2718 -24.2718Z"/></g><g stroke-linejoin="miter" stroke-opacity="1.0" fill-opacity="1.0" stroke="rgb(255,0,0)" stroke-width="0.4854368932038835" fill="rgb(255,192,203)" stroke-linecap="butt" stroke-miterlimit="10.0"><path d="M 242.7184,32.5336 c 0.0000,-5.3620 -4.3468,-9.7087 -9.7087 -9.7087c -5.3620,-0.0000 -9.7087,4.3468 -9.7087 9.7087c -0.0000,5.3620 4.3468,9.7087 9.7087 9.7087c 5.3620,0.0000 9.7087,-4.3468 9.7087 -9.7087Z"/></g><g stroke-linejoin="miter" stroke-opacity="1.0" fill-opacity="1.0" stroke="rgb(0,128,0)" stroke-width="0.38834951456310685" fill="rgb(144,238,144)" stroke-linecap="butt" stroke-miterlimit="10.0"><path d="M 240.7767,32.5336 c 0.0000,-4.2896 -3.4774,-7.7670 -7.7670 -7.7670c -4.2896,-0.0000 -7.7670,3.4774 -7.7670 7.7670c -0.0000,4.2896 3.4774,7.7670 7.7670 7.7670c 4.2896,0.0000 7.7670,-3.4774 7.7670 -7.7670Z"/></g><g stroke-linejoin="miter" stroke-opacity="1.0" fill-opacity="1.0" stroke="rgb(0,0,0)" stroke-width="0.0" fill="rgb(255,0,0)" stroke-linecap="butt" stroke-miterlimit="10.0"><path d="M 239.2233,32.5336 c 0.0000,-3.4317 -2.7819,-6.2136 -6.2136 -6.2136c -3.4317,-0.0000 -6.2136,2.7819 -6.2136 6.2136c -0.0000,3.4317 2.7819,6.2136 6.2136 6.2136c 3.4317,0.0000 6.2136,-2.7819 6.2136 -6.2136Z"/></g><g stroke-linejoin="miter" stroke-opacity="1.0" fill-opacity="1.0" stroke="rgb(0,0,0)" stroke-width="0.0" fill="rgb(0,0,255)" stroke-linecap="butt" stroke-miterlimit="10.0"><path d="M 223.3010,32.5336 c 0.0000,-5.3620 -4.3468,-9.7087 -9.7087 -9.7087c -5.3620,-0.0000 -9.7087,4.3468 -9.7087 9.7087c -0.0000,5.3620 4.3468,9.7087 9.7087 9.7087c 5.3620,0.0000 9.7087,-4.3468 9.7087 -9.7087Z"/></g><g stroke-linejoin="miter" stroke-opacity="1.0" fill-opacity="0.0" stroke="rgb(0,0,0)" stroke-width="1.0" fill="rgb(0,0,0)" stroke-linecap="butt" stroke-miterlimit="10.0"><path d="M 213.5922,22.8249 c 3.4230,-0.9335 6.8459,-1.8671 10.0822 -1.8671c 3.2362,-0.0000 6.2858,0.9335 9.3353 1.8671"/></g><g stroke-linejoin="miter" stroke-opacity="1.0" fill-opacity="1.0" stroke="rgb(0,0,0)" stroke-width="0.0" fill="rgb(0,0,0)" stroke-linecap="butt" stroke-miterlimit="10.0"></g><g stroke-linejoin="miter" stroke-opacity="1.0" fill-opacity="1.0" stroke="rgb(0,0,0)" stroke-width="0.0" fill="rgb(0,0,0)" stroke-linecap="butt" stroke-miterlimit="10.0"></g><g stroke-linejoin="miter" stroke-opacity="1.0" fill-opacity="1.0" stroke="rgb(0,0,0)" stroke-width="0.0" fill="rgb(0,0,0)" stroke-linecap="butt" stroke-miterlimit="10.0"></g><g stroke-linejoin="miter" stroke-opacity="1.0" fill-opacity="1.0" stroke="rgb(0,0,0)" stroke-width="0.0" fill="rgb(0,0,0)" stroke-linecap="butt" stroke-miterlimit="10.0"></g><g stroke-linejoin="miter" stroke-opacity="1.0" fill-opacity="0.0" stroke="rgb(0,0,0)" stroke-width="1.0" fill="rgb(0,0,0)" stroke-linecap="butt" stroke-miterlimit="10.0"><path d="M 223.3010,7.3282 c 8.5574,-2.3338 17.1148,-4.6677 25.2054 -4.6677c 8.0906,-0.0000 15.7145,2.3338 23.3383 4.6677"/></g><g stroke-linejoin="miter" stroke-opacity="1.0" fill-opacity="1.0" stroke="rgb(0,0,0)" stroke-width="0.0" fill="rgb(0,0,0)" stroke-linecap="butt" stroke-miterlimit="10.0"></g><g stroke-linejoin="miter" stroke-opacity="1.0" fill-opacity="1.0" stroke="rgb(0,0,0)" stroke-width="0.0" fill="rgb(0,0,0)" stroke-linecap="butt" stroke-miterlimit="10.0"></g><g stroke-linejoin="miter" stroke-opacity="1.0" fill-opacity="1.0" stroke="rgb(0,0,0)" stroke-width="0.0" fill="rgb(0,0,0)" stroke-linecap="butt" stroke-miterlimit="10.0"></g><g stroke-linejoin="miter" stroke-opacity="1.0" fill-opacity="1.0" stroke="rgb(0,0,0)" stroke-width="0.0" fill="rgb(0,0,0)" stroke-linecap="butt" stroke-miterlimit="10.0"></g><g stroke-linejoin="miter" stroke-opacity="1.0" fill-opacity="1.0" stroke="rgb(255,0,0)" stroke-width="1.2135922330097089" fill="rgb(255,192,203)" stroke-linecap="butt" stroke-miterlimit="10.0"><path d="M 101.9417,31.6001 c 0.0000,-13.4050 -10.8669,-24.2718 -24.2718 -24.2718c -13.4050,-0.0000 -24.2718,10.8669 -24.2718 24.2718c -0.0000,13.4050 10.8669,24.2718 24.2718 24.2718c 13.4050,0.0000 24.2718,-10.8669 24.2718 -24.2718Z"/></g><g stroke-linejoin="miter" stroke-opacity="1.0" fill-opacity="1.0" stroke="rgb(0,128,0)" stroke-width="0.9708737864077671" fill="rgb(144,238,144)" stroke-linecap="butt" stroke-miterlimit="10.0"><path d="M 97.0874,31.6001 c 0.0000,-10.7240 -8.6935,-19.4175 -19.4175 -19.4175c -10.7240,-0.0000 -19.4175,8.6935 -19.4175 19.4175c -0.0000,10.7240 8.6935,19.4175 19.4175 19.4175c 10.7240,0.0000 19.4175,-8.6935 19.4175 -19.4175Z"/></g><g stroke-linejoin="miter" stroke-opacity="1.0" fill-opacity="1.0" stroke="rgb(0,0,0)" stroke-width="0.0" fill="rgb(255,0,0)" stroke-linecap="butt" stroke-miterlimit="10.0"><path d="M 93.2039,31.6001 c 0.0000,-8.5792 -6.9548,-15.5340 -15.5340 -15.5340c -8.5792,-0.0000 -15.5340,6.9548 -15.5340 15.5340c -0.0000,8.5792 6.9548,15.5340 15.5340 15.5340c 8.5792,0.0000 15.5340,-6.9548 15.5340 -15.5340Z"/></g><g stroke-linejoin="miter" stroke-opacity="1.0" fill-opacity="1.0" stroke="rgb(0,128,0)" stroke-width="1.2135922330097089" fill="rgb(144,238,144)" stroke-linecap="butt" stroke-miterlimit="10.0"><path d="M 53.3981,31.6001 c 0.0000,-13.4050 -10.8669,-24.2718 -24.2718 -24.2718c -13.4050,-0.0000 -24.2718,10.8669 -24.2718 24.2718c -0.0000,13.4050 10.8669,24.2718 24.2718 24.2718c 13.4050,0.0000 24.2718,-10.8669 24.2718 -24.2718Z"/></g><g stroke-linejoin="miter" stroke-opacity="1.0" fill-opacity="1.0" stroke="rgb(0,0,0)" stroke-width="0.0" fill="rgb(0,0,255)" stroke-linecap="butt" stroke-miterlimit="10.0"><path d="M 48.5437,32.5336 c 0.0000,-3.7967 -3.0778,-6.8745 -6.8745 -6.8745c -3.7967,-0.0000 -6.8745,3.0778 -6.8745 6.8745c -0.0000,3.7967 3.0778,6.8745 6.8745 6.8745c 3.7967,0.0000 6.8745,-3.0778 6.8745 -6.8745Z"/></g><g stroke-linejoin="miter" stroke-opacity="1.0" fill-opacity="1.0" stroke="rgb(0,0,0)" stroke-width="0.0" fill="rgb(255,0,0)" stroke-linecap="butt" stroke-miterlimit="10.0"><path d="M 34.7947,33.1366 c 0.0000,-3.4636 -2.8078,-6.2715 -6.2715 -6.2715c -3.4636,-0.0000 -6.2715,2.8078 -6.2715 6.2715c -0.0000,3.4636 2.8078,6.2715 6.2715 6.2715c 3.4636,0.0000 6.2715,-2.8078 6.2715 -6.2715Z"/></g><g stroke-linejoin="miter" stroke-opacity="1.0" fill-opacity="1.0" stroke="rgb(0,0,0)" stroke-width="0.0" fill="rgb(0,128,0)" stroke-linecap="butt" stroke-miterlimit="10.0"><path d="M 22.2517,33.1366 c 0.0000,-3.4636 -2.8078,-6.2715 -6.2715 -6.2715c -3.4636,-0.0000 -6.2715,2.8078 -6.2715 6.2715c -0.0000,3.4636 2.8078,6.2715 6.2715 6.2715c 3.4636,0.0000 6.2715,-2.8078 6.2715 -6.2715Z"/></g><g stroke-linejoin="miter" stroke-opacity="1.0" fill-opacity="0.0" stroke="rgb(0,0,0)" stroke-width="1.0" fill="rgb(0,0,0)" stroke-linecap="butt" stroke-miterlimit="10.0"><path d="M 15.9802,26.8652 c 2.2111,-0.6030 4.4222,-1.2061 6.5127 -1.2061c 2.0905,0.0000 4.0604,0.6030 6.0303 1.2061"/></g><g stroke-linejoin="miter" stroke-opacity="1.0" fill-opacity="1.0" stroke="rgb(0,0,0)" stroke-width="0.0" fill="rgb(0,0,0)" stroke-linecap="butt" stroke-miterlimit="10.0"></g><g stroke-linejoin="miter" stroke-opacity="1.0" fill-opacity="1.0" stroke="rgb(0,0,0)" stroke-width="0.0" fill="rgb(0,0,0)" stroke-linecap="butt" stroke-miterlimit="10.0"></g><g stroke-linejoin="miter" stroke-opacity="1.0" fill-opacity="1.0" stroke="rgb(0,0,0)" stroke-width="0.0" fill="rgb(0,0,0)" stroke-linecap="butt" stroke-miterlimit="10.0"></g><g stroke-linejoin="miter" stroke-opacity="1.0" fill-opacity="1.0" stroke="rgb(0,0,0)" stroke-width="0.0" fill="rgb(0,0,0)" stroke-linecap="butt" stroke-miterlimit="10.0"></g><g stroke-linejoin="miter" stroke-opacity="1.0" fill-opacity="0.0" stroke="rgb(0,0,0)" stroke-width="1.0" fill="rgb(0,0,0)" stroke-linecap="butt" stroke-miterlimit="10.0"><path d="M 22.2517,25.6591 c 3.4230,-0.9335 6.8459,-1.8671 10.0822 -1.8671c 3.2362,-0.0000 6.2858,0.9335 9.3353 1.8671"/></g><g stroke-linejoin="miter" stroke-opacity="1.0" fill-opacity="1.0" stroke="rgb(0,0,0)" stroke-width="0.0" fill="rgb(0,0,0)" stroke-linecap="butt" stroke-miterlimit="10.0"></g><g stroke-linejoin="miter" stroke-opacity="1.0" fill-opacity="1.0" stroke="rgb(0,0,0)" stroke-width="0.0" fill="rgb(0,0,0)" stroke-linecap="butt" stroke-miterlimit="10.0"></g><g stroke-linejoin="miter" stroke-opacity="1.0" fill-opacity="1.0" stroke="rgb(0,0,0)" stroke-width="0.0" fill="rgb(0,0,0)" stroke-linecap="butt" stroke-miterlimit="10.0"></g><g stroke-linejoin="miter" stroke-opacity="1.0" fill-opacity="1.0" stroke="rgb(0,0,0)" stroke-width="0.0" fill="rgb(0,0,0)" stroke-linecap="butt" stroke-miterlimit="10.0"></g><g stroke-linejoin="miter" stroke-opacity="1.0" fill-opacity="0.0" stroke="rgb(0,0,0)" stroke-width="1.0" fill="rgb(0,0,0)" stroke-linecap="butt" stroke-miterlimit="10.0"><path d="M 29.1262,7.3282 c 8.5574,-2.3338 17.1148,-4.6677 25.2054 -4.6677c 8.0906,-0.0000 15.7145,2.3338 23.3383 4.6677"/></g><g stroke-linejoin="miter" stroke-opacity="1.0" fill-opacity="1.0" stroke="rgb(0,0,0)" stroke-width="0.0" fill="rgb(0,0,0)" stroke-linecap="butt" stroke-miterlimit="10.0"></g><g stroke-linejoin="miter" stroke-opacity="1.0" fill-opacity="1.0" stroke="rgb(0,0,0)" stroke-width="0.0" fill="rgb(0,0,0)" stroke-linecap="butt" stroke-miterlimit="10.0"></g><g stroke-linejoin="miter" stroke-opacity="1.0" fill-opacity="1.0" stroke="rgb(0,0,0)" stroke-width="0.0" fill="rgb(0,0,0)" stroke-linecap="butt" stroke-miterlimit="10.0"></g><g stroke-linejoin="miter" stroke-opacity="1.0" fill-opacity="1.0" stroke="rgb(0,0,0)" stroke-width="0.0" fill="rgb(0,0,0)" stroke-linecap="butt" stroke-miterlimit="10.0"></g></svg>