<?xml version="1.0" encoding="UTF-8"?>
<!DOCTYPE svg PUBLIC "-//W3C//DTD SVG 1.1//EN"
    "http://www.w3.org/Graphics/SVG/1.1/DTD/svg11.dtd"><svg xmlns="http://www.w3.org/2000/svg" height="98.1528" stroke-opacity="1" viewBox="0 0 500 98" font-size="1" width="500.0000" xmlns:xlink="http://www.w3.org/1999/xlink" stroke="rgb(0,0,0)" version="1.1"><defs></defs><g stroke-linejoin="miter" stroke-opacity="1.0" fill-opacity="1.0" font-size="11.15372573575454px" stroke="rgb(0,0,0)" stroke-width="0.8861276949724117" fill="rgb(0,0,0)" stroke-linecap="butt" stroke-miterlimit="10.0"><text dominant-baseline="middle" transform="matrix(1.0000,0.0000,0.0000,1.0000,183.2342,37.9227)" stroke="none" text-anchor="middle">Burst</text></g><g stroke-linejoin="miter" stroke-opacity="1.0" fill-opacity="0.0" stroke="rgb(0,0,0)" stroke-width="0.8861276949724117" fill="rgb(0,0,0)" stroke-linecap="butt" stroke-miterlimit="10.0"><path d="M 149.7730,49.0764 h 59.1687 "/></g><g stroke-linejoin="miter" stroke-opacity="1.0" fill-opacity="1.0" stroke="rgb(0,0,0)" stroke-width="0.0" fill="rgb(0,0,0)" stroke-linecap="butt" stroke-miterlimit="10.0"></g><g stroke-linejoin="miter" stroke-opacity="1.0" fill-opacity="1.0" stroke="rgb(0,0,0)" stroke-width="0.0" fill="rgb(0,0,0)" stroke-linecap="butt" stroke-miterlimit="10.0"></g><g stroke-linejoin="miter" stroke-opacity="1.0" fill-opacity="1.0" stroke="rgb(0,0,0)" stroke-width="0.0" fill="rgb(0,0,0)" stroke-linecap="butt" stroke-miterlimit="10.0"><path d="M 216.6954,49.0764 l -9.0700,-2.9470 l 1.5493,2.9470 l -1.5493,2.9470 Z"/></g><g stroke-linejoin="miter" stroke-opacity="1.0" fill-opacity="1.0" stroke="rgb(0,0,0)" stroke-width="0.0" fill="rgb(0,0,0)" stroke-linecap="butt" stroke-miterlimit="10.0"><path d="M 209.1747,49.0764 h -0.2329 v -0.4431 l 0.2329,0.4431 h -0.2329 v 0.4431 Z"/></g><g stroke-linejoin="miter" stroke-opacity="1.0" fill-opacity="1.0" font-size="11.15372573575454px" stroke="rgb(0,0,0)" stroke-width="0.8861276949724117" fill="rgb(0,0,0)" stroke-linecap="butt" stroke-miterlimit="10.0"><text dominant-baseline="middle" transform="matrix(1.0000,0.0000,0.0000,1.0000,361.6938,37.9227)" stroke="none" text-anchor="middle">Burst</text></g><g stroke-linejoin="miter" stroke-opacity="1.0" fill-opacity="0.0" stroke="rgb(0,0,0)" stroke-width="0.8861276949724117" fill="rgb(0,0,0)" stroke-linecap="butt" stroke-miterlimit="10.0"><path d="M 328.2326,49.0764 h 59.1687 "/></g><g stroke-linejoin="miter" stroke-opacity="1.0" fill-opacity="1.0" stroke="rgb(0,0,0)" stroke-width="0.0" fill="rgb(0,0,0)" stroke-linecap="butt" stroke-miterlimit="10.0"></g><g stroke-linejoin="miter" stroke-opacity="1.0" fill-opacity="1.0" stroke="rgb(0,0,0)" stroke-width="0.0" fill="rgb(0,0,0)" stroke-linecap="butt" stroke-miterlimit="10.0"></g><g stroke-linejoin="miter" stroke-opacity="1.0" fill-opacity="1.0" stroke="rgb(0,0,0)" stroke-width="0.0" fill="rgb(0,0,0)" stroke-linecap="butt" stroke-miterlimit="10.0"><path d="M 395.1550,49.0764 l -9.0700,-2.9470 l 1.5493,2.9470 l -1.5493,2.9470 Z"/></g><g stroke-linejoin="miter" stroke-opacity="1.0" fill-opacity="1.0" stroke="rgb(0,0,0)" stroke-width="0.0" fill="rgb(0,0,0)" stroke-linecap="butt" stroke-miterlimit="10.0"><path d="M 387.6343,49.0764 h -0.2329 v -0.4431 l 0.2329,0.4431 h -0.2329 v 0.4431 Z"/></g><g stroke-linejoin="miter" stroke-opacity="1.0" fill-opacity="1.0" stroke="rgb(0,0,0)" stroke-width="0.0" fill="rgb(0,0,255)" stroke-linecap="butt" stroke-miterlimit="10.0"><path d="M 495.5385,49.0764 c 0.0000,-24.6401 -19.9748,-44.6149 -44.6149 -44.6149c -24.6401,-0.0000 -44.6149,19.9748 -44.6149 44.6149c -0.0000,24.6401 19.9748,44.6149 44.6149 44.6149c 24.6401,0.0000 44.6149,-19.9748 44.6149 -44.6149Z"/></g><g stroke-linejoin="miter" stroke-opacity="1.0" fill-opacity="1.0" stroke="rgb(0,0,0)" stroke-width="0.0" fill="rgb(0,0,255)" stroke-linecap="butt" stroke-miterlimit="10.0"><path d="M 312.6174,51.2213 c 0.0000,-12.3201 -9.9874,-22.3075 -22.3075 -22.3075c -12.3201,-0.0000 -22.3075,9.9874 -22.3075 22.3075c -0.0000,12.3201 9.9874,22.3075 22.3075 22.3075c 12.3201,0.0000 22.3075,-9.9874 22.3075 -22.3075Z"/></g><g stroke-linejoin="miter" stroke-opacity="1.0" fill-opacity="1.0" stroke="rgb(0,139,139)" stroke-width="1.1153725735754543" fill="rgb(0,255,255)" stroke-linecap="butt" stroke-miterlimit="10.0"><path d="M 268.0025,51.2213 c 0.0000,-12.3201 -9.9874,-22.3075 -22.3075 -22.3075c -12.3201,-0.0000 -22.3075,9.9874 -22.3075 22.3075c -0.0000,12.3201 9.9874,22.3075 22.3075 22.3075c 12.3201,0.0000 22.3075,-9.9874 22.3075 -22.3075Z"/></g><g stroke-linejoin="miter" stroke-opacity="1.0" fill-opacity="1.0" stroke="rgb(0,0,0)" stroke-width="0.0" fill="rgb(0,139,139)" stroke-linecap="butt" stroke-miterlimit="10.0"><path d="M 263.5410,51.2213 c 0.0000,-9.8561 -7.9899,-17.8460 -17.8460 -17.8460c -9.8561,-0.0000 -17.8460,7.9899 -17.8460 17.8460c -0.0000,9.8561 7.9899,17.8460 17.8460 17.8460c 9.8561,0.0000 17.8460,-7.9899 17.8460 -17.8460Z"/></g><g stroke-linejoin="miter" stroke-opacity="1.0" fill-opacity="0.0" stroke="rgb(0,0,0)" stroke-width="1.0" fill="rgb(0,0,0)" stroke-linecap="butt" stroke-miterlimit="10.0"><path d="M 245.6951,28.9139 c 7.8648,-2.1449 15.7296,-4.2899 23.1654 -4.2899c 7.4358,-0.0000 14.4426,2.1449 21.4495 4.2899"/></g><g stroke-linejoin="miter" stroke-opacity="1.0" fill-opacity="1.0" stroke="rgb(0,0,0)" stroke-width="0.0" fill="rgb(0,0,0)" stroke-linecap="butt" stroke-miterlimit="10.0"></g><g stroke-linejoin="miter" stroke-opacity="1.0" fill-opacity="1.0" stroke="rgb(0,0,0)" stroke-width="0.0" fill="rgb(0,0,0)" stroke-linecap="butt" stroke-miterlimit="10.0"></g><g stroke-linejoin="miter" stroke-opacity="1.0" fill-opacity="1.0" stroke="rgb(0,0,0)" stroke-width="0.0" fill="rgb(0,0,0)" stroke-linecap="butt" stroke-miterlimit="10.0"></g><g stroke-linejoin="miter" stroke-opacity="1.0" fill-opacity="1.0" stroke="rgb(0,0,0)" stroke-width="0.0" fill="rgb(0,0,0)" stroke-linecap="butt" stroke-miterlimit="10.0"></g><g stroke-linejoin="miter" stroke-opacity="1.0" fill-opacity="1.0" stroke="rgb(0,0,0)" stroke-width="0.0" fill="rgb(0,0,255)" stroke-linecap="butt" stroke-miterlimit="10.0"><path d="M 132.3184,52.1057 c 0.0000,-12.3201 -9.9874,-22.3075 -22.3075 -22.3075c -12.3201,-0.0000 -22.3075,9.9874 -22.3075 22.3075c -0.0000,12.3201 9.9874,22.3075 22.3075 22.3075c 12.3201,0.0000 22.3075,-9.9874 22.3075 -22.3075Z"/></g><g stroke-linejoin="miter" stroke-opacity="1.0" fill-opacity="1.0" stroke="rgb(0,0,0)" stroke-width="0.0" fill="rgb(255,0,0)" stroke-linecap="butt" stroke-miterlimit="10.0"><path d="M 87.7035,54.0625 c 0.0000,-11.2394 -9.1113,-20.3507 -20.3507 -20.3507c -11.2394,-0.0000 -20.3507,9.1113 -20.3507 20.3507c -0.0000,11.2394 9.1113,20.3507 20.3507 20.3507c 11.2394,0.0000 20.3507,-9.1113 20.3507 -20.3507Z"/></g><g stroke-linejoin="miter" stroke-opacity="1.0" fill-opacity="1.0" stroke="rgb(0,128,0)" stroke-width="1.0175328741390108" fill="rgb(144,238,144)" stroke-linecap="butt" stroke-miterlimit="10.0"><path d="M 47.0022,54.0625 c 0.0000,-11.2394 -9.1113,-20.3507 -20.3507 -20.3507c -11.2394,-0.0000 -20.3507,9.1113 -20.3507 20.3507c -0.0000,11.2394 9.1113,20.3507 20.3507 20.3507c 11.2394,0.0000 20.3507,-9.1113 20.3507 -20.3507Z"/></g><g stroke-linejoin="miter" stroke-opacity="1.0" fill-opacity="1.0" stroke="rgb(0,139,139)" stroke-width="0.8140262993112087" fill="rgb(0,255,255)" stroke-linecap="butt" stroke-miterlimit="10.0"><path d="M 42.9321,54.0625 c 0.0000,-8.9915 -7.2890,-16.2805 -16.2805 -16.2805c -8.9915,-0.0000 -16.2805,7.2890 -16.2805 16.2805c -0.0000,8.9915 7.2890,16.2805 16.2805 16.2805c 8.9915,0.0000 16.2805,-7.2890 16.2805 -16.2805Z"/></g><g stroke-linejoin="miter" stroke-opacity="1.0" fill-opacity="1.0" stroke="rgb(0,0,0)" stroke-width="0.0" fill="rgb(0,139,139)" stroke-linecap="butt" stroke-miterlimit="10.0"><path d="M 39.6760,54.0625 c 0.0000,-7.1932 -5.8312,-13.0244 -13.0244 -13.0244c -7.1932,-0.0000 -13.0244,5.8312 -13.0244 13.0244c -0.0000,7.1932 5.8312,13.0244 13.0244 13.0244c 7.1932,0.0000 13.0244,-5.8312 13.0244 -13.0244Z"/></g><g stroke-linejoin="miter" stroke-opacity="1.0" fill-opacity="0.0" stroke="rgb(0,0,0)" stroke-width="1.0" fill="rgb(0,0,0)" stroke-linecap="butt" stroke-miterlimit="10.0"><path d="M 26.6515,33.7118 c 7.1749,-1.9568 14.3498,-3.9136 21.1334 -3.9136c 6.7836,-0.0000 13.1757,1.9568 19.5679 3.9136"/></g><g stroke-linejoin="miter" stroke-opacity="1.0" fill-opacity="1.0" stroke="rgb(0,0,0)" stroke-width="0.0" fill="rgb(0,0,0)" stroke-linecap="butt" stroke-miterlimit="10.0"></g><g stroke-linejoin="miter" stroke-opacity="1.0" fill-opacity="1.0" stroke="rgb(0,0,0)" stroke-width="0.0" fill="rgb(0,0,0)" stroke-linecap="butt" stroke-miterlimit="10.0"></g><g stroke-linejoin="miter" stroke-opacity="1.0" fill-opacity="1.0" stroke="rgb(0,0,0)" stroke-width="0.0" fill="rgb(0,0,0)" stroke-linecap="butt" stroke-miterlimit="10.0"></g><g stroke-linejoin="miter" stroke-opacity="1.0" fill-opacity="1.0" stroke="rgb(0,0,0)" stroke-width="0.0" fill="rgb(0,0,0)" stroke-linecap="butt" stroke-miterlimit="10.0"></g><g stroke-linejoin="miter" stroke-opacity="1.0" fill-opacity="0.0" stroke="rgb(0,0,0)" stroke-width="1.0" fill="rgb(0,0,0)" stroke-linecap="butt" stroke-miterlimit="10.0"><path d="M 47.0022,29.7982 c 11.1073,-3.0293 22.2146,-6.0585 32.7161 -6.0585c 10.5015,-0.0000 20.3971,3.0293 30.2927 6.0585"/></g><g stroke-linejoin="miter" stroke-opacity="1.0" fill-opacity="1.0" stroke="rgb(0,0,0)" stroke-width="0.0" fill="rgb(0,0,0)" stroke-linecap="butt" stroke-miterlimit="10.0"></g><g stroke-linejoin="miter" stroke-opacity="1.0" fill-opacity="1.0" stroke="rgb(0,0,0)" stroke-width="0.0" fill="rgb(0,0,0)" stroke-linecap="butt" stroke-miterlimit="10.0"></g><g stroke-linejoin="miter" stroke-opacity="1.0" fill-opacity="1.0" stroke="rgb(0,0,0)" stroke-width="0.0" fill="rgb(0,0,0)" stroke-linecap="butt" stroke-miterlimit="10.0"></g><g stroke-linejoin="miter" stroke-opacity="1.0" fill-opacity="1.0" stroke="rgb(0,0,0)" stroke-width="0.0" fill="rgb(0,0,0)" stroke-linecap="butt" stroke-miterlimit="10.0"></g></svg>