<?xml version="1.0" encoding="UTF-8"?>
<!DOCTYPE svg PUBLIC "-//W3C//DTD SVG 1.1//EN"
    "http://www.w3.org/Graphics/SVG/1.1/DTD/svg11.dtd"><svg xmlns="http://www.w3.org/2000/svg" height="95.5938" stroke-opacity="1" viewBox="0 0 500 96" font-size="1" width="500.0000" xmlns:xlink="http://www.w3.org/1999/xlink" stroke="rgb(0,0,0)" version="1.1"><defs></defs><g stroke-linejoin="miter" stroke-opacity="1.0" fill-opacity="1.0" stroke="rgb(255,0,0)" stroke-width="2.17258728464705" fill="rgb(255,192,203)" stroke-linecap="butt" stroke-miterlimit="10.0"><path d="M 495.6548,47.7969 c 0.0000,-23.9977 -19.4540,-43.4517 -43.4517 -43.4517c -23.9977,-0.0000 -43.4517,19.4540 -43.4517 43.4517c -0.0000,23.9977 19.4540,43.4517 43.4517 43.4517c 23.9977,0.0000 43.4517,-19.4540 43.4517 -43.4517Z"/></g><g stroke-linejoin="miter" stroke-opacity="1.0" fill-opacity="1.0" stroke="rgb(0,0,0)" stroke-width="0.0" fill="rgb(0,0,255)" stroke-linecap="butt" stroke-miterlimit="10.0"><path d="M 486.9645,50.5477 c 0.0000,-6.2007 -5.0266,-11.2273 -11.2273 -11.2273c -6.2007,-0.0000 -11.2273,5.0266 -11.2273 11.2273c -0.0000,6.2007 5.0266,11.2273 11.2273 11.2273c 6.2007,0.0000 11.2273,-5.0266 11.2273 -11.2273Z"/></g><g stroke-linejoin="miter" stroke-opacity="1.0" fill-opacity="1.0" stroke="rgb(0,0,0)" stroke-width="0.0" fill="rgb(0,128,0)" stroke-linecap="butt" stroke-miterlimit="10.0"><path d="M 464.5099,50.5477 c 0.0000,-6.2007 -5.0266,-11.2273 -11.2273 -11.2273c -6.2007,-0.0000 -11.2273,5.0266 -11.2273 11.2273c -0.0000,6.2007 5.0266,11.2273 11.2273 11.2273c 6.2007,0.0000 11.2273,-5.0266 11.2273 -11.2273Z"/></g><g stroke-linejoin="miter" stroke-opacity="1.0" fill-opacity="0.0" stroke="rgb(0,0,0)" stroke-width="1.0" fill="rgb(0,0,0)" stroke-linecap="butt" stroke-miterlimit="10.0"><path d="M 453.2826,39.3204 c 3.9583,-1.0795 7.9167,-2.1591 11.6591 -2.1591c 3.7424,0.0000 7.2689,1.0795 10.7955 2.1591"/></g><g stroke-linejoin="miter" stroke-opacity="1.0" fill-opacity="1.0" stroke="rgb(0,0,0)" stroke-width="0.0" fill="rgb(0,0,0)" stroke-linecap="butt" stroke-miterlimit="10.0"></g><g stroke-linejoin="miter" stroke-opacity="1.0" fill-opacity="1.0" stroke="rgb(0,0,0)" stroke-width="0.0" fill="rgb(0,0,0)" stroke-linecap="butt" stroke-miterlimit="10.0"></g><g stroke-linejoin="miter" stroke-opacity="1.0" fill-opacity="1.0" stroke="rgb(0,0,0)" stroke-width="0.0" fill="rgb(0,0,0)" stroke-linecap="butt" stroke-miterlimit="10.0"></g><g stroke-linejoin="miter" stroke-opacity="1.0" fill-opacity="1.0" stroke="rgb(0,0,0)" stroke-width="0.0" fill="rgb(0,0,0)" stroke-linecap="butt" stroke-miterlimit="10.0"></g><g stroke-linejoin="miter" stroke-opacity="1.0" fill-opacity="1.0" stroke="rgb(255,0,0)" stroke-width="0.6153414918006551" fill="rgb(255,192,203)" stroke-linecap="butt" stroke-miterlimit="10.0"><path d="M 442.0553,49.4681 c 0.0000,-6.7969 -5.5100,-12.3068 -12.3068 -12.3068c -6.7969,-0.0000 -12.3068,5.5100 -12.3068 12.3068c -0.0000,6.7969 5.5100,12.3068 12.3068 12.3068c 6.7969,0.0000 12.3068,-5.5100 12.3068 -12.3068Z"/></g><g stroke-linejoin="miter" stroke-opacity="1.0" fill-opacity="1.0" stroke="rgb(0,0,255)" stroke-width="0.24613659672026206" fill="rgb(173,216,230)" stroke-linecap="butt" stroke-miterlimit="10.0"><path d="M 439.5940,49.9415 c 0.0000,-2.7187 -2.2040,-4.9227 -4.9227 -4.9227c -2.7187,-0.0000 -4.9227,2.2040 -4.9227 4.9227c -0.0000,2.7187 2.2040,4.9227 4.9227 4.9227c 2.7187,0.0000 4.9227,-2.2040 4.9227 -4.9227Z"/></g><g stroke-linejoin="miter" stroke-opacity="1.0" fill-opacity="1.0" stroke="rgb(0,0,0)" stroke-width="0.0" fill="rgb(0,0,255)" stroke-linecap="butt" stroke-miterlimit="10.0"><path d="M 438.6094,49.9415 c 0.0000,-2.1750 -1.7632,-3.9382 -3.9382 -3.9382c -2.1750,-0.0000 -3.9382,1.7632 -3.9382 3.9382c -0.0000,2.1750 1.7632,3.9382 3.9382 3.9382c 2.1750,0.0000 3.9382,-1.7632 3.9382 -3.9382Z"/></g><g stroke-linejoin="miter" stroke-opacity="1.0" fill-opacity="1.0" stroke="rgb(0,0,0)" stroke-width="0.0" fill="rgb(255,0,0)" stroke-linecap="butt" stroke-miterlimit="10.0"><path d="M 429.7485,49.9415 c 0.0000,-2.7187 -2.2040,-4.9227 -4.9227 -4.9227c -2.7187,-0.0000 -4.9227,2.2040 -4.9227 4.9227c -0.0000,2.7187 2.2040,4.9227 4.9227 4.9227c 2.7187,0.0000 4.9227,-2.2040 4.9227 -4.9227Z"/></g><g stroke-linejoin="miter" stroke-opacity="1.0" fill-opacity="0.0" stroke="rgb(0,0,0)" stroke-width="1.0" fill="rgb(0,0,0)" stroke-linecap="butt" stroke-miterlimit="10.0"><path d="M 424.8258,45.0187 c 1.7356,-0.4733 3.4712,-0.9467 5.1121 -0.9467c 1.6409,-0.0000 3.1872,0.4733 4.7334 0.9467"/></g><g stroke-linejoin="miter" stroke-opacity="1.0" fill-opacity="1.0" stroke="rgb(0,0,0)" stroke-width="0.0" fill="rgb(0,0,0)" stroke-linecap="butt" stroke-miterlimit="10.0"></g><g stroke-linejoin="miter" stroke-opacity="1.0" fill-opacity="1.0" stroke="rgb(0,0,0)" stroke-width="0.0" fill="rgb(0,0,0)" stroke-linecap="butt" stroke-miterlimit="10.0"></g><g stroke-linejoin="miter" stroke-opacity="1.0" fill-opacity="1.0" stroke="rgb(0,0,0)" stroke-width="0.0" fill="rgb(0,0,0)" stroke-linecap="butt" stroke-miterlimit="10.0"></g><g stroke-linejoin="miter" stroke-opacity="1.0" fill-opacity="1.0" stroke="rgb(0,0,0)" stroke-width="0.0" fill="rgb(0,0,0)" stroke-linecap="butt" stroke-miterlimit="10.0"></g><g stroke-linejoin="miter" stroke-opacity="1.0" fill-opacity="0.0" stroke="rgb(0,0,0)" stroke-width="1.0" fill="rgb(0,0,0)" stroke-linecap="butt" stroke-miterlimit="10.0"><path d="M 429.7485,37.1613 c 6.1278,-1.6712 12.2556,-3.3424 18.0492 -3.3424c 5.7936,-0.0000 11.2529,1.6712 16.7122 3.3424"/></g><g stroke-linejoin="miter" stroke-opacity="1.0" fill-opacity="1.0" stroke="rgb(0,0,0)" stroke-width="0.0" fill="rgb(0,0,0)" stroke-linecap="butt" stroke-miterlimit="10.0"></g><g stroke-linejoin="miter" stroke-opacity="1.0" fill-opacity="1.0" stroke="rgb(0,0,0)" stroke-width="0.0" fill="rgb(0,0,0)" stroke-linecap="butt" stroke-miterlimit="10.0"></g><g stroke-linejoin="miter" stroke-opacity="1.0" fill-opacity="1.0" stroke="rgb(0,0,0)" stroke-width="0.0" fill="rgb(0,0,0)" stroke-linecap="butt" stroke-miterlimit="10.0"></g><g stroke-linejoin="miter" stroke-opacity="1.0" fill-opacity="1.0" stroke="rgb(0,0,0)" stroke-width="0.0" fill="rgb(0,0,0)" stroke-linecap="butt" stroke-miterlimit="10.0"></g><g stroke-linejoin="miter" stroke-opacity="1.0" fill-opacity="1.0" stroke="rgb(0,0,0)" stroke-width="0.0" fill="rgb(0,0,255)" stroke-linecap="butt" stroke-miterlimit="10.0"><path d="M 311.3661,50.7472 c 0.0000,-11.9989 -9.7270,-21.7259 -21.7259 -21.7259c -11.9989,-0.0000 -21.7259,9.7270 -21.7259 21.7259c -0.0000,11.9989 9.7270,21.7259 21.7259 21.7259c 11.9989,0.0000 21.7259,-9.7270 21.7259 -21.7259Z"/></g><g stroke-linejoin="miter" stroke-opacity="1.0" fill-opacity="1.0" stroke="rgb(0,0,0)" stroke-width="0.0" fill="rgb(0,128,0)" stroke-linecap="butt" stroke-miterlimit="10.0"><path d="M 267.9143,52.6530 c 0.0000,-10.9463 -8.8738,-19.8201 -19.8201 -19.8201c -10.9463,-0.0000 -19.8201,8.8738 -19.8201 19.8201c -0.0000,10.9463 8.8738,19.8201 19.8201 19.8201c 10.9463,0.0000 19.8201,-8.8738 19.8201 -19.8201Z"/></g><g stroke-linejoin="miter" stroke-opacity="1.0" fill-opacity="1.0" stroke="rgb(0,0,0)" stroke-width="0.0" fill="rgb(255,0,0)" stroke-linecap="butt" stroke-miterlimit="10.0"><path d="M 228.2741,52.6530 c 0.0000,-10.9463 -8.8738,-19.8201 -19.8201 -19.8201c -10.9463,-0.0000 -19.8201,8.8738 -19.8201 19.8201c -0.0000,10.9463 8.8738,19.8201 19.8201 19.8201c 10.9463,0.0000 19.8201,-8.8738 19.8201 -19.8201Z"/></g><g stroke-linejoin="miter" stroke-opacity="1.0" fill-opacity="0.0" stroke="rgb(0,0,0)" stroke-width="1.0" fill="rgb(0,0,0)" stroke-linecap="butt" stroke-miterlimit="10.0"><path d="M 208.4540,32.8329 c 6.9879,-1.9058 13.9757,-3.8116 20.5824 -3.8116c 6.6067,-0.0000 12.8322,1.9058 19.0578 3.8116"/></g><g stroke-linejoin="miter" stroke-opacity="1.0" fill-opacity="1.0" stroke="rgb(0,0,0)" stroke-width="0.0" fill="rgb(0,0,0)" stroke-linecap="butt" stroke-miterlimit="10.0"></g><g stroke-linejoin="miter" stroke-opacity="1.0" fill-opacity="1.0" stroke="rgb(0,0,0)" stroke-width="0.0" fill="rgb(0,0,0)" stroke-linecap="butt" stroke-miterlimit="10.0"></g><g stroke-linejoin="miter" stroke-opacity="1.0" fill-opacity="1.0" stroke="rgb(0,0,0)" stroke-width="0.0" fill="rgb(0,0,0)" stroke-linecap="butt" stroke-miterlimit="10.0"></g><g stroke-linejoin="miter" stroke-opacity="1.0" fill-opacity="1.0" stroke="rgb(0,0,0)" stroke-width="0.0" fill="rgb(0,0,0)" stroke-linecap="butt" stroke-miterlimit="10.0"></g><g stroke-linejoin="miter" stroke-opacity="1.0" fill-opacity="0.0" stroke="rgb(0,0,0)" stroke-width="1.0" fill="rgb(0,0,0)" stroke-linecap="butt" stroke-miterlimit="10.0"><path d="M 228.2741,29.0213 c 10.8177,-2.9503 21.6355,-5.9006 31.8631 -5.9006c 10.2277,-0.0000 19.8653,2.9503 29.5029 5.9006"/></g><g stroke-linejoin="miter" stroke-opacity="1.0" fill-opacity="1.0" stroke="rgb(0,0,0)" stroke-width="0.0" fill="rgb(0,0,0)" stroke-linecap="butt" stroke-miterlimit="10.0"></g><g stroke-linejoin="miter" stroke-opacity="1.0" fill-opacity="1.0" stroke="rgb(0,0,0)" stroke-width="0.0" fill="rgb(0,0,0)" stroke-linecap="butt" stroke-miterlimit="10.0"></g><g stroke-linejoin="miter" stroke-opacity="1.0" fill-opacity="1.0" stroke="rgb(0,0,0)" stroke-width="0.0" fill="rgb(0,0,0)" stroke-linecap="butt" stroke-miterlimit="10.0"></g><g stroke-linejoin="miter" stroke-opacity="1.0" fill-opacity="1.0" stroke="rgb(0,0,0)" stroke-width="0.0" fill="rgb(0,0,0)" stroke-linecap="butt" stroke-miterlimit="10.0"></g><g stroke-linejoin="miter" stroke-opacity="1.0" fill-opacity="1.0" stroke="rgb(0,0,0)" stroke-width="0.0" fill="rgb(255,0,0)" stroke-linecap="butt" stroke-miterlimit="10.0"><path d="M 91.2487,49.8859 c 0.0000,-11.9989 -9.7270,-21.7259 -21.7259 -21.7259c -11.9989,-0.0000 -21.7259,9.7270 -21.7259 21.7259c -0.0000,11.9989 9.7270,21.7259 21.7259 21.7259c 11.9989,0.0000 21.7259,-9.7270 21.7259 -21.7259Z"/></g><g stroke-linejoin="miter" stroke-opacity="1.0" fill-opacity="1.0" stroke="rgb(0,0,0)" stroke-width="0.0" fill="rgb(255,0,0)" stroke-linecap="butt" stroke-miterlimit="10.0"><path d="M 47.7969,49.8859 c 0.0000,-11.9989 -9.7270,-21.7259 -21.7259 -21.7259c -11.9989,-0.0000 -21.7259,9.7270 -21.7259 21.7259c -0.0000,11.9989 9.7270,21.7259 21.7259 21.7259c 11.9989,0.0000 21.7259,-9.7270 21.7259 -21.7259Z"/></g><g stroke-linejoin="miter" stroke-opacity="1.0" fill-opacity="0.0" stroke="rgb(0,0,0)" stroke-width="1.0" fill="rgb(0,0,0)" stroke-linecap="butt" stroke-miterlimit="10.0"><path d="M 26.0710,28.1601 c 7.6598,-2.0890 15.3195,-4.1781 22.5615 -4.1781c 7.2420,-0.0000 14.0661,2.0890 20.8903 4.1781"/></g><g stroke-linejoin="miter" stroke-opacity="1.0" fill-opacity="1.0" stroke="rgb(0,0,0)" stroke-width="0.0" fill="rgb(0,0,0)" stroke-linecap="butt" stroke-miterlimit="10.0"></g><g stroke-linejoin="miter" stroke-opacity="1.0" fill-opacity="1.0" stroke="rgb(0,0,0)" stroke-width="0.0" fill="rgb(0,0,0)" stroke-linecap="butt" stroke-miterlimit="10.0"></g><g stroke-linejoin="miter" stroke-opacity="1.0" fill-opacity="1.0" stroke="rgb(0,0,0)" stroke-width="0.0" fill="rgb(0,0,0)" stroke-linecap="butt" stroke-miterlimit="10.0"></g><g stroke-linejoin="miter" stroke-opacity="1.0" fill-opacity="1.0" stroke="rgb(0,0,0)" stroke-width="0.0" fill="rgb(0,0,0)" stroke-linecap="butt" stroke-miterlimit="10.0"></g></svg>