<?xml version="1.0" encoding="UTF-8"?>
<!DOCTYPE svg PUBLIC "-//W3C//DTD SVG 1.1//EN"
    "http://www.w3.org/Graphics/SVG/1.1/DTD/svg11.dtd"><svg xmlns="http://www.w3.org/2000/svg" height="174.6032" stroke-opacity="1" viewBox="0 0 500 175" font-size="1" width="500.0000" xmlns:xlink="http://www.w3.org/1999/xlink" stroke="rgb(0,0,0)" version="1.1"><defs></defs><g stroke-linejoin="miter" stroke-opacity="1.0" fill-opacity="1.0" font-size="19.84126984126984px" stroke="rgb(0,0,0)" stroke-width="1.1818736805705576" fill="rgb(0,0,0)" stroke-linecap="butt" stroke-miterlimit="10.0"><text dominant-baseline="middle" transform="matrix(1.0000,0.0000,0.0000,1.0000,253.9683,67.4603)" stroke="none" text-anchor="middle">Burst</text></g><g stroke-linejoin="miter" stroke-opacity="1.0" fill-opacity="0.0" stroke="rgb(0,0,0)" stroke-width="1.1818736805705576" fill="rgb(0,0,0)" stroke-linecap="butt" stroke-miterlimit="10.0"><path d="M 194.4444,87.3016 h 108.7062 "/></g><g stroke-linejoin="miter" stroke-opacity="1.0" fill-opacity="1.0" stroke="rgb(0,0,0)" stroke-width="0.0" fill="rgb(0,0,0)" stroke-linecap="butt" stroke-miterlimit="10.0"></g><g stroke-linejoin="miter" stroke-opacity="1.0" fill-opacity="1.0" stroke="rgb(0,0,0)" stroke-width="0.0" fill="rgb(0,0,0)" stroke-linecap="butt" stroke-miterlimit="10.0"></g><g stroke-linejoin="miter" stroke-opacity="1.0" fill-opacity="1.0" stroke="rgb(0,0,0)" stroke-width="0.0" fill="rgb(0,0,0)" stroke-linecap="butt" stroke-miterlimit="10.0"><path d="M 313.4921,87.3016 l -12.0972,-3.9306 l 2.0664,3.9306 l -2.0664,3.9306 Z"/></g><g stroke-linejoin="miter" stroke-opacity="1.0" fill-opacity="1.0" stroke="rgb(0,0,0)" stroke-width="0.0" fill="rgb(0,0,0)" stroke-linecap="butt" stroke-miterlimit="10.0"><path d="M 303.4613,87.3016 h -0.3107 v -0.5909 l 0.3107,0.5909 h -0.3107 v 0.5909 Z"/></g><g stroke-linejoin="miter" stroke-opacity="1.0" fill-opacity="1.0" stroke="rgb(0,0,255)" stroke-width="3.968253968253968" fill="rgb(173,216,230)" stroke-linecap="butt" stroke-miterlimit="10.0"><path d="M 492.0635,87.3016 c 0.0000,-43.8321 -35.5330,-79.3651 -79.3651 -79.3651c -43.8321,-0.0000 -79.3651,35.5330 -79.3651 79.3651c -0.0000,43.8321 35.5330,79.3651 79.3651 79.3651c 43.8321,0.0000 79.3651,-35.5330 79.3651 -79.3651Z"/></g><g stroke-linejoin="miter" stroke-opacity="1.0" fill-opacity="1.0" stroke="rgb(0,0,0)" stroke-width="0.0" fill="rgb(0,0,255)" stroke-linecap="butt" stroke-miterlimit="10.0"><path d="M 476.1905,90.3541 c 0.0000,-17.5328 -14.2132,-31.7460 -31.7460 -31.7460c -17.5328,-0.0000 -31.7460,14.2132 -31.7460 31.7460c -0.0000,17.5328 14.2132,31.7460 31.7460 31.7460c 17.5328,0.0000 31.7460,-14.2132 31.7460 -31.7460Z"/></g><g stroke-linejoin="miter" stroke-opacity="1.0" fill-opacity="1.0" stroke="rgb(0,0,0)" stroke-width="0.0" fill="rgb(0,128,0)" stroke-linecap="butt" stroke-miterlimit="10.0"><path d="M 412.6984,90.3541 c 0.0000,-17.5328 -14.2132,-31.7460 -31.7460 -31.7460c -17.5328,-0.0000 -31.7460,14.2132 -31.7460 31.7460c -0.0000,17.5328 14.2132,31.7460 31.7460 31.7460c 17.5328,0.0000 31.7460,-14.2132 31.7460 -31.7460Z"/></g><g stroke-linejoin="miter" stroke-opacity="1.0" fill-opacity="0.0" stroke="rgb(0,0,0)" stroke-width="1.0" fill="rgb(0,0,0)" stroke-linecap="butt" stroke-miterlimit="10.0"><path d="M 380.9524,58.6081 c 11.1925,-3.0525 22.3850,-6.1050 32.9670 -6.1050c 10.5820,-0.0000 20.5535,3.0525 30.5250 6.1050"/></g><g stroke-linejoin="miter" stroke-opacity="1.0" fill-opacity="1.0" stroke="rgb(0,0,0)" stroke-width="0.0" fill="rgb(0,0,0)" stroke-linecap="butt" stroke-miterlimit="10.0"></g><g stroke-linejoin="miter" stroke-opacity="1.0" fill-opacity="1.0" stroke="rgb(0,0,0)" stroke-width="0.0" fill="rgb(0,0,0)" stroke-linecap="butt" stroke-miterlimit="10.0"></g><g stroke-linejoin="miter" stroke-opacity="1.0" fill-opacity="1.0" stroke="rgb(0,0,0)" stroke-width="0.0" fill="rgb(0,0,0)" stroke-linecap="butt" stroke-miterlimit="10.0"></g><g stroke-linejoin="miter" stroke-opacity="1.0" fill-opacity="1.0" stroke="rgb(0,0,0)" stroke-width="0.0" fill="rgb(0,0,0)" stroke-linecap="butt" stroke-miterlimit="10.0"></g><g stroke-linejoin="miter" stroke-opacity="1.0" fill-opacity="1.0" stroke="rgb(0,0,0)" stroke-width="0.0" fill="rgb(0,128,0)" stroke-linecap="butt" stroke-miterlimit="10.0"><path d="M 166.6667,91.1172 c 0.0000,-21.9161 -17.7665,-39.6825 -39.6825 -39.6825c -21.9161,-0.0000 -39.6825,17.7665 -39.6825 39.6825c -0.0000,21.9161 17.7665,39.6825 39.6825 39.6825c 21.9161,0.0000 39.6825,-17.7665 39.6825 -39.6825Z"/></g><g stroke-linejoin="miter" stroke-opacity="1.0" fill-opacity="1.0" stroke="rgb(255,0,0)" stroke-width="1.9841269841269842" fill="rgb(255,192,203)" stroke-linecap="butt" stroke-miterlimit="10.0"><path d="M 87.3016,91.1172 c 0.0000,-21.9161 -17.7665,-39.6825 -39.6825 -39.6825c -21.9161,-0.0000 -39.6825,17.7665 -39.6825 39.6825c -0.0000,21.9161 17.7665,39.6825 39.6825 39.6825c 21.9161,0.0000 39.6825,-17.7665 39.6825 -39.6825Z"/></g><g stroke-linejoin="miter" stroke-opacity="1.0" fill-opacity="1.0" stroke="rgb(0,0,255)" stroke-width="1.5873015873015877" fill="rgb(173,216,230)" stroke-linecap="butt" stroke-miterlimit="10.0"><path d="M 79.3651,91.1172 c 0.0000,-17.5328 -14.2132,-31.7460 -31.7460 -31.7460c -17.5328,-0.0000 -31.7460,14.2132 -31.7460 31.7460c -0.0000,17.5328 14.2132,31.7460 31.7460 31.7460c 17.5328,0.0000 31.7460,-14.2132 31.7460 -31.7460Z"/></g><g stroke-linejoin="miter" stroke-opacity="1.0" fill-opacity="1.0" stroke="rgb(0,0,0)" stroke-width="0.0" fill="rgb(0,0,255)" stroke-linecap="butt" stroke-miterlimit="10.0"><path d="M 73.0159,92.3382 c 0.0000,-7.0131 -5.6853,-12.6984 -12.6984 -12.6984c -7.0131,-0.0000 -12.6984,5.6853 -12.6984 12.6984c -0.0000,7.0131 5.6853,12.6984 12.6984 12.6984c 7.0131,0.0000 12.6984,-5.6853 12.6984 -12.6984Z"/></g><g stroke-linejoin="miter" stroke-opacity="1.0" fill-opacity="1.0" stroke="rgb(0,0,0)" stroke-width="0.0" fill="rgb(255,0,0)" stroke-linecap="butt" stroke-miterlimit="10.0"><path d="M 47.6190,92.3382 c 0.0000,-7.0131 -5.6853,-12.6984 -12.6984 -12.6984c -7.0131,-0.0000 -12.6984,5.6853 -12.6984 12.6984c -0.0000,7.0131 5.6853,12.6984 12.6984 12.6984c 7.0131,0.0000 12.6984,-5.6853 12.6984 -12.6984Z"/></g><g stroke-linejoin="miter" stroke-opacity="1.0" fill-opacity="0.0" stroke="rgb(0,0,0)" stroke-width="1.0" fill="rgb(0,0,0)" stroke-linecap="butt" stroke-miterlimit="10.0"><path d="M 34.9206,79.6398 c 4.4770,-1.2210 8.9540,-2.4420 13.1868 -2.4420c 4.2328,-0.0000 8.2214,1.2210 12.2100 2.4420"/></g><g stroke-linejoin="miter" stroke-opacity="1.0" fill-opacity="1.0" stroke="rgb(0,0,0)" stroke-width="0.0" fill="rgb(0,0,0)" stroke-linecap="butt" stroke-miterlimit="10.0"></g><g stroke-linejoin="miter" stroke-opacity="1.0" fill-opacity="1.0" stroke="rgb(0,0,0)" stroke-width="0.0" fill="rgb(0,0,0)" stroke-linecap="butt" stroke-miterlimit="10.0"></g><g stroke-linejoin="miter" stroke-opacity="1.0" fill-opacity="1.0" stroke="rgb(0,0,0)" stroke-width="0.0" fill="rgb(0,0,0)" stroke-linecap="butt" stroke-miterlimit="10.0"></g><g stroke-linejoin="miter" stroke-opacity="1.0" fill-opacity="1.0" stroke="rgb(0,0,0)" stroke-width="0.0" fill="rgb(0,0,0)" stroke-linecap="butt" stroke-miterlimit="10.0"></g><g stroke-linejoin="miter" stroke-opacity="1.0" fill-opacity="0.0" stroke="rgb(0,0,0)" stroke-width="1.0" fill="rgb(0,0,0)" stroke-linecap="butt" stroke-miterlimit="10.0"><path d="M 47.6190,51.4347 c 13.9906,-3.8156 27.9813,-7.6313 41.2088 -7.6313c 13.2275,-0.0000 25.6919,3.8156 38.1563 7.6313"/></g><g stroke-linejoin="miter" stroke-opacity="1.0" fill-opacity="1.0" stroke="rgb(0,0,0)" stroke-width="0.0" fill="rgb(0,0,0)" stroke-linecap="butt" stroke-miterlimit="10.0"></g><g stroke-linejoin="miter" stroke-opacity="1.0" fill-opacity="1.0" stroke="rgb(0,0,0)" stroke-width="0.0" fill="rgb(0,0,0)" stroke-linecap="butt" stroke-miterlimit="10.0"></g><g stroke-linejoin="miter" stroke-opacity="1.0" fill-opacity="1.0" stroke="rgb(0,0,0)" stroke-width="0.0" fill="rgb(0,0,0)" stroke-linecap="butt" stroke-miterlimit="10.0"></g><g stroke-linejoin="miter" stroke-opacity="1.0" fill-opacity="1.0" stroke="rgb(0,0,0)" stroke-width="0.0" fill="rgb(0,0,0)" stroke-linecap="butt" stroke-miterlimit="10.0"></g></svg>