<?xml version="1.0" encoding="UTF-8"?>
<!DOCTYPE svg PUBLIC "-//W3C//DTD SVG 1.1//EN"
    "http://www.w3.org/Graphics/SVG/1.1/DTD/svg11.dtd"><svg xmlns="http://www.w3.org/2000/svg" height="152.6290" stroke-opacity="1" viewBox="0 0 500 153" font-size="1" width="500.0000" xmlns:xlink="http://www.w3.org/1999/xlink" stroke="rgb(0,0,0)" version="1.1"><defs></defs><g stroke-linejoin="miter" stroke-opacity="1.0" fill-opacity="1.0" font-size="17.344206426484906px" stroke="rgb(0,0,0)" stroke-width="1.1050032273367065" fill="rgb(0,0,0)" stroke-linecap="butt" stroke-miterlimit="10.0"><text dominant-baseline="middle" transform="matrix(1.0000,0.0000,0.0000,1.0000,284.9318,58.9703)" stroke="none" text-anchor="middle">Burst</text></g><g stroke-linejoin="miter" stroke-opacity="1.0" fill-opacity="0.0" stroke="rgb(0,0,0)" stroke-width="1.1050032273367065" fill="rgb(0,0,0)" stroke-linecap="butt" stroke-miterlimit="10.0"><path d="M 232.8992,76.3145 h 94.3965 "/></g><g stroke-linejoin="miter" stroke-opacity="1.0" fill-opacity="1.0" stroke="rgb(0,0,0)" stroke-width="0.0" fill="rgb(0,0,0)" stroke-linecap="butt" stroke-miterlimit="10.0"></g><g stroke-linejoin="miter" stroke-opacity="1.0" fill-opacity="1.0" stroke="rgb(0,0,0)" stroke-width="0.0" fill="rgb(0,0,0)" stroke-linecap="butt" stroke-miterlimit="10.0"></g><g stroke-linejoin="miter" stroke-opacity="1.0" fill-opacity="1.0" stroke="rgb(0,0,0)" stroke-width="0.0" fill="rgb(0,0,0)" stroke-linecap="butt" stroke-miterlimit="10.0"><path d="M 336.9645,76.3145 l -11.3103,-3.6750 l 1.9320,3.6750 l -1.9320,3.6750 Z"/></g><g stroke-linejoin="miter" stroke-opacity="1.0" fill-opacity="1.0" stroke="rgb(0,0,0)" stroke-width="0.0" fill="rgb(0,0,0)" stroke-linecap="butt" stroke-miterlimit="10.0"><path d="M 327.5861,76.3145 h -0.2905 v -0.5525 l 0.2905,0.5525 h -0.2905 v 0.5525 Z"/></g><g stroke-linejoin="miter" stroke-opacity="1.0" fill-opacity="1.0" stroke="rgb(0,128,0)" stroke-width="3.4688412852969814" fill="rgb(144,238,144)" stroke-linecap="butt" stroke-miterlimit="10.0"><path d="M 493.0623,76.3145 c 0.0000,-38.3158 -31.0611,-69.3768 -69.3768 -69.3768c -38.3158,-0.0000 -69.3768,31.0611 -69.3768 69.3768c -0.0000,38.3158 31.0611,69.3768 69.3768 69.3768c 38.3158,0.0000 69.3768,-31.0611 69.3768 -69.3768Z"/></g><g stroke-linejoin="miter" stroke-opacity="1.0" fill-opacity="1.0" stroke="rgb(0,0,255)" stroke-width="0.9824792708667227" fill="rgb(173,216,230)" stroke-linecap="butt" stroke-miterlimit="10.0"><path d="M 479.1870,78.9828 c 0.0000,-10.8522 -8.7974,-19.6496 -19.6496 -19.6496c -10.8522,-0.0000 -19.6496,8.7974 -19.6496 19.6496c -0.0000,10.8522 8.7974,19.6496 19.6496 19.6496c 10.8522,0.0000 19.6496,-8.7974 19.6496 -19.6496Z"/></g><g stroke-linejoin="miter" stroke-opacity="1.0" fill-opacity="1.0" stroke="rgb(0,0,0)" stroke-width="0.0" fill="rgb(255,255,0)" stroke-linecap="butt" stroke-miterlimit="10.0"><path d="M 475.2570,79.7386 c 0.0000,-4.3409 -3.5190,-7.8598 -7.8598 -7.8598c -4.3409,-0.0000 -7.8598,3.5190 -7.8598 7.8598c -0.0000,4.3409 3.5190,7.8598 7.8598 7.8598c 4.3409,0.0000 7.8598,-3.5190 7.8598 -7.8598Z"/></g><g stroke-linejoin="miter" stroke-opacity="1.0" fill-opacity="1.0" stroke="rgb(0,0,0)" stroke-width="0.0" fill="rgb(128,0,128)" stroke-linecap="butt" stroke-miterlimit="10.0"><path d="M 459.5374,79.7386 c 0.0000,-4.3409 -3.5190,-7.8598 -7.8598 -7.8598c -4.3409,-0.0000 -7.8598,3.5190 -7.8598 7.8598c -0.0000,4.3409 3.5190,7.8598 7.8598 7.8598c 4.3409,0.0000 7.8598,-3.5190 7.8598 -7.8598Z"/></g><g stroke-linejoin="miter" stroke-opacity="1.0" fill-opacity="0.0" stroke="rgb(0,0,0)" stroke-width="1.0" fill="rgb(0,0,0)" stroke-linecap="butt" stroke-miterlimit="10.0"><path d="M 451.6775,71.8788 c 2.7711,-0.7558 5.5422,-1.5115 8.1621 -1.5115c 2.6199,-0.0000 5.0887,0.7558 7.5575 1.5115"/></g><g stroke-linejoin="miter" stroke-opacity="1.0" fill-opacity="1.0" stroke="rgb(0,0,0)" stroke-width="0.0" fill="rgb(0,0,0)" stroke-linecap="butt" stroke-miterlimit="10.0"></g><g stroke-linejoin="miter" stroke-opacity="1.0" fill-opacity="1.0" stroke="rgb(0,0,0)" stroke-width="0.0" fill="rgb(0,0,0)" stroke-linecap="butt" stroke-miterlimit="10.0"></g><g stroke-linejoin="miter" stroke-opacity="1.0" fill-opacity="1.0" stroke="rgb(0,0,0)" stroke-width="0.0" fill="rgb(0,0,0)" stroke-linecap="butt" stroke-miterlimit="10.0"></g><g stroke-linejoin="miter" stroke-opacity="1.0" fill-opacity="1.0" stroke="rgb(0,0,0)" stroke-width="0.0" fill="rgb(0,0,0)" stroke-linecap="butt" stroke-miterlimit="10.0"></g><g stroke-linejoin="miter" stroke-opacity="1.0" fill-opacity="1.0" stroke="rgb(0,0,0)" stroke-width="0.0" fill="rgb(255,255,0)" stroke-linecap="butt" stroke-miterlimit="10.0"><path d="M 439.8878,80.7065 c 0.0000,-9.9002 -8.0257,-17.9259 -17.9259 -17.9259c -9.9002,-0.0000 -17.9259,8.0257 -17.9259 17.9259c -0.0000,9.9002 8.0257,17.9259 17.9259 17.9259c 9.9002,0.0000 17.9259,-8.0257 17.9259 -17.9259Z"/></g><g stroke-linejoin="miter" stroke-opacity="1.0" fill-opacity="1.0" stroke="rgb(0,0,0)" stroke-width="0.0" fill="rgb(128,0,128)" stroke-linecap="butt" stroke-miterlimit="10.0"><path d="M 404.0359,80.7065 c 0.0000,-9.9002 -8.0257,-17.9259 -17.9259 -17.9259c -9.9002,-0.0000 -17.9259,8.0257 -17.9259 17.9259c -0.0000,9.9002 8.0257,17.9259 17.9259 17.9259c 9.9002,0.0000 17.9259,-8.0257 17.9259 -17.9259Z"/></g><g stroke-linejoin="miter" stroke-opacity="1.0" fill-opacity="0.0" stroke="rgb(0,0,0)" stroke-width="1.0" fill="rgb(0,0,0)" stroke-linecap="butt" stroke-miterlimit="10.0"><path d="M 386.1100,62.7806 c 6.3200,-1.7236 12.6401,-3.4473 18.6154 -3.4473c 5.9753,-0.0000 11.6059,1.7236 17.2365 3.4473"/></g><g stroke-linejoin="miter" stroke-opacity="1.0" fill-opacity="1.0" stroke="rgb(0,0,0)" stroke-width="0.0" fill="rgb(0,0,0)" stroke-linecap="butt" stroke-miterlimit="10.0"></g><g stroke-linejoin="miter" stroke-opacity="1.0" fill-opacity="1.0" stroke="rgb(0,0,0)" stroke-width="0.0" fill="rgb(0,0,0)" stroke-linecap="butt" stroke-miterlimit="10.0"></g><g stroke-linejoin="miter" stroke-opacity="1.0" fill-opacity="1.0" stroke="rgb(0,0,0)" stroke-width="0.0" fill="rgb(0,0,0)" stroke-linecap="butt" stroke-miterlimit="10.0"></g><g stroke-linejoin="miter" stroke-opacity="1.0" fill-opacity="1.0" stroke="rgb(0,0,0)" stroke-width="0.0" fill="rgb(0,0,0)" stroke-linecap="butt" stroke-miterlimit="10.0"></g><g stroke-linejoin="miter" stroke-opacity="1.0" fill-opacity="0.0" stroke="rgb(0,0,0)" stroke-width="1.0" fill="rgb(0,0,0)" stroke-linecap="butt" stroke-miterlimit="10.0"><path d="M 404.0359,59.3333 c 9.7839,-2.6683 19.5678,-5.3367 28.8181 -5.3367c 9.2502,0.0000 17.9668,2.6683 26.6834 5.3367"/></g><g stroke-linejoin="miter" stroke-opacity="1.0" fill-opacity="1.0" stroke="rgb(0,0,0)" stroke-width="0.0" fill="rgb(0,0,0)" stroke-linecap="butt" stroke-miterlimit="10.0"></g><g stroke-linejoin="miter" stroke-opacity="1.0" fill-opacity="1.0" stroke="rgb(0,0,0)" stroke-width="0.0" fill="rgb(0,0,0)" stroke-linecap="butt" stroke-miterlimit="10.0"></g><g stroke-linejoin="miter" stroke-opacity="1.0" fill-opacity="1.0" stroke="rgb(0,0,0)" stroke-width="0.0" fill="rgb(0,0,0)" stroke-linecap="butt" stroke-miterlimit="10.0"></g><g stroke-linejoin="miter" stroke-opacity="1.0" fill-opacity="1.0" stroke="rgb(0,0,0)" stroke-width="0.0" fill="rgb(0,0,0)" stroke-linecap="butt" stroke-miterlimit="10.0"></g><g stroke-linejoin="miter" stroke-opacity="1.0" fill-opacity="1.0" stroke="rgb(0,0,0)" stroke-width="0.0" fill="rgb(255,255,0)" stroke-linecap="butt" stroke-miterlimit="10.0"><path d="M 205.7571,84.0679 c 0.0000,-17.4774 -14.1682,-31.6456 -31.6456 -31.6456c -17.4774,-0.0000 -31.6456,14.1682 -31.6456 31.6456c -0.0000,17.4774 14.1682,31.6456 31.6456 31.6456c 17.4774,0.0000 31.6456,-14.1682 31.6456 -31.6456Z"/></g><g stroke-linejoin="miter" stroke-opacity="1.0" fill-opacity="1.0" stroke="rgb(0,0,0)" stroke-width="0.0" fill="rgb(128,0,128)" stroke-linecap="butt" stroke-miterlimit="10.0"><path d="M 142.4659,84.0679 c 0.0000,-17.4774 -14.1682,-31.6456 -31.6456 -31.6456c -17.4774,-0.0000 -31.6456,14.1682 -31.6456 31.6456c -0.0000,17.4774 14.1682,31.6456 31.6456 31.6456c 17.4774,0.0000 31.6456,-14.1682 31.6456 -31.6456Z"/></g><g stroke-linejoin="miter" stroke-opacity="1.0" fill-opacity="0.0" stroke="rgb(0,0,0)" stroke-width="1.0" fill="rgb(0,0,0)" stroke-linecap="butt" stroke-miterlimit="10.0"><path d="M 110.8204,52.4223 c 11.1571,-3.0428 22.3142,-6.0857 32.8627 -6.0857c 10.5485,-0.0000 20.4885,3.0428 30.4284 6.0857"/></g><g stroke-linejoin="miter" stroke-opacity="1.0" fill-opacity="1.0" stroke="rgb(0,0,0)" stroke-width="0.0" fill="rgb(0,0,0)" stroke-linecap="butt" stroke-miterlimit="10.0"></g><g stroke-linejoin="miter" stroke-opacity="1.0" fill-opacity="1.0" stroke="rgb(0,0,0)" stroke-width="0.0" fill="rgb(0,0,0)" stroke-linecap="butt" stroke-miterlimit="10.0"></g><g stroke-linejoin="miter" stroke-opacity="1.0" fill-opacity="1.0" stroke="rgb(0,0,0)" stroke-width="0.0" fill="rgb(0,0,0)" stroke-linecap="butt" stroke-miterlimit="10.0"></g><g stroke-linejoin="miter" stroke-opacity="1.0" fill-opacity="1.0" stroke="rgb(0,0,0)" stroke-width="0.0" fill="rgb(0,0,0)" stroke-linecap="butt" stroke-miterlimit="10.0"></g><g stroke-linejoin="miter" stroke-opacity="1.0" fill-opacity="1.0" stroke="rgb(255,0,0)" stroke-width="1.734420642648491" fill="rgb(255,192,203)" stroke-linecap="butt" stroke-miterlimit="10.0"><path d="M 79.1748,81.0251 c 0.0000,-19.1579 -15.5305,-34.6884 -34.6884 -34.6884c -19.1579,-0.0000 -34.6884,15.5305 -34.6884 34.6884c -0.0000,19.1579 15.5305,34.6884 34.6884 34.6884c 19.1579,0.0000 34.6884,-15.5305 34.6884 -34.6884Z"/></g><g stroke-linejoin="miter" stroke-opacity="1.0" fill-opacity="1.0" stroke="rgb(0,128,0)" stroke-width="1.387536514118793" fill="rgb(144,238,144)" stroke-linecap="butt" stroke-miterlimit="10.0"><path d="M 72.2371,81.0251 c 0.0000,-15.3263 -12.4244,-27.7507 -27.7507 -27.7507c -15.3263,-0.0000 -27.7507,12.4244 -27.7507 27.7507c -0.0000,15.3263 12.4244,27.7507 27.7507 27.7507c 15.3263,0.0000 27.7507,-12.4244 27.7507 -27.7507Z"/></g><g stroke-linejoin="miter" stroke-opacity="1.0" fill-opacity="1.0" stroke="rgb(0,0,255)" stroke-width="0.5550146056475171" fill="rgb(173,216,230)" stroke-linecap="butt" stroke-miterlimit="10.0"><path d="M 66.6870,82.0924 c 0.0000,-6.1305 -4.9698,-11.1003 -11.1003 -11.1003c -6.1305,-0.0000 -11.1003,4.9698 -11.1003 11.1003c -0.0000,6.1305 4.9698,11.1003 11.1003 11.1003c 6.1305,0.0000 11.1003,-4.9698 11.1003 -11.1003Z"/></g><g stroke-linejoin="miter" stroke-opacity="1.0" fill-opacity="1.0" stroke="rgb(0,0,0)" stroke-width="0.0" fill="rgb(255,0,0)" stroke-linecap="butt" stroke-miterlimit="10.0"><path d="M 64.4669,82.0924 c 0.0000,-4.9044 -3.9758,-8.8802 -8.8802 -8.8802c -4.9044,-0.0000 -8.8802,3.9758 -8.8802 8.8802c -0.0000,4.9044 3.9758,8.8802 8.8802 8.8802c 4.9044,0.0000 8.8802,-3.9758 8.8802 -8.8802Z"/></g><g stroke-linejoin="miter" stroke-opacity="1.0" fill-opacity="1.0" stroke="rgb(0,0,0)" stroke-width="0.0" fill="rgb(255,0,0)" stroke-linecap="butt" stroke-miterlimit="10.0"><path d="M 44.4864,82.0924 c 0.0000,-6.1305 -4.9698,-11.1003 -11.1003 -11.1003c -6.1305,-0.0000 -11.1003,4.9698 -11.1003 11.1003c -0.0000,6.1305 4.9698,11.1003 11.1003 11.1003c 6.1305,0.0000 11.1003,-4.9698 11.1003 -11.1003Z"/></g><g stroke-linejoin="miter" stroke-opacity="1.0" fill-opacity="0.0" stroke="rgb(0,0,0)" stroke-width="1.0" fill="rgb(0,0,0)" stroke-linecap="butt" stroke-miterlimit="10.0"><path d="M 33.3861,70.9921 c 3.9136,-1.0673 7.8271,-2.1347 11.5272 -2.1347c 3.7001,-0.0000 7.1867,1.0673 10.6734 2.1347"/></g><g stroke-linejoin="miter" stroke-opacity="1.0" fill-opacity="1.0" stroke="rgb(0,0,0)" stroke-width="0.0" fill="rgb(0,0,0)" stroke-linecap="butt" stroke-miterlimit="10.0"></g><g stroke-linejoin="miter" stroke-opacity="1.0" fill-opacity="1.0" stroke="rgb(0,0,0)" stroke-width="0.0" fill="rgb(0,0,0)" stroke-linecap="butt" stroke-miterlimit="10.0"></g><g stroke-linejoin="miter" stroke-opacity="1.0" fill-opacity="1.0" stroke="rgb(0,0,0)" stroke-width="0.0" fill="rgb(0,0,0)" stroke-linecap="butt" stroke-miterlimit="10.0"></g><g stroke-linejoin="miter" stroke-opacity="1.0" fill-opacity="1.0" stroke="rgb(0,0,0)" stroke-width="0.0" fill="rgb(0,0,0)" stroke-linecap="butt" stroke-miterlimit="10.0"></g><g stroke-linejoin="miter" stroke-opacity="1.0" fill-opacity="0.0" stroke="rgb(0,0,0)" stroke-width="1.0" fill="rgb(0,0,0)" stroke-linecap="butt" stroke-miterlimit="10.0"><path d="M 44.4864,46.3367 c 17.2720,-4.7106 34.5441,-9.4211 50.8740 -9.4211c 16.3299,0.0000 31.7177,4.7106 47.1056 9.4211"/></g><g stroke-linejoin="miter" stroke-opacity="1.0" fill-opacity="1.0" stroke="rgb(0,0,0)" stroke-width="0.0" fill="rgb(0,0,0)" stroke-linecap="butt" stroke-miterlimit="10.0"></g><g stroke-linejoin="miter" stroke-opacity="1.0" fill-opacity="1.0" stroke="rgb(0,0,0)" stroke-width="0.0" fill="rgb(0,0,0)" stroke-linecap="butt" stroke-miterlimit="10.0"></g><g stroke-linejoin="miter" stroke-opacity="1.0" fill-opacity="1.0" stroke="rgb(0,0,0)" stroke-width="0.0" fill="rgb(0,0,0)" stroke-linecap="butt" stroke-miterlimit="10.0"></g><g stroke-linejoin="miter" stroke-opacity="1.0" fill-opacity="1.0" stroke="rgb(0,0,0)" stroke-width="0.0" fill="rgb(0,0,0)" stroke-linecap="butt" stroke-miterlimit="10.0"></g></svg>