<?xml version="1.0" encoding="UTF-8"?>
<!DOCTYPE svg PUBLIC "-//W3C//DTD SVG 1.1//EN"
    "http://www.w3.org/Graphics/SVG/1.1/DTD/svg11.dtd"><svg xmlns="http://www.w3.org/2000/svg" height="500.0000" stroke-opacity="1" viewBox="0 0 500 500" font-size="1" width="500.0000" xmlns:xlink="http://www.w3.org/1999/xlink" stroke="rgb(0,0,0)" version="1.1"><defs></defs><g stroke-linejoin="miter" stroke-opacity="1.0" fill-opacity="1.0" stroke="rgb(255,0,0)" stroke-width="11.363636363636367" fill="rgb(255,192,203)" stroke-linecap="butt" stroke-miterlimit="10.0"><path d="M 477.2727,250.0000 c 0.0000,-125.5193 -101.7535,-227.2727 -227.2727 -227.2727c -125.5193,-0.0000 -227.2727,101.7535 -227.2727 227.2727c -0.0000,125.5193 101.7535,227.2727 227.2727 227.2727c 125.5193,0.0000 227.2727,-101.7535 227.2727 -227.2727Z"/></g><g stroke-linejoin="miter" stroke-opacity="1.0" fill-opacity="1.0" stroke="rgb(0,0,0)" stroke-width="0.0" fill="rgb(255,0,0)" stroke-linecap="butt" stroke-miterlimit="10.0"><path d="M 431.8182,258.7413 c 0.0000,-50.2077 -40.7014,-90.9091 -90.9091 -90.9091c -50.2077,-0.0000 -90.9091,40.7014 -90.9091 90.9091c -0.0000,50.2077 40.7014,90.9091 90.9091 90.9091c 50.2077,0.0000 90.9091,-40.7014 90.9091 -90.9091Z"/></g><g stroke-linejoin="miter" stroke-opacity="1.0" fill-opacity="1.0" stroke="rgb(255,0,0)" stroke-width="4.545454545454546" fill="rgb(255,192,203)" stroke-linecap="butt" stroke-miterlimit="10.0"><path d="M 250.0000,258.7413 c 0.0000,-50.2077 -40.7014,-90.9091 -90.9091 -90.9091c -50.2077,-0.0000 -90.9091,40.7014 -90.9091 90.9091c -0.0000,50.2077 40.7014,90.9091 90.9091 90.9091c 50.2077,0.0000 90.9091,-40.7014 90.9091 -90.9091Z"/></g><g stroke-linejoin="miter" stroke-opacity="1.0" fill-opacity="1.0" stroke="rgb(0,0,0)" stroke-width="0.0" fill="rgb(255,0,0)" stroke-linecap="butt" stroke-miterlimit="10.0"><path d="M 231.8182,258.7413 c 0.0000,-40.1662 -32.5611,-72.7273 -72.7273 -72.7273c -40.1662,-0.0000 -72.7273,32.5611 -72.7273 72.7273c -0.0000,40.1662 32.5611,72.7273 72.7273 72.7273c 40.1662,0.0000 72.7273,-32.5611 72.7273 -72.7273Z"/></g><g stroke-linejoin="miter" stroke-opacity="1.0" fill-opacity="0.0" stroke="rgb(0,0,0)" stroke-width="1.0" fill="rgb(0,0,0)" stroke-linecap="butt" stroke-miterlimit="10.0"><path d="M 159.0909,167.8322 c 32.0513,-8.7413 64.1026,-17.4825 94.4056 -17.4825c 30.3030,-0.0000 58.8578,8.7413 87.4126 17.4825"/></g><g stroke-linejoin="miter" stroke-opacity="1.0" fill-opacity="1.0" stroke="rgb(0,0,0)" stroke-width="0.0" fill="rgb(0,0,0)" stroke-linecap="butt" stroke-miterlimit="10.0"></g><g stroke-linejoin="miter" stroke-opacity="1.0" fill-opacity="1.0" stroke="rgb(0,0,0)" stroke-width="0.0" fill="rgb(0,0,0)" stroke-linecap="butt" stroke-miterlimit="10.0"></g><g stroke-linejoin="miter" stroke-opacity="1.0" fill-opacity="1.0" stroke="rgb(0,0,0)" stroke-width="0.0" fill="rgb(0,0,0)" stroke-linecap="butt" stroke-miterlimit="10.0"></g><g stroke-linejoin="miter" stroke-opacity="1.0" fill-opacity="1.0" stroke="rgb(0,0,0)" stroke-width="0.0" fill="rgb(0,0,0)" stroke-linecap="butt" stroke-miterlimit="10.0"></g></svg>