<?xml version="1.0" encoding="UTF-8"?>
<!DOCTYPE svg PUBLIC "-//W3C//DTD SVG 1.1//EN"
    "http://www.w3.org/Graphics/SVG/1.1/DTD/svg11.dtd"><svg xmlns="http://www.w3.org/2000/svg" height="76.9231" stroke-opacity="1" viewBox="0 0 500 77" font-size="1" width="500.0000" xmlns:xlink="http://www.w3.org/1999/xlink" stroke="rgb(0,0,0)" version="1.1"><defs></defs><g stroke-linejoin="miter" stroke-opacity="1.0" fill-opacity="1.0" font-size="8.741258741258742px" stroke="rgb(0,0,0)" stroke-width="0.7844645405527362" fill="rgb(0,0,0)" stroke-linecap="butt" stroke-miterlimit="10.0"><text dominant-baseline="middle" transform="matrix(1.0000,0.0000,0.0000,1.0000,111.8881,29.7203)" stroke="none" text-anchor="middle">Create</text></g><g stroke-linejoin="miter" stroke-opacity="1.0" fill-opacity="0.0" stroke="rgb(0,0,0)" stroke-width="0.7844645405527362" fill="rgb(0,0,0)" stroke-linecap="butt" stroke-miterlimit="10.0"><path d="M 85.6643,38.4615 h 45.5835 "/></g><g stroke-linejoin="miter" stroke-opacity="1.0" fill-opacity="1.0" stroke="rgb(0,0,0)" stroke-width="0.0" fill="rgb(0,0,0)" stroke-linecap="butt" stroke-miterlimit="10.0"></g><g stroke-linejoin="miter" stroke-opacity="1.0" fill-opacity="1.0" stroke="rgb(0,0,0)" stroke-width="0.0" fill="rgb(0,0,0)" stroke-linecap="butt" stroke-miterlimit="10.0"></g><g stroke-linejoin="miter" stroke-opacity="1.0" fill-opacity="1.0" stroke="rgb(0,0,0)" stroke-width="0.0" fill="rgb(0,0,0)" stroke-linecap="butt" stroke-miterlimit="10.0"><path d="M 138.1119,38.4615 l -8.0294,-2.6089 l 1.3716,2.6089 l -1.3716,2.6089 Z"/></g><g stroke-linejoin="miter" stroke-opacity="1.0" fill-opacity="1.0" stroke="rgb(0,0,0)" stroke-width="0.0" fill="rgb(0,0,0)" stroke-linecap="butt" stroke-miterlimit="10.0"><path d="M 131.4540,38.4615 h -0.2062 v -0.3922 l 0.2062,0.3922 h -0.2062 v 0.3922 Z"/></g><g stroke-linejoin="miter" stroke-opacity="1.0" fill-opacity="1.0" font-size="8.741258741258742px" stroke="rgb(0,0,0)" stroke-width="0.7844645405527362" fill="rgb(0,0,0)" stroke-linecap="butt" stroke-miterlimit="10.0"><text dominant-baseline="middle" transform="matrix(1.0000,0.0000,0.0000,1.0000,251.7483,29.7203)" stroke="none" text-anchor="middle">Burst</text></g><g stroke-linejoin="miter" stroke-opacity="1.0" fill-opacity="0.0" stroke="rgb(0,0,0)" stroke-width="0.7844645405527362" fill="rgb(0,0,0)" stroke-linecap="butt" stroke-miterlimit="10.0"><path d="M 225.5245,38.4615 h 45.5835 "/></g><g stroke-linejoin="miter" stroke-opacity="1.0" fill-opacity="1.0" stroke="rgb(0,0,0)" stroke-width="0.0" fill="rgb(0,0,0)" stroke-linecap="butt" stroke-miterlimit="10.0"></g><g stroke-linejoin="miter" stroke-opacity="1.0" fill-opacity="1.0" stroke="rgb(0,0,0)" stroke-width="0.0" fill="rgb(0,0,0)" stroke-linecap="butt" stroke-miterlimit="10.0"></g><g stroke-linejoin="miter" stroke-opacity="1.0" fill-opacity="1.0" stroke="rgb(0,0,0)" stroke-width="0.0" fill="rgb(0,0,0)" stroke-linecap="butt" stroke-miterlimit="10.0"><path d="M 277.9720,38.4615 l -8.0294,-2.6089 l 1.3716,2.6089 l -1.3716,2.6089 Z"/></g><g stroke-linejoin="miter" stroke-opacity="1.0" fill-opacity="1.0" stroke="rgb(0,0,0)" stroke-width="0.0" fill="rgb(0,0,0)" stroke-linecap="butt" stroke-miterlimit="10.0"><path d="M 271.3142,38.4615 h -0.2062 v -0.3922 l 0.2062,0.3922 h -0.2062 v 0.3922 Z"/></g><g stroke-linejoin="miter" stroke-opacity="1.0" fill-opacity="1.0" font-size="8.741258741258742px" stroke="rgb(0,0,0)" stroke-width="0.7844645405527362" fill="rgb(0,0,0)" stroke-linecap="butt" stroke-miterlimit="10.0"><text dominant-baseline="middle" transform="matrix(1.0000,0.0000,0.0000,1.0000,391.6084,29.7203)" stroke="none" text-anchor="middle">Recolor</text></g><g stroke-linejoin="miter" stroke-opacity="1.0" fill-opacity="0.0" stroke="rgb(0,0,0)" stroke-width="0.7844645405527362" fill="rgb(0,0,0)" stroke-linecap="butt" stroke-miterlimit="10.0"><path d="M 365.3846,38.4615 h 45.5835 "/></g><g stroke-linejoin="miter" stroke-opacity="1.0" fill-opacity="1.0" stroke="rgb(0,0,0)" stroke-width="0.0" fill="rgb(0,0,0)" stroke-linecap="butt" stroke-miterlimit="10.0"></g><g stroke-linejoin="miter" stroke-opacity="1.0" fill-opacity="1.0" stroke="rgb(0,0,0)" stroke-width="0.0" fill="rgb(0,0,0)" stroke-linecap="butt" stroke-miterlimit="10.0"></g><g stroke-linejoin="miter" stroke-opacity="1.0" fill-opacity="1.0" stroke="rgb(0,0,0)" stroke-width="0.0" fill="rgb(0,0,0)" stroke-linecap="butt" stroke-miterlimit="10.0"><path d="M 417.8322,38.4615 l -8.0294,-2.6089 l 1.3716,2.6089 l -1.3716,2.6089 Z"/></g><g stroke-linejoin="miter" stroke-opacity="1.0" fill-opacity="1.0" stroke="rgb(0,0,0)" stroke-width="0.0" fill="rgb(0,0,0)" stroke-linecap="butt" stroke-miterlimit="10.0"><path d="M 411.1743,38.4615 h -0.2062 v -0.3922 l 0.2062,0.3922 h -0.2062 v 0.3922 Z"/></g><g stroke-linejoin="miter" stroke-opacity="1.0" fill-opacity="0.0" stroke="rgb(0,0,0)" stroke-width="0.7844645405527362" fill="rgb(0,0,0)" stroke-linecap="butt" stroke-miterlimit="10.0"><path d="M 417.8322,38.4615 l -45.5835,-0.0000 "/></g><g stroke-linejoin="miter" stroke-opacity="1.0" fill-opacity="1.0" stroke="rgb(0,0,0)" stroke-width="0.0" fill="rgb(0,0,0)" stroke-linecap="butt" stroke-miterlimit="10.0"></g><g stroke-linejoin="miter" stroke-opacity="1.0" fill-opacity="1.0" stroke="rgb(0,0,0)" stroke-width="0.0" fill="rgb(0,0,0)" stroke-linecap="butt" stroke-miterlimit="10.0"></g><g stroke-linejoin="miter" stroke-opacity="1.0" fill-opacity="1.0" stroke="rgb(0,0,0)" stroke-width="0.0" fill="rgb(0,0,0)" stroke-linecap="butt" stroke-miterlimit="10.0"><path d="M 365.3846,38.4615 l 8.0294,2.6089 l -1.3716,-2.6089 l 1.3716,-2.6089 Z"/></g><g stroke-linejoin="miter" stroke-opacity="1.0" fill-opacity="1.0" stroke="rgb(0,0,0)" stroke-width="0.0" fill="rgb(0,0,0)" stroke-linecap="butt" stroke-miterlimit="10.0"><path d="M 372.0425,38.4615 l 0.2062,0.0000 l -0.0000,0.3922 l -0.2062,-0.3922 l 0.2062,0.0000 l 0.0000,-0.3922 Z"/></g><g stroke-linejoin="miter" stroke-opacity="1.0" fill-opacity="1.0" stroke="rgb(255,0,0)" stroke-width="1.7482517482517483" fill="rgb(255,192,203)" stroke-linecap="butt" stroke-miterlimit="10.0"><path d="M 496.5035,38.4615 c 0.0000,-19.3107 -15.6544,-34.9650 -34.9650 -34.9650c -19.3107,-0.0000 -34.9650,15.6544 -34.9650 34.9650c -0.0000,19.3107 15.6544,34.9650 34.9650 34.9650c 19.3107,0.0000 34.9650,-15.6544 34.9650 -34.9650Z"/></g><g stroke-linejoin="miter" stroke-opacity="1.0" fill-opacity="1.0" stroke="rgb(0,128,0)" stroke-width="0.6993006993006993" fill="rgb(144,238,144)" stroke-linecap="butt" stroke-miterlimit="10.0"><path d="M 489.5105,39.8063 c 0.0000,-7.7243 -6.2618,-13.9860 -13.9860 -13.9860c -7.7243,-0.0000 -13.9860,6.2618 -13.9860 13.9860c -0.0000,7.7243 6.2618,13.9860 13.9860 13.9860c 7.7243,0.0000 13.9860,-6.2618 13.9860 -13.9860Z"/></g><g stroke-linejoin="miter" stroke-opacity="1.0" fill-opacity="1.0" stroke="rgb(0,0,255)" stroke-width="0.5594405594405595" fill="rgb(173,216,230)" stroke-linecap="butt" stroke-miterlimit="10.0"><path d="M 486.7133,39.8063 c 0.0000,-6.1794 -5.0094,-11.1888 -11.1888 -11.1888c -6.1794,-0.0000 -11.1888,5.0094 -11.1888 11.1888c -0.0000,6.1794 5.0094,11.1888 11.1888 11.1888c 6.1794,0.0000 11.1888,-5.0094 11.1888 -11.1888Z"/></g><g stroke-linejoin="miter" stroke-opacity="1.0" fill-opacity="1.0" stroke="rgb(0,0,0)" stroke-width="0.0" fill="rgb(0,128,0)" stroke-linecap="butt" stroke-miterlimit="10.0"><path d="M 484.4755,39.8063 c 0.0000,-4.9435 -4.0075,-8.9510 -8.9510 -8.9510c -4.9435,-0.0000 -8.9510,4.0075 -8.9510 8.9510c -0.0000,4.9435 4.0075,8.9510 8.9510 8.9510c 4.9435,0.0000 8.9510,-4.0075 8.9510 -8.9510Z"/></g><g stroke-linejoin="miter" stroke-opacity="1.0" fill-opacity="1.0" stroke="rgb(0,0,0)" stroke-width="0.0" fill="rgb(255,0,0)" stroke-linecap="butt" stroke-miterlimit="10.0"><path d="M 461.5385,39.8063 c 0.0000,-7.7243 -6.2618,-13.9860 -13.9860 -13.9860c -7.7243,-0.0000 -13.9860,6.2618 -13.9860 13.9860c -0.0000,7.7243 6.2618,13.9860 13.9860 13.9860c 7.7243,0.0000 13.9860,-6.2618 13.9860 -13.9860Z"/></g><g stroke-linejoin="miter" stroke-opacity="1.0" fill-opacity="0.0" stroke="rgb(0,0,0)" stroke-width="1.0" fill="rgb(0,0,0)" stroke-linecap="butt" stroke-miterlimit="10.0"><path d="M 447.5524,25.8203 c 4.9310,-1.3448 9.8619,-2.6896 14.5239 -2.6896c 4.6620,-0.0000 9.0550,1.3448 13.4481 2.6896"/></g><g stroke-linejoin="miter" stroke-opacity="1.0" fill-opacity="1.0" stroke="rgb(0,0,0)" stroke-width="0.0" fill="rgb(0,0,0)" stroke-linecap="butt" stroke-miterlimit="10.0"></g><g stroke-linejoin="miter" stroke-opacity="1.0" fill-opacity="1.0" stroke="rgb(0,0,0)" stroke-width="0.0" fill="rgb(0,0,0)" stroke-linecap="butt" stroke-miterlimit="10.0"></g><g stroke-linejoin="miter" stroke-opacity="1.0" fill-opacity="1.0" stroke="rgb(0,0,0)" stroke-width="0.0" fill="rgb(0,0,0)" stroke-linecap="butt" stroke-miterlimit="10.0"></g><g stroke-linejoin="miter" stroke-opacity="1.0" fill-opacity="1.0" stroke="rgb(0,0,0)" stroke-width="0.0" fill="rgb(0,0,0)" stroke-linecap="butt" stroke-miterlimit="10.0"></g><g stroke-linejoin="miter" stroke-opacity="1.0" fill-opacity="1.0" stroke="rgb(0,0,255)" stroke-width="1.7482517482517483" fill="rgb(173,216,230)" stroke-linecap="butt" stroke-miterlimit="10.0"><path d="M 353.1469,38.4615 c 0.0000,-19.3107 -15.6544,-34.9650 -34.9650 -34.9650c -19.3107,-0.0000 -34.9650,15.6544 -34.9650 34.9650c -0.0000,19.3107 15.6544,34.9650 34.9650 34.9650c 19.3107,0.0000 34.9650,-15.6544 34.9650 -34.9650Z"/></g><g stroke-linejoin="miter" stroke-opacity="1.0" fill-opacity="1.0" stroke="rgb(0,128,0)" stroke-width="0.6993006993006993" fill="rgb(144,238,144)" stroke-linecap="butt" stroke-miterlimit="10.0"><path d="M 346.1538,39.8063 c 0.0000,-7.7243 -6.2618,-13.9860 -13.9860 -13.9860c -7.7243,-0.0000 -13.9860,6.2618 -13.9860 13.9860c -0.0000,7.7243 6.2618,13.9860 13.9860 13.9860c 7.7243,0.0000 13.9860,-6.2618 13.9860 -13.9860Z"/></g><g stroke-linejoin="miter" stroke-opacity="1.0" fill-opacity="1.0" stroke="rgb(0,0,255)" stroke-width="0.5594405594405595" fill="rgb(173,216,230)" stroke-linecap="butt" stroke-miterlimit="10.0"><path d="M 343.3566,39.8063 c 0.0000,-6.1794 -5.0094,-11.1888 -11.1888 -11.1888c -6.1794,-0.0000 -11.1888,5.0094 -11.1888 11.1888c -0.0000,6.1794 5.0094,11.1888 11.1888 11.1888c 6.1794,0.0000 11.1888,-5.0094 11.1888 -11.1888Z"/></g><g stroke-linejoin="miter" stroke-opacity="1.0" fill-opacity="1.0" stroke="rgb(0,0,0)" stroke-width="0.0" fill="rgb(0,128,0)" stroke-linecap="butt" stroke-miterlimit="10.0"><path d="M 341.1189,39.8063 c 0.0000,-4.9435 -4.0075,-8.9510 -8.9510 -8.9510c -4.9435,-0.0000 -8.9510,4.0075 -8.9510 8.9510c -0.0000,4.9435 4.0075,8.9510 8.9510 8.9510c 4.9435,0.0000 8.9510,-4.0075 8.9510 -8.9510Z"/></g><g stroke-linejoin="miter" stroke-opacity="1.0" fill-opacity="1.0" stroke="rgb(0,0,0)" stroke-width="0.0" fill="rgb(0,0,255)" stroke-linecap="butt" stroke-miterlimit="10.0"><path d="M 318.1818,39.8063 c 0.0000,-7.7243 -6.2618,-13.9860 -13.9860 -13.9860c -7.7243,-0.0000 -13.9860,6.2618 -13.9860 13.9860c -0.0000,7.7243 6.2618,13.9860 13.9860 13.9860c 7.7243,0.0000 13.9860,-6.2618 13.9860 -13.9860Z"/></g><g stroke-linejoin="miter" stroke-opacity="1.0" fill-opacity="0.0" stroke="rgb(0,0,0)" stroke-width="1.0" fill="rgb(0,0,0)" stroke-linecap="butt" stroke-miterlimit="10.0"><path d="M 304.1958,25.8203 c 4.9310,-1.3448 9.8619,-2.6896 14.5239 -2.6896c 4.6620,-0.0000 9.0550,1.3448 13.4481 2.6896"/></g><g stroke-linejoin="miter" stroke-opacity="1.0" fill-opacity="1.0" stroke="rgb(0,0,0)" stroke-width="0.0" fill="rgb(0,0,0)" stroke-linecap="butt" stroke-miterlimit="10.0"></g><g stroke-linejoin="miter" stroke-opacity="1.0" fill-opacity="1.0" stroke="rgb(0,0,0)" stroke-width="0.0" fill="rgb(0,0,0)" stroke-linecap="butt" stroke-miterlimit="10.0"></g><g stroke-linejoin="miter" stroke-opacity="1.0" fill-opacity="1.0" stroke="rgb(0,0,0)" stroke-width="0.0" fill="rgb(0,0,0)" stroke-linecap="butt" stroke-miterlimit="10.0"></g><g stroke-linejoin="miter" stroke-opacity="1.0" fill-opacity="1.0" stroke="rgb(0,0,0)" stroke-width="0.0" fill="rgb(0,0,0)" stroke-linecap="butt" stroke-miterlimit="10.0"></g><g stroke-linejoin="miter" stroke-opacity="1.0" fill-opacity="1.0" stroke="rgb(0,0,255)" stroke-width="1.7482517482517483" fill="rgb(173,216,230)" stroke-linecap="butt" stroke-miterlimit="10.0"><path d="M 213.2867,38.4615 c 0.0000,-19.3107 -15.6544,-34.9650 -34.9650 -34.9650c -19.3107,-0.0000 -34.9650,15.6544 -34.9650 34.9650c -0.0000,19.3107 15.6544,34.9650 34.9650 34.9650c 19.3107,0.0000 34.9650,-15.6544 34.9650 -34.9650Z"/></g><g stroke-linejoin="miter" stroke-opacity="1.0" fill-opacity="1.0" stroke="rgb(0,0,0)" stroke-width="0.0" fill="rgb(0,0,255)" stroke-linecap="butt" stroke-miterlimit="10.0"><path d="M 206.2937,39.8063 c 0.0000,-7.7243 -6.2618,-13.9860 -13.9860 -13.9860c -7.7243,-0.0000 -13.9860,6.2618 -13.9860 13.9860c -0.0000,7.7243 6.2618,13.9860 13.9860 13.9860c 7.7243,0.0000 13.9860,-6.2618 13.9860 -13.9860Z"/></g><g stroke-linejoin="miter" stroke-opacity="1.0" fill-opacity="1.0" stroke="rgb(255,0,0)" stroke-width="0.6993006993006993" fill="rgb(255,192,203)" stroke-linecap="butt" stroke-miterlimit="10.0"><path d="M 178.3217,39.8063 c 0.0000,-7.7243 -6.2618,-13.9860 -13.9860 -13.9860c -7.7243,-0.0000 -13.9860,6.2618 -13.9860 13.9860c -0.0000,7.7243 6.2618,13.9860 13.9860 13.9860c 7.7243,0.0000 13.9860,-6.2618 13.9860 -13.9860Z"/></g><g stroke-linejoin="miter" stroke-opacity="1.0" fill-opacity="1.0" stroke="rgb(0,128,0)" stroke-width="0.27972027972027974" fill="rgb(144,238,144)" stroke-linecap="butt" stroke-miterlimit="10.0"><path d="M 175.5245,40.3443 c 0.0000,-3.0897 -2.5047,-5.5944 -5.5944 -5.5944c -3.0897,-0.0000 -5.5944,2.5047 -5.5944 5.5944c -0.0000,3.0897 2.5047,5.5944 5.5944 5.5944c 3.0897,0.0000 5.5944,-2.5047 5.5944 -5.5944Z"/></g><g stroke-linejoin="miter" stroke-opacity="1.0" fill-opacity="1.0" stroke="rgb(0,0,255)" stroke-width="0.22377622377622375" fill="rgb(173,216,230)" stroke-linecap="butt" stroke-miterlimit="10.0"><path d="M 174.4056,40.3443 c 0.0000,-2.4718 -2.0038,-4.4755 -4.4755 -4.4755c -2.4718,-0.0000 -4.4755,2.0038 -4.4755 4.4755c -0.0000,2.4718 2.0038,4.4755 4.4755 4.4755c 2.4718,0.0000 4.4755,-2.0038 4.4755 -4.4755Z"/></g><g stroke-linejoin="miter" stroke-opacity="1.0" fill-opacity="1.0" stroke="rgb(0,0,0)" stroke-width="0.0" fill="rgb(0,128,0)" stroke-linecap="butt" stroke-miterlimit="10.0"><path d="M 173.5105,40.3443 c 0.0000,-1.9774 -1.6030,-3.5804 -3.5804 -3.5804c -1.9774,-0.0000 -3.5804,1.6030 -3.5804 3.5804c -0.0000,1.9774 1.6030,3.5804 3.5804 3.5804c 1.9774,0.0000 3.5804,-1.6030 3.5804 -3.5804Z"/></g><g stroke-linejoin="miter" stroke-opacity="1.0" fill-opacity="1.0" stroke="rgb(0,0,0)" stroke-width="0.0" fill="rgb(255,0,0)" stroke-linecap="butt" stroke-miterlimit="10.0"><path d="M 164.3357,40.3443 c 0.0000,-3.0897 -2.5047,-5.5944 -5.5944 -5.5944c -3.0897,-0.0000 -5.5944,2.5047 -5.5944 5.5944c -0.0000,3.0897 2.5047,5.5944 5.5944 5.5944c 3.0897,0.0000 5.5944,-2.5047 5.5944 -5.5944Z"/></g><g stroke-linejoin="miter" stroke-opacity="1.0" fill-opacity="0.0" stroke="rgb(0,0,0)" stroke-width="1.0" fill="rgb(0,0,0)" stroke-linecap="butt" stroke-miterlimit="10.0"><path d="M 158.7413,34.7499 c 1.9724,-0.5379 3.9448,-1.0758 5.8096 -1.0758c 1.8648,-0.0000 3.6220,0.5379 5.3792 1.0758"/></g><g stroke-linejoin="miter" stroke-opacity="1.0" fill-opacity="1.0" stroke="rgb(0,0,0)" stroke-width="0.0" fill="rgb(0,0,0)" stroke-linecap="butt" stroke-miterlimit="10.0"></g><g stroke-linejoin="miter" stroke-opacity="1.0" fill-opacity="1.0" stroke="rgb(0,0,0)" stroke-width="0.0" fill="rgb(0,0,0)" stroke-linecap="butt" stroke-miterlimit="10.0"></g><g stroke-linejoin="miter" stroke-opacity="1.0" fill-opacity="1.0" stroke="rgb(0,0,0)" stroke-width="0.0" fill="rgb(0,0,0)" stroke-linecap="butt" stroke-miterlimit="10.0"></g><g stroke-linejoin="miter" stroke-opacity="1.0" fill-opacity="1.0" stroke="rgb(0,0,0)" stroke-width="0.0" fill="rgb(0,0,0)" stroke-linecap="butt" stroke-miterlimit="10.0"></g><g stroke-linejoin="miter" stroke-opacity="1.0" fill-opacity="0.0" stroke="rgb(0,0,0)" stroke-width="1.0" fill="rgb(0,0,0)" stroke-linecap="butt" stroke-miterlimit="10.0"><path d="M 164.3357,25.8203 c 4.9310,-1.3448 9.8619,-2.6896 14.5239 -2.6896c 4.6620,-0.0000 9.0550,1.3448 13.4481 2.6896"/></g><g stroke-linejoin="miter" stroke-opacity="1.0" fill-opacity="1.0" stroke="rgb(0,0,0)" stroke-width="0.0" fill="rgb(0,0,0)" stroke-linecap="butt" stroke-miterlimit="10.0"></g><g stroke-linejoin="miter" stroke-opacity="1.0" fill-opacity="1.0" stroke="rgb(0,0,0)" stroke-width="0.0" fill="rgb(0,0,0)" stroke-linecap="butt" stroke-miterlimit="10.0"></g><g stroke-linejoin="miter" stroke-opacity="1.0" fill-opacity="1.0" stroke="rgb(0,0,0)" stroke-width="0.0" fill="rgb(0,0,0)" stroke-linecap="butt" stroke-miterlimit="10.0"></g><g stroke-linejoin="miter" stroke-opacity="1.0" fill-opacity="1.0" stroke="rgb(0,0,0)" stroke-width="0.0" fill="rgb(0,0,0)" stroke-linecap="butt" stroke-miterlimit="10.0"></g><g stroke-linejoin="miter" stroke-opacity="1.0" fill-opacity="1.0" stroke="rgb(255,0,0)" stroke-width="1.7482517482517483" fill="rgb(255,192,203)" stroke-linecap="butt" stroke-miterlimit="10.0"><path d="M 73.4266,38.4615 c 0.0000,-19.3107 -15.6544,-34.9650 -34.9650 -34.9650c -19.3107,-0.0000 -34.9650,15.6544 -34.9650 34.9650c -0.0000,19.3107 15.6544,34.9650 34.9650 34.9650c 19.3107,0.0000 34.9650,-15.6544 34.9650 -34.9650Z"/></g><g stroke-linejoin="miter" stroke-opacity="1.0" fill-opacity="1.0" stroke="rgb(0,128,0)" stroke-width="0.6993006993006993" fill="rgb(144,238,144)" stroke-linecap="butt" stroke-miterlimit="10.0"><path d="M 66.4336,39.8063 c 0.0000,-7.7243 -6.2618,-13.9860 -13.9860 -13.9860c -7.7243,-0.0000 -13.9860,6.2618 -13.9860 13.9860c -0.0000,7.7243 6.2618,13.9860 13.9860 13.9860c 7.7243,0.0000 13.9860,-6.2618 13.9860 -13.9860Z"/></g><g stroke-linejoin="miter" stroke-opacity="1.0" fill-opacity="1.0" stroke="rgb(0,0,255)" stroke-width="0.5594405594405595" fill="rgb(173,216,230)" stroke-linecap="butt" stroke-miterlimit="10.0"><path d="M 63.6364,39.8063 c 0.0000,-6.1794 -5.0094,-11.1888 -11.1888 -11.1888c -6.1794,-0.0000 -11.1888,5.0094 -11.1888 11.1888c -0.0000,6.1794 5.0094,11.1888 11.1888 11.1888c 6.1794,0.0000 11.1888,-5.0094 11.1888 -11.1888Z"/></g><g stroke-linejoin="miter" stroke-opacity="1.0" fill-opacity="1.0" stroke="rgb(0,0,0)" stroke-width="0.0" fill="rgb(0,128,0)" stroke-linecap="butt" stroke-miterlimit="10.0"><path d="M 61.3986,39.8063 c 0.0000,-4.9435 -4.0075,-8.9510 -8.9510 -8.9510c -4.9435,-0.0000 -8.9510,4.0075 -8.9510 8.9510c -0.0000,4.9435 4.0075,8.9510 8.9510 8.9510c 4.9435,0.0000 8.9510,-4.0075 8.9510 -8.9510Z"/></g><g stroke-linejoin="miter" stroke-opacity="1.0" fill-opacity="1.0" stroke="rgb(0,0,0)" stroke-width="0.0" fill="rgb(255,0,0)" stroke-linecap="butt" stroke-miterlimit="10.0"><path d="M 38.4615,39.8063 c 0.0000,-7.7243 -6.2618,-13.9860 -13.9860 -13.9860c -7.7243,-0.0000 -13.9860,6.2618 -13.9860 13.9860c -0.0000,7.7243 6.2618,13.9860 13.9860 13.9860c 7.7243,0.0000 13.9860,-6.2618 13.9860 -13.9860Z"/></g><g stroke-linejoin="miter" stroke-opacity="1.0" fill-opacity="0.0" stroke="rgb(0,0,0)" stroke-width="1.0" fill="rgb(0,0,0)" stroke-linecap="butt" stroke-miterlimit="10.0"><path d="M 24.4755,25.8203 c 4.9310,-1.3448 9.8619,-2.6896 14.5239 -2.6896c 4.6620,-0.0000 9.0550,1.3448 13.4481 2.6896"/></g><g stroke-linejoin="miter" stroke-opacity="1.0" fill-opacity="1.0" stroke="rgb(0,0,0)" stroke-width="0.0" fill="rgb(0,0,0)" stroke-linecap="butt" stroke-miterlimit="10.0"></g><g stroke-linejoin="miter" stroke-opacity="1.0" fill-opacity="1.0" stroke="rgb(0,0,0)" stroke-width="0.0" fill="rgb(0,0,0)" stroke-linecap="butt" stroke-miterlimit="10.0"></g><g stroke-linejoin="miter" stroke-opacity="1.0" fill-opacity="1.0" stroke="rgb(0,0,0)" stroke-width="0.0" fill="rgb(0,0,0)" stroke-linecap="butt" stroke-miterlimit="10.0"></g><g stroke-linejoin="miter" stroke-opacity="1.0" fill-opacity="1.0" stroke="rgb(0,0,0)" stroke-width="0.0" fill="rgb(0,0,0)" stroke-linecap="butt" stroke-miterlimit="10.0"></g></svg>