<?xml version="1.0" encoding="UTF-8"?>
<!DOCTYPE svg PUBLIC "-//W3C//DTD SVG 1.1//EN"
    "http://www.w3.org/Graphics/SVG/1.1/DTD/svg11.dtd"><svg xmlns="http://www.w3.org/2000/svg" height="74.3243" stroke-opacity="1" viewBox="0 0 500 74" font-size="1" width="500.0000" xmlns:xlink="http://www.w3.org/1999/xlink" stroke="rgb(0,0,0)" version="1.1"><defs></defs><g stroke-linejoin="miter" stroke-opacity="1.0" fill-opacity="1.0" stroke="rgb(255,0,0)" stroke-width="1.6891891891891895" fill="rgb(255,192,203)" stroke-linecap="butt" stroke-miterlimit="10.0"><path d="M 496.6216,37.1622 c 0.0000,-18.6583 -15.1255,-33.7838 -33.7838 -33.7838c -18.6583,-0.0000 -33.7838,15.1255 -33.7838 33.7838c -0.0000,18.6583 15.1255,33.7838 33.7838 33.7838c 18.6583,0.0000 33.7838,-15.1255 33.7838 -33.7838Z"/></g><g stroke-linejoin="miter" stroke-opacity="1.0" fill-opacity="1.0" stroke="rgb(255,0,0)" stroke-width="1.3513513513513518" fill="rgb(255,192,203)" stroke-linecap="butt" stroke-miterlimit="10.0"><path d="M 489.8649,37.1622 c 0.0000,-14.9266 -12.1004,-27.0270 -27.0270 -27.0270c -14.9266,-0.0000 -27.0270,12.1004 -27.0270 27.0270c -0.0000,14.9266 12.1004,27.0270 27.0270 27.0270c 14.9266,0.0000 27.0270,-12.1004 27.0270 -27.0270Z"/></g><g stroke-linejoin="miter" stroke-opacity="1.0" fill-opacity="1.0" stroke="rgb(0,0,0)" stroke-width="0.0" fill="rgb(255,0,0)" stroke-linecap="butt" stroke-miterlimit="10.0"><path d="M 484.4595,37.1622 c 0.0000,-11.9413 -9.6803,-21.6216 -21.6216 -21.6216c -11.9413,-0.0000 -21.6216,9.6803 -21.6216 21.6216c -0.0000,11.9413 9.6803,21.6216 21.6216 21.6216c 11.9413,0.0000 21.6216,-9.6803 21.6216 -21.6216Z"/></g><g stroke-linejoin="miter" stroke-opacity="1.0" fill-opacity="1.0" stroke="rgb(0,128,0)" stroke-width="1.6891891891891895" fill="rgb(144,238,144)" stroke-linecap="butt" stroke-miterlimit="10.0"><path d="M 354.7297,37.1622 c 0.0000,-18.6583 -15.1255,-33.7838 -33.7838 -33.7838c -18.6583,-0.0000 -33.7838,15.1255 -33.7838 33.7838c -0.0000,18.6583 15.1255,33.7838 33.7838 33.7838c 18.6583,0.0000 33.7838,-15.1255 33.7838 -33.7838Z"/></g><g stroke-linejoin="miter" stroke-opacity="1.0" fill-opacity="1.0" stroke="rgb(255,0,0)" stroke-width="1.3513513513513518" fill="rgb(255,192,203)" stroke-linecap="butt" stroke-miterlimit="10.0"><path d="M 347.9730,37.1622 c 0.0000,-14.9266 -12.1004,-27.0270 -27.0270 -27.0270c -14.9266,-0.0000 -27.0270,12.1004 -27.0270 27.0270c -0.0000,14.9266 12.1004,27.0270 27.0270 27.0270c 14.9266,0.0000 27.0270,-12.1004 27.0270 -27.0270Z"/></g><g stroke-linejoin="miter" stroke-opacity="1.0" fill-opacity="1.0" stroke="rgb(0,0,0)" stroke-width="0.0" fill="rgb(255,0,0)" stroke-linecap="butt" stroke-miterlimit="10.0"><path d="M 342.5676,37.1622 c 0.0000,-11.9413 -9.6803,-21.6216 -21.6216 -21.6216c -11.9413,-0.0000 -21.6216,9.6803 -21.6216 21.6216c -0.0000,11.9413 9.6803,21.6216 21.6216 21.6216c 11.9413,0.0000 21.6216,-9.6803 21.6216 -21.6216Z"/></g><g stroke-linejoin="miter" stroke-opacity="1.0" fill-opacity="1.0" stroke="rgb(255,0,0)" stroke-width="1.6891891891891895" fill="rgb(255,192,203)" stroke-linecap="butt" stroke-miterlimit="10.0"><path d="M 212.8378,37.1622 c 0.0000,-18.6583 -15.1255,-33.7838 -33.7838 -33.7838c -18.6583,-0.0000 -33.7838,15.1255 -33.7838 33.7838c -0.0000,18.6583 15.1255,33.7838 33.7838 33.7838c 18.6583,0.0000 33.7838,-15.1255 33.7838 -33.7838Z"/></g><g stroke-linejoin="miter" stroke-opacity="1.0" fill-opacity="1.0" stroke="rgb(0,128,0)" stroke-width="1.3513513513513518" fill="rgb(144,238,144)" stroke-linecap="butt" stroke-miterlimit="10.0"><path d="M 206.0811,37.1622 c 0.0000,-14.9266 -12.1004,-27.0270 -27.0270 -27.0270c -14.9266,-0.0000 -27.0270,12.1004 -27.0270 27.0270c -0.0000,14.9266 12.1004,27.0270 27.0270 27.0270c 14.9266,0.0000 27.0270,-12.1004 27.0270 -27.0270Z"/></g><g stroke-linejoin="miter" stroke-opacity="1.0" fill-opacity="1.0" stroke="rgb(0,0,255)" stroke-width="1.0810810810810814" fill="rgb(173,216,230)" stroke-linecap="butt" stroke-miterlimit="10.0"><path d="M 200.6757,37.1622 c 0.0000,-11.9413 -9.6803,-21.6216 -21.6216 -21.6216c -11.9413,-0.0000 -21.6216,9.6803 -21.6216 21.6216c -0.0000,11.9413 9.6803,21.6216 21.6216 21.6216c 11.9413,0.0000 21.6216,-9.6803 21.6216 -21.6216Z"/></g><g stroke-linejoin="miter" stroke-opacity="1.0" fill-opacity="1.0" stroke="rgb(0,0,0)" stroke-width="0.0" fill="rgb(0,128,0)" stroke-linecap="butt" stroke-miterlimit="10.0"><path d="M 196.3514,37.1622 c 0.0000,-9.5530 -7.7443,-17.2973 -17.2973 -17.2973c -9.5530,-0.0000 -17.2973,7.7443 -17.2973 17.2973c -0.0000,9.5530 7.7443,17.2973 17.2973 17.2973c 9.5530,0.0000 17.2973,-7.7443 17.2973 -17.2973Z"/></g><g stroke-linejoin="miter" stroke-opacity="1.0" fill-opacity="1.0" stroke="rgb(255,0,0)" stroke-width="1.6891891891891895" fill="rgb(255,192,203)" stroke-linecap="butt" stroke-miterlimit="10.0"><path d="M 70.9459,37.1622 c 0.0000,-18.6583 -15.1255,-33.7838 -33.7838 -33.7838c -18.6583,-0.0000 -33.7838,15.1255 -33.7838 33.7838c -0.0000,18.6583 15.1255,33.7838 33.7838 33.7838c 18.6583,0.0000 33.7838,-15.1255 33.7838 -33.7838Z"/></g><g stroke-linejoin="miter" stroke-opacity="1.0" fill-opacity="1.0" stroke="rgb(0,0,0)" stroke-width="0.0" fill="rgb(255,0,0)" stroke-linecap="butt" stroke-miterlimit="10.0"><path d="M 64.1892,37.1622 c 0.0000,-14.9266 -12.1004,-27.0270 -27.0270 -27.0270c -14.9266,-0.0000 -27.0270,12.1004 -27.0270 27.0270c -0.0000,14.9266 12.1004,27.0270 27.0270 27.0270c 14.9266,0.0000 27.0270,-12.1004 27.0270 -27.0270Z"/></g></svg>