<?xml version="1.0" encoding="UTF-8"?>
<!DOCTYPE svg PUBLIC "-//W3C//DTD SVG 1.1//EN"
    "http://www.w3.org/Graphics/SVG/1.1/DTD/svg11.dtd"><svg xmlns="http://www.w3.org/2000/svg" height="732.2990" stroke-opacity="1" viewBox="0 0 500 732" font-size="1" width="500.0000" xmlns:xlink="http://www.w3.org/1999/xlink" stroke="rgb(0,0,0)" version="1.1"><defs></defs><g stroke-linejoin="miter" stroke-opacity="1.0" fill-opacity="1.0" stroke="rgb(0,0,0)" stroke-width="0.0" fill="rgb(0,0,255)" stroke-linecap="butt" stroke-miterlimit="10.0"><path d="M 477.2727,668.1600 c 0.0000,-31.3798 -25.4384,-56.8182 -56.8182 -56.8182c -31.3798,-0.0000 -56.8182,25.4384 -56.8182 56.8182c -0.0000,31.3798 25.4384,56.8182 56.8182 56.8182c 31.3798,0.0000 56.8182,-25.4384 56.8182 -56.8182Z"/></g><g stroke-linejoin="miter" stroke-opacity="1.0" fill-opacity="1.0" stroke="rgb(255,0,0)" stroke-width="2.8409090909090913" fill="rgb(255,192,203)" stroke-linecap="butt" stroke-miterlimit="10.0"><path d="M 363.6364,668.1600 c 0.0000,-31.3798 -25.4384,-56.8182 -56.8182 -56.8182c -31.3798,-0.0000 -56.8182,25.4384 -56.8182 56.8182c -0.0000,31.3798 25.4384,56.8182 56.8182 56.8182c 31.3798,0.0000 56.8182,-25.4384 56.8182 -56.8182Z"/></g><g stroke-linejoin="miter" stroke-opacity="1.0" fill-opacity="1.0" stroke="rgb(0,128,0)" stroke-width="2.272727272727273" fill="rgb(144,238,144)" stroke-linecap="butt" stroke-miterlimit="10.0"><path d="M 352.2727,668.1600 c 0.0000,-25.1039 -20.3507,-45.4545 -45.4545 -45.4545c -25.1039,-0.0000 -45.4545,20.3507 -45.4545 45.4545c -0.0000,25.1039 20.3507,45.4545 45.4545 45.4545c 25.1039,0.0000 45.4545,-20.3507 45.4545 -45.4545Z"/></g><g stroke-linejoin="miter" stroke-opacity="1.0" fill-opacity="1.0" stroke="rgb(0,128,0)" stroke-width="0.38472087309296615" fill="rgb(144,238,144)" stroke-linecap="butt" stroke-miterlimit="10.0"><path d="M 343.1818,670.6481 c 0.0000,-4.2495 -3.4449,-7.6944 -7.6944 -7.6944c -4.2495,-0.0000 -7.6944,3.4449 -7.6944 7.6944c -0.0000,4.2495 3.4449,7.6944 7.6944 7.6944c 4.2495,0.0000 7.6944,-3.4449 7.6944 -7.6944Z"/></g><g stroke-linejoin="miter" stroke-opacity="1.0" fill-opacity="1.0" stroke="rgb(0,0,0)" stroke-width="0.0" fill="rgb(0,128,0)" stroke-linecap="butt" stroke-miterlimit="10.0"><path d="M 341.6429,670.6481 c 0.0000,-3.3996 -2.7559,-6.1555 -6.1555 -6.1555c -3.3996,-0.0000 -6.1555,2.7559 -6.1555 6.1555c -0.0000,3.3996 2.7559,6.1555 6.1555 6.1555c 3.3996,0.0000 6.1555,-2.7559 6.1555 -6.1555Z"/></g><g stroke-linejoin="miter" stroke-opacity="1.0" fill-opacity="1.0" stroke="rgb(128,0,128)" stroke-width="0.38472087309296615" fill="rgb(147,112,219)" stroke-linecap="butt" stroke-miterlimit="10.0"><path d="M 327.7930,670.6481 c 0.0000,-4.2495 -3.4449,-7.6944 -7.6944 -7.6944c -4.2495,-0.0000 -7.6944,3.4449 -7.6944 7.6944c -0.0000,4.2495 3.4449,7.6944 7.6944 7.6944c 4.2495,0.0000 7.6944,-3.4449 7.6944 -7.6944Z"/></g><g stroke-linejoin="miter" stroke-opacity="1.0" fill-opacity="1.0" stroke="rgb(0,0,0)" stroke-width="0.0" fill="rgb(0,128,0)" stroke-linecap="butt" stroke-miterlimit="10.0"><path d="M 326.2541,670.9440 c 0.0000,-1.6998 -1.3780,-3.0778 -3.0778 -3.0778c -1.6998,-0.0000 -3.0778,1.3780 -3.0778 3.0778c -0.0000,1.6998 1.3780,3.0778 3.0778 3.0778c 1.6998,0.0000 3.0778,-1.3780 3.0778 -3.0778Z"/></g><g stroke-linejoin="miter" stroke-opacity="1.0" fill-opacity="1.0" stroke="rgb(0,0,0)" stroke-width="0.0" fill="rgb(128,0,128)" stroke-linecap="butt" stroke-miterlimit="10.0"><path d="M 320.0986,670.9440 c 0.0000,-1.6998 -1.3780,-3.0778 -3.0778 -3.0778c -1.6998,-0.0000 -3.0778,1.3780 -3.0778 3.0778c -0.0000,1.6998 1.3780,3.0778 3.0778 3.0778c 1.6998,0.0000 3.0778,-1.3780 3.0778 -3.0778Z"/></g><g stroke-linejoin="miter" stroke-opacity="1.0" fill-opacity="0.0" stroke="rgb(0,0,0)" stroke-width="1.0" fill="rgb(0,0,0)" stroke-linecap="butt" stroke-miterlimit="10.0"><path d="M 317.0208,667.8662 c 1.0851,-0.2959 2.1702,-0.5919 3.1961 -0.5919c 1.0259,-0.0000 1.9927,0.2959 2.9594 0.5919"/></g><g stroke-linejoin="miter" stroke-opacity="1.0" fill-opacity="1.0" stroke="rgb(0,0,0)" stroke-width="0.0" fill="rgb(0,0,0)" stroke-linecap="butt" stroke-miterlimit="10.0"></g><g stroke-linejoin="miter" stroke-opacity="1.0" fill-opacity="1.0" stroke="rgb(0,0,0)" stroke-width="0.0" fill="rgb(0,0,0)" stroke-linecap="butt" stroke-miterlimit="10.0"></g><g stroke-linejoin="miter" stroke-opacity="1.0" fill-opacity="1.0" stroke="rgb(0,0,0)" stroke-width="0.0" fill="rgb(0,0,0)" stroke-linecap="butt" stroke-miterlimit="10.0"></g><g stroke-linejoin="miter" stroke-opacity="1.0" fill-opacity="1.0" stroke="rgb(0,0,0)" stroke-width="0.0" fill="rgb(0,0,0)" stroke-linecap="butt" stroke-miterlimit="10.0"></g><g stroke-linejoin="miter" stroke-opacity="1.0" fill-opacity="0.0" stroke="rgb(0,0,0)" stroke-width="1.0" fill="rgb(0,0,0)" stroke-linecap="butt" stroke-miterlimit="10.0"><path d="M 320.0986,662.9536 c 2.7128,-0.7398 5.4256,-1.4797 7.9904 -1.4797c 2.5648,-0.0000 4.9816,0.7398 7.3985 1.4797"/></g><g stroke-linejoin="miter" stroke-opacity="1.0" fill-opacity="1.0" stroke="rgb(0,0,0)" stroke-width="0.0" fill="rgb(0,0,0)" stroke-linecap="butt" stroke-miterlimit="10.0"></g><g stroke-linejoin="miter" stroke-opacity="1.0" fill-opacity="1.0" stroke="rgb(0,0,0)" stroke-width="0.0" fill="rgb(0,0,0)" stroke-linecap="butt" stroke-miterlimit="10.0"></g><g stroke-linejoin="miter" stroke-opacity="1.0" fill-opacity="1.0" stroke="rgb(0,0,0)" stroke-width="0.0" fill="rgb(0,0,0)" stroke-linecap="butt" stroke-miterlimit="10.0"></g><g stroke-linejoin="miter" stroke-opacity="1.0" fill-opacity="1.0" stroke="rgb(0,0,0)" stroke-width="0.0" fill="rgb(0,0,0)" stroke-linecap="butt" stroke-miterlimit="10.0"></g><g stroke-linejoin="miter" stroke-opacity="1.0" fill-opacity="1.0" stroke="rgb(0,0,255)" stroke-width="0.3712930689674876" fill="rgb(173,216,230)" stroke-linecap="butt" stroke-miterlimit="10.0"><path d="M 312.4041,670.9166 c 0.0000,-4.1012 -3.3247,-7.4259 -7.4259 -7.4259c -4.1012,-0.0000 -7.4259,3.3247 -7.4259 7.4259c -0.0000,4.1012 3.3247,7.4259 7.4259 7.4259c 4.1012,0.0000 7.4259,-3.3247 7.4259 -7.4259Z"/></g><g stroke-linejoin="miter" stroke-opacity="1.0" fill-opacity="1.0" stroke="rgb(0,0,0)" stroke-width="0.0" fill="rgb(0,0,255)" stroke-linecap="butt" stroke-miterlimit="10.0"><path d="M 310.9190,670.9166 c 0.0000,-3.2810 -2.6597,-5.9407 -5.9407 -5.9407c -3.2810,-0.0000 -5.9407,2.6597 -5.9407 5.9407c -0.0000,3.2810 2.6597,5.9407 5.9407 5.9407c 3.2810,0.0000 5.9407,-2.6597 5.9407 -5.9407Z"/></g><g stroke-linejoin="miter" stroke-opacity="1.0" fill-opacity="1.0" stroke="rgb(0,0,0)" stroke-width="0.0" fill="rgb(0,128,0)" stroke-linecap="butt" stroke-miterlimit="10.0"><path d="M 297.5524,671.5680 c 0.0000,-3.7414 -3.0330,-6.7745 -6.7745 -6.7745c -3.7414,-0.0000 -6.7745,3.0330 -6.7745 6.7745c -0.0000,3.7414 3.0330,6.7745 6.7745 6.7745c 3.7414,0.0000 6.7745,-3.0330 6.7745 -6.7745Z"/></g><g stroke-linejoin="miter" stroke-opacity="1.0" fill-opacity="1.0" stroke="rgb(0,0,0)" stroke-width="0.0" fill="rgb(255,0,0)" stroke-linecap="butt" stroke-miterlimit="10.0"><path d="M 284.0035,671.5680 c 0.0000,-3.7414 -3.0330,-6.7745 -6.7745 -6.7745c -3.7414,-0.0000 -6.7745,3.0330 -6.7745 6.7745c -0.0000,3.7414 3.0330,6.7745 6.7745 6.7745c 3.7414,0.0000 6.7745,-3.0330 6.7745 -6.7745Z"/></g><g stroke-linejoin="miter" stroke-opacity="1.0" fill-opacity="0.0" stroke="rgb(0,0,0)" stroke-width="1.0" fill="rgb(0,0,0)" stroke-linecap="butt" stroke-miterlimit="10.0"><path d="M 277.2290,664.7935 c 2.3884,-0.6514 4.7769,-1.3028 7.0350 -1.3028c 2.2582,0.0000 4.3860,0.6514 6.5139 1.3028"/></g><g stroke-linejoin="miter" stroke-opacity="1.0" fill-opacity="1.0" stroke="rgb(0,0,0)" stroke-width="0.0" fill="rgb(0,0,0)" stroke-linecap="butt" stroke-miterlimit="10.0"></g><g stroke-linejoin="miter" stroke-opacity="1.0" fill-opacity="1.0" stroke="rgb(0,0,0)" stroke-width="0.0" fill="rgb(0,0,0)" stroke-linecap="butt" stroke-miterlimit="10.0"></g><g stroke-linejoin="miter" stroke-opacity="1.0" fill-opacity="1.0" stroke="rgb(0,0,0)" stroke-width="0.0" fill="rgb(0,0,0)" stroke-linecap="butt" stroke-miterlimit="10.0"></g><g stroke-linejoin="miter" stroke-opacity="1.0" fill-opacity="1.0" stroke="rgb(0,0,0)" stroke-width="0.0" fill="rgb(0,0,0)" stroke-linecap="butt" stroke-miterlimit="10.0"></g><g stroke-linejoin="miter" stroke-opacity="1.0" fill-opacity="0.0" stroke="rgb(0,0,0)" stroke-width="1.0" fill="rgb(0,0,0)" stroke-linecap="butt" stroke-miterlimit="10.0"><path d="M 284.0035,663.4908 c 3.6975,-1.0084 7.3950,-2.0168 10.8908 -2.0168c 3.4958,0.0000 6.7899,1.0084 10.0840 2.0168"/></g><g stroke-linejoin="miter" stroke-opacity="1.0" fill-opacity="1.0" stroke="rgb(0,0,0)" stroke-width="0.0" fill="rgb(0,0,0)" stroke-linecap="butt" stroke-miterlimit="10.0"></g><g stroke-linejoin="miter" stroke-opacity="1.0" fill-opacity="1.0" stroke="rgb(0,0,0)" stroke-width="0.0" fill="rgb(0,0,0)" stroke-linecap="butt" stroke-miterlimit="10.0"></g><g stroke-linejoin="miter" stroke-opacity="1.0" fill-opacity="1.0" stroke="rgb(0,0,0)" stroke-width="0.0" fill="rgb(0,0,0)" stroke-linecap="butt" stroke-miterlimit="10.0"></g><g stroke-linejoin="miter" stroke-opacity="1.0" fill-opacity="1.0" stroke="rgb(0,0,0)" stroke-width="0.0" fill="rgb(0,0,0)" stroke-linecap="butt" stroke-miterlimit="10.0"></g><g stroke-linejoin="miter" stroke-opacity="1.0" fill-opacity="0.0" stroke="rgb(0,0,0)" stroke-width="1.0" fill="rgb(0,0,0)" stroke-linecap="butt" stroke-miterlimit="10.0"><path d="M 291.4293,661.4740 c 6.4103,-1.7483 12.8205,-3.4965 18.8811 -3.4965c 6.0606,-0.0000 11.7716,1.7483 17.4825 3.4965"/></g><g stroke-linejoin="miter" stroke-opacity="1.0" fill-opacity="1.0" stroke="rgb(0,0,0)" stroke-width="0.0" fill="rgb(0,0,0)" stroke-linecap="butt" stroke-miterlimit="10.0"></g><g stroke-linejoin="miter" stroke-opacity="1.0" fill-opacity="1.0" stroke="rgb(0,0,0)" stroke-width="0.0" fill="rgb(0,0,0)" stroke-linecap="butt" stroke-miterlimit="10.0"></g><g stroke-linejoin="miter" stroke-opacity="1.0" fill-opacity="1.0" stroke="rgb(0,0,0)" stroke-width="0.0" fill="rgb(0,0,0)" stroke-linecap="butt" stroke-miterlimit="10.0"></g><g stroke-linejoin="miter" stroke-opacity="1.0" fill-opacity="1.0" stroke="rgb(0,0,0)" stroke-width="0.0" fill="rgb(0,0,0)" stroke-linecap="butt" stroke-miterlimit="10.0"></g><g stroke-linejoin="miter" stroke-opacity="1.0" fill-opacity="0.0" stroke="rgb(0,0,0)" stroke-width="1.0" fill="rgb(0,0,0)" stroke-linecap="butt" stroke-miterlimit="10.0"><path d="M 306.8182,611.3418 c 20.0321,-5.4633 40.0641,-10.9266 59.0035 -10.9266c 18.9394,-0.0000 36.7861,5.4633 54.6329 10.9266"/></g><g stroke-linejoin="miter" stroke-opacity="1.0" fill-opacity="1.0" stroke="rgb(0,0,0)" stroke-width="0.0" fill="rgb(0,0,0)" stroke-linecap="butt" stroke-miterlimit="10.0"></g><g stroke-linejoin="miter" stroke-opacity="1.0" fill-opacity="1.0" stroke="rgb(0,0,0)" stroke-width="0.0" fill="rgb(0,0,0)" stroke-linecap="butt" stroke-miterlimit="10.0"></g><g stroke-linejoin="miter" stroke-opacity="1.0" fill-opacity="1.0" stroke="rgb(0,0,0)" stroke-width="0.0" fill="rgb(0,0,0)" stroke-linecap="butt" stroke-miterlimit="10.0"></g><g stroke-linejoin="miter" stroke-opacity="1.0" fill-opacity="1.0" stroke="rgb(0,0,0)" stroke-width="0.0" fill="rgb(0,0,0)" stroke-linecap="butt" stroke-miterlimit="10.0"></g><g stroke-linejoin="miter" stroke-opacity="1.0" fill-opacity="1.0" stroke="rgb(0,0,0)" stroke-width="0.0" fill="rgb(0,128,0)" stroke-linecap="butt" stroke-miterlimit="10.0"><path d="M 250.0000,668.1600 c 0.0000,-31.3798 -25.4384,-56.8182 -56.8182 -56.8182c -31.3798,-0.0000 -56.8182,25.4384 -56.8182 56.8182c -0.0000,31.3798 25.4384,56.8182 56.8182 56.8182c 31.3798,0.0000 56.8182,-25.4384 56.8182 -56.8182Z"/></g><g stroke-linejoin="miter" stroke-opacity="1.0" fill-opacity="1.0" stroke="rgb(255,0,0)" stroke-width="2.8409090909090913" fill="rgb(255,192,203)" stroke-linecap="butt" stroke-miterlimit="10.0"><path d="M 136.3636,668.1600 c 0.0000,-31.3798 -25.4384,-56.8182 -56.8182 -56.8182c -31.3798,-0.0000 -56.8182,25.4384 -56.8182 56.8182c -0.0000,31.3798 25.4384,56.8182 56.8182 56.8182c 31.3798,0.0000 56.8182,-25.4384 56.8182 -56.8182Z"/></g><g stroke-linejoin="miter" stroke-opacity="1.0" fill-opacity="1.0" stroke="rgb(0,128,0)" stroke-width="2.272727272727273" fill="rgb(144,238,144)" stroke-linecap="butt" stroke-miterlimit="10.0"><path d="M 125.0000,668.1600 c 0.0000,-25.1039 -20.3507,-45.4545 -45.4545 -45.4545c -25.1039,-0.0000 -45.4545,20.3507 -45.4545 45.4545c -0.0000,25.1039 20.3507,45.4545 45.4545 45.4545c 25.1039,0.0000 45.4545,-20.3507 45.4545 -45.4545Z"/></g><g stroke-linejoin="miter" stroke-opacity="1.0" fill-opacity="1.0" stroke="rgb(0,128,0)" stroke-width="0.38472087309296615" fill="rgb(144,238,144)" stroke-linecap="butt" stroke-miterlimit="10.0"><path d="M 115.9091,670.6481 c 0.0000,-4.2495 -3.4449,-7.6944 -7.6944 -7.6944c -4.2495,-0.0000 -7.6944,3.4449 -7.6944 7.6944c -0.0000,4.2495 3.4449,7.6944 7.6944 7.6944c 4.2495,0.0000 7.6944,-3.4449 7.6944 -7.6944Z"/></g><g stroke-linejoin="miter" stroke-opacity="1.0" fill-opacity="1.0" stroke="rgb(0,0,0)" stroke-width="0.0" fill="rgb(0,128,0)" stroke-linecap="butt" stroke-miterlimit="10.0"><path d="M 114.3702,670.6481 c 0.0000,-3.3996 -2.7559,-6.1555 -6.1555 -6.1555c -3.3996,-0.0000 -6.1555,2.7559 -6.1555 6.1555c -0.0000,3.3996 2.7559,6.1555 6.1555 6.1555c 3.3996,0.0000 6.1555,-2.7559 6.1555 -6.1555Z"/></g><g stroke-linejoin="miter" stroke-opacity="1.0" fill-opacity="1.0" stroke="rgb(128,0,128)" stroke-width="0.38472087309296615" fill="rgb(147,112,219)" stroke-linecap="butt" stroke-miterlimit="10.0"><path d="M 100.5203,670.6481 c 0.0000,-4.2495 -3.4449,-7.6944 -7.6944 -7.6944c -4.2495,-0.0000 -7.6944,3.4449 -7.6944 7.6944c -0.0000,4.2495 3.4449,7.6944 7.6944 7.6944c 4.2495,0.0000 7.6944,-3.4449 7.6944 -7.6944Z"/></g><g stroke-linejoin="miter" stroke-opacity="1.0" fill-opacity="1.0" stroke="rgb(0,0,0)" stroke-width="0.0" fill="rgb(0,128,0)" stroke-linecap="butt" stroke-miterlimit="10.0"><path d="M 98.9814,670.9440 c 0.0000,-1.6998 -1.3780,-3.0778 -3.0778 -3.0778c -1.6998,-0.0000 -3.0778,1.3780 -3.0778 3.0778c -0.0000,1.6998 1.3780,3.0778 3.0778 3.0778c 1.6998,0.0000 3.0778,-1.3780 3.0778 -3.0778Z"/></g><g stroke-linejoin="miter" stroke-opacity="1.0" fill-opacity="1.0" stroke="rgb(0,0,0)" stroke-width="0.0" fill="rgb(128,0,128)" stroke-linecap="butt" stroke-miterlimit="10.0"><path d="M 92.8258,670.9440 c 0.0000,-1.6998 -1.3780,-3.0778 -3.0778 -3.0778c -1.6998,-0.0000 -3.0778,1.3780 -3.0778 3.0778c -0.0000,1.6998 1.3780,3.0778 3.0778 3.0778c 1.6998,0.0000 3.0778,-1.3780 3.0778 -3.0778Z"/></g><g stroke-linejoin="miter" stroke-opacity="1.0" fill-opacity="0.0" stroke="rgb(0,0,0)" stroke-width="1.0" fill="rgb(0,0,0)" stroke-linecap="butt" stroke-miterlimit="10.0"><path d="M 89.7481,667.8662 c 1.0851,-0.2959 2.1702,-0.5919 3.1961 -0.5919c 1.0259,-0.0000 1.9927,0.2959 2.9594 0.5919"/></g><g stroke-linejoin="miter" stroke-opacity="1.0" fill-opacity="1.0" stroke="rgb(0,0,0)" stroke-width="0.0" fill="rgb(0,0,0)" stroke-linecap="butt" stroke-miterlimit="10.0"></g><g stroke-linejoin="miter" stroke-opacity="1.0" fill-opacity="1.0" stroke="rgb(0,0,0)" stroke-width="0.0" fill="rgb(0,0,0)" stroke-linecap="butt" stroke-miterlimit="10.0"></g><g stroke-linejoin="miter" stroke-opacity="1.0" fill-opacity="1.0" stroke="rgb(0,0,0)" stroke-width="0.0" fill="rgb(0,0,0)" stroke-linecap="butt" stroke-miterlimit="10.0"></g><g stroke-linejoin="miter" stroke-opacity="1.0" fill-opacity="1.0" stroke="rgb(0,0,0)" stroke-width="0.0" fill="rgb(0,0,0)" stroke-linecap="butt" stroke-miterlimit="10.0"></g><g stroke-linejoin="miter" stroke-opacity="1.0" fill-opacity="0.0" stroke="rgb(0,0,0)" stroke-width="1.0" fill="rgb(0,0,0)" stroke-linecap="butt" stroke-miterlimit="10.0"><path d="M 92.8258,662.9536 c 2.7128,-0.7398 5.4256,-1.4797 7.9904 -1.4797c 2.5648,-0.0000 4.9816,0.7398 7.3985 1.4797"/></g><g stroke-linejoin="miter" stroke-opacity="1.0" fill-opacity="1.0" stroke="rgb(0,0,0)" stroke-width="0.0" fill="rgb(0,0,0)" stroke-linecap="butt" stroke-miterlimit="10.0"></g><g stroke-linejoin="miter" stroke-opacity="1.0" fill-opacity="1.0" stroke="rgb(0,0,0)" stroke-width="0.0" fill="rgb(0,0,0)" stroke-linecap="butt" stroke-miterlimit="10.0"></g><g stroke-linejoin="miter" stroke-opacity="1.0" fill-opacity="1.0" stroke="rgb(0,0,0)" stroke-width="0.0" fill="rgb(0,0,0)" stroke-linecap="butt" stroke-miterlimit="10.0"></g><g stroke-linejoin="miter" stroke-opacity="1.0" fill-opacity="1.0" stroke="rgb(0,0,0)" stroke-width="0.0" fill="rgb(0,0,0)" stroke-linecap="butt" stroke-miterlimit="10.0"></g><g stroke-linejoin="miter" stroke-opacity="1.0" fill-opacity="1.0" stroke="rgb(0,0,255)" stroke-width="0.3712930689674876" fill="rgb(173,216,230)" stroke-linecap="butt" stroke-miterlimit="10.0"><path d="M 85.1314,670.9166 c 0.0000,-4.1012 -3.3247,-7.4259 -7.4259 -7.4259c -4.1012,-0.0000 -7.4259,3.3247 -7.4259 7.4259c -0.0000,4.1012 3.3247,7.4259 7.4259 7.4259c 4.1012,0.0000 7.4259,-3.3247 7.4259 -7.4259Z"/></g><g stroke-linejoin="miter" stroke-opacity="1.0" fill-opacity="1.0" stroke="rgb(0,0,0)" stroke-width="0.0" fill="rgb(0,0,255)" stroke-linecap="butt" stroke-miterlimit="10.0"><path d="M 83.6462,670.9166 c 0.0000,-3.2810 -2.6597,-5.9407 -5.9407 -5.9407c -3.2810,-0.0000 -5.9407,2.6597 -5.9407 5.9407c -0.0000,3.2810 2.6597,5.9407 5.9407 5.9407c 3.2810,0.0000 5.9407,-2.6597 5.9407 -5.9407Z"/></g><g stroke-linejoin="miter" stroke-opacity="1.0" fill-opacity="1.0" stroke="rgb(0,0,0)" stroke-width="0.0" fill="rgb(0,128,0)" stroke-linecap="butt" stroke-miterlimit="10.0"><path d="M 70.2797,671.5680 c 0.0000,-3.7414 -3.0330,-6.7745 -6.7745 -6.7745c -3.7414,-0.0000 -6.7745,3.0330 -6.7745 6.7745c -0.0000,3.7414 3.0330,6.7745 6.7745 6.7745c 3.7414,0.0000 6.7745,-3.0330 6.7745 -6.7745Z"/></g><g stroke-linejoin="miter" stroke-opacity="1.0" fill-opacity="1.0" stroke="rgb(0,0,0)" stroke-width="0.0" fill="rgb(255,0,0)" stroke-linecap="butt" stroke-miterlimit="10.0"><path d="M 56.7308,671.5680 c 0.0000,-3.7414 -3.0330,-6.7745 -6.7745 -6.7745c -3.7414,-0.0000 -6.7745,3.0330 -6.7745 6.7745c -0.0000,3.7414 3.0330,6.7745 6.7745 6.7745c 3.7414,0.0000 6.7745,-3.0330 6.7745 -6.7745Z"/></g><g stroke-linejoin="miter" stroke-opacity="1.0" fill-opacity="0.0" stroke="rgb(0,0,0)" stroke-width="1.0" fill="rgb(0,0,0)" stroke-linecap="butt" stroke-miterlimit="10.0"><path d="M 49.9563,664.7935 c 2.3884,-0.6514 4.7769,-1.3028 7.0350 -1.3028c 2.2582,0.0000 4.3860,0.6514 6.5139 1.3028"/></g><g stroke-linejoin="miter" stroke-opacity="1.0" fill-opacity="1.0" stroke="rgb(0,0,0)" stroke-width="0.0" fill="rgb(0,0,0)" stroke-linecap="butt" stroke-miterlimit="10.0"></g><g stroke-linejoin="miter" stroke-opacity="1.0" fill-opacity="1.0" stroke="rgb(0,0,0)" stroke-width="0.0" fill="rgb(0,0,0)" stroke-linecap="butt" stroke-miterlimit="10.0"></g><g stroke-linejoin="miter" stroke-opacity="1.0" fill-opacity="1.0" stroke="rgb(0,0,0)" stroke-width="0.0" fill="rgb(0,0,0)" stroke-linecap="butt" stroke-miterlimit="10.0"></g><g stroke-linejoin="miter" stroke-opacity="1.0" fill-opacity="1.0" stroke="rgb(0,0,0)" stroke-width="0.0" fill="rgb(0,0,0)" stroke-linecap="butt" stroke-miterlimit="10.0"></g><g stroke-linejoin="miter" stroke-opacity="1.0" fill-opacity="0.0" stroke="rgb(0,0,0)" stroke-width="1.0" fill="rgb(0,0,0)" stroke-linecap="butt" stroke-miterlimit="10.0"><path d="M 56.7308,663.4908 c 3.6975,-1.0084 7.3950,-2.0168 10.8908 -2.0168c 3.4958,-0.0000 6.7899,1.0084 10.0840 2.0168"/></g><g stroke-linejoin="miter" stroke-opacity="1.0" fill-opacity="1.0" stroke="rgb(0,0,0)" stroke-width="0.0" fill="rgb(0,0,0)" stroke-linecap="butt" stroke-miterlimit="10.0"></g><g stroke-linejoin="miter" stroke-opacity="1.0" fill-opacity="1.0" stroke="rgb(0,0,0)" stroke-width="0.0" fill="rgb(0,0,0)" stroke-linecap="butt" stroke-miterlimit="10.0"></g><g stroke-linejoin="miter" stroke-opacity="1.0" fill-opacity="1.0" stroke="rgb(0,0,0)" stroke-width="0.0" fill="rgb(0,0,0)" stroke-linecap="butt" stroke-miterlimit="10.0"></g><g stroke-linejoin="miter" stroke-opacity="1.0" fill-opacity="1.0" stroke="rgb(0,0,0)" stroke-width="0.0" fill="rgb(0,0,0)" stroke-linecap="butt" stroke-miterlimit="10.0"></g><g stroke-linejoin="miter" stroke-opacity="1.0" fill-opacity="0.0" stroke="rgb(0,0,0)" stroke-width="1.0" fill="rgb(0,0,0)" stroke-linecap="butt" stroke-miterlimit="10.0"><path d="M 64.1566,661.4740 c 6.4103,-1.7483 12.8205,-3.4965 18.8811 -3.4965c 6.0606,-0.0000 11.7716,1.7483 17.4825 3.4965"/></g><g stroke-linejoin="miter" stroke-opacity="1.0" fill-opacity="1.0" stroke="rgb(0,0,0)" stroke-width="0.0" fill="rgb(0,0,0)" stroke-linecap="butt" stroke-miterlimit="10.0"></g><g stroke-linejoin="miter" stroke-opacity="1.0" fill-opacity="1.0" stroke="rgb(0,0,0)" stroke-width="0.0" fill="rgb(0,0,0)" stroke-linecap="butt" stroke-miterlimit="10.0"></g><g stroke-linejoin="miter" stroke-opacity="1.0" fill-opacity="1.0" stroke="rgb(0,0,0)" stroke-width="0.0" fill="rgb(0,0,0)" stroke-linecap="butt" stroke-miterlimit="10.0"></g><g stroke-linejoin="miter" stroke-opacity="1.0" fill-opacity="1.0" stroke="rgb(0,0,0)" stroke-width="0.0" fill="rgb(0,0,0)" stroke-linecap="butt" stroke-miterlimit="10.0"></g><g stroke-linejoin="miter" stroke-opacity="1.0" fill-opacity="0.0" stroke="rgb(0,0,0)" stroke-width="1.0" fill="rgb(0,0,0)" stroke-linecap="butt" stroke-miterlimit="10.0"><path d="M 79.5455,611.3418 c 20.0321,-5.4633 40.0641,-10.9266 59.0035 -10.9266c 18.9394,-0.0000 36.7861,5.4633 54.6329 10.9266"/></g><g stroke-linejoin="miter" stroke-opacity="1.0" fill-opacity="1.0" stroke="rgb(0,0,0)" stroke-width="0.0" fill="rgb(0,0,0)" stroke-linecap="butt" stroke-miterlimit="10.0"></g><g stroke-linejoin="miter" stroke-opacity="1.0" fill-opacity="1.0" stroke="rgb(0,0,0)" stroke-width="0.0" fill="rgb(0,0,0)" stroke-linecap="butt" stroke-miterlimit="10.0"></g><g stroke-linejoin="miter" stroke-opacity="1.0" fill-opacity="1.0" stroke="rgb(0,0,0)" stroke-width="0.0" fill="rgb(0,0,0)" stroke-linecap="butt" stroke-miterlimit="10.0"></g><g stroke-linejoin="miter" stroke-opacity="1.0" fill-opacity="1.0" stroke="rgb(0,0,0)" stroke-width="0.0" fill="rgb(0,0,0)" stroke-linecap="butt" stroke-miterlimit="10.0"></g><g stroke-linejoin="miter" stroke-opacity="1.0" fill-opacity="0.0" stroke="rgb(0,0,0)" stroke-width="1.0" fill="rgb(0,0,0)" stroke-linecap="butt" stroke-miterlimit="10.0"><path d="M 136.3636,600.4152 c 40.0641,-10.9266 80.1282,-21.8531 118.0070 -21.8531c 37.8788,-0.0000 73.5723,10.9266 109.2657 21.8531"/></g><g stroke-linejoin="miter" stroke-opacity="1.0" fill-opacity="1.0" stroke="rgb(0,0,0)" stroke-width="0.0" fill="rgb(0,0,0)" stroke-linecap="butt" stroke-miterlimit="10.0"></g><g stroke-linejoin="miter" stroke-opacity="1.0" fill-opacity="1.0" stroke="rgb(0,0,0)" stroke-width="0.0" fill="rgb(0,0,0)" stroke-linecap="butt" stroke-miterlimit="10.0"></g><g stroke-linejoin="miter" stroke-opacity="1.0" fill-opacity="1.0" stroke="rgb(0,0,0)" stroke-width="0.0" fill="rgb(0,0,0)" stroke-linecap="butt" stroke-miterlimit="10.0"></g><g stroke-linejoin="miter" stroke-opacity="1.0" fill-opacity="1.0" stroke="rgb(0,0,0)" stroke-width="0.0" fill="rgb(0,0,0)" stroke-linecap="butt" stroke-miterlimit="10.0"></g><g stroke-linejoin="miter" stroke-opacity="1.0" fill-opacity="1.0" stroke="rgb(0,0,0)" stroke-width="0.0" fill="rgb(0,0,255)" stroke-linecap="butt" stroke-miterlimit="10.0"><path d="M 477.2727,382.5393 c 0.0000,-31.3798 -25.4384,-56.8182 -56.8182 -56.8182c -31.3798,-0.0000 -56.8182,25.4384 -56.8182 56.8182c -0.0000,31.3798 25.4384,56.8182 56.8182 56.8182c 31.3798,0.0000 56.8182,-25.4384 56.8182 -56.8182Z"/></g><g stroke-linejoin="miter" stroke-opacity="1.0" fill-opacity="1.0" stroke="rgb(0,128,0)" stroke-width="2.8409090909090913" fill="rgb(144,238,144)" stroke-linecap="butt" stroke-miterlimit="10.0"><path d="M 363.6364,382.5393 c 0.0000,-31.3798 -25.4384,-56.8182 -56.8182 -56.8182c -31.3798,-0.0000 -56.8182,25.4384 -56.8182 56.8182c -0.0000,31.3798 25.4384,56.8182 56.8182 56.8182c 31.3798,0.0000 56.8182,-25.4384 56.8182 -56.8182Z"/></g><g stroke-linejoin="miter" stroke-opacity="1.0" fill-opacity="1.0" stroke="rgb(0,0,0)" stroke-width="0.0" fill="rgb(0,128,0)" stroke-linecap="butt" stroke-miterlimit="10.0"><path d="M 352.2727,382.5393 c 0.0000,-25.1039 -20.3507,-45.4545 -45.4545 -45.4545c -25.1039,-0.0000 -45.4545,20.3507 -45.4545 45.4545c -0.0000,25.1039 20.3507,45.4545 45.4545 45.4545c 25.1039,0.0000 45.4545,-20.3507 45.4545 -45.4545Z"/></g><g stroke-linejoin="miter" stroke-opacity="1.0" fill-opacity="0.0" stroke="rgb(0,0,0)" stroke-width="1.0" fill="rgb(0,0,0)" stroke-linecap="butt" stroke-miterlimit="10.0"><path d="M 306.8182,325.7212 c 20.0321,-5.4633 40.0641,-10.9266 59.0035 -10.9266c 18.9394,-0.0000 36.7861,5.4633 54.6329 10.9266"/></g><g stroke-linejoin="miter" stroke-opacity="1.0" fill-opacity="1.0" stroke="rgb(0,0,0)" stroke-width="0.0" fill="rgb(0,0,0)" stroke-linecap="butt" stroke-miterlimit="10.0"></g><g stroke-linejoin="miter" stroke-opacity="1.0" fill-opacity="1.0" stroke="rgb(0,0,0)" stroke-width="0.0" fill="rgb(0,0,0)" stroke-linecap="butt" stroke-miterlimit="10.0"></g><g stroke-linejoin="miter" stroke-opacity="1.0" fill-opacity="1.0" stroke="rgb(0,0,0)" stroke-width="0.0" fill="rgb(0,0,0)" stroke-linecap="butt" stroke-miterlimit="10.0"></g><g stroke-linejoin="miter" stroke-opacity="1.0" fill-opacity="1.0" stroke="rgb(0,0,0)" stroke-width="0.0" fill="rgb(0,0,0)" stroke-linecap="butt" stroke-miterlimit="10.0"></g><g stroke-linejoin="miter" stroke-opacity="1.0" fill-opacity="1.0" stroke="rgb(0,0,0)" stroke-width="0.0" fill="rgb(0,128,0)" stroke-linecap="butt" stroke-miterlimit="10.0"><path d="M 250.0000,382.5393 c 0.0000,-31.3798 -25.4384,-56.8182 -56.8182 -56.8182c -31.3798,-0.0000 -56.8182,25.4384 -56.8182 56.8182c -0.0000,31.3798 25.4384,56.8182 56.8182 56.8182c 31.3798,0.0000 56.8182,-25.4384 56.8182 -56.8182Z"/></g><g stroke-linejoin="miter" stroke-opacity="1.0" fill-opacity="1.0" stroke="rgb(0,128,0)" stroke-width="2.8409090909090913" fill="rgb(144,238,144)" stroke-linecap="butt" stroke-miterlimit="10.0"><path d="M 136.3636,382.5393 c 0.0000,-31.3798 -25.4384,-56.8182 -56.8182 -56.8182c -31.3798,-0.0000 -56.8182,25.4384 -56.8182 56.8182c -0.0000,31.3798 25.4384,56.8182 56.8182 56.8182c 31.3798,0.0000 56.8182,-25.4384 56.8182 -56.8182Z"/></g><g stroke-linejoin="miter" stroke-opacity="1.0" fill-opacity="1.0" stroke="rgb(0,0,0)" stroke-width="0.0" fill="rgb(0,128,0)" stroke-linecap="butt" stroke-miterlimit="10.0"><path d="M 125.0000,382.5393 c 0.0000,-25.1039 -20.3507,-45.4545 -45.4545 -45.4545c -25.1039,-0.0000 -45.4545,20.3507 -45.4545 45.4545c -0.0000,25.1039 20.3507,45.4545 45.4545 45.4545c 25.1039,0.0000 45.4545,-20.3507 45.4545 -45.4545Z"/></g><g stroke-linejoin="miter" stroke-opacity="1.0" fill-opacity="0.0" stroke="rgb(0,0,0)" stroke-width="1.0" fill="rgb(0,0,0)" stroke-linecap="butt" stroke-miterlimit="10.0"><path d="M 79.5455,325.7212 c 20.0321,-5.4633 40.0641,-10.9266 59.0035 -10.9266c 18.9394,-0.0000 36.7861,5.4633 54.6329 10.9266"/></g><g stroke-linejoin="miter" stroke-opacity="1.0" fill-opacity="1.0" stroke="rgb(0,0,0)" stroke-width="0.0" fill="rgb(0,0,0)" stroke-linecap="butt" stroke-miterlimit="10.0"></g><g stroke-linejoin="miter" stroke-opacity="1.0" fill-opacity="1.0" stroke="rgb(0,0,0)" stroke-width="0.0" fill="rgb(0,0,0)" stroke-linecap="butt" stroke-miterlimit="10.0"></g><g stroke-linejoin="miter" stroke-opacity="1.0" fill-opacity="1.0" stroke="rgb(0,0,0)" stroke-width="0.0" fill="rgb(0,0,0)" stroke-linecap="butt" stroke-miterlimit="10.0"></g><g stroke-linejoin="miter" stroke-opacity="1.0" fill-opacity="1.0" stroke="rgb(0,0,0)" stroke-width="0.0" fill="rgb(0,0,0)" stroke-linecap="butt" stroke-miterlimit="10.0"></g><g stroke-linejoin="miter" stroke-opacity="1.0" fill-opacity="0.0" stroke="rgb(0,0,0)" stroke-width="1.0" fill="rgb(0,0,0)" stroke-linecap="butt" stroke-miterlimit="10.0"><path d="M 136.3636,314.7946 c 40.0641,-10.9266 80.1282,-21.8531 118.0070 -21.8531c 37.8788,-0.0000 73.5723,10.9266 109.2657 21.8531"/></g><g stroke-linejoin="miter" stroke-opacity="1.0" fill-opacity="1.0" stroke="rgb(0,0,0)" stroke-width="0.0" fill="rgb(0,0,0)" stroke-linecap="butt" stroke-miterlimit="10.0"></g><g stroke-linejoin="miter" stroke-opacity="1.0" fill-opacity="1.0" stroke="rgb(0,0,0)" stroke-width="0.0" fill="rgb(0,0,0)" stroke-linecap="butt" stroke-miterlimit="10.0"></g><g stroke-linejoin="miter" stroke-opacity="1.0" fill-opacity="1.0" stroke="rgb(0,0,0)" stroke-width="0.0" fill="rgb(0,0,0)" stroke-linecap="butt" stroke-miterlimit="10.0"></g><g stroke-linejoin="miter" stroke-opacity="1.0" fill-opacity="1.0" stroke="rgb(0,0,0)" stroke-width="0.0" fill="rgb(0,0,0)" stroke-linecap="butt" stroke-miterlimit="10.0"></g><g stroke-linejoin="miter" stroke-opacity="1.0" fill-opacity="1.0" stroke="rgb(0,0,0)" stroke-width="0.0" fill="rgb(0,0,255)" stroke-linecap="butt" stroke-miterlimit="10.0"><path d="M 477.2727,96.9187 c 0.0000,-31.3798 -25.4384,-56.8182 -56.8182 -56.8182c -31.3798,-0.0000 -56.8182,25.4384 -56.8182 56.8182c -0.0000,31.3798 25.4384,56.8182 56.8182 56.8182c 31.3798,0.0000 56.8182,-25.4384 56.8182 -56.8182Z"/></g><g stroke-linejoin="miter" stroke-opacity="1.0" fill-opacity="1.0" stroke="rgb(0,0,0)" stroke-width="0.0" fill="rgb(255,0,0)" stroke-linecap="butt" stroke-miterlimit="10.0"><path d="M 363.6364,96.9187 c 0.0000,-31.3798 -25.4384,-56.8182 -56.8182 -56.8182c -31.3798,-0.0000 -56.8182,25.4384 -56.8182 56.8182c -0.0000,31.3798 25.4384,56.8182 56.8182 56.8182c 31.3798,0.0000 56.8182,-25.4384 56.8182 -56.8182Z"/></g><g stroke-linejoin="miter" stroke-opacity="1.0" fill-opacity="0.0" stroke="rgb(0,0,0)" stroke-width="1.0" fill="rgb(0,0,0)" stroke-linecap="butt" stroke-miterlimit="10.0"><path d="M 306.8182,40.1005 c 20.0321,-5.4633 40.0641,-10.9266 59.0035 -10.9266c 18.9394,-0.0000 36.7861,5.4633 54.6329 10.9266"/></g><g stroke-linejoin="miter" stroke-opacity="1.0" fill-opacity="1.0" stroke="rgb(0,0,0)" stroke-width="0.0" fill="rgb(0,0,0)" stroke-linecap="butt" stroke-miterlimit="10.0"></g><g stroke-linejoin="miter" stroke-opacity="1.0" fill-opacity="1.0" stroke="rgb(0,0,0)" stroke-width="0.0" fill="rgb(0,0,0)" stroke-linecap="butt" stroke-miterlimit="10.0"></g><g stroke-linejoin="miter" stroke-opacity="1.0" fill-opacity="1.0" stroke="rgb(0,0,0)" stroke-width="0.0" fill="rgb(0,0,0)" stroke-linecap="butt" stroke-miterlimit="10.0"></g><g stroke-linejoin="miter" stroke-opacity="1.0" fill-opacity="1.0" stroke="rgb(0,0,0)" stroke-width="0.0" fill="rgb(0,0,0)" stroke-linecap="butt" stroke-miterlimit="10.0"></g><g stroke-linejoin="miter" stroke-opacity="1.0" fill-opacity="1.0" stroke="rgb(0,0,0)" stroke-width="0.0" fill="rgb(0,128,0)" stroke-linecap="butt" stroke-miterlimit="10.0"><path d="M 250.0000,96.9187 c 0.0000,-31.3798 -25.4384,-56.8182 -56.8182 -56.8182c -31.3798,-0.0000 -56.8182,25.4384 -56.8182 56.8182c -0.0000,31.3798 25.4384,56.8182 56.8182 56.8182c 31.3798,0.0000 56.8182,-25.4384 56.8182 -56.8182Z"/></g><g stroke-linejoin="miter" stroke-opacity="1.0" fill-opacity="1.0" stroke="rgb(0,0,0)" stroke-width="0.0" fill="rgb(255,0,0)" stroke-linecap="butt" stroke-miterlimit="10.0"><path d="M 136.3636,96.9187 c 0.0000,-31.3798 -25.4384,-56.8182 -56.8182 -56.8182c -31.3798,-0.0000 -56.8182,25.4384 -56.8182 56.8182c -0.0000,31.3798 25.4384,56.8182 56.8182 56.8182c 31.3798,0.0000 56.8182,-25.4384 56.8182 -56.8182Z"/></g><g stroke-linejoin="miter" stroke-opacity="1.0" fill-opacity="0.0" stroke="rgb(0,0,0)" stroke-width="1.0" fill="rgb(0,0,0)" stroke-linecap="butt" stroke-miterlimit="10.0"><path d="M 79.5455,40.1005 c 20.0321,-5.4633 40.0641,-10.9266 59.0035 -10.9266c 18.9394,-0.0000 36.7861,5.4633 54.6329 10.9266"/></g><g stroke-linejoin="miter" stroke-opacity="1.0" fill-opacity="1.0" stroke="rgb(0,0,0)" stroke-width="0.0" fill="rgb(0,0,0)" stroke-linecap="butt" stroke-miterlimit="10.0"></g><g stroke-linejoin="miter" stroke-opacity="1.0" fill-opacity="1.0" stroke="rgb(0,0,0)" stroke-width="0.0" fill="rgb(0,0,0)" stroke-linecap="butt" stroke-miterlimit="10.0"></g><g stroke-linejoin="miter" stroke-opacity="1.0" fill-opacity="1.0" stroke="rgb(0,0,0)" stroke-width="0.0" fill="rgb(0,0,0)" stroke-linecap="butt" stroke-miterlimit="10.0"></g><g stroke-linejoin="miter" stroke-opacity="1.0" fill-opacity="1.0" stroke="rgb(0,0,0)" stroke-width="0.0" fill="rgb(0,0,0)" stroke-linecap="butt" stroke-miterlimit="10.0"></g><g stroke-linejoin="miter" stroke-opacity="1.0" fill-opacity="0.0" stroke="rgb(0,0,0)" stroke-width="1.0" fill="rgb(0,0,0)" stroke-linecap="butt" stroke-miterlimit="10.0"><path d="M 136.3636,29.1740 c 40.0641,-10.9266 80.1282,-21.8531 118.0070 -21.8531c 37.8788,-0.0000 73.5723,10.9266 109.2657 21.8531"/></g><g stroke-linejoin="miter" stroke-opacity="1.0" fill-opacity="1.0" stroke="rgb(0,0,0)" stroke-width="0.0" fill="rgb(0,0,0)" stroke-linecap="butt" stroke-miterlimit="10.0"></g><g stroke-linejoin="miter" stroke-opacity="1.0" fill-opacity="1.0" stroke="rgb(0,0,0)" stroke-width="0.0" fill="rgb(0,0,0)" stroke-linecap="butt" stroke-miterlimit="10.0"></g><g stroke-linejoin="miter" stroke-opacity="1.0" fill-opacity="1.0" stroke="rgb(0,0,0)" stroke-width="0.0" fill="rgb(0,0,0)" stroke-linecap="butt" stroke-miterlimit="10.0"></g><g stroke-linejoin="miter" stroke-opacity="1.0" fill-opacity="1.0" stroke="rgb(0,0,0)" stroke-width="0.0" fill="rgb(0,0,0)" stroke-linecap="butt" stroke-miterlimit="10.0"></g></svg>