<?xml version="1.0" encoding="UTF-8"?>
<!DOCTYPE svg PUBLIC "-//W3C//DTD SVG 1.1//EN"
    "http://www.w3.org/Graphics/SVG/1.1/DTD/svg11.dtd"><svg xmlns="http://www.w3.org/2000/svg" height="600.1221" stroke-opacity="1" viewBox="0 0 500 600" font-size="1" width="500.0000" xmlns:xlink="http://www.w3.org/1999/xlink" stroke="rgb(0,0,0)" version="1.1"><defs></defs><g stroke-linejoin="miter" stroke-opacity="1.0" fill-opacity="1.0" font-size="19.841269841269835px" stroke="rgb(0,0,0)" stroke-width="2.1911131419844114" fill="rgb(0,0,0)" stroke-linecap="butt" stroke-miterlimit="10.0"><text dominant-baseline="middle" transform="matrix(1.0000,0.0000,0.0000,1.0000,253.9683,492.9792)" stroke="none" text-anchor="middle">Recolor</text></g><g stroke-linejoin="miter" stroke-opacity="1.0" fill-opacity="0.0" stroke="rgb(0,0,0)" stroke-width="2.1911131419844114" fill="rgb(0,0,0)" stroke-linecap="butt" stroke-miterlimit="10.0"><path d="M 194.4444,512.8205 h 99.8754 "/></g><g stroke-linejoin="miter" stroke-opacity="1.0" fill-opacity="1.0" stroke="rgb(0,0,0)" stroke-width="0.0" fill="rgb(0,0,0)" stroke-linecap="butt" stroke-miterlimit="10.0"></g><g stroke-linejoin="miter" stroke-opacity="1.0" fill-opacity="1.0" stroke="rgb(0,0,0)" stroke-width="0.0" fill="rgb(0,0,0)" stroke-linecap="butt" stroke-miterlimit="10.0"></g><g stroke-linejoin="miter" stroke-opacity="1.0" fill-opacity="1.0" stroke="rgb(0,0,0)" stroke-width="0.0" fill="rgb(0,0,0)" stroke-linecap="butt" stroke-miterlimit="10.0"><path d="M 313.4921,512.8205 l -22.4273,-7.2871 l 3.8310,7.2871 l -3.8310,7.2871 Z"/></g><g stroke-linejoin="miter" stroke-opacity="1.0" fill-opacity="1.0" stroke="rgb(0,0,0)" stroke-width="0.0" fill="rgb(0,0,0)" stroke-linecap="butt" stroke-miterlimit="10.0"><path d="M 294.8958,512.8205 h -0.5760 v -1.0956 l 0.5760,1.0956 h -0.5760 v 1.0956 Z"/></g><g stroke-linejoin="miter" stroke-opacity="1.0" fill-opacity="0.0" stroke="rgb(0,0,0)" stroke-width="2.1911131419844114" fill="rgb(0,0,0)" stroke-linecap="butt" stroke-miterlimit="10.0"><path d="M 313.4921,512.8205 l -99.8754,0.0000 "/></g><g stroke-linejoin="miter" stroke-opacity="1.0" fill-opacity="1.0" stroke="rgb(0,0,0)" stroke-width="0.0" fill="rgb(0,0,0)" stroke-linecap="butt" stroke-miterlimit="10.0"></g><g stroke-linejoin="miter" stroke-opacity="1.0" fill-opacity="1.0" stroke="rgb(0,0,0)" stroke-width="0.0" fill="rgb(0,0,0)" stroke-linecap="butt" stroke-miterlimit="10.0"></g><g stroke-linejoin="miter" stroke-opacity="1.0" fill-opacity="1.0" stroke="rgb(0,0,0)" stroke-width="0.0" fill="rgb(0,0,0)" stroke-linecap="butt" stroke-miterlimit="10.0"><path d="M 194.4444,512.8205 l 22.4273,7.2871 l -3.8310,-7.2871 l 3.8310,-7.2871 Z"/></g><g stroke-linejoin="miter" stroke-opacity="1.0" fill-opacity="1.0" stroke="rgb(0,0,0)" stroke-width="0.0" fill="rgb(0,0,0)" stroke-linecap="butt" stroke-miterlimit="10.0"><path d="M 213.0407,512.8205 l 0.5760,-0.0000 l 0.0000,1.0956 l -0.5760,-1.0956 l 0.5760,-0.0000 l -0.0000,-1.0956 Z"/></g><g stroke-linejoin="miter" stroke-opacity="1.0" fill-opacity="1.0" font-size="119.04761904761901px" stroke="rgb(0,0,0)" stroke-width="0.0" fill="rgb(128,0,128)" stroke-linecap="butt" stroke-miterlimit="10.0"><text dominant-baseline="middle" transform="matrix(1.0000,0.0000,0.0000,1.0000,253.9683,557.4634)" stroke="none" text-anchor="middle">?</text></g><g stroke-linejoin="miter" stroke-opacity="1.0" fill-opacity="1.0" stroke="rgb(0,128,0)" stroke-width="3.968253968253967" fill="rgb(144,238,144)" stroke-linecap="butt" stroke-miterlimit="10.0"><path d="M 492.0635,512.8205 c 0.0000,-43.8321 -35.5330,-79.3651 -79.3651 -79.3651c -43.8321,-0.0000 -79.3651,35.5330 -79.3651 79.3651c -0.0000,43.8321 35.5330,79.3651 79.3651 79.3651c 43.8321,0.0000 79.3651,-35.5330 79.3651 -79.3651Z"/></g><g stroke-linejoin="miter" stroke-opacity="1.0" fill-opacity="1.0" stroke="rgb(255,0,0)" stroke-width="3.174603174603174" fill="rgb(255,192,203)" stroke-linecap="butt" stroke-miterlimit="10.0"><path d="M 476.1905,512.8205 c 0.0000,-35.0657 -28.4264,-63.4921 -63.4921 -63.4921c -35.0657,-0.0000 -63.4921,28.4264 -63.4921 63.4921c -0.0000,35.0657 28.4264,63.4921 63.4921 63.4921c 35.0657,0.0000 63.4921,-28.4264 63.4921 -63.4921Z"/></g><g stroke-linejoin="miter" stroke-opacity="1.0" fill-opacity="1.0" stroke="rgb(0,0,0)" stroke-width="0.0" fill="rgb(0,128,0)" stroke-linecap="butt" stroke-miterlimit="10.0"><path d="M 463.4921,512.8205 c 0.0000,-28.0526 -22.7411,-50.7937 -50.7937 -50.7937c -28.0526,-0.0000 -50.7937,22.7411 -50.7937 50.7937c -0.0000,28.0526 22.7411,50.7937 50.7937 50.7937c 28.0526,0.0000 50.7937,-22.7411 50.7937 -50.7937Z"/></g><g stroke-linejoin="miter" stroke-opacity="1.0" fill-opacity="1.0" stroke="rgb(255,0,0)" stroke-width="3.968253968253967" fill="rgb(255,192,203)" stroke-linecap="butt" stroke-miterlimit="10.0"><path d="M 166.6667,512.8205 c 0.0000,-43.8321 -35.5330,-79.3651 -79.3651 -79.3651c -43.8321,-0.0000 -79.3651,35.5330 -79.3651 79.3651c -0.0000,43.8321 35.5330,79.3651 79.3651 79.3651c 43.8321,0.0000 79.3651,-35.5330 79.3651 -79.3651Z"/></g><g stroke-linejoin="miter" stroke-opacity="1.0" fill-opacity="1.0" stroke="rgb(255,0,0)" stroke-width="3.174603174603174" fill="rgb(255,192,203)" stroke-linecap="butt" stroke-miterlimit="10.0"><path d="M 150.7937,512.8205 c 0.0000,-35.0657 -28.4264,-63.4921 -63.4921 -63.4921c -35.0657,-0.0000 -63.4921,28.4264 -63.4921 63.4921c -0.0000,35.0657 28.4264,63.4921 63.4921 63.4921c 35.0657,0.0000 63.4921,-28.4264 63.4921 -63.4921Z"/></g><g stroke-linejoin="miter" stroke-opacity="1.0" fill-opacity="1.0" stroke="rgb(0,0,0)" stroke-width="0.0" fill="rgb(255,0,0)" stroke-linecap="butt" stroke-miterlimit="10.0"><path d="M 138.0952,512.8205 c 0.0000,-28.0526 -22.7411,-50.7937 -50.7937 -50.7937c -28.0526,-0.0000 -50.7937,22.7411 -50.7937 50.7937c -0.0000,28.0526 22.7411,50.7937 50.7937 50.7937c 28.0526,0.0000 50.7937,-22.7411 50.7937 -50.7937Z"/></g><g stroke-linejoin="miter" stroke-opacity="1.0" fill-opacity="1.0" font-size="19.841269841269835px" stroke="rgb(0,0,0)" stroke-width="2.1911131419844114" fill="rgb(0,0,0)" stroke-linecap="butt" stroke-miterlimit="10.0"><text dominant-baseline="middle" transform="matrix(1.0000,0.0000,0.0000,1.0000,253.9683,337.9884)" stroke="none" text-anchor="middle">Recolor</text></g><g stroke-linejoin="miter" stroke-opacity="1.0" fill-opacity="0.0" stroke="rgb(0,0,0)" stroke-width="2.1911131419844114" fill="rgb(0,0,0)" stroke-linecap="butt" stroke-miterlimit="10.0"><path d="M 194.4444,357.8297 h 99.8754 "/></g><g stroke-linejoin="miter" stroke-opacity="1.0" fill-opacity="1.0" stroke="rgb(0,0,0)" stroke-width="0.0" fill="rgb(0,0,0)" stroke-linecap="butt" stroke-miterlimit="10.0"></g><g stroke-linejoin="miter" stroke-opacity="1.0" fill-opacity="1.0" stroke="rgb(0,0,0)" stroke-width="0.0" fill="rgb(0,0,0)" stroke-linecap="butt" stroke-miterlimit="10.0"></g><g stroke-linejoin="miter" stroke-opacity="1.0" fill-opacity="1.0" stroke="rgb(0,0,0)" stroke-width="0.0" fill="rgb(0,0,0)" stroke-linecap="butt" stroke-miterlimit="10.0"><path d="M 313.4921,357.8297 l -22.4273,-7.2871 l 3.8310,7.2871 l -3.8310,7.2871 Z"/></g><g stroke-linejoin="miter" stroke-opacity="1.0" fill-opacity="1.0" stroke="rgb(0,0,0)" stroke-width="0.0" fill="rgb(0,0,0)" stroke-linecap="butt" stroke-miterlimit="10.0"><path d="M 294.8958,357.8297 h -0.5760 v -1.0956 l 0.5760,1.0956 h -0.5760 v 1.0956 Z"/></g><g stroke-linejoin="miter" stroke-opacity="1.0" fill-opacity="0.0" stroke="rgb(0,0,0)" stroke-width="2.1911131419844114" fill="rgb(0,0,0)" stroke-linecap="butt" stroke-miterlimit="10.0"><path d="M 313.4921,357.8297 l -99.8754,0.0000 "/></g><g stroke-linejoin="miter" stroke-opacity="1.0" fill-opacity="1.0" stroke="rgb(0,0,0)" stroke-width="0.0" fill="rgb(0,0,0)" stroke-linecap="butt" stroke-miterlimit="10.0"></g><g stroke-linejoin="miter" stroke-opacity="1.0" fill-opacity="1.0" stroke="rgb(0,0,0)" stroke-width="0.0" fill="rgb(0,0,0)" stroke-linecap="butt" stroke-miterlimit="10.0"></g><g stroke-linejoin="miter" stroke-opacity="1.0" fill-opacity="1.0" stroke="rgb(0,0,0)" stroke-width="0.0" fill="rgb(0,0,0)" stroke-linecap="butt" stroke-miterlimit="10.0"><path d="M 194.4444,357.8297 l 22.4273,7.2871 l -3.8310,-7.2871 l 3.8310,-7.2871 Z"/></g><g stroke-linejoin="miter" stroke-opacity="1.0" fill-opacity="1.0" stroke="rgb(0,0,0)" stroke-width="0.0" fill="rgb(0,0,0)" stroke-linecap="butt" stroke-miterlimit="10.0"><path d="M 213.0407,357.8297 l 0.5760,-0.0000 l 0.0000,1.0956 l -0.5760,-1.0956 l 0.5760,-0.0000 l -0.0000,-1.0956 Z"/></g><g stroke-linejoin="miter" stroke-opacity="1.0" fill-opacity="1.0" font-size="119.04761904761901px" stroke="rgb(0,0,0)" stroke-width="0.0" fill="rgb(128,0,128)" stroke-linecap="butt" stroke-miterlimit="10.0"><text dominant-baseline="middle" transform="matrix(1.0000,0.0000,0.0000,1.0000,253.9683,402.4725)" stroke="none" text-anchor="middle">?</text></g><g stroke-linejoin="miter" stroke-opacity="1.0" fill-opacity="1.0" stroke="rgb(0,0,0)" stroke-width="0.0" fill="rgb(0,128,0)" stroke-linecap="butt" stroke-miterlimit="10.0"><path d="M 492.0635,361.6453 c 0.0000,-21.9161 -17.7665,-39.6825 -39.6825 -39.6825c -21.9161,-0.0000 -39.6825,17.7665 -39.6825 39.6825c -0.0000,21.9161 17.7665,39.6825 39.6825 39.6825c 21.9161,0.0000 39.6825,-17.7665 39.6825 -39.6825Z"/></g><g stroke-linejoin="miter" stroke-opacity="1.0" fill-opacity="1.0" stroke="rgb(0,0,0)" stroke-width="0.0" fill="rgb(0,0,255)" stroke-linecap="butt" stroke-miterlimit="10.0"><path d="M 412.6984,361.6453 c 0.0000,-21.9161 -17.7665,-39.6825 -39.6825 -39.6825c -21.9161,-0.0000 -39.6825,17.7665 -39.6825 39.6825c -0.0000,21.9161 17.7665,39.6825 39.6825 39.6825c 21.9161,0.0000 39.6825,-17.7665 39.6825 -39.6825Z"/></g><g stroke-linejoin="miter" stroke-opacity="1.0" fill-opacity="0.0" stroke="rgb(0,0,0)" stroke-width="1.0" fill="rgb(0,0,0)" stroke-linecap="butt" stroke-miterlimit="10.0"><path d="M 373.0159,321.9628 c 13.9906,-3.8156 27.9813,-7.6313 41.2088 -7.6313c 13.2275,-0.0000 25.6919,3.8156 38.1563 7.6313"/></g><g stroke-linejoin="miter" stroke-opacity="1.0" fill-opacity="1.0" stroke="rgb(0,0,0)" stroke-width="0.0" fill="rgb(0,0,0)" stroke-linecap="butt" stroke-miterlimit="10.0"></g><g stroke-linejoin="miter" stroke-opacity="1.0" fill-opacity="1.0" stroke="rgb(0,0,0)" stroke-width="0.0" fill="rgb(0,0,0)" stroke-linecap="butt" stroke-miterlimit="10.0"></g><g stroke-linejoin="miter" stroke-opacity="1.0" fill-opacity="1.0" stroke="rgb(0,0,0)" stroke-width="0.0" fill="rgb(0,0,0)" stroke-linecap="butt" stroke-miterlimit="10.0"></g><g stroke-linejoin="miter" stroke-opacity="1.0" fill-opacity="1.0" stroke="rgb(0,0,0)" stroke-width="0.0" fill="rgb(0,0,0)" stroke-linecap="butt" stroke-miterlimit="10.0"></g><g stroke-linejoin="miter" stroke-opacity="1.0" fill-opacity="1.0" stroke="rgb(0,0,0)" stroke-width="0.0" fill="rgb(0,128,0)" stroke-linecap="butt" stroke-miterlimit="10.0"><path d="M 166.6667,361.6453 c 0.0000,-21.9161 -17.7665,-39.6825 -39.6825 -39.6825c -21.9161,-0.0000 -39.6825,17.7665 -39.6825 39.6825c -0.0000,21.9161 17.7665,39.6825 39.6825 39.6825c 21.9161,0.0000 39.6825,-17.7665 39.6825 -39.6825Z"/></g><g stroke-linejoin="miter" stroke-opacity="1.0" fill-opacity="1.0" stroke="rgb(0,0,0)" stroke-width="0.0" fill="rgb(255,0,0)" stroke-linecap="butt" stroke-miterlimit="10.0"><path d="M 87.3016,361.6453 c 0.0000,-21.9161 -17.7665,-39.6825 -39.6825 -39.6825c -21.9161,-0.0000 -39.6825,17.7665 -39.6825 39.6825c -0.0000,21.9161 17.7665,39.6825 39.6825 39.6825c 21.9161,0.0000 39.6825,-17.7665 39.6825 -39.6825Z"/></g><g stroke-linejoin="miter" stroke-opacity="1.0" fill-opacity="0.0" stroke="rgb(0,0,0)" stroke-width="1.0" fill="rgb(0,0,0)" stroke-linecap="butt" stroke-miterlimit="10.0"><path d="M 47.6190,321.9628 c 13.9906,-3.8156 27.9813,-7.6313 41.2088 -7.6313c 13.2275,-0.0000 25.6919,3.8156 38.1563 7.6313"/></g><g stroke-linejoin="miter" stroke-opacity="1.0" fill-opacity="1.0" stroke="rgb(0,0,0)" stroke-width="0.0" fill="rgb(0,0,0)" stroke-linecap="butt" stroke-miterlimit="10.0"></g><g stroke-linejoin="miter" stroke-opacity="1.0" fill-opacity="1.0" stroke="rgb(0,0,0)" stroke-width="0.0" fill="rgb(0,0,0)" stroke-linecap="butt" stroke-miterlimit="10.0"></g><g stroke-linejoin="miter" stroke-opacity="1.0" fill-opacity="1.0" stroke="rgb(0,0,0)" stroke-width="0.0" fill="rgb(0,0,0)" stroke-linecap="butt" stroke-miterlimit="10.0"></g><g stroke-linejoin="miter" stroke-opacity="1.0" fill-opacity="1.0" stroke="rgb(0,0,0)" stroke-width="0.0" fill="rgb(0,0,0)" stroke-linecap="butt" stroke-miterlimit="10.0"></g><g stroke-linejoin="miter" stroke-opacity="1.0" fill-opacity="1.0" font-size="19.841269841269835px" stroke="rgb(0,0,0)" stroke-width="2.1911131419844114" fill="rgb(0,0,0)" stroke-linecap="butt" stroke-miterlimit="10.0"><text dominant-baseline="middle" transform="matrix(1.0000,0.0000,0.0000,1.0000,253.9683,182.9976)" stroke="none" text-anchor="middle">Recolor</text></g><g stroke-linejoin="miter" stroke-opacity="1.0" fill-opacity="0.0" stroke="rgb(0,0,0)" stroke-width="2.1911131419844114" fill="rgb(0,0,0)" stroke-linecap="butt" stroke-miterlimit="10.0"><path d="M 194.4444,202.8388 h 99.8754 "/></g><g stroke-linejoin="miter" stroke-opacity="1.0" fill-opacity="1.0" stroke="rgb(0,0,0)" stroke-width="0.0" fill="rgb(0,0,0)" stroke-linecap="butt" stroke-miterlimit="10.0"></g><g stroke-linejoin="miter" stroke-opacity="1.0" fill-opacity="1.0" stroke="rgb(0,0,0)" stroke-width="0.0" fill="rgb(0,0,0)" stroke-linecap="butt" stroke-miterlimit="10.0"></g><g stroke-linejoin="miter" stroke-opacity="1.0" fill-opacity="1.0" stroke="rgb(0,0,0)" stroke-width="0.0" fill="rgb(0,0,0)" stroke-linecap="butt" stroke-miterlimit="10.0"><path d="M 313.4921,202.8388 l -22.4273,-7.2871 l 3.8310,7.2871 l -3.8310,7.2871 Z"/></g><g stroke-linejoin="miter" stroke-opacity="1.0" fill-opacity="1.0" stroke="rgb(0,0,0)" stroke-width="0.0" fill="rgb(0,0,0)" stroke-linecap="butt" stroke-miterlimit="10.0"><path d="M 294.8958,202.8388 h -0.5760 v -1.0956 l 0.5760,1.0956 h -0.5760 v 1.0956 Z"/></g><g stroke-linejoin="miter" stroke-opacity="1.0" fill-opacity="0.0" stroke="rgb(0,0,0)" stroke-width="2.1911131419844114" fill="rgb(0,0,0)" stroke-linecap="butt" stroke-miterlimit="10.0"><path d="M 313.4921,202.8388 l -99.8754,-0.0000 "/></g><g stroke-linejoin="miter" stroke-opacity="1.0" fill-opacity="1.0" stroke="rgb(0,0,0)" stroke-width="0.0" fill="rgb(0,0,0)" stroke-linecap="butt" stroke-miterlimit="10.0"></g><g stroke-linejoin="miter" stroke-opacity="1.0" fill-opacity="1.0" stroke="rgb(0,0,0)" stroke-width="0.0" fill="rgb(0,0,0)" stroke-linecap="butt" stroke-miterlimit="10.0"></g><g stroke-linejoin="miter" stroke-opacity="1.0" fill-opacity="1.0" stroke="rgb(0,0,0)" stroke-width="0.0" fill="rgb(0,0,0)" stroke-linecap="butt" stroke-miterlimit="10.0"><path d="M 194.4444,202.8388 l 22.4273,7.2871 l -3.8310,-7.2871 l 3.8310,-7.2871 Z"/></g><g stroke-linejoin="miter" stroke-opacity="1.0" fill-opacity="1.0" stroke="rgb(0,0,0)" stroke-width="0.0" fill="rgb(0,0,0)" stroke-linecap="butt" stroke-miterlimit="10.0"><path d="M 213.0407,202.8388 l 0.5760,0.0000 l -0.0000,1.0956 l -0.5760,-1.0956 l 0.5760,0.0000 l 0.0000,-1.0956 Z"/></g><g stroke-linejoin="miter" stroke-opacity="1.0" fill-opacity="1.0" font-size="119.04761904761901px" stroke="rgb(0,0,0)" stroke-width="0.0" fill="rgb(128,0,128)" stroke-linecap="butt" stroke-miterlimit="10.0"><text dominant-baseline="middle" transform="matrix(1.0000,0.0000,0.0000,1.0000,253.9683,247.4817)" stroke="none" text-anchor="middle">?</text></g><g stroke-linejoin="miter" stroke-opacity="1.0" fill-opacity="1.0" stroke="rgb(0,0,255)" stroke-width="3.968253968253967" fill="rgb(173,216,230)" stroke-linecap="butt" stroke-miterlimit="10.0"><path d="M 492.0635,202.8388 c 0.0000,-43.8321 -35.5330,-79.3651 -79.3651 -79.3651c -43.8321,-0.0000 -79.3651,35.5330 -79.3651 79.3651c -0.0000,43.8321 35.5330,79.3651 79.3651 79.3651c 43.8321,0.0000 79.3651,-35.5330 79.3651 -79.3651Z"/></g><g stroke-linejoin="miter" stroke-opacity="1.0" fill-opacity="1.0" stroke="rgb(0,0,0)" stroke-width="0.0" fill="rgb(0,128,0)" stroke-linecap="butt" stroke-miterlimit="10.0"><path d="M 476.1905,205.8913 c 0.0000,-17.5328 -14.2132,-31.7460 -31.7460 -31.7460c -17.5328,-0.0000 -31.7460,14.2132 -31.7460 31.7460c -0.0000,17.5328 14.2132,31.7460 31.7460 31.7460c 17.5328,0.0000 31.7460,-14.2132 31.7460 -31.7460Z"/></g><g stroke-linejoin="miter" stroke-opacity="1.0" fill-opacity="1.0" stroke="rgb(0,0,0)" stroke-width="0.0" fill="rgb(0,0,255)" stroke-linecap="butt" stroke-miterlimit="10.0"><path d="M 412.6984,205.8913 c 0.0000,-17.5328 -14.2132,-31.7460 -31.7460 -31.7460c -17.5328,-0.0000 -31.7460,14.2132 -31.7460 31.7460c -0.0000,17.5328 14.2132,31.7460 31.7460 31.7460c 17.5328,0.0000 31.7460,-14.2132 31.7460 -31.7460Z"/></g><g stroke-linejoin="miter" stroke-opacity="1.0" fill-opacity="0.0" stroke="rgb(0,0,0)" stroke-width="1.0" fill="rgb(0,0,0)" stroke-linecap="butt" stroke-miterlimit="10.0"><path d="M 380.9524,174.1453 c 11.1925,-3.0525 22.3850,-6.1050 32.9670 -6.1050c 10.5820,-0.0000 20.5535,3.0525 30.5250 6.1050"/></g><g stroke-linejoin="miter" stroke-opacity="1.0" fill-opacity="1.0" stroke="rgb(0,0,0)" stroke-width="0.0" fill="rgb(0,0,0)" stroke-linecap="butt" stroke-miterlimit="10.0"></g><g stroke-linejoin="miter" stroke-opacity="1.0" fill-opacity="1.0" stroke="rgb(0,0,0)" stroke-width="0.0" fill="rgb(0,0,0)" stroke-linecap="butt" stroke-miterlimit="10.0"></g><g stroke-linejoin="miter" stroke-opacity="1.0" fill-opacity="1.0" stroke="rgb(0,0,0)" stroke-width="0.0" fill="rgb(0,0,0)" stroke-linecap="butt" stroke-miterlimit="10.0"></g><g stroke-linejoin="miter" stroke-opacity="1.0" fill-opacity="1.0" stroke="rgb(0,0,0)" stroke-width="0.0" fill="rgb(0,0,0)" stroke-linecap="butt" stroke-miterlimit="10.0"></g><g stroke-linejoin="miter" stroke-opacity="1.0" fill-opacity="1.0" stroke="rgb(255,0,0)" stroke-width="3.968253968253967" fill="rgb(255,192,203)" stroke-linecap="butt" stroke-miterlimit="10.0"><path d="M 166.6667,202.8388 c 0.0000,-43.8321 -35.5330,-79.3651 -79.3651 -79.3651c -43.8321,-0.0000 -79.3651,35.5330 -79.3651 79.3651c -0.0000,43.8321 35.5330,79.3651 79.3651 79.3651c 43.8321,0.0000 79.3651,-35.5330 79.3651 -79.3651Z"/></g><g stroke-linejoin="miter" stroke-opacity="1.0" fill-opacity="1.0" stroke="rgb(0,0,0)" stroke-width="0.0" fill="rgb(0,128,0)" stroke-linecap="butt" stroke-miterlimit="10.0"><path d="M 150.7937,205.8913 c 0.0000,-17.5328 -14.2132,-31.7460 -31.7460 -31.7460c -17.5328,-0.0000 -31.7460,14.2132 -31.7460 31.7460c -0.0000,17.5328 14.2132,31.7460 31.7460 31.7460c 17.5328,0.0000 31.7460,-14.2132 31.7460 -31.7460Z"/></g><g stroke-linejoin="miter" stroke-opacity="1.0" fill-opacity="1.0" stroke="rgb(0,0,0)" stroke-width="0.0" fill="rgb(255,0,0)" stroke-linecap="butt" stroke-miterlimit="10.0"><path d="M 87.3016,205.8913 c 0.0000,-17.5328 -14.2132,-31.7460 -31.7460 -31.7460c -17.5328,-0.0000 -31.7460,14.2132 -31.7460 31.7460c -0.0000,17.5328 14.2132,31.7460 31.7460 31.7460c 17.5328,0.0000 31.7460,-14.2132 31.7460 -31.7460Z"/></g><g stroke-linejoin="miter" stroke-opacity="1.0" fill-opacity="0.0" stroke="rgb(0,0,0)" stroke-width="1.0" fill="rgb(0,0,0)" stroke-linecap="butt" stroke-miterlimit="10.0"><path d="M 55.5556,174.1453 c 11.1925,-3.0525 22.3850,-6.1050 32.9670 -6.1050c 10.5820,-0.0000 20.5535,3.0525 30.5250 6.1050"/></g><g stroke-linejoin="miter" stroke-opacity="1.0" fill-opacity="1.0" stroke="rgb(0,0,0)" stroke-width="0.0" fill="rgb(0,0,0)" stroke-linecap="butt" stroke-miterlimit="10.0"></g><g stroke-linejoin="miter" stroke-opacity="1.0" fill-opacity="1.0" stroke="rgb(0,0,0)" stroke-width="0.0" fill="rgb(0,0,0)" stroke-linecap="butt" stroke-miterlimit="10.0"></g><g stroke-linejoin="miter" stroke-opacity="1.0" fill-opacity="1.0" stroke="rgb(0,0,0)" stroke-width="0.0" fill="rgb(0,0,0)" stroke-linecap="butt" stroke-miterlimit="10.0"></g><g stroke-linejoin="miter" stroke-opacity="1.0" fill-opacity="1.0" stroke="rgb(0,0,0)" stroke-width="0.0" fill="rgb(0,0,0)" stroke-linecap="butt" stroke-miterlimit="10.0"></g><g stroke-linejoin="miter" stroke-opacity="1.0" fill-opacity="1.0" font-size="19.841269841269835px" stroke="rgb(0,0,0)" stroke-width="2.1911131419844114" fill="rgb(0,0,0)" stroke-linecap="butt" stroke-miterlimit="10.0"><text dominant-baseline="middle" transform="matrix(1.0000,0.0000,0.0000,1.0000,253.9683,28.0067)" stroke="none" text-anchor="middle">Recolor</text></g><g stroke-linejoin="miter" stroke-opacity="1.0" fill-opacity="0.0" stroke="rgb(0,0,0)" stroke-width="2.1911131419844114" fill="rgb(0,0,0)" stroke-linecap="butt" stroke-miterlimit="10.0"><path d="M 194.4444,47.8480 h 99.8754 "/></g><g stroke-linejoin="miter" stroke-opacity="1.0" fill-opacity="1.0" stroke="rgb(0,0,0)" stroke-width="0.0" fill="rgb(0,0,0)" stroke-linecap="butt" stroke-miterlimit="10.0"></g><g stroke-linejoin="miter" stroke-opacity="1.0" fill-opacity="1.0" stroke="rgb(0,0,0)" stroke-width="0.0" fill="rgb(0,0,0)" stroke-linecap="butt" stroke-miterlimit="10.0"></g><g stroke-linejoin="miter" stroke-opacity="1.0" fill-opacity="1.0" stroke="rgb(0,0,0)" stroke-width="0.0" fill="rgb(0,0,0)" stroke-linecap="butt" stroke-miterlimit="10.0"><path d="M 313.4921,47.8480 l -22.4273,-7.2871 l 3.8310,7.2871 l -3.8310,7.2871 Z"/></g><g stroke-linejoin="miter" stroke-opacity="1.0" fill-opacity="1.0" stroke="rgb(0,0,0)" stroke-width="0.0" fill="rgb(0,0,0)" stroke-linecap="butt" stroke-miterlimit="10.0"><path d="M 294.8958,47.8480 h -0.5760 v -1.0956 l 0.5760,1.0956 h -0.5760 v 1.0956 Z"/></g><g stroke-linejoin="miter" stroke-opacity="1.0" fill-opacity="0.0" stroke="rgb(0,0,0)" stroke-width="2.1911131419844114" fill="rgb(0,0,0)" stroke-linecap="butt" stroke-miterlimit="10.0"><path d="M 313.4921,47.8480 l -99.8754,-0.0000 "/></g><g stroke-linejoin="miter" stroke-opacity="1.0" fill-opacity="1.0" stroke="rgb(0,0,0)" stroke-width="0.0" fill="rgb(0,0,0)" stroke-linecap="butt" stroke-miterlimit="10.0"></g><g stroke-linejoin="miter" stroke-opacity="1.0" fill-opacity="1.0" stroke="rgb(0,0,0)" stroke-width="0.0" fill="rgb(0,0,0)" stroke-linecap="butt" stroke-miterlimit="10.0"></g><g stroke-linejoin="miter" stroke-opacity="1.0" fill-opacity="1.0" stroke="rgb(0,0,0)" stroke-width="0.0" fill="rgb(0,0,0)" stroke-linecap="butt" stroke-miterlimit="10.0"><path d="M 194.4444,47.8480 l 22.4273,7.2871 l -3.8310,-7.2871 l 3.8310,-7.2871 Z"/></g><g stroke-linejoin="miter" stroke-opacity="1.0" fill-opacity="1.0" stroke="rgb(0,0,0)" stroke-width="0.0" fill="rgb(0,0,0)" stroke-linecap="butt" stroke-miterlimit="10.0"><path d="M 213.0407,47.8480 l 0.5760,0.0000 l -0.0000,1.0956 l -0.5760,-1.0956 l 0.5760,0.0000 l 0.0000,-1.0956 Z"/></g><g stroke-linejoin="miter" stroke-opacity="1.0" fill-opacity="1.0" font-size="119.04761904761901px" stroke="rgb(0,0,0)" stroke-width="0.0" fill="rgb(128,0,128)" stroke-linecap="butt" stroke-miterlimit="10.0"><text dominant-baseline="middle" transform="matrix(1.0000,0.0000,0.0000,1.0000,253.9683,92.4908)" stroke="none" text-anchor="middle">?</text></g><g stroke-linejoin="miter" stroke-opacity="1.0" fill-opacity="1.0" stroke="rgb(0,128,0)" stroke-width="1.984126984126984" fill="rgb(144,238,144)" stroke-linecap="butt" stroke-miterlimit="10.0"><path d="M 492.0635,51.6636 c 0.0000,-21.9161 -17.7665,-39.6825 -39.6825 -39.6825c -21.9161,-0.0000 -39.6825,17.7665 -39.6825 39.6825c -0.0000,21.9161 17.7665,39.6825 39.6825 39.6825c 21.9161,0.0000 39.6825,-17.7665 39.6825 -39.6825Z"/></g><g stroke-linejoin="miter" stroke-opacity="1.0" fill-opacity="1.0" stroke="rgb(0,128,0)" stroke-width="1.5873015873015874" fill="rgb(144,238,144)" stroke-linecap="butt" stroke-miterlimit="10.0"><path d="M 484.1270,51.6636 c 0.0000,-17.5328 -14.2132,-31.7460 -31.7460 -31.7460c -17.5328,-0.0000 -31.7460,14.2132 -31.7460 31.7460c -0.0000,17.5328 14.2132,31.7460 31.7460 31.7460c 17.5328,0.0000 31.7460,-14.2132 31.7460 -31.7460Z"/></g><g stroke-linejoin="miter" stroke-opacity="1.0" fill-opacity="1.0" stroke="rgb(255,0,0)" stroke-width="0.6349206349206349" fill="rgb(255,192,203)" stroke-linecap="butt" stroke-miterlimit="10.0"><path d="M 477.7778,52.8846 c 0.0000,-7.0131 -5.6853,-12.6984 -12.6984 -12.6984c -7.0131,-0.0000 -12.6984,5.6853 -12.6984 12.6984c -0.0000,7.0131 5.6853,12.6984 12.6984 12.6984c 7.0131,0.0000 12.6984,-5.6853 12.6984 -12.6984Z"/></g><g stroke-linejoin="miter" stroke-opacity="1.0" fill-opacity="1.0" stroke="rgb(0,0,0)" stroke-width="0.0" fill="rgb(255,0,0)" stroke-linecap="butt" stroke-miterlimit="10.0"><path d="M 475.2381,52.8846 c 0.0000,-5.6105 -4.5482,-10.1587 -10.1587 -10.1587c -5.6105,-0.0000 -10.1587,4.5482 -10.1587 10.1587c -0.0000,5.6105 4.5482,10.1587 10.1587 10.1587c 5.6105,0.0000 10.1587,-4.5482 10.1587 -10.1587Z"/></g><g stroke-linejoin="miter" stroke-opacity="1.0" fill-opacity="1.0" stroke="rgb(0,0,0)" stroke-width="0.0" fill="rgb(0,128,0)" stroke-linecap="butt" stroke-miterlimit="10.0"><path d="M 452.3810,52.8846 c 0.0000,-7.0131 -5.6853,-12.6984 -12.6984 -12.6984c -7.0131,-0.0000 -12.6984,5.6853 -12.6984 12.6984c -0.0000,7.0131 5.6853,12.6984 12.6984 12.6984c 7.0131,0.0000 12.6984,-5.6853 12.6984 -12.6984Z"/></g><g stroke-linejoin="miter" stroke-opacity="1.0" fill-opacity="0.0" stroke="rgb(0,0,0)" stroke-width="1.0" fill="rgb(0,0,0)" stroke-linecap="butt" stroke-miterlimit="10.0"><path d="M 439.6825,40.1862 c 4.4770,-1.2210 8.9540,-2.4420 13.1868 -2.4420c 4.2328,-0.0000 8.2214,1.2210 12.2100 2.4420"/></g><g stroke-linejoin="miter" stroke-opacity="1.0" fill-opacity="1.0" stroke="rgb(0,0,0)" stroke-width="0.0" fill="rgb(0,0,0)" stroke-linecap="butt" stroke-miterlimit="10.0"></g><g stroke-linejoin="miter" stroke-opacity="1.0" fill-opacity="1.0" stroke="rgb(0,0,0)" stroke-width="0.0" fill="rgb(0,0,0)" stroke-linecap="butt" stroke-miterlimit="10.0"></g><g stroke-linejoin="miter" stroke-opacity="1.0" fill-opacity="1.0" stroke="rgb(0,0,0)" stroke-width="0.0" fill="rgb(0,0,0)" stroke-linecap="butt" stroke-miterlimit="10.0"></g><g stroke-linejoin="miter" stroke-opacity="1.0" fill-opacity="1.0" stroke="rgb(0,0,0)" stroke-width="0.0" fill="rgb(0,0,0)" stroke-linecap="butt" stroke-miterlimit="10.0"></g><g stroke-linejoin="miter" stroke-opacity="1.0" fill-opacity="1.0" stroke="rgb(0,0,0)" stroke-width="0.0" fill="rgb(255,0,0)" stroke-linecap="butt" stroke-miterlimit="10.0"><path d="M 412.6984,51.6636 c 0.0000,-21.9161 -17.7665,-39.6825 -39.6825 -39.6825c -21.9161,-0.0000 -39.6825,17.7665 -39.6825 39.6825c -0.0000,21.9161 17.7665,39.6825 39.6825 39.6825c 21.9161,0.0000 39.6825,-17.7665 39.6825 -39.6825Z"/></g><g stroke-linejoin="miter" stroke-opacity="1.0" fill-opacity="0.0" stroke="rgb(0,0,0)" stroke-width="1.0" fill="rgb(0,0,0)" stroke-linecap="butt" stroke-miterlimit="10.0"><path d="M 373.0159,11.9811 c 13.9906,-3.8156 27.9813,-7.6313 41.2088 -7.6313c 13.2275,-0.0000 25.6919,3.8156 38.1563 7.6313"/></g><g stroke-linejoin="miter" stroke-opacity="1.0" fill-opacity="1.0" stroke="rgb(0,0,0)" stroke-width="0.0" fill="rgb(0,0,0)" stroke-linecap="butt" stroke-miterlimit="10.0"></g><g stroke-linejoin="miter" stroke-opacity="1.0" fill-opacity="1.0" stroke="rgb(0,0,0)" stroke-width="0.0" fill="rgb(0,0,0)" stroke-linecap="butt" stroke-miterlimit="10.0"></g><g stroke-linejoin="miter" stroke-opacity="1.0" fill-opacity="1.0" stroke="rgb(0,0,0)" stroke-width="0.0" fill="rgb(0,0,0)" stroke-linecap="butt" stroke-miterlimit="10.0"></g><g stroke-linejoin="miter" stroke-opacity="1.0" fill-opacity="1.0" stroke="rgb(0,0,0)" stroke-width="0.0" fill="rgb(0,0,0)" stroke-linecap="butt" stroke-miterlimit="10.0"></g><g stroke-linejoin="miter" stroke-opacity="1.0" fill-opacity="1.0" stroke="rgb(255,0,0)" stroke-width="1.984126984126984" fill="rgb(255,192,203)" stroke-linecap="butt" stroke-miterlimit="10.0"><path d="M 166.6667,51.6636 c 0.0000,-21.9161 -17.7665,-39.6825 -39.6825 -39.6825c -21.9161,-0.0000 -39.6825,17.7665 -39.6825 39.6825c -0.0000,21.9161 17.7665,39.6825 39.6825 39.6825c 21.9161,0.0000 39.6825,-17.7665 39.6825 -39.6825Z"/></g><g stroke-linejoin="miter" stroke-opacity="1.0" fill-opacity="1.0" stroke="rgb(0,128,0)" stroke-width="1.5873015873015874" fill="rgb(144,238,144)" stroke-linecap="butt" stroke-miterlimit="10.0"><path d="M 158.7302,51.6636 c 0.0000,-17.5328 -14.2132,-31.7460 -31.7460 -31.7460c -17.5328,-0.0000 -31.7460,14.2132 -31.7460 31.7460c -0.0000,17.5328 14.2132,31.7460 31.7460 31.7460c 17.5328,0.0000 31.7460,-14.2132 31.7460 -31.7460Z"/></g><g stroke-linejoin="miter" stroke-opacity="1.0" fill-opacity="1.0" stroke="rgb(255,0,0)" stroke-width="0.6349206349206349" fill="rgb(255,192,203)" stroke-linecap="butt" stroke-miterlimit="10.0"><path d="M 152.3810,52.8846 c 0.0000,-7.0131 -5.6853,-12.6984 -12.6984 -12.6984c -7.0131,-0.0000 -12.6984,5.6853 -12.6984 12.6984c -0.0000,7.0131 5.6853,12.6984 12.6984 12.6984c 7.0131,0.0000 12.6984,-5.6853 12.6984 -12.6984Z"/></g><g stroke-linejoin="miter" stroke-opacity="1.0" fill-opacity="1.0" stroke="rgb(0,0,0)" stroke-width="0.0" fill="rgb(255,0,0)" stroke-linecap="butt" stroke-miterlimit="10.0"><path d="M 149.8413,52.8846 c 0.0000,-5.6105 -4.5482,-10.1587 -10.1587 -10.1587c -5.6105,-0.0000 -10.1587,4.5482 -10.1587 10.1587c -0.0000,5.6105 4.5482,10.1587 10.1587 10.1587c 5.6105,0.0000 10.1587,-4.5482 10.1587 -10.1587Z"/></g><g stroke-linejoin="miter" stroke-opacity="1.0" fill-opacity="1.0" stroke="rgb(0,0,0)" stroke-width="0.0" fill="rgb(255,0,0)" stroke-linecap="butt" stroke-miterlimit="10.0"><path d="M 126.9841,52.8846 c 0.0000,-7.0131 -5.6853,-12.6984 -12.6984 -12.6984c -7.0131,-0.0000 -12.6984,5.6853 -12.6984 12.6984c -0.0000,7.0131 5.6853,12.6984 12.6984 12.6984c 7.0131,0.0000 12.6984,-5.6853 12.6984 -12.6984Z"/></g><g stroke-linejoin="miter" stroke-opacity="1.0" fill-opacity="0.0" stroke="rgb(0,0,0)" stroke-width="1.0" fill="rgb(0,0,0)" stroke-linecap="butt" stroke-miterlimit="10.0"><path d="M 114.2857,40.1862 c 4.4770,-1.2210 8.9540,-2.4420 13.1868 -2.4420c 4.2328,-0.0000 8.2214,1.2210 12.2100 2.4420"/></g><g stroke-linejoin="miter" stroke-opacity="1.0" fill-opacity="1.0" stroke="rgb(0,0,0)" stroke-width="0.0" fill="rgb(0,0,0)" stroke-linecap="butt" stroke-miterlimit="10.0"></g><g stroke-linejoin="miter" stroke-opacity="1.0" fill-opacity="1.0" stroke="rgb(0,0,0)" stroke-width="0.0" fill="rgb(0,0,0)" stroke-linecap="butt" stroke-miterlimit="10.0"></g><g stroke-linejoin="miter" stroke-opacity="1.0" fill-opacity="1.0" stroke="rgb(0,0,0)" stroke-width="0.0" fill="rgb(0,0,0)" stroke-linecap="butt" stroke-miterlimit="10.0"></g><g stroke-linejoin="miter" stroke-opacity="1.0" fill-opacity="1.0" stroke="rgb(0,0,0)" stroke-width="0.0" fill="rgb(0,0,0)" stroke-linecap="butt" stroke-miterlimit="10.0"></g><g stroke-linejoin="miter" stroke-opacity="1.0" fill-opacity="1.0" stroke="rgb(0,0,0)" stroke-width="0.0" fill="rgb(255,0,0)" stroke-linecap="butt" stroke-miterlimit="10.0"><path d="M 87.3016,51.6636 c 0.0000,-21.9161 -17.7665,-39.6825 -39.6825 -39.6825c -21.9161,-0.0000 -39.6825,17.7665 -39.6825 39.6825c -0.0000,21.9161 17.7665,39.6825 39.6825 39.6825c 21.9161,0.0000 39.6825,-17.7665 39.6825 -39.6825Z"/></g><g stroke-linejoin="miter" stroke-opacity="1.0" fill-opacity="0.0" stroke="rgb(0,0,0)" stroke-width="1.0" fill="rgb(0,0,0)" stroke-linecap="butt" stroke-miterlimit="10.0"><path d="M 47.6190,11.9811 c 13.9906,-3.8156 27.9813,-7.6313 41.2088 -7.6313c 13.2275,-0.0000 25.6919,3.8156 38.1563 7.6313"/></g><g stroke-linejoin="miter" stroke-opacity="1.0" fill-opacity="1.0" stroke="rgb(0,0,0)" stroke-width="0.0" fill="rgb(0,0,0)" stroke-linecap="butt" stroke-miterlimit="10.0"></g><g stroke-linejoin="miter" stroke-opacity="1.0" fill-opacity="1.0" stroke="rgb(0,0,0)" stroke-width="0.0" fill="rgb(0,0,0)" stroke-linecap="butt" stroke-miterlimit="10.0"></g><g stroke-linejoin="miter" stroke-opacity="1.0" fill-opacity="1.0" stroke="rgb(0,0,0)" stroke-width="0.0" fill="rgb(0,0,0)" stroke-linecap="butt" stroke-miterlimit="10.0"></g><g stroke-linejoin="miter" stroke-opacity="1.0" fill-opacity="1.0" stroke="rgb(0,0,0)" stroke-width="0.0" fill="rgb(0,0,0)" stroke-linecap="butt" stroke-miterlimit="10.0"></g></svg>