<?xml version="1.0" encoding="UTF-8"?>
<!DOCTYPE svg PUBLIC "-//W3C//DTD SVG 1.1//EN"
    "http://www.w3.org/Graphics/SVG/1.1/DTD/svg11.dtd"><svg xmlns="http://www.w3.org/2000/svg" height="174.6032" stroke-opacity="1" viewBox="0 0 500 175" font-size="1" width="500.0000" xmlns:xlink="http://www.w3.org/1999/xlink" stroke="rgb(0,0,0)" version="1.1"><defs></defs><g stroke-linejoin="miter" stroke-opacity="1.0" fill-opacity="1.0" font-size="19.841269841269845px" stroke="rgb(0,0,0)" stroke-width="1.181873680570558" fill="rgb(0,0,0)" stroke-linecap="butt" stroke-miterlimit="10.0"><text dominant-baseline="middle" transform="matrix(1.0000,0.0000,0.0000,1.0000,253.9683,67.4603)" stroke="none" text-anchor="middle">Recolor</text></g><g stroke-linejoin="miter" stroke-opacity="1.0" fill-opacity="0.0" stroke="rgb(0,0,0)" stroke-width="1.181873680570558" fill="rgb(0,0,0)" stroke-linecap="butt" stroke-miterlimit="10.0"><path d="M 194.4444,87.3016 h 108.7062 "/></g><g stroke-linejoin="miter" stroke-opacity="1.0" fill-opacity="1.0" stroke="rgb(0,0,0)" stroke-width="0.0" fill="rgb(0,0,0)" stroke-linecap="butt" stroke-miterlimit="10.0"></g><g stroke-linejoin="miter" stroke-opacity="1.0" fill-opacity="1.0" stroke="rgb(0,0,0)" stroke-width="0.0" fill="rgb(0,0,0)" stroke-linecap="butt" stroke-miterlimit="10.0"></g><g stroke-linejoin="miter" stroke-opacity="1.0" fill-opacity="1.0" stroke="rgb(0,0,0)" stroke-width="0.0" fill="rgb(0,0,0)" stroke-linecap="butt" stroke-miterlimit="10.0"><path d="M 313.4921,87.3016 l -12.0972,-3.9306 l 2.0664,3.9306 l -2.0664,3.9306 Z"/></g><g stroke-linejoin="miter" stroke-opacity="1.0" fill-opacity="1.0" stroke="rgb(0,0,0)" stroke-width="0.0" fill="rgb(0,0,0)" stroke-linecap="butt" stroke-miterlimit="10.0"><path d="M 303.4613,87.3016 h -0.3107 v -0.5909 l 0.3107,0.5909 h -0.3107 v 0.5909 Z"/></g><g stroke-linejoin="miter" stroke-opacity="1.0" fill-opacity="0.0" stroke="rgb(0,0,0)" stroke-width="1.181873680570558" fill="rgb(0,0,0)" stroke-linecap="butt" stroke-miterlimit="10.0"><path d="M 313.4921,87.3016 l -108.7062,-0.0000 "/></g><g stroke-linejoin="miter" stroke-opacity="1.0" fill-opacity="1.0" stroke="rgb(0,0,0)" stroke-width="0.0" fill="rgb(0,0,0)" stroke-linecap="butt" stroke-miterlimit="10.0"></g><g stroke-linejoin="miter" stroke-opacity="1.0" fill-opacity="1.0" stroke="rgb(0,0,0)" stroke-width="0.0" fill="rgb(0,0,0)" stroke-linecap="butt" stroke-miterlimit="10.0"></g><g stroke-linejoin="miter" stroke-opacity="1.0" fill-opacity="1.0" stroke="rgb(0,0,0)" stroke-width="0.0" fill="rgb(0,0,0)" stroke-linecap="butt" stroke-miterlimit="10.0"><path d="M 194.4444,87.3016 l 12.0972,3.9306 l -2.0664,-3.9306 l 2.0664,-3.9306 Z"/></g><g stroke-linejoin="miter" stroke-opacity="1.0" fill-opacity="1.0" stroke="rgb(0,0,0)" stroke-width="0.0" fill="rgb(0,0,0)" stroke-linecap="butt" stroke-miterlimit="10.0"><path d="M 204.4752,87.3016 l 0.3107,0.0000 l -0.0000,0.5909 l -0.3107,-0.5909 l 0.3107,0.0000 l 0.0000,-0.5909 Z"/></g><g stroke-linejoin="miter" stroke-opacity="1.0" fill-opacity="1.0" stroke="rgb(255,0,0)" stroke-width="3.9682539682539693" fill="rgb(255,192,203)" stroke-linecap="butt" stroke-miterlimit="10.0"><path d="M 492.0635,87.3016 c 0.0000,-43.8321 -35.5330,-79.3651 -79.3651 -79.3651c -43.8321,-0.0000 -79.3651,35.5330 -79.3651 79.3651c -0.0000,43.8321 35.5330,79.3651 79.3651 79.3651c 43.8321,0.0000 79.3651,-35.5330 79.3651 -79.3651Z"/></g><g stroke-linejoin="miter" stroke-opacity="1.0" fill-opacity="1.0" stroke="rgb(0,0,255)" stroke-width="3.1746031746031758" fill="rgb(173,216,230)" stroke-linecap="butt" stroke-miterlimit="10.0"><path d="M 476.1905,87.3016 c 0.0000,-35.0657 -28.4264,-63.4921 -63.4921 -63.4921c -35.0657,-0.0000 -63.4921,28.4264 -63.4921 63.4921c -0.0000,35.0657 28.4264,63.4921 63.4921 63.4921c 35.0657,0.0000 63.4921,-28.4264 63.4921 -63.4921Z"/></g><g stroke-linejoin="miter" stroke-opacity="1.0" fill-opacity="1.0" stroke="rgb(0,128,0)" stroke-width="0.5373878862250957" fill="rgb(144,238,144)" stroke-linecap="butt" stroke-miterlimit="10.0"><path d="M 463.4921,90.7770 c 0.0000,-5.9358 -4.8119,-10.7478 -10.7478 -10.7478c -5.9358,-0.0000 -10.7478,4.8119 -10.7478 10.7478c -0.0000,5.9358 4.8119,10.7478 10.7478 10.7478c 5.9358,0.0000 10.7478,-4.8119 10.7478 -10.7478Z"/></g><g stroke-linejoin="miter" stroke-opacity="1.0" fill-opacity="1.0" stroke="rgb(0,0,0)" stroke-width="0.0" fill="rgb(0,128,0)" stroke-linecap="butt" stroke-miterlimit="10.0"><path d="M 461.3425,90.7770 c 0.0000,-4.7487 -3.8495,-8.5982 -8.5982 -8.5982c -4.7487,-0.0000 -8.5982,3.8495 -8.5982 8.5982c -0.0000,4.7487 3.8495,8.5982 8.5982 8.5982c 4.7487,0.0000 8.5982,-3.8495 8.5982 -8.5982Z"/></g><g stroke-linejoin="miter" stroke-opacity="1.0" fill-opacity="1.0" stroke="rgb(128,0,128)" stroke-width="0.5373878862250957" fill="rgb(147,112,219)" stroke-linecap="butt" stroke-miterlimit="10.0"><path d="M 441.9965,90.7770 c 0.0000,-5.9358 -4.8119,-10.7478 -10.7478 -10.7478c -5.9358,-0.0000 -10.7478,4.8119 -10.7478 10.7478c -0.0000,5.9358 4.8119,10.7478 10.7478 10.7478c 5.9358,0.0000 10.7478,-4.8119 10.7478 -10.7478Z"/></g><g stroke-linejoin="miter" stroke-opacity="1.0" fill-opacity="1.0" stroke="rgb(0,0,0)" stroke-width="0.0" fill="rgb(0,0,255)" stroke-linecap="butt" stroke-miterlimit="10.0"><path d="M 439.8470,91.1904 c 0.0000,-2.3743 -1.9248,-4.2991 -4.2991 -4.2991c -2.3743,-0.0000 -4.2991,1.9248 -4.2991 4.2991c -0.0000,2.3743 1.9248,4.2991 4.2991 4.2991c 2.3743,0.0000 4.2991,-1.9248 4.2991 -4.2991Z"/></g><g stroke-linejoin="miter" stroke-opacity="1.0" fill-opacity="1.0" stroke="rgb(0,0,0)" stroke-width="0.0" fill="rgb(128,0,128)" stroke-linecap="butt" stroke-miterlimit="10.0"><path d="M 431.2488,91.1904 c 0.0000,-2.3743 -1.9248,-4.2991 -4.2991 -4.2991c -2.3743,-0.0000 -4.2991,1.9248 -4.2991 4.2991c -0.0000,2.3743 1.9248,4.2991 4.2991 4.2991c 2.3743,0.0000 4.2991,-1.9248 4.2991 -4.2991Z"/></g><g stroke-linejoin="miter" stroke-opacity="1.0" fill-opacity="0.0" stroke="rgb(0,0,0)" stroke-width="1.0" fill="rgb(0,0,0)" stroke-linecap="butt" stroke-miterlimit="10.0"><path d="M 426.9497,86.8913 c 1.5157,-0.4134 3.0314,-0.8268 4.4645 -0.8268c 1.4330,-0.0000 2.7834,0.4134 4.1338 0.8268"/></g><g stroke-linejoin="miter" stroke-opacity="1.0" fill-opacity="1.0" stroke="rgb(0,0,0)" stroke-width="0.0" fill="rgb(0,0,0)" stroke-linecap="butt" stroke-miterlimit="10.0"></g><g stroke-linejoin="miter" stroke-opacity="1.0" fill-opacity="1.0" stroke="rgb(0,0,0)" stroke-width="0.0" fill="rgb(0,0,0)" stroke-linecap="butt" stroke-miterlimit="10.0"></g><g stroke-linejoin="miter" stroke-opacity="1.0" fill-opacity="1.0" stroke="rgb(0,0,0)" stroke-width="0.0" fill="rgb(0,0,0)" stroke-linecap="butt" stroke-miterlimit="10.0"></g><g stroke-linejoin="miter" stroke-opacity="1.0" fill-opacity="1.0" stroke="rgb(0,0,0)" stroke-width="0.0" fill="rgb(0,0,0)" stroke-linecap="butt" stroke-miterlimit="10.0"></g><g stroke-linejoin="miter" stroke-opacity="1.0" fill-opacity="0.0" stroke="rgb(0,0,0)" stroke-width="1.0" fill="rgb(0,0,0)" stroke-linecap="butt" stroke-miterlimit="10.0"><path d="M 431.2488,80.0293 c 3.7893,-1.0334 7.5785,-2.0669 11.1611 -2.0669c 3.5826,-0.0000 6.9585,1.0334 10.3344 2.0669"/></g><g stroke-linejoin="miter" stroke-opacity="1.0" fill-opacity="1.0" stroke="rgb(0,0,0)" stroke-width="0.0" fill="rgb(0,0,0)" stroke-linecap="butt" stroke-miterlimit="10.0"></g><g stroke-linejoin="miter" stroke-opacity="1.0" fill-opacity="1.0" stroke="rgb(0,0,0)" stroke-width="0.0" fill="rgb(0,0,0)" stroke-linecap="butt" stroke-miterlimit="10.0"></g><g stroke-linejoin="miter" stroke-opacity="1.0" fill-opacity="1.0" stroke="rgb(0,0,0)" stroke-width="0.0" fill="rgb(0,0,0)" stroke-linecap="butt" stroke-miterlimit="10.0"></g><g stroke-linejoin="miter" stroke-opacity="1.0" fill-opacity="1.0" stroke="rgb(0,0,0)" stroke-width="0.0" fill="rgb(0,0,0)" stroke-linecap="butt" stroke-miterlimit="10.0"></g><g stroke-linejoin="miter" stroke-opacity="1.0" fill-opacity="1.0" stroke="rgb(0,0,255)" stroke-width="0.5186315883990303" fill="rgb(173,216,230)" stroke-linecap="butt" stroke-miterlimit="10.0"><path d="M 420.5010,91.1522 c 0.0000,-5.7286 -4.6440,-10.3726 -10.3726 -10.3726c -5.7286,-0.0000 -10.3726,4.6440 -10.3726 10.3726c -0.0000,5.7286 4.6440,10.3726 10.3726 10.3726c 5.7286,0.0000 10.3726,-4.6440 10.3726 -10.3726Z"/></g><g stroke-linejoin="miter" stroke-opacity="1.0" fill-opacity="1.0" stroke="rgb(0,0,0)" stroke-width="0.0" fill="rgb(0,0,255)" stroke-linecap="butt" stroke-miterlimit="10.0"><path d="M 418.4265,91.1522 c 0.0000,-4.5829 -3.7152,-8.2981 -8.2981 -8.2981c -4.5829,-0.0000 -8.2981,3.7152 -8.2981 8.2981c -0.0000,4.5829 3.7152,8.2981 8.2981 8.2981c 4.5829,0.0000 8.2981,-3.7152 8.2981 -8.2981Z"/></g><g stroke-linejoin="miter" stroke-opacity="1.0" fill-opacity="1.0" stroke="rgb(0,0,0)" stroke-width="0.0" fill="rgb(0,0,255)" stroke-linecap="butt" stroke-miterlimit="10.0"><path d="M 399.7558,92.0620 c 0.0000,-5.2261 -4.2366,-9.4628 -9.4628 -9.4628c -5.2261,-0.0000 -9.4628,4.2366 -9.4628 9.4628c -0.0000,5.2261 4.2366,9.4628 9.4628 9.4628c 5.2261,0.0000 9.4628,-4.2366 9.4628 -9.4628Z"/></g><g stroke-linejoin="miter" stroke-opacity="1.0" fill-opacity="1.0" stroke="rgb(0,0,0)" stroke-width="0.0" fill="rgb(255,0,0)" stroke-linecap="butt" stroke-miterlimit="10.0"><path d="M 380.8303,92.0620 c 0.0000,-5.2261 -4.2366,-9.4628 -9.4628 -9.4628c -5.2261,-0.0000 -9.4628,4.2366 -9.4628 9.4628c -0.0000,5.2261 4.2366,9.4628 9.4628 9.4628c 5.2261,0.0000 9.4628,-4.2366 9.4628 -9.4628Z"/></g><g stroke-linejoin="miter" stroke-opacity="1.0" fill-opacity="0.0" stroke="rgb(0,0,0)" stroke-width="1.0" fill="rgb(0,0,0)" stroke-linecap="butt" stroke-miterlimit="10.0"><path d="M 371.3675,82.5993 c 3.3362,-0.9099 6.6725,-1.8198 9.8267 -1.8198c 3.1543,0.0000 6.1265,0.9099 9.0988 1.8198"/></g><g stroke-linejoin="miter" stroke-opacity="1.0" fill-opacity="1.0" stroke="rgb(0,0,0)" stroke-width="0.0" fill="rgb(0,0,0)" stroke-linecap="butt" stroke-miterlimit="10.0"></g><g stroke-linejoin="miter" stroke-opacity="1.0" fill-opacity="1.0" stroke="rgb(0,0,0)" stroke-width="0.0" fill="rgb(0,0,0)" stroke-linecap="butt" stroke-miterlimit="10.0"></g><g stroke-linejoin="miter" stroke-opacity="1.0" fill-opacity="1.0" stroke="rgb(0,0,0)" stroke-width="0.0" fill="rgb(0,0,0)" stroke-linecap="butt" stroke-miterlimit="10.0"></g><g stroke-linejoin="miter" stroke-opacity="1.0" fill-opacity="1.0" stroke="rgb(0,0,0)" stroke-width="0.0" fill="rgb(0,0,0)" stroke-linecap="butt" stroke-miterlimit="10.0"></g><g stroke-linejoin="miter" stroke-opacity="1.0" fill-opacity="0.0" stroke="rgb(0,0,0)" stroke-width="1.0" fill="rgb(0,0,0)" stroke-linecap="butt" stroke-miterlimit="10.0"><path d="M 380.8303,80.7795 c 5.1647,-1.4086 10.3295,-2.8171 15.2125 -2.8171c 4.8830,-0.0000 9.4843,1.4086 14.0856 2.8171"/></g><g stroke-linejoin="miter" stroke-opacity="1.0" fill-opacity="1.0" stroke="rgb(0,0,0)" stroke-width="0.0" fill="rgb(0,0,0)" stroke-linecap="butt" stroke-miterlimit="10.0"></g><g stroke-linejoin="miter" stroke-opacity="1.0" fill-opacity="1.0" stroke="rgb(0,0,0)" stroke-width="0.0" fill="rgb(0,0,0)" stroke-linecap="butt" stroke-miterlimit="10.0"></g><g stroke-linejoin="miter" stroke-opacity="1.0" fill-opacity="1.0" stroke="rgb(0,0,0)" stroke-width="0.0" fill="rgb(0,0,0)" stroke-linecap="butt" stroke-miterlimit="10.0"></g><g stroke-linejoin="miter" stroke-opacity="1.0" fill-opacity="1.0" stroke="rgb(0,0,0)" stroke-width="0.0" fill="rgb(0,0,0)" stroke-linecap="butt" stroke-miterlimit="10.0"></g><g stroke-linejoin="miter" stroke-opacity="1.0" fill-opacity="0.0" stroke="rgb(0,0,0)" stroke-width="1.0" fill="rgb(0,0,0)" stroke-linecap="butt" stroke-miterlimit="10.0"><path d="M 391.2029,77.9624 c 8.9540,-2.4420 17.9080,-4.8840 26.3736 -4.8840c 8.4656,-0.0000 16.4428,2.4420 24.4200 4.8840"/></g><g stroke-linejoin="miter" stroke-opacity="1.0" fill-opacity="1.0" stroke="rgb(0,0,0)" stroke-width="0.0" fill="rgb(0,0,0)" stroke-linecap="butt" stroke-miterlimit="10.0"></g><g stroke-linejoin="miter" stroke-opacity="1.0" fill-opacity="1.0" stroke="rgb(0,0,0)" stroke-width="0.0" fill="rgb(0,0,0)" stroke-linecap="butt" stroke-miterlimit="10.0"></g><g stroke-linejoin="miter" stroke-opacity="1.0" fill-opacity="1.0" stroke="rgb(0,0,0)" stroke-width="0.0" fill="rgb(0,0,0)" stroke-linecap="butt" stroke-miterlimit="10.0"></g><g stroke-linejoin="miter" stroke-opacity="1.0" fill-opacity="1.0" stroke="rgb(0,0,0)" stroke-width="0.0" fill="rgb(0,0,0)" stroke-linecap="butt" stroke-miterlimit="10.0"></g><g stroke-linejoin="miter" stroke-opacity="1.0" fill-opacity="1.0" stroke="rgb(255,0,0)" stroke-width="3.9682539682539693" fill="rgb(255,192,203)" stroke-linecap="butt" stroke-miterlimit="10.0"><path d="M 166.6667,87.3016 c 0.0000,-43.8321 -35.5330,-79.3651 -79.3651 -79.3651c -43.8321,-0.0000 -79.3651,35.5330 -79.3651 79.3651c -0.0000,43.8321 35.5330,79.3651 79.3651 79.3651c 43.8321,0.0000 79.3651,-35.5330 79.3651 -79.3651Z"/></g><g stroke-linejoin="miter" stroke-opacity="1.0" fill-opacity="1.0" stroke="rgb(0,128,0)" stroke-width="3.1746031746031758" fill="rgb(144,238,144)" stroke-linecap="butt" stroke-miterlimit="10.0"><path d="M 150.7937,87.3016 c 0.0000,-35.0657 -28.4264,-63.4921 -63.4921 -63.4921c -35.0657,-0.0000 -63.4921,28.4264 -63.4921 63.4921c -0.0000,35.0657 28.4264,63.4921 63.4921 63.4921c 35.0657,0.0000 63.4921,-28.4264 63.4921 -63.4921Z"/></g><g stroke-linejoin="miter" stroke-opacity="1.0" fill-opacity="1.0" stroke="rgb(0,128,0)" stroke-width="0.5373878862250957" fill="rgb(144,238,144)" stroke-linecap="butt" stroke-miterlimit="10.0"><path d="M 138.0952,90.7770 c 0.0000,-5.9358 -4.8119,-10.7478 -10.7478 -10.7478c -5.9358,-0.0000 -10.7478,4.8119 -10.7478 10.7478c -0.0000,5.9358 4.8119,10.7478 10.7478 10.7478c 5.9358,0.0000 10.7478,-4.8119 10.7478 -10.7478Z"/></g><g stroke-linejoin="miter" stroke-opacity="1.0" fill-opacity="1.0" stroke="rgb(0,0,0)" stroke-width="0.0" fill="rgb(0,128,0)" stroke-linecap="butt" stroke-miterlimit="10.0"><path d="M 135.9457,90.7770 c 0.0000,-4.7487 -3.8495,-8.5982 -8.5982 -8.5982c -4.7487,-0.0000 -8.5982,3.8495 -8.5982 8.5982c -0.0000,4.7487 3.8495,8.5982 8.5982 8.5982c 4.7487,0.0000 8.5982,-3.8495 8.5982 -8.5982Z"/></g><g stroke-linejoin="miter" stroke-opacity="1.0" fill-opacity="1.0" stroke="rgb(128,0,128)" stroke-width="0.5373878862250957" fill="rgb(147,112,219)" stroke-linecap="butt" stroke-miterlimit="10.0"><path d="M 116.5997,90.7770 c 0.0000,-5.9358 -4.8119,-10.7478 -10.7478 -10.7478c -5.9358,-0.0000 -10.7478,4.8119 -10.7478 10.7478c -0.0000,5.9358 4.8119,10.7478 10.7478 10.7478c 5.9358,0.0000 10.7478,-4.8119 10.7478 -10.7478Z"/></g><g stroke-linejoin="miter" stroke-opacity="1.0" fill-opacity="1.0" stroke="rgb(0,0,0)" stroke-width="0.0" fill="rgb(0,128,0)" stroke-linecap="butt" stroke-miterlimit="10.0"><path d="M 114.4502,91.1904 c 0.0000,-2.3743 -1.9248,-4.2991 -4.2991 -4.2991c -2.3743,-0.0000 -4.2991,1.9248 -4.2991 4.2991c -0.0000,2.3743 1.9248,4.2991 4.2991 4.2991c 2.3743,0.0000 4.2991,-1.9248 4.2991 -4.2991Z"/></g><g stroke-linejoin="miter" stroke-opacity="1.0" fill-opacity="1.0" stroke="rgb(0,0,0)" stroke-width="0.0" fill="rgb(128,0,128)" stroke-linecap="butt" stroke-miterlimit="10.0"><path d="M 105.8520,91.1904 c 0.0000,-2.3743 -1.9248,-4.2991 -4.2991 -4.2991c -2.3743,-0.0000 -4.2991,1.9248 -4.2991 4.2991c -0.0000,2.3743 1.9248,4.2991 4.2991 4.2991c 2.3743,0.0000 4.2991,-1.9248 4.2991 -4.2991Z"/></g><g stroke-linejoin="miter" stroke-opacity="1.0" fill-opacity="0.0" stroke="rgb(0,0,0)" stroke-width="1.0" fill="rgb(0,0,0)" stroke-linecap="butt" stroke-miterlimit="10.0"><path d="M 101.5529,86.8913 c 1.5157,-0.4134 3.0314,-0.8268 4.4645 -0.8268c 1.4330,-0.0000 2.7834,0.4134 4.1338 0.8268"/></g><g stroke-linejoin="miter" stroke-opacity="1.0" fill-opacity="1.0" stroke="rgb(0,0,0)" stroke-width="0.0" fill="rgb(0,0,0)" stroke-linecap="butt" stroke-miterlimit="10.0"></g><g stroke-linejoin="miter" stroke-opacity="1.0" fill-opacity="1.0" stroke="rgb(0,0,0)" stroke-width="0.0" fill="rgb(0,0,0)" stroke-linecap="butt" stroke-miterlimit="10.0"></g><g stroke-linejoin="miter" stroke-opacity="1.0" fill-opacity="1.0" stroke="rgb(0,0,0)" stroke-width="0.0" fill="rgb(0,0,0)" stroke-linecap="butt" stroke-miterlimit="10.0"></g><g stroke-linejoin="miter" stroke-opacity="1.0" fill-opacity="1.0" stroke="rgb(0,0,0)" stroke-width="0.0" fill="rgb(0,0,0)" stroke-linecap="butt" stroke-miterlimit="10.0"></g><g stroke-linejoin="miter" stroke-opacity="1.0" fill-opacity="0.0" stroke="rgb(0,0,0)" stroke-width="1.0" fill="rgb(0,0,0)" stroke-linecap="butt" stroke-miterlimit="10.0"><path d="M 105.8520,80.0293 c 3.7893,-1.0334 7.5785,-2.0669 11.1611 -2.0669c 3.5826,-0.0000 6.9585,1.0334 10.3344 2.0669"/></g><g stroke-linejoin="miter" stroke-opacity="1.0" fill-opacity="1.0" stroke="rgb(0,0,0)" stroke-width="0.0" fill="rgb(0,0,0)" stroke-linecap="butt" stroke-miterlimit="10.0"></g><g stroke-linejoin="miter" stroke-opacity="1.0" fill-opacity="1.0" stroke="rgb(0,0,0)" stroke-width="0.0" fill="rgb(0,0,0)" stroke-linecap="butt" stroke-miterlimit="10.0"></g><g stroke-linejoin="miter" stroke-opacity="1.0" fill-opacity="1.0" stroke="rgb(0,0,0)" stroke-width="0.0" fill="rgb(0,0,0)" stroke-linecap="butt" stroke-miterlimit="10.0"></g><g stroke-linejoin="miter" stroke-opacity="1.0" fill-opacity="1.0" stroke="rgb(0,0,0)" stroke-width="0.0" fill="rgb(0,0,0)" stroke-linecap="butt" stroke-miterlimit="10.0"></g><g stroke-linejoin="miter" stroke-opacity="1.0" fill-opacity="1.0" stroke="rgb(0,0,255)" stroke-width="0.5186315883990303" fill="rgb(173,216,230)" stroke-linecap="butt" stroke-miterlimit="10.0"><path d="M 95.1042,91.1522 c 0.0000,-5.7286 -4.6440,-10.3726 -10.3726 -10.3726c -5.7286,-0.0000 -10.3726,4.6440 -10.3726 10.3726c -0.0000,5.7286 4.6440,10.3726 10.3726 10.3726c 5.7286,0.0000 10.3726,-4.6440 10.3726 -10.3726Z"/></g><g stroke-linejoin="miter" stroke-opacity="1.0" fill-opacity="1.0" stroke="rgb(0,0,0)" stroke-width="0.0" fill="rgb(0,0,255)" stroke-linecap="butt" stroke-miterlimit="10.0"><path d="M 93.0297,91.1522 c 0.0000,-4.5829 -3.7152,-8.2981 -8.2981 -8.2981c -4.5829,-0.0000 -8.2981,3.7152 -8.2981 8.2981c -0.0000,4.5829 3.7152,8.2981 8.2981 8.2981c 4.5829,0.0000 8.2981,-3.7152 8.2981 -8.2981Z"/></g><g stroke-linejoin="miter" stroke-opacity="1.0" fill-opacity="1.0" stroke="rgb(0,0,0)" stroke-width="0.0" fill="rgb(0,128,0)" stroke-linecap="butt" stroke-miterlimit="10.0"><path d="M 74.3589,92.0620 c 0.0000,-5.2261 -4.2366,-9.4628 -9.4628 -9.4628c -5.2261,-0.0000 -9.4628,4.2366 -9.4628 9.4628c -0.0000,5.2261 4.2366,9.4628 9.4628 9.4628c 5.2261,0.0000 9.4628,-4.2366 9.4628 -9.4628Z"/></g><g stroke-linejoin="miter" stroke-opacity="1.0" fill-opacity="1.0" stroke="rgb(0,0,0)" stroke-width="0.0" fill="rgb(255,0,0)" stroke-linecap="butt" stroke-miterlimit="10.0"><path d="M 55.4334,92.0620 c 0.0000,-5.2261 -4.2366,-9.4628 -9.4628 -9.4628c -5.2261,-0.0000 -9.4628,4.2366 -9.4628 9.4628c -0.0000,5.2261 4.2366,9.4628 9.4628 9.4628c 5.2261,0.0000 9.4628,-4.2366 9.4628 -9.4628Z"/></g><g stroke-linejoin="miter" stroke-opacity="1.0" fill-opacity="0.0" stroke="rgb(0,0,0)" stroke-width="1.0" fill="rgb(0,0,0)" stroke-linecap="butt" stroke-miterlimit="10.0"><path d="M 45.9707,82.5993 c 3.3362,-0.9099 6.6725,-1.8198 9.8267 -1.8198c 3.1543,0.0000 6.1265,0.9099 9.0988 1.8198"/></g><g stroke-linejoin="miter" stroke-opacity="1.0" fill-opacity="1.0" stroke="rgb(0,0,0)" stroke-width="0.0" fill="rgb(0,0,0)" stroke-linecap="butt" stroke-miterlimit="10.0"></g><g stroke-linejoin="miter" stroke-opacity="1.0" fill-opacity="1.0" stroke="rgb(0,0,0)" stroke-width="0.0" fill="rgb(0,0,0)" stroke-linecap="butt" stroke-miterlimit="10.0"></g><g stroke-linejoin="miter" stroke-opacity="1.0" fill-opacity="1.0" stroke="rgb(0,0,0)" stroke-width="0.0" fill="rgb(0,0,0)" stroke-linecap="butt" stroke-miterlimit="10.0"></g><g stroke-linejoin="miter" stroke-opacity="1.0" fill-opacity="1.0" stroke="rgb(0,0,0)" stroke-width="0.0" fill="rgb(0,0,0)" stroke-linecap="butt" stroke-miterlimit="10.0"></g><g stroke-linejoin="miter" stroke-opacity="1.0" fill-opacity="0.0" stroke="rgb(0,0,0)" stroke-width="1.0" fill="rgb(0,0,0)" stroke-linecap="butt" stroke-miterlimit="10.0"><path d="M 55.4334,80.7795 c 5.1647,-1.4086 10.3295,-2.8171 15.2125 -2.8171c 4.8830,-0.0000 9.4843,1.4086 14.0856 2.8171"/></g><g stroke-linejoin="miter" stroke-opacity="1.0" fill-opacity="1.0" stroke="rgb(0,0,0)" stroke-width="0.0" fill="rgb(0,0,0)" stroke-linecap="butt" stroke-miterlimit="10.0"></g><g stroke-linejoin="miter" stroke-opacity="1.0" fill-opacity="1.0" stroke="rgb(0,0,0)" stroke-width="0.0" fill="rgb(0,0,0)" stroke-linecap="butt" stroke-miterlimit="10.0"></g><g stroke-linejoin="miter" stroke-opacity="1.0" fill-opacity="1.0" stroke="rgb(0,0,0)" stroke-width="0.0" fill="rgb(0,0,0)" stroke-linecap="butt" stroke-miterlimit="10.0"></g><g stroke-linejoin="miter" stroke-opacity="1.0" fill-opacity="1.0" stroke="rgb(0,0,0)" stroke-width="0.0" fill="rgb(0,0,0)" stroke-linecap="butt" stroke-miterlimit="10.0"></g><g stroke-linejoin="miter" stroke-opacity="1.0" fill-opacity="0.0" stroke="rgb(0,0,0)" stroke-width="1.0" fill="rgb(0,0,0)" stroke-linecap="butt" stroke-miterlimit="10.0"><path d="M 65.8061,77.9624 c 8.9540,-2.4420 17.9080,-4.8840 26.3736 -4.8840c 8.4656,-0.0000 16.4428,2.4420 24.4200 4.8840"/></g><g stroke-linejoin="miter" stroke-opacity="1.0" fill-opacity="1.0" stroke="rgb(0,0,0)" stroke-width="0.0" fill="rgb(0,0,0)" stroke-linecap="butt" stroke-miterlimit="10.0"></g><g stroke-linejoin="miter" stroke-opacity="1.0" fill-opacity="1.0" stroke="rgb(0,0,0)" stroke-width="0.0" fill="rgb(0,0,0)" stroke-linecap="butt" stroke-miterlimit="10.0"></g><g stroke-linejoin="miter" stroke-opacity="1.0" fill-opacity="1.0" stroke="rgb(0,0,0)" stroke-width="0.0" fill="rgb(0,0,0)" stroke-linecap="butt" stroke-miterlimit="10.0"></g><g stroke-linejoin="miter" stroke-opacity="1.0" fill-opacity="1.0" stroke="rgb(0,0,0)" stroke-width="0.0" fill="rgb(0,0,0)" stroke-linecap="butt" stroke-miterlimit="10.0"></g></svg>