<?xml version="1.0" encoding="UTF-8"?>
<!DOCTYPE svg PUBLIC "-//W3C//DTD SVG 1.1//EN"
    "http://www.w3.org/Graphics/SVG/1.1/DTD/svg11.dtd"><svg xmlns="http://www.w3.org/2000/svg" height="106.7961" stroke-opacity="1" viewBox="0 0 500 107" font-size="1" width="500.0000" xmlns:xlink="http://www.w3.org/1999/xlink" stroke="rgb(0,0,0)" version="1.1"><defs></defs><g stroke-linejoin="miter" stroke-opacity="1.0" fill-opacity="1.0" font-size="12.135922330097086px" stroke="rgb(0,0,0)" stroke-width="0.9243207949834488" fill="rgb(0,0,0)" stroke-linecap="butt" stroke-miterlimit="10.0"><text dominant-baseline="middle" transform="matrix(1.0000,0.0000,0.0000,1.0000,155.3398,41.2621)" stroke="none" text-anchor="middle">Recolor</text></g><g stroke-linejoin="miter" stroke-opacity="1.0" fill-opacity="0.0" stroke="rgb(0,0,0)" stroke-width="0.9243207949834488" fill="rgb(0,0,0)" stroke-linecap="butt" stroke-miterlimit="10.0"><path d="M 118.9320,53.3981 h 64.7277 "/></g><g stroke-linejoin="miter" stroke-opacity="1.0" fill-opacity="1.0" stroke="rgb(0,0,0)" stroke-width="0.0" fill="rgb(0,0,0)" stroke-linecap="butt" stroke-miterlimit="10.0"></g><g stroke-linejoin="miter" stroke-opacity="1.0" fill-opacity="1.0" stroke="rgb(0,0,0)" stroke-width="0.0" fill="rgb(0,0,0)" stroke-linecap="butt" stroke-miterlimit="10.0"></g><g stroke-linejoin="miter" stroke-opacity="1.0" fill-opacity="1.0" stroke="rgb(0,0,0)" stroke-width="0.0" fill="rgb(0,0,0)" stroke-linecap="butt" stroke-miterlimit="10.0"><path d="M 191.7476,53.3981 l -9.4610,-3.0741 l 1.6161,3.0741 l -1.6161,3.0741 Z"/></g><g stroke-linejoin="miter" stroke-opacity="1.0" fill-opacity="1.0" stroke="rgb(0,0,0)" stroke-width="0.0" fill="rgb(0,0,0)" stroke-linecap="butt" stroke-miterlimit="10.0"><path d="M 183.9027,53.3981 h -0.2430 v -0.4622 l 0.2430,0.4622 h -0.2430 v 0.4622 Z"/></g><g stroke-linejoin="miter" stroke-opacity="1.0" fill-opacity="0.0" stroke="rgb(0,0,0)" stroke-width="0.9243207949834488" fill="rgb(0,0,0)" stroke-linecap="butt" stroke-miterlimit="10.0"><path d="M 191.7476,53.3981 l -64.7277,-0.0000 "/></g><g stroke-linejoin="miter" stroke-opacity="1.0" fill-opacity="1.0" stroke="rgb(0,0,0)" stroke-width="0.0" fill="rgb(0,0,0)" stroke-linecap="butt" stroke-miterlimit="10.0"></g><g stroke-linejoin="miter" stroke-opacity="1.0" fill-opacity="1.0" stroke="rgb(0,0,0)" stroke-width="0.0" fill="rgb(0,0,0)" stroke-linecap="butt" stroke-miterlimit="10.0"></g><g stroke-linejoin="miter" stroke-opacity="1.0" fill-opacity="1.0" stroke="rgb(0,0,0)" stroke-width="0.0" fill="rgb(0,0,0)" stroke-linecap="butt" stroke-miterlimit="10.0"><path d="M 118.9320,53.3981 l 9.4610,3.0741 l -1.6161,-3.0741 l 1.6161,-3.0741 Z"/></g><g stroke-linejoin="miter" stroke-opacity="1.0" fill-opacity="1.0" stroke="rgb(0,0,0)" stroke-width="0.0" fill="rgb(0,0,0)" stroke-linecap="butt" stroke-miterlimit="10.0"><path d="M 126.7769,53.3981 l 0.2430,0.0000 l -0.0000,0.4622 l -0.2430,-0.4622 l 0.2430,0.0000 l 0.0000,-0.4622 Z"/></g><g stroke-linejoin="miter" stroke-opacity="1.0" fill-opacity="1.0" font-size="12.135922330097086px" stroke="rgb(0,0,0)" stroke-width="0.9243207949834488" fill="rgb(0,0,0)" stroke-linecap="butt" stroke-miterlimit="10.0"><text dominant-baseline="middle" transform="matrix(1.0000,0.0000,0.0000,1.0000,349.5146,41.2621)" stroke="none" text-anchor="middle">Burst</text></g><g stroke-linejoin="miter" stroke-opacity="1.0" fill-opacity="0.0" stroke="rgb(0,0,0)" stroke-width="0.9243207949834488" fill="rgb(0,0,0)" stroke-linecap="butt" stroke-miterlimit="10.0"><path d="M 313.1068,53.3981 h 64.7277 "/></g><g stroke-linejoin="miter" stroke-opacity="1.0" fill-opacity="1.0" stroke="rgb(0,0,0)" stroke-width="0.0" fill="rgb(0,0,0)" stroke-linecap="butt" stroke-miterlimit="10.0"></g><g stroke-linejoin="miter" stroke-opacity="1.0" fill-opacity="1.0" stroke="rgb(0,0,0)" stroke-width="0.0" fill="rgb(0,0,0)" stroke-linecap="butt" stroke-miterlimit="10.0"></g><g stroke-linejoin="miter" stroke-opacity="1.0" fill-opacity="1.0" stroke="rgb(0,0,0)" stroke-width="0.0" fill="rgb(0,0,0)" stroke-linecap="butt" stroke-miterlimit="10.0"><path d="M 385.9223,53.3981 l -9.4610,-3.0741 l 1.6161,3.0741 l -1.6161,3.0741 Z"/></g><g stroke-linejoin="miter" stroke-opacity="1.0" fill-opacity="1.0" stroke="rgb(0,0,0)" stroke-width="0.0" fill="rgb(0,0,0)" stroke-linecap="butt" stroke-miterlimit="10.0"><path d="M 378.0775,53.3981 h -0.2430 v -0.4622 l 0.2430,0.4622 h -0.2430 v 0.4622 Z"/></g><g stroke-linejoin="miter" stroke-opacity="1.0" fill-opacity="1.0" stroke="rgb(0,128,0)" stroke-width="2.4271844660194173" fill="rgb(144,238,144)" stroke-linecap="butt" stroke-miterlimit="10.0"><path d="M 495.1456,53.3981 c 0.0000,-26.8099 -21.7338,-48.5437 -48.5437 -48.5437c -26.8099,-0.0000 -48.5437,21.7338 -48.5437 48.5437c -0.0000,26.8099 21.7338,48.5437 48.5437 48.5437c 26.8099,0.0000 48.5437,-21.7338 48.5437 -48.5437Z"/></g><g stroke-linejoin="miter" stroke-opacity="1.0" fill-opacity="1.0" stroke="rgb(0,0,0)" stroke-width="0.0" fill="rgb(0,128,0)" stroke-linecap="butt" stroke-miterlimit="10.0"><path d="M 485.4369,55.2651 c 0.0000,-10.7240 -8.6935,-19.4175 -19.4175 -19.4175c -10.7240,-0.0000 -19.4175,8.6935 -19.4175 19.4175c -0.0000,10.7240 8.6935,19.4175 19.4175 19.4175c 10.7240,0.0000 19.4175,-8.6935 19.4175 -19.4175Z"/></g><g stroke-linejoin="miter" stroke-opacity="1.0" fill-opacity="1.0" stroke="rgb(0,0,0)" stroke-width="0.0" fill="rgb(0,0,255)" stroke-linecap="butt" stroke-miterlimit="10.0"><path d="M 446.6019,55.2651 c 0.0000,-10.7240 -8.6935,-19.4175 -19.4175 -19.4175c -10.7240,-0.0000 -19.4175,8.6935 -19.4175 19.4175c -0.0000,10.7240 8.6935,19.4175 19.4175 19.4175c 10.7240,0.0000 19.4175,-8.6935 19.4175 -19.4175Z"/></g><g stroke-linejoin="miter" stroke-opacity="1.0" fill-opacity="0.0" stroke="rgb(0,0,0)" stroke-width="1.0" fill="rgb(0,0,0)" stroke-linecap="butt" stroke-miterlimit="10.0"><path d="M 427.1845,35.8476 c 6.8459,-1.8671 13.6918,-3.7341 20.1643 -3.7341c 6.4725,-0.0000 12.5716,1.8671 18.6706 3.7341"/></g><g stroke-linejoin="miter" stroke-opacity="1.0" fill-opacity="1.0" stroke="rgb(0,0,0)" stroke-width="0.0" fill="rgb(0,0,0)" stroke-linecap="butt" stroke-miterlimit="10.0"></g><g stroke-linejoin="miter" stroke-opacity="1.0" fill-opacity="1.0" stroke="rgb(0,0,0)" stroke-width="0.0" fill="rgb(0,0,0)" stroke-linecap="butt" stroke-miterlimit="10.0"></g><g stroke-linejoin="miter" stroke-opacity="1.0" fill-opacity="1.0" stroke="rgb(0,0,0)" stroke-width="0.0" fill="rgb(0,0,0)" stroke-linecap="butt" stroke-miterlimit="10.0"></g><g stroke-linejoin="miter" stroke-opacity="1.0" fill-opacity="1.0" stroke="rgb(0,0,0)" stroke-width="0.0" fill="rgb(0,0,0)" stroke-linecap="butt" stroke-miterlimit="10.0"></g><g stroke-linejoin="miter" stroke-opacity="1.0" fill-opacity="1.0" stroke="rgb(0,0,0)" stroke-width="0.0" fill="rgb(0,0,255)" stroke-linecap="butt" stroke-miterlimit="10.0"><path d="M 296.1165,55.7319 c 0.0000,-13.4050 -10.8669,-24.2718 -24.2718 -24.2718c -13.4050,-0.0000 -24.2718,10.8669 -24.2718 24.2718c -0.0000,13.4050 10.8669,24.2718 24.2718 24.2718c 13.4050,0.0000 24.2718,-10.8669 24.2718 -24.2718Z"/></g><g stroke-linejoin="miter" stroke-opacity="1.0" fill-opacity="1.0" stroke="rgb(255,0,0)" stroke-width="1.213592233009709" fill="rgb(255,192,203)" stroke-linecap="butt" stroke-miterlimit="10.0"><path d="M 247.5728,55.7319 c 0.0000,-13.4050 -10.8669,-24.2718 -24.2718 -24.2718c -13.4050,-0.0000 -24.2718,10.8669 -24.2718 24.2718c -0.0000,13.4050 10.8669,24.2718 24.2718 24.2718c 13.4050,0.0000 24.2718,-10.8669 24.2718 -24.2718Z"/></g><g stroke-linejoin="miter" stroke-opacity="1.0" fill-opacity="1.0" stroke="rgb(0,128,0)" stroke-width="0.9708737864077673" fill="rgb(144,238,144)" stroke-linecap="butt" stroke-miterlimit="10.0"><path d="M 242.7184,55.7319 c 0.0000,-10.7240 -8.6935,-19.4175 -19.4175 -19.4175c -10.7240,-0.0000 -19.4175,8.6935 -19.4175 19.4175c -0.0000,10.7240 8.6935,19.4175 19.4175 19.4175c 10.7240,0.0000 19.4175,-8.6935 19.4175 -19.4175Z"/></g><g stroke-linejoin="miter" stroke-opacity="1.0" fill-opacity="1.0" stroke="rgb(0,0,0)" stroke-width="0.0" fill="rgb(0,128,0)" stroke-linecap="butt" stroke-miterlimit="10.0"><path d="M 238.8350,56.4787 c 0.0000,-4.2896 -3.4774,-7.7670 -7.7670 -7.7670c -4.2896,-0.0000 -7.7670,3.4774 -7.7670 7.7670c -0.0000,4.2896 3.4774,7.7670 7.7670 7.7670c 4.2896,0.0000 7.7670,-3.4774 7.7670 -7.7670Z"/></g><g stroke-linejoin="miter" stroke-opacity="1.0" fill-opacity="1.0" stroke="rgb(0,0,0)" stroke-width="0.0" fill="rgb(255,0,0)" stroke-linecap="butt" stroke-miterlimit="10.0"><path d="M 223.3010,56.4787 c 0.0000,-4.2896 -3.4774,-7.7670 -7.7670 -7.7670c -4.2896,-0.0000 -7.7670,3.4774 -7.7670 7.7670c -0.0000,4.2896 3.4774,7.7670 7.7670 7.7670c 4.2896,0.0000 7.7670,-3.4774 7.7670 -7.7670Z"/></g><g stroke-linejoin="miter" stroke-opacity="1.0" fill-opacity="0.0" stroke="rgb(0,0,0)" stroke-width="1.0" fill="rgb(0,0,0)" stroke-linecap="butt" stroke-miterlimit="10.0"><path d="M 215.5340,48.7117 c 2.7384,-0.7468 5.4767,-1.4937 8.0657 -1.4937c 2.5890,-0.0000 5.0286,0.7468 7.4683 1.4937"/></g><g stroke-linejoin="miter" stroke-opacity="1.0" fill-opacity="1.0" stroke="rgb(0,0,0)" stroke-width="0.0" fill="rgb(0,0,0)" stroke-linecap="butt" stroke-miterlimit="10.0"></g><g stroke-linejoin="miter" stroke-opacity="1.0" fill-opacity="1.0" stroke="rgb(0,0,0)" stroke-width="0.0" fill="rgb(0,0,0)" stroke-linecap="butt" stroke-miterlimit="10.0"></g><g stroke-linejoin="miter" stroke-opacity="1.0" fill-opacity="1.0" stroke="rgb(0,0,0)" stroke-width="0.0" fill="rgb(0,0,0)" stroke-linecap="butt" stroke-miterlimit="10.0"></g><g stroke-linejoin="miter" stroke-opacity="1.0" fill-opacity="1.0" stroke="rgb(0,0,0)" stroke-width="0.0" fill="rgb(0,0,0)" stroke-linecap="butt" stroke-miterlimit="10.0"></g><g stroke-linejoin="miter" stroke-opacity="1.0" fill-opacity="0.0" stroke="rgb(0,0,0)" stroke-width="1.0" fill="rgb(0,0,0)" stroke-linecap="butt" stroke-miterlimit="10.0"><path d="M 223.3010,31.4600 c 8.5574,-2.3338 17.1148,-4.6677 25.2054 -4.6677c 8.0906,0.0000 15.7145,2.3338 23.3383 4.6677"/></g><g stroke-linejoin="miter" stroke-opacity="1.0" fill-opacity="1.0" stroke="rgb(0,0,0)" stroke-width="0.0" fill="rgb(0,0,0)" stroke-linecap="butt" stroke-miterlimit="10.0"></g><g stroke-linejoin="miter" stroke-opacity="1.0" fill-opacity="1.0" stroke="rgb(0,0,0)" stroke-width="0.0" fill="rgb(0,0,0)" stroke-linecap="butt" stroke-miterlimit="10.0"></g><g stroke-linejoin="miter" stroke-opacity="1.0" fill-opacity="1.0" stroke="rgb(0,0,0)" stroke-width="0.0" fill="rgb(0,0,0)" stroke-linecap="butt" stroke-miterlimit="10.0"></g><g stroke-linejoin="miter" stroke-opacity="1.0" fill-opacity="1.0" stroke="rgb(0,0,0)" stroke-width="0.0" fill="rgb(0,0,0)" stroke-linecap="butt" stroke-miterlimit="10.0"></g><g stroke-linejoin="miter" stroke-opacity="1.0" fill-opacity="1.0" stroke="rgb(0,0,0)" stroke-width="0.0" fill="rgb(0,0,255)" stroke-linecap="butt" stroke-miterlimit="10.0"><path d="M 101.9417,55.7319 c 0.0000,-13.4050 -10.8669,-24.2718 -24.2718 -24.2718c -13.4050,-0.0000 -24.2718,10.8669 -24.2718 24.2718c -0.0000,13.4050 10.8669,24.2718 24.2718 24.2718c 13.4050,0.0000 24.2718,-10.8669 24.2718 -24.2718Z"/></g><g stroke-linejoin="miter" stroke-opacity="1.0" fill-opacity="1.0" stroke="rgb(255,0,0)" stroke-width="1.213592233009709" fill="rgb(255,192,203)" stroke-linecap="butt" stroke-miterlimit="10.0"><path d="M 53.3981,55.7319 c 0.0000,-13.4050 -10.8669,-24.2718 -24.2718 -24.2718c -13.4050,-0.0000 -24.2718,10.8669 -24.2718 24.2718c -0.0000,13.4050 10.8669,24.2718 24.2718 24.2718c 13.4050,0.0000 24.2718,-10.8669 24.2718 -24.2718Z"/></g><g stroke-linejoin="miter" stroke-opacity="1.0" fill-opacity="1.0" stroke="rgb(0,0,255)" stroke-width="0.9708737864077673" fill="rgb(173,216,230)" stroke-linecap="butt" stroke-miterlimit="10.0"><path d="M 48.5437,55.7319 c 0.0000,-10.7240 -8.6935,-19.4175 -19.4175 -19.4175c -10.7240,-0.0000 -19.4175,8.6935 -19.4175 19.4175c -0.0000,10.7240 8.6935,19.4175 19.4175 19.4175c 10.7240,0.0000 19.4175,-8.6935 19.4175 -19.4175Z"/></g><g stroke-linejoin="miter" stroke-opacity="1.0" fill-opacity="1.0" stroke="rgb(0,0,0)" stroke-width="0.0" fill="rgb(0,0,255)" stroke-linecap="butt" stroke-miterlimit="10.0"><path d="M 44.6602,56.4787 c 0.0000,-4.2896 -3.4774,-7.7670 -7.7670 -7.7670c -4.2896,-0.0000 -7.7670,3.4774 -7.7670 7.7670c -0.0000,4.2896 3.4774,7.7670 7.7670 7.7670c 4.2896,0.0000 7.7670,-3.4774 7.7670 -7.7670Z"/></g><g stroke-linejoin="miter" stroke-opacity="1.0" fill-opacity="1.0" stroke="rgb(0,0,0)" stroke-width="0.0" fill="rgb(255,0,0)" stroke-linecap="butt" stroke-miterlimit="10.0"><path d="M 29.1262,56.4787 c 0.0000,-4.2896 -3.4774,-7.7670 -7.7670 -7.7670c -4.2896,-0.0000 -7.7670,3.4774 -7.7670 7.7670c -0.0000,4.2896 3.4774,7.7670 7.7670 7.7670c 4.2896,0.0000 7.7670,-3.4774 7.7670 -7.7670Z"/></g><g stroke-linejoin="miter" stroke-opacity="1.0" fill-opacity="0.0" stroke="rgb(0,0,0)" stroke-width="1.0" fill="rgb(0,0,0)" stroke-linecap="butt" stroke-miterlimit="10.0"><path d="M 21.3592,48.7117 c 2.7384,-0.7468 5.4767,-1.4937 8.0657 -1.4937c 2.5890,-0.0000 5.0286,0.7468 7.4683 1.4937"/></g><g stroke-linejoin="miter" stroke-opacity="1.0" fill-opacity="1.0" stroke="rgb(0,0,0)" stroke-width="0.0" fill="rgb(0,0,0)" stroke-linecap="butt" stroke-miterlimit="10.0"></g><g stroke-linejoin="miter" stroke-opacity="1.0" fill-opacity="1.0" stroke="rgb(0,0,0)" stroke-width="0.0" fill="rgb(0,0,0)" stroke-linecap="butt" stroke-miterlimit="10.0"></g><g stroke-linejoin="miter" stroke-opacity="1.0" fill-opacity="1.0" stroke="rgb(0,0,0)" stroke-width="0.0" fill="rgb(0,0,0)" stroke-linecap="butt" stroke-miterlimit="10.0"></g><g stroke-linejoin="miter" stroke-opacity="1.0" fill-opacity="1.0" stroke="rgb(0,0,0)" stroke-width="0.0" fill="rgb(0,0,0)" stroke-linecap="butt" stroke-miterlimit="10.0"></g><g stroke-linejoin="miter" stroke-opacity="1.0" fill-opacity="0.0" stroke="rgb(0,0,0)" stroke-width="1.0" fill="rgb(0,0,0)" stroke-linecap="butt" stroke-miterlimit="10.0"><path d="M 29.1262,31.4600 c 8.5574,-2.3338 17.1148,-4.6677 25.2054 -4.6677c 8.0906,0.0000 15.7145,2.3338 23.3383 4.6677"/></g><g stroke-linejoin="miter" stroke-opacity="1.0" fill-opacity="1.0" stroke="rgb(0,0,0)" stroke-width="0.0" fill="rgb(0,0,0)" stroke-linecap="butt" stroke-miterlimit="10.0"></g><g stroke-linejoin="miter" stroke-opacity="1.0" fill-opacity="1.0" stroke="rgb(0,0,0)" stroke-width="0.0" fill="rgb(0,0,0)" stroke-linecap="butt" stroke-miterlimit="10.0"></g><g stroke-linejoin="miter" stroke-opacity="1.0" fill-opacity="1.0" stroke="rgb(0,0,0)" stroke-width="0.0" fill="rgb(0,0,0)" stroke-linecap="butt" stroke-miterlimit="10.0"></g><g stroke-linejoin="miter" stroke-opacity="1.0" fill-opacity="1.0" stroke="rgb(0,0,0)" stroke-width="0.0" fill="rgb(0,0,0)" stroke-linecap="butt" stroke-miterlimit="10.0"></g></svg>