<?xml version="1.0" encoding="UTF-8"?>
<!DOCTYPE svg PUBLIC "-//W3C//DTD SVG 1.1//EN"
    "http://www.w3.org/Graphics/SVG/1.1/DTD/svg11.dtd"><svg xmlns="http://www.w3.org/2000/svg" height="57.8947" stroke-opacity="1" viewBox="0 0 500 58" font-size="1" width="500.0000" xmlns:xlink="http://www.w3.org/1999/xlink" stroke="rgb(0,0,0)" version="1.1"><defs></defs><g stroke-linejoin="miter" stroke-opacity="1.0" fill-opacity="1.0" stroke="rgb(0,0,0)" stroke-width="0.0" fill="rgb(128,0,128)" stroke-linecap="butt" stroke-miterlimit="10.0"><path d="M 497.3684,28.9474 c 0.0000,-14.5338 -11.7820,-26.3158 -26.3158 -26.3158c -14.5338,-0.0000 -26.3158,11.7820 -26.3158 26.3158c -0.0000,14.5338 11.7820,26.3158 26.3158 26.3158c 14.5338,0.0000 26.3158,-11.7820 26.3158 -26.3158Z"/></g><g stroke-linejoin="miter" stroke-opacity="1.0" fill-opacity="1.0" stroke="rgb(0,0,0)" stroke-width="0.0" fill="rgb(255,255,0)" stroke-linecap="butt" stroke-miterlimit="10.0"><path d="M 386.8421,28.9474 c 0.0000,-14.5338 -11.7820,-26.3158 -26.3158 -26.3158c -14.5338,-0.0000 -26.3158,11.7820 -26.3158 26.3158c -0.0000,14.5338 11.7820,26.3158 26.3158 26.3158c 14.5338,0.0000 26.3158,-11.7820 26.3158 -26.3158Z"/></g><g stroke-linejoin="miter" stroke-opacity="1.0" fill-opacity="1.0" stroke="rgb(0,0,0)" stroke-width="0.0" fill="rgb(0,0,255)" stroke-linecap="butt" stroke-miterlimit="10.0"><path d="M 276.3158,28.9474 c 0.0000,-14.5338 -11.7820,-26.3158 -26.3158 -26.3158c -14.5338,-0.0000 -26.3158,11.7820 -26.3158 26.3158c -0.0000,14.5338 11.7820,26.3158 26.3158 26.3158c 14.5338,0.0000 26.3158,-11.7820 26.3158 -26.3158Z"/></g><g stroke-linejoin="miter" stroke-opacity="1.0" fill-opacity="1.0" stroke="rgb(0,0,0)" stroke-width="0.0" fill="rgb(0,128,0)" stroke-linecap="butt" stroke-miterlimit="10.0"><path d="M 165.7895,28.9474 c 0.0000,-14.5338 -11.7820,-26.3158 -26.3158 -26.3158c -14.5338,-0.0000 -26.3158,11.7820 -26.3158 26.3158c -0.0000,14.5338 11.7820,26.3158 26.3158 26.3158c 14.5338,0.0000 26.3158,-11.7820 26.3158 -26.3158Z"/></g><g stroke-linejoin="miter" stroke-opacity="1.0" fill-opacity="1.0" stroke="rgb(0,0,0)" stroke-width="0.0" fill="rgb(255,0,0)" stroke-linecap="butt" stroke-miterlimit="10.0"><path d="M 55.2632,28.9474 c 0.0000,-14.5338 -11.7820,-26.3158 -26.3158 -26.3158c -14.5338,-0.0000 -26.3158,11.7820 -26.3158 26.3158c -0.0000,14.5338 11.7820,26.3158 26.3158 26.3158c 14.5338,0.0000 26.3158,-11.7820 26.3158 -26.3158Z"/></g></svg>