<?xml version="1.0" encoding="UTF-8"?>
<!DOCTYPE svg PUBLIC "-//W3C//DTD SVG 1.1//EN"
    "http://www.w3.org/Graphics/SVG/1.1/DTD/svg11.dtd"><svg xmlns="http://www.w3.org/2000/svg" height="600.0000" stroke-opacity="1" viewBox="0 0 3138 600" font-size="1" width="3138.2775" xmlns:xlink="http://www.w3.org/1999/xlink" stroke="rgb(0,0,0)" version="1.1"><defs></defs><g stroke-linejoin="miter" stroke-opacity="1.0" fill-opacity="1.0" stroke="rgb(255,0,0)" stroke-width="13.722122675362707" fill="rgb(255,192,203)" stroke-linecap="butt" stroke-miterlimit="10.0"><path d="M 3111.0048,300.0000 c 0.0000,-150.6231 -122.1042,-272.7273 -272.7273 -272.7273c -150.6231,-0.0000 -272.7273,122.1042 -272.7273 272.7273c -0.0000,150.6231 122.1042,272.7273 272.7273 272.7273c 150.6231,0.0000 272.7273,-122.1042 272.7273 -272.7273Z"/></g><g stroke-linejoin="miter" stroke-opacity="1.0" fill-opacity="1.0" stroke="rgb(0,0,0)" stroke-width="0.0" fill="rgb(0,0,255)" stroke-linecap="butt" stroke-miterlimit="10.0"><path d="M 3056.4593,317.2653 c 0.0000,-38.9188 -31.5499,-70.4687 -70.4687 -70.4687c -38.9188,-0.0000 -70.4687,31.5499 -70.4687 70.4687c -0.0000,38.9188 31.5499,70.4687 70.4687 70.4687c 38.9188,0.0000 70.4687,-31.5499 70.4687 -70.4687Z"/></g><g stroke-linejoin="miter" stroke-opacity="1.0" fill-opacity="1.0" stroke="rgb(0,0,0)" stroke-width="0.0" fill="rgb(0,128,0)" stroke-linecap="butt" stroke-miterlimit="10.0"><path d="M 2915.5220,317.2653 c 0.0000,-38.9188 -31.5499,-70.4687 -70.4687 -70.4687c -38.9188,-0.0000 -70.4687,31.5499 -70.4687 70.4687c -0.0000,38.9188 31.5499,70.4687 70.4687 70.4687c 38.9188,0.0000 70.4687,-31.5499 70.4687 -70.4687Z"/></g><g stroke-linejoin="miter" stroke-opacity="1.0" fill-opacity="0.0" stroke="rgb(0,0,0)" stroke-width="10.29159200652203" fill="rgb(0,0,0)" stroke-linecap="butt" stroke-miterlimit="10.0"><path d="M 2845.0533,246.7967 c 24.8447,-6.7758 49.6894,-13.5517 73.1790 -13.5517c 23.4896,-0.0000 45.6239,6.7758 67.7583 13.5517"/></g><g stroke-linejoin="miter" stroke-opacity="1.0" fill-opacity="1.0" stroke="rgb(0,0,0)" stroke-width="0.0" fill="rgb(0,0,0)" stroke-linecap="butt" stroke-miterlimit="10.0"></g><g stroke-linejoin="miter" stroke-opacity="1.0" fill-opacity="1.0" stroke="rgb(0,0,0)" stroke-width="0.0" fill="rgb(0,0,0)" stroke-linecap="butt" stroke-miterlimit="10.0"></g><g stroke-linejoin="miter" stroke-opacity="1.0" fill-opacity="1.0" stroke="rgb(0,0,0)" stroke-width="0.0" fill="rgb(0,0,0)" stroke-linecap="butt" stroke-miterlimit="10.0"></g><g stroke-linejoin="miter" stroke-opacity="1.0" fill-opacity="1.0" stroke="rgb(0,0,0)" stroke-width="0.0" fill="rgb(0,0,0)" stroke-linecap="butt" stroke-miterlimit="10.0"></g><g stroke-linejoin="miter" stroke-opacity="1.0" fill-opacity="1.0" stroke="rgb(255,0,0)" stroke-width="13.722122675362707" fill="rgb(255,192,203)" stroke-linecap="butt" stroke-miterlimit="10.0"><path d="M 2774.5847,310.4895 c 0.0000,-42.6610 -34.5835,-77.2445 -77.2445 -77.2445c -42.6610,-0.0000 -77.2445,34.5835 -77.2445 77.2445c -0.0000,42.6610 34.5835,77.2445 77.2445 77.2445c 42.6610,0.0000 77.2445,-34.5835 77.2445 -77.2445Z"/></g><g stroke-linejoin="miter" stroke-opacity="1.0" fill-opacity="1.0" stroke="rgb(0,0,255)" stroke-width="13.722122675362707" fill="rgb(173,216,230)" stroke-linecap="butt" stroke-miterlimit="10.0"><path d="M 2759.1358,313.4605 c 0.0000,-17.0644 -13.8334,-30.8978 -30.8978 -30.8978c -17.0644,-0.0000 -30.8978,13.8334 -30.8978 30.8978c -0.0000,17.0644 13.8334,30.8978 30.8978 30.8978c 17.0644,0.0000 30.8978,-13.8334 30.8978 -30.8978Z"/></g><g stroke-linejoin="miter" stroke-opacity="1.0" fill-opacity="1.0" stroke="rgb(0,0,0)" stroke-width="0.0" fill="rgb(0,0,255)" stroke-linecap="butt" stroke-miterlimit="10.0"><path d="M 2752.9562,313.4605 c 0.0000,-13.6515 -11.0667,-24.7182 -24.7182 -24.7182c -13.6515,-0.0000 -24.7182,11.0667 -24.7182 24.7182c -0.0000,13.6515 11.0667,24.7182 24.7182 24.7182c 13.6515,0.0000 24.7182,-11.0667 24.7182 -24.7182Z"/></g><g stroke-linejoin="miter" stroke-opacity="1.0" fill-opacity="1.0" stroke="rgb(0,0,0)" stroke-width="0.0" fill="rgb(255,0,0)" stroke-linecap="butt" stroke-miterlimit="10.0"><path d="M 2697.3402,313.4605 c 0.0000,-17.0644 -13.8334,-30.8978 -30.8978 -30.8978c -17.0644,-0.0000 -30.8978,13.8334 -30.8978 30.8978c -0.0000,17.0644 13.8334,30.8978 30.8978 30.8978c 17.0644,0.0000 30.8978,-13.8334 30.8978 -30.8978Z"/></g><g stroke-linejoin="miter" stroke-opacity="1.0" fill-opacity="0.0" stroke="rgb(0,0,0)" stroke-width="10.29159200652203" fill="rgb(0,0,0)" stroke-linecap="butt" stroke-miterlimit="10.0"><path d="M 2666.4424,282.5627 c 10.8935,-2.9709 21.7869,-5.9419 32.0862 -5.9419c 10.2993,-0.0000 20.0043,2.9709 29.7094 5.9419"/></g><g stroke-linejoin="miter" stroke-opacity="1.0" fill-opacity="1.0" stroke="rgb(0,0,0)" stroke-width="0.0" fill="rgb(0,0,0)" stroke-linecap="butt" stroke-miterlimit="10.0"></g><g stroke-linejoin="miter" stroke-opacity="1.0" fill-opacity="1.0" stroke="rgb(0,0,0)" stroke-width="0.0" fill="rgb(0,0,0)" stroke-linecap="butt" stroke-miterlimit="10.0"></g><g stroke-linejoin="miter" stroke-opacity="1.0" fill-opacity="1.0" stroke="rgb(0,0,0)" stroke-width="0.0" fill="rgb(0,0,0)" stroke-linecap="butt" stroke-miterlimit="10.0"></g><g stroke-linejoin="miter" stroke-opacity="1.0" fill-opacity="1.0" stroke="rgb(0,0,0)" stroke-width="0.0" fill="rgb(0,0,0)" stroke-linecap="butt" stroke-miterlimit="10.0"></g><g stroke-linejoin="miter" stroke-opacity="1.0" fill-opacity="0.0" stroke="rgb(0,0,0)" stroke-width="10.29159200652203" fill="rgb(0,0,0)" stroke-linecap="butt" stroke-miterlimit="10.0"><path d="M 2697.3402,233.2450 c 38.4615,-10.4895 76.9231,-20.9790 113.2867 -20.9790c 36.3636,0.0000 70.6294,10.4895 104.8951 20.9790"/></g><g stroke-linejoin="miter" stroke-opacity="1.0" fill-opacity="1.0" stroke="rgb(0,0,0)" stroke-width="0.0" fill="rgb(0,0,0)" stroke-linecap="butt" stroke-miterlimit="10.0"></g><g stroke-linejoin="miter" stroke-opacity="1.0" fill-opacity="1.0" stroke="rgb(0,0,0)" stroke-width="0.0" fill="rgb(0,0,0)" stroke-linecap="butt" stroke-miterlimit="10.0"></g><g stroke-linejoin="miter" stroke-opacity="1.0" fill-opacity="1.0" stroke="rgb(0,0,0)" stroke-width="0.0" fill="rgb(0,0,0)" stroke-linecap="butt" stroke-miterlimit="10.0"></g><g stroke-linejoin="miter" stroke-opacity="1.0" fill-opacity="1.0" stroke="rgb(0,0,0)" stroke-width="0.0" fill="rgb(0,0,0)" stroke-linecap="butt" stroke-miterlimit="10.0"></g><g stroke-linejoin="miter" stroke-opacity="1.0" fill-opacity="1.0" stroke="rgb(0,0,0)" stroke-width="0.0" fill="rgb(0,0,255)" stroke-linecap="butt" stroke-miterlimit="10.0"><path d="M 1940.6699,436.3636 c 0.0000,-75.3116 -61.0521,-136.3636 -136.3636 -136.3636c -75.3116,-0.0000 -136.3636,61.0521 -136.3636 136.3636c -0.0000,75.3116 61.0521,136.3636 136.3636 136.3636c 75.3116,0.0000 136.3636,-61.0521 136.3636 -136.3636Z"/></g><g stroke-linejoin="miter" stroke-opacity="1.0" fill-opacity="1.0" stroke="rgb(0,0,0)" stroke-width="0.0" fill="rgb(0,128,0)" stroke-linecap="butt" stroke-miterlimit="10.0"><path d="M 1667.9426,448.3254 c 0.0000,-68.7053 -55.6966,-124.4019 -124.4019 -124.4019c -68.7053,-0.0000 -124.4019,55.6966 -124.4019 124.4019c -0.0000,68.7053 55.6966,124.4019 124.4019 124.4019c 68.7053,0.0000 124.4019,-55.6966 124.4019 -124.4019Z"/></g><g stroke-linejoin="miter" stroke-opacity="1.0" fill-opacity="1.0" stroke="rgb(0,0,0)" stroke-width="0.0" fill="rgb(255,0,0)" stroke-linecap="butt" stroke-miterlimit="10.0"><path d="M 1419.1388,448.3254 c 0.0000,-68.7053 -55.6966,-124.4019 -124.4019 -124.4019c -68.7053,-0.0000 -124.4019,55.6966 -124.4019 124.4019c -0.0000,68.7053 55.6966,124.4019 124.4019 124.4019c 68.7053,0.0000 124.4019,-55.6966 124.4019 -124.4019Z"/></g><g stroke-linejoin="miter" stroke-opacity="1.0" fill-opacity="0.0" stroke="rgb(0,0,0)" stroke-width="10.29159200652203" fill="rgb(0,0,0)" stroke-linecap="butt" stroke-miterlimit="10.0"><path d="M 1294.7368,323.9234 c 43.8596,-11.9617 87.7193,-23.9234 129.1866 -23.9234c 41.4673,-0.0000 80.5423,11.9617 119.6172 23.9234"/></g><g stroke-linejoin="miter" stroke-opacity="1.0" fill-opacity="1.0" stroke="rgb(0,0,0)" stroke-width="0.0" fill="rgb(0,0,0)" stroke-linecap="butt" stroke-miterlimit="10.0"></g><g stroke-linejoin="miter" stroke-opacity="1.0" fill-opacity="1.0" stroke="rgb(0,0,0)" stroke-width="0.0" fill="rgb(0,0,0)" stroke-linecap="butt" stroke-miterlimit="10.0"></g><g stroke-linejoin="miter" stroke-opacity="1.0" fill-opacity="1.0" stroke="rgb(0,0,0)" stroke-width="0.0" fill="rgb(0,0,0)" stroke-linecap="butt" stroke-miterlimit="10.0"></g><g stroke-linejoin="miter" stroke-opacity="1.0" fill-opacity="1.0" stroke="rgb(0,0,0)" stroke-width="0.0" fill="rgb(0,0,0)" stroke-linecap="butt" stroke-miterlimit="10.0"></g><g stroke-linejoin="miter" stroke-opacity="1.0" fill-opacity="0.0" stroke="rgb(0,0,0)" stroke-width="10.29159200652203" fill="rgb(0,0,0)" stroke-linecap="butt" stroke-miterlimit="10.0"><path d="M 1419.1388,300.0000 c 67.8981,-18.5177 135.7962,-37.0353 199.9908 -37.0353c 64.1946,-0.0000 124.6856,18.5177 185.1767 37.0353"/></g><g stroke-linejoin="miter" stroke-opacity="1.0" fill-opacity="1.0" stroke="rgb(0,0,0)" stroke-width="0.0" fill="rgb(0,0,0)" stroke-linecap="butt" stroke-miterlimit="10.0"></g><g stroke-linejoin="miter" stroke-opacity="1.0" fill-opacity="1.0" stroke="rgb(0,0,0)" stroke-width="0.0" fill="rgb(0,0,0)" stroke-linecap="butt" stroke-miterlimit="10.0"></g><g stroke-linejoin="miter" stroke-opacity="1.0" fill-opacity="1.0" stroke="rgb(0,0,0)" stroke-width="0.0" fill="rgb(0,0,0)" stroke-linecap="butt" stroke-miterlimit="10.0"></g><g stroke-linejoin="miter" stroke-opacity="1.0" fill-opacity="1.0" stroke="rgb(0,0,0)" stroke-width="0.0" fill="rgb(0,0,0)" stroke-linecap="butt" stroke-miterlimit="10.0"></g><g stroke-linejoin="miter" stroke-opacity="1.0" fill-opacity="1.0" stroke="rgb(0,0,0)" stroke-width="0.0" fill="rgb(255,0,0)" stroke-linecap="butt" stroke-miterlimit="10.0"><path d="M 559.0909,436.3636 c 0.0000,-75.3116 -61.0521,-136.3636 -136.3636 -136.3636c -75.3116,-0.0000 -136.3636,61.0521 -136.3636 136.3636c -0.0000,75.3116 61.0521,136.3636 136.3636 136.3636c 75.3116,0.0000 136.3636,-61.0521 136.3636 -136.3636Z"/></g><g stroke-linejoin="miter" stroke-opacity="1.0" fill-opacity="1.0" stroke="rgb(0,0,0)" stroke-width="0.0" fill="rgb(255,0,0)" stroke-linecap="butt" stroke-miterlimit="10.0"><path d="M 286.3636,436.3636 c 0.0000,-75.3116 -61.0521,-136.3636 -136.3636 -136.3636c -75.3116,-0.0000 -136.3636,61.0521 -136.3636 136.3636c -0.0000,75.3116 61.0521,136.3636 136.3636 136.3636c 75.3116,0.0000 136.3636,-61.0521 136.3636 -136.3636Z"/></g><g stroke-linejoin="miter" stroke-opacity="1.0" fill-opacity="0.0" stroke="rgb(0,0,0)" stroke-width="10.29159200652203" fill="rgb(0,0,0)" stroke-linecap="butt" stroke-miterlimit="10.0"><path d="M 150.0000,300.0000 c 48.0769,-13.1119 96.1538,-26.2238 141.6084 -26.2238c 45.4545,-0.0000 88.2867,13.1119 131.1189 26.2238"/></g><g stroke-linejoin="miter" stroke-opacity="1.0" fill-opacity="1.0" stroke="rgb(0,0,0)" stroke-width="0.0" fill="rgb(0,0,0)" stroke-linecap="butt" stroke-miterlimit="10.0"></g><g stroke-linejoin="miter" stroke-opacity="1.0" fill-opacity="1.0" stroke="rgb(0,0,0)" stroke-width="0.0" fill="rgb(0,0,0)" stroke-linecap="butt" stroke-miterlimit="10.0"></g><g stroke-linejoin="miter" stroke-opacity="1.0" fill-opacity="1.0" stroke="rgb(0,0,0)" stroke-width="0.0" fill="rgb(0,0,0)" stroke-linecap="butt" stroke-miterlimit="10.0"></g><g stroke-linejoin="miter" stroke-opacity="1.0" fill-opacity="1.0" stroke="rgb(0,0,0)" stroke-width="0.0" fill="rgb(0,0,0)" stroke-linecap="butt" stroke-miterlimit="10.0"></g></svg>