<?xml version="1.0" encoding="UTF-8"?>
<!DOCTYPE svg PUBLIC "-//W3C//DTD SVG 1.1//EN"
    "http://www.w3.org/Graphics/SVG/1.1/DTD/svg11.dtd"><svg xmlns="http://www.w3.org/2000/svg" height="400.0000" stroke-opacity="1" viewBox="0 0 2691 400" font-size="1" width="2690.9091" xmlns:xlink="http://www.w3.org/1999/xlink" stroke="rgb(0,0,0)" version="1.1"><defs></defs><g stroke-linejoin="miter" stroke-opacity="1.0" fill-opacity="1.0" stroke="rgb(255,0,0)" stroke-width="10.374794631045168" fill="rgb(255,192,203)" stroke-linecap="butt" stroke-miterlimit="10.0"><path d="M 2672.7273,200.0000 c 0.0000,-100.4154 -81.4028,-181.8182 -181.8182 -181.8182c -100.4154,-0.0000 -181.8182,81.4028 -181.8182 181.8182c -0.0000,100.4154 81.4028,181.8182 181.8182 181.8182c 100.4154,0.0000 181.8182,-81.4028 181.8182 -181.8182Z"/></g><g stroke-linejoin="miter" stroke-opacity="1.0" fill-opacity="1.0" stroke="rgb(255,0,0)" stroke-width="10.374794631045168" fill="rgb(255,192,203)" stroke-linecap="butt" stroke-miterlimit="10.0"><path d="M 2636.3636,200.0000 c 0.0000,-80.3323 -65.1222,-145.4545 -145.4545 -145.4545c -80.3323,-0.0000 -145.4545,65.1222 -145.4545 145.4545c -0.0000,80.3323 65.1222,145.4545 145.4545 145.4545c 80.3323,0.0000 145.4545,-65.1222 145.4545 -145.4545Z"/></g><g stroke-linejoin="miter" stroke-opacity="1.0" fill-opacity="1.0" stroke="rgb(0,0,0)" stroke-width="0.0" fill="rgb(255,0,0)" stroke-linecap="butt" stroke-miterlimit="10.0"><path d="M 2607.2727,200.0000 c 0.0000,-64.2659 -52.0978,-116.3636 -116.3636 -116.3636c -64.2659,-0.0000 -116.3636,52.0978 -116.3636 116.3636c -0.0000,64.2659 52.0978,116.3636 116.3636 116.3636c 64.2659,0.0000 116.3636,-52.0978 116.3636 -116.3636Z"/></g><g stroke-linejoin="miter" stroke-opacity="1.0" fill-opacity="1.0" stroke="rgb(0,128,0)" stroke-width="10.374794631045168" fill="rgb(144,238,144)" stroke-linecap="butt" stroke-miterlimit="10.0"><path d="M 1909.0909,200.0000 c 0.0000,-100.4154 -81.4028,-181.8182 -181.8182 -181.8182c -100.4154,-0.0000 -181.8182,81.4028 -181.8182 181.8182c -0.0000,100.4154 81.4028,181.8182 181.8182 181.8182c 100.4154,0.0000 181.8182,-81.4028 181.8182 -181.8182Z"/></g><g stroke-linejoin="miter" stroke-opacity="1.0" fill-opacity="1.0" stroke="rgb(255,0,0)" stroke-width="10.374794631045168" fill="rgb(255,192,203)" stroke-linecap="butt" stroke-miterlimit="10.0"><path d="M 1872.7273,200.0000 c 0.0000,-80.3323 -65.1222,-145.4545 -145.4545 -145.4545c -80.3323,-0.0000 -145.4545,65.1222 -145.4545 145.4545c -0.0000,80.3323 65.1222,145.4545 145.4545 145.4545c 80.3323,0.0000 145.4545,-65.1222 145.4545 -145.4545Z"/></g><g stroke-linejoin="miter" stroke-opacity="1.0" fill-opacity="1.0" stroke="rgb(0,0,0)" stroke-width="0.0" fill="rgb(255,0,0)" stroke-linecap="butt" stroke-miterlimit="10.0"><path d="M 1843.6364,200.0000 c 0.0000,-64.2659 -52.0978,-116.3636 -116.3636 -116.3636c -64.2659,-0.0000 -116.3636,52.0978 -116.3636 116.3636c -0.0000,64.2659 52.0978,116.3636 116.3636 116.3636c 64.2659,0.0000 116.3636,-52.0978 116.3636 -116.3636Z"/></g><g stroke-linejoin="miter" stroke-opacity="1.0" fill-opacity="1.0" stroke="rgb(255,0,0)" stroke-width="10.374794631045168" fill="rgb(255,192,203)" stroke-linecap="butt" stroke-miterlimit="10.0"><path d="M 1145.4545,200.0000 c 0.0000,-100.4154 -81.4028,-181.8182 -181.8182 -181.8182c -100.4154,-0.0000 -181.8182,81.4028 -181.8182 181.8182c -0.0000,100.4154 81.4028,181.8182 181.8182 181.8182c 100.4154,0.0000 181.8182,-81.4028 181.8182 -181.8182Z"/></g><g stroke-linejoin="miter" stroke-opacity="1.0" fill-opacity="1.0" stroke="rgb(0,128,0)" stroke-width="10.374794631045168" fill="rgb(144,238,144)" stroke-linecap="butt" stroke-miterlimit="10.0"><path d="M 1109.0909,200.0000 c 0.0000,-80.3323 -65.1222,-145.4545 -145.4545 -145.4545c -80.3323,-0.0000 -145.4545,65.1222 -145.4545 145.4545c -0.0000,80.3323 65.1222,145.4545 145.4545 145.4545c 80.3323,0.0000 145.4545,-65.1222 145.4545 -145.4545Z"/></g><g stroke-linejoin="miter" stroke-opacity="1.0" fill-opacity="1.0" stroke="rgb(0,0,255)" stroke-width="10.374794631045168" fill="rgb(173,216,230)" stroke-linecap="butt" stroke-miterlimit="10.0"><path d="M 1080.0000,200.0000 c 0.0000,-64.2659 -52.0978,-116.3636 -116.3636 -116.3636c -64.2659,-0.0000 -116.3636,52.0978 -116.3636 116.3636c -0.0000,64.2659 52.0978,116.3636 116.3636 116.3636c 64.2659,0.0000 116.3636,-52.0978 116.3636 -116.3636Z"/></g><g stroke-linejoin="miter" stroke-opacity="1.0" fill-opacity="1.0" stroke="rgb(0,0,0)" stroke-width="0.0" fill="rgb(0,128,0)" stroke-linecap="butt" stroke-miterlimit="10.0"><path d="M 1056.7273,200.0000 c 0.0000,-51.4127 -41.6782,-93.0909 -93.0909 -93.0909c -51.4127,-0.0000 -93.0909,41.6782 -93.0909 93.0909c -0.0000,51.4127 41.6782,93.0909 93.0909 93.0909c 51.4127,0.0000 93.0909,-41.6782 93.0909 -93.0909Z"/></g><g stroke-linejoin="miter" stroke-opacity="1.0" fill-opacity="1.0" stroke="rgb(255,0,0)" stroke-width="10.374794631045168" fill="rgb(255,192,203)" stroke-linecap="butt" stroke-miterlimit="10.0"><path d="M 381.8182,200.0000 c 0.0000,-100.4154 -81.4028,-181.8182 -181.8182 -181.8182c -100.4154,-0.0000 -181.8182,81.4028 -181.8182 181.8182c -0.0000,100.4154 81.4028,181.8182 181.8182 181.8182c 100.4154,0.0000 181.8182,-81.4028 181.8182 -181.8182Z"/></g><g stroke-linejoin="miter" stroke-opacity="1.0" fill-opacity="1.0" stroke="rgb(0,0,0)" stroke-width="0.0" fill="rgb(255,0,0)" stroke-linecap="butt" stroke-miterlimit="10.0"><path d="M 345.4545,200.0000 c 0.0000,-80.3323 -65.1222,-145.4545 -145.4545 -145.4545c -80.3323,-0.0000 -145.4545,65.1222 -145.4545 145.4545c -0.0000,80.3323 65.1222,145.4545 145.4545 145.4545c 80.3323,0.0000 145.4545,-65.1222 145.4545 -145.4545Z"/></g></svg>